<?xml version="1.0" standalone="no"?>
<!DOCTYPE svg PUBLIC "-//W3C//DTD SVG 1.1//EN" "http://www.w3.org/Graphics/SVG/1.1/DTD/svg11.dtd" >
<svg xmlns="http://www.w3.org/2000/svg" xmlns:xlink="http://www.w3.org/1999/xlink" version="1.1">
<metadata>
Created by FontForge 20190801 at Wed Mar 14 11:26:16 2018
 By www-data
(c) 2018 Connary Fagen
</metadata>
<defs>
<font id="ArticulatCFBold" horiz-adv-x="585" >
  <font-face 
    font-family="ArticulatCFBold"
    font-weight="700"
    font-stretch="normal"
    units-per-em="1000"
    panose-1="0 0 8 0 0 0 0 0 0 0"
    ascent="800"
    descent="-200"
    x-height="520"
    cap-height="700"
    bbox="-176 -374 1049 959"
    underline-thickness="50"
    underline-position="-100"
    unicode-range="U+0020-FB02"
  />
<missing-glyph horiz-adv-x="510" 
d="M418 800v-1020h-323v1020h323zM340 732h-169v-34h67v-38h-68v-33h170v33h-68v38h68v34zM272 600h-102v-106h170v35h-68v71zM238 565v-36h-34v36h34zM340 466h-170v-33h68v-38h-68v-34h102v72h68v33zM340 405h-34v-67h-136v-35h170v102zM340 281h-102v-57h34v23h34v-48
h-102v82h-34v-115h170v115zM340 104h-170v-115h170v115zM306 71v-48h-102v48h102zM340 -34h-170v-34h72l-72 -48v-34h170v34h-104l71 48h33v34z" />
    <glyph glyph-name="fi" unicode="fi" horiz-adv-x="602" 
d="M94 541q0 47 11.5 81t27.5 52t41.5 28t45 12t45.5 2q46 0 77 -11v-106q-25 5 -41 5q-35 0 -48 -15t-13 -51v-18h99v-114h-99v-406h-146v406h-74v114h74v21zM404 709h146v-111h-146v111zM404 0v520h146v-520h-146z" />
    <glyph glyph-name="fl" unicode="fl" horiz-adv-x="602" 
d="M94 541q0 47 11.5 81t27.5 52t41.5 28t45 12t45.5 2q46 0 77 -11v-106q-25 5 -41 5q-35 0 -48 -15t-13 -51v-18h99v-114h-99v-406h-146v406h-74v114h74v21zM404 706h146v-706h-146v706z" />
    <glyph glyph-name=".notdef" horiz-adv-x="510" 
d="M418 800v-1020h-323v1020h323zM340 732h-169v-34h67v-38h-68v-33h170v33h-68v38h68v34zM272 600h-102v-106h170v35h-68v71zM238 565v-36h-34v36h34zM340 466h-170v-33h68v-38h-68v-34h102v72h68v33zM340 405h-34v-67h-136v-35h170v102zM340 281h-102v-57h34v23h34v-48
h-102v82h-34v-115h170v115zM340 104h-170v-115h170v115zM306 71v-48h-102v48h102zM340 -34h-170v-34h72l-72 -48v-34h170v34h-104l71 48h33v34z" />
    <glyph glyph-name=".null" horiz-adv-x="0" 
 />
    <glyph glyph-name="nonmarkingreturn" horiz-adv-x="333" 
 />
    <glyph glyph-name="space" unicode=" " horiz-adv-x="267" 
 />
    <glyph glyph-name="exclam" unicode="!" horiz-adv-x="262" 
d="M201 235h-141l-3 465h148zM52 166h158v-166h-158v166z" />
    <glyph glyph-name="quotedbl" unicode="&#x22;" horiz-adv-x="456" 
d="M40 406h140v294h-140v-294zM276 406h140v294h-140v-294z" />
    <glyph glyph-name="numbersign" unicode="#" horiz-adv-x="604" 
d="M559 414h-98l-12 -128h83v-115h-95l-17 -171h-110l17 171h-87l-17 -171h-110l17 171h-85v115h97l12 128h-82v115h94l17 171h110l-17 -171h87l17 171h110l-17 -171h86v-115zM339 286l12 128h-87l-12 -128h87z" />
    <glyph glyph-name="dollar" unicode="$" horiz-adv-x="627" 
d="M590 202q0 -93 -68 -148t-177 -62v-82h-59v82q-111 7 -176.5 68.5t-71.5 168.5h151q18 -96 97 -110v180l-34 7q-95 19 -147 64.5t-52 136.5q0 87 63.5 142t169.5 60v81h59v-83q99 -9 159 -63.5t68 -149.5h-151q-9 70 -76 85v-166l33 -7q115 -24 163.5 -70.5t48.5 -133.5z
M274 428l12 -3v157q-40 -5 -61.5 -29t-21.5 -50q0 -61 71 -75zM345 119q43 7 68 30.5t25 54.5q0 37 -21.5 55.5t-71.5 28.5v-169z" />
    <glyph glyph-name="percent" unicode="%" horiz-adv-x="741" 
d="M187 373q-64 0 -103 42t-39 124t39 124t103 42t103 -42t39 -124t-39 -124t-103 -42zM111 0l412 703l105 -3l-410 -700h-107zM187 466q20 0 30.5 15.5t10.5 57.5t-10.5 57.5t-30.5 15.5q-42 0 -42 -73t42 -73zM554 -5q-64 0 -103 42t-39 124t39 124t103 42t103 -42
t39 -124t-39 -124t-103 -42zM554 88q42 0 42 73t-42 73q-20 0 -30.5 -15.5t-10.5 -57.5t10.5 -57.5t30.5 -15.5z" />
    <glyph glyph-name="ampersand" unicode="&#x26;" horiz-adv-x="725" 
d="M698 0h-162l-43 46q-80 -58 -188 -58q-111 0 -189.5 56t-78.5 156q0 37 13 67t38 52t46 35t51 28q-73 89 -73 161q0 73 48.5 122t147.5 49q96 0 144 -49t48 -122q0 -110 -135 -183l118 -127q30 61 31 135h132q-11 -140 -71 -235zM308 607q-36 0 -55.5 -19.5t-19.5 -47.5
q0 -22 13 -43t47 -59q85 46 85 102q0 28 -18.5 47.5t-51.5 19.5zM306 113q52 0 97 30l-146 157q-62 -41 -62 -97q0 -38 31 -64t80 -26z" />
    <glyph glyph-name="quotesingle" unicode="'" horiz-adv-x="220" 
d="M40 406h140v294h-140v-294z" />
    <glyph glyph-name="parenleft" unicode="(" horiz-adv-x="343" 
d="M151 745h141q-101 -183 -101 -425q0 -256 101 -450h-141q-106 189 -106 450q0 248 106 425z" />
    <glyph glyph-name="parenright" unicode=")" horiz-adv-x="343" 
d="M186 745q106 -177 106 -425q0 -261 -106 -450h-141q101 194 101 450q0 242 -101 425h141z" />
    <glyph glyph-name="asterisk" unicode="*" horiz-adv-x="532" 
d="M457 544l-94 -26l66 -87l-104 -64l-59 83l-59 -83l-104 64l65 87l-93 26l29 120l105 -31l-3 112h117l-1 -112l106 31z" />
    <glyph glyph-name="plus" unicode="+" horiz-adv-x="591" 
d="M546 345v-126h-184v-183h-134v183h-183v126h183v182h134v-182h184z" />
    <glyph glyph-name="comma" unicode="," horiz-adv-x="258" 
d="M50 -167v45q61 12 61 90v32h-61v166h158v-158q0 -46 -9.5 -79t-24 -51t-36.5 -28.5t-42 -13.5t-46 -3z" />
    <glyph glyph-name="hyphen" unicode="-" horiz-adv-x="388" 
d="M40 331h308v-110h-308v110z" />
    <glyph glyph-name="period" unicode="." horiz-adv-x="258" 
d="M50 166h158v-166h-158v166z" />
    <glyph glyph-name="slash" unicode="/" horiz-adv-x="479" 
d="M449 700l-272 -698h-147l273 698h146z" />
    <glyph glyph-name="zero" unicode="0" horiz-adv-x="640" 
d="M320 709q54 0 102.5 -19.5t90 -60t66 -112.5t24.5 -167q0 -96 -24.5 -168t-66 -112t-89.5 -59.5t-103 -19.5q-54 0 -102 19.5t-90 59.5t-66.5 112t-24.5 168q0 95 24.5 167t66.5 112.5t90 60t102 19.5zM457 350q0 234 -137 234t-137 -234t137 -234t137 234z" />
    <glyph glyph-name="one" unicode="1" horiz-adv-x="397" 
d="M330 700v-700h-146v522q-49 -52 -152 -52v120q121 14 152 110h146z" />
    <glyph glyph-name="two" unicode="2" horiz-adv-x="574" 
d="M40 0v17q0 113 40.5 183.5t157.5 138.5q9 5 36 20.5t36 21t27.5 20t25.5 26t14 29t7 38.5q0 49 -29 70.5t-69 21.5q-41 0 -71.5 -25.5t-30.5 -85.5v-13h-139v13q0 106 60 169t181 63q119 0 181.5 -60.5t62.5 -152.5q0 -30 -5.5 -54.5t-19.5 -46t-25 -35.5t-37 -32
t-39.5 -26t-48 -27t-47.5 -27q-109 -61 -109 -124v-4h330v-118h-489z" />
    <glyph glyph-name="three" unicode="3" horiz-adv-x="610" 
d="M422 371q20 -2 43.5 -11.5t48 -28t40.5 -52t16 -75.5q0 -97 -71 -156.5t-198 -59.5q-124 0 -195.5 68t-70.5 178h136q3 -62 41 -91.5t90 -29.5q47 0 84.5 23.5t37.5 75.5q0 43 -35.5 73t-109.5 30h-34v96h34q47 0 75.5 17t36 36t7.5 40q0 39 -29 59.5t-70 20.5
q-104 0 -107 -108h-136q0 110 64.5 171.5t176.5 61.5q107 0 174 -54.5t67 -132.5q0 -62 -35.5 -100.5t-80.5 -50.5z" />
    <glyph glyph-name="four" unicode="4" horiz-adv-x="599" 
d="M564 164h-80v-164h-146v164h-303v117l303 419h146v-419h80v-117zM338 281v243l-176 -243h176z" />
    <glyph glyph-name="five" unicode="5" horiz-adv-x="603" 
d="M336 484q101 0 168 -66t67 -177q0 -119 -73 -185t-198 -66q-119 0 -188 65t-67 169h132q2 -60 39 -88.5t84 -28.5q49 0 87.5 29.5t38.5 104.5q0 38 -13.5 65.5t-34.5 40.5t-39 18.5t-34 5.5q-74 0 -113 -59h-132l54 388h391v-116h-293l-22 -156q6 8 18 18t48.5 24
t79.5 14z" />
    <glyph glyph-name="six" unicode="6" horiz-adv-x="601" 
d="M338 457q26 0 54 -6t59.5 -22t56 -40.5t40.5 -64.5t16 -91q0 -67 -24.5 -116.5t-64 -75.5t-81.5 -38t-86 -12q-117 0 -191.5 85.5t-74.5 268.5q0 168 66 266t203 98q115 0 174 -59.5t64 -135.5h-129q-8 43 -40 64t-67 21q-44 0 -73.5 -23.5t-41 -62.5t-15 -66t-3.5 -56
q7 19 49.5 42.5t108.5 23.5zM311 109q43 0 77 30t34 96q0 63 -36.5 92t-77.5 29t-76 -28t-35 -89q0 -38 12 -65t31 -40.5t36.5 -19t34.5 -5.5z" />
    <glyph glyph-name="seven" unicode="7" horiz-adv-x="512" 
d="M477 700v-120q-189 -287 -225 -580h-150q42 296 239 580h-311v120h447z" />
    <glyph glyph-name="eight" unicode="8" horiz-adv-x="598" 
d="M446 396q57 -25 88.5 -70.5t31.5 -105.5q0 -108 -77 -169t-190 -61t-190 61t-77 169q0 60 31.5 105.5t88.5 70.5q-74 53 -74 134q0 77 59.5 127t161.5 50t161.5 -50t59.5 -127q0 -81 -74 -134zM299 607q-44 0 -68 -23.5t-24 -61.5q0 -39 23.5 -64t68.5 -25t69 25t24 64
q0 38 -24.5 61.5t-68.5 23.5zM299 108q60 0 89.5 34t29.5 85q0 55 -34 85.5t-85 30.5t-85 -30.5t-34 -85.5q0 -51 29.5 -85t89.5 -34z" />
    <glyph glyph-name="nine" unicode="9" horiz-adv-x="596" 
d="M258 243q-26 0 -54 6t-59.5 22t-56 40.5t-40.5 64.5t-16 91q0 67 24.5 116.5t64.5 75.5t81.5 38t85.5 12q117 0 191.5 -85.5t74.5 -268.5q0 -168 -66 -266t-203 -98q-115 0 -174 59.5t-63 135.5h128q9 -43 41 -64t67 -21q44 0 73.5 24t40.5 62t15 66t3 56
q-7 -19 -49.5 -42.5t-108.5 -23.5zM285 591q-43 0 -77 -30t-34 -96q0 -63 36.5 -92t77.5 -29q42 0 77 28t35 89q0 38 -12 65t-31.5 40.5t-37 19t-34.5 5.5z" />
    <glyph glyph-name="colon" unicode=":" horiz-adv-x="298" 
d="M70 521h158v-166h-158v166zM70 166h158v-166h-158v166z" />
    <glyph glyph-name="semicolon" unicode=";" horiz-adv-x="298" 
d="M70 521h158v-166h-158v166zM70 -167v45q61 12 61 90v32h-61v166h158v-158q0 -46 -9.5 -79t-24 -51t-36.5 -28.5t-42 -13.5t-46 -3z" />
    <glyph glyph-name="less" unicode="&#x3c;" horiz-adv-x="507" 
d="M462 135l-284 107l284 105v136l-417 -179v-125l417 -179v135z" />
    <glyph glyph-name="equal" unicode="=" horiz-adv-x="480" 
d="M38 411h334v-110h-334v110zM38 251h334v-110h-334v110z" />
    <glyph glyph-name="greater" unicode="&#x3e;" horiz-adv-x="507" 
d="M45 135v-135l417 179v125l-417 179v-136l284 -105z" />
    <glyph glyph-name="question" unicode="?" horiz-adv-x="566" 
d="M290 707q-109 0 -178 -59t-67 -183h146q0 117 99 117q45 0 65 -23t20 -54q0 -23 -16 -42t-38.5 -35.5t-45 -36.5t-38.5 -55t-16 -82v-26h156v26q0 34 15 59t36 41t42 33.5t36 47t15 70.5q0 96 -64 149t-167 53zM220 166h158v-166h-158v166z" />
    <glyph glyph-name="at" unicode="@" horiz-adv-x="762" 
d="M443 506h94v-166q0 -70 44 -70q46 0 46 86q0 112 -69.5 183t-179.5 71q-103 0 -173.5 -71t-70.5 -194q0 -114 72 -184.5t172 -70.5q94 0 146 48l114 -28q-39 -54 -108.5 -85.5t-151.5 -31.5q-136 0 -238.5 97.5t-102.5 254.5q0 110 50 194.5t126.5 126t164.5 41.5
q142 0 244.5 -99.5t102.5 -251.5q0 -86 -42.5 -134t-101.5 -48q-81 0 -111 76q-6 -22 -37 -49.5t-76 -27.5q-56 0 -102 44.5t-46 126.5q0 81 45.5 125.5t99.5 44.5q26 0 50.5 -13t38.5 -33v38zM369 268q34 0 49 24t15 52q0 27 -15 50.5t-49 23.5q-31 0 -46 -24.5t-15 -49.5
q0 -24 15 -50t46 -26z" />
    <glyph glyph-name="A" unicode="A" horiz-adv-x="722" 
d="M536 0l-45 131h-259l-45 -131h-165l271 700h137l270 -700h-164zM270 243h183l-92 268z" />
    <glyph glyph-name="B" unicode="B" horiz-adv-x="663" 
d="M488 385q61 -18 97 -67.5t36 -109.5q0 -99 -67.5 -153.5t-201.5 -54.5h-300v700h289q115 0 174.5 -48.5t59.5 -132.5q0 -46 -25 -81.5t-62 -52.5zM205 574v-147h134q36 0 56 22t20 55q0 35 -21 52.5t-51 17.5h-138zM347 126q57 0 83.5 25t26.5 64t-24.5 67.5t-80.5 28.5
h-147v-185h142z" />
    <glyph glyph-name="C" unicode="C" horiz-adv-x="681" 
d="M363 123q55 0 86 24t50 77h152q-12 -113 -93.5 -173t-197.5 -60q-147 0 -235 94t-88 265t88 265t235 94q115 0 196 -60t93 -172h-151q-20 53 -50 76.5t-85 23.5q-79 0 -122.5 -60.5t-43.5 -166.5t43.5 -166.5t122.5 -60.5z" />
    <glyph glyph-name="D" unicode="D" horiz-adv-x="688" 
d="M318 700q167 0 252.5 -90t85.5 -260t-85.5 -260t-252.5 -90h-266v700h266zM304 132q110 0 154.5 50.5t44.5 167.5t-44.5 167.5t-154.5 50.5h-99v-436h99z" />
    <glyph glyph-name="E" unicode="E" horiz-adv-x="583" 
d="M205 132h348v-132h-501v700h491v-132h-338v-152h288v-122h-288v-162z" />
    <glyph glyph-name="F" unicode="F" horiz-adv-x="545" 
d="M515 568h-310v-161h256v-123h-256v-284h-153v700h463v-132z" />
    <glyph glyph-name="G" unicode="G" horiz-adv-x="712" 
d="M670 384v-47q0 -173 -72 -259.5t-229 -86.5q-153 0 -242.5 94t-89.5 265q0 170 88.5 264.5t234.5 94.5q109 0 189.5 -56.5t97.5 -160.5h-151q-21 44 -52 64.5t-81 20.5q-79 0 -122.5 -60.5t-43.5 -166.5q0 -105 44 -166t128 -61q75 0 115 33t47 109h-145v119h284z" />
    <glyph glyph-name="H" unicode="H" horiz-adv-x="678" 
d="M473 700h153v-700h-153v288h-268v-288h-153v700h153v-288h268v288z" />
    <glyph glyph-name="I" unicode="I" horiz-adv-x="257" 
d="M205 0h-153v700h153v-700z" />
    <glyph glyph-name="J" unicode="J" horiz-adv-x="526" 
d="M97 181q54 -56 127 -56q103 0 103 122v453h152v-460q0 -126 -71 -186.5t-182 -60.5q-130 0 -209 93z" />
    <glyph glyph-name="K" unicode="K" horiz-adv-x="705" 
d="M389 385l296 -385h-169l-213 276v8l-98 -115v-169h-153v700h153v-325l278 325h175z" />
    <glyph glyph-name="L" unicode="L" horiz-adv-x="551" 
d="M205 132h319v-132h-472v700h153v-568z" />
    <glyph glyph-name="M" unicode="M" horiz-adv-x="849" 
d="M52 700h177l195 -497l196 497h177v-700h-153v443h-5l-159 -443h-112l-158 443h-5v-443h-153v700z" />
    <glyph glyph-name="N" unicode="N" horiz-adv-x="695" 
d="M643 700v-700h-161l-274 446h-3v-446h-153v700h155l280 -455h3v455h153z" />
    <glyph glyph-name="O" unicode="O" horiz-adv-x="739" 
d="M370 709q152 0 242 -95t90 -264q0 -167 -90 -263t-242 -96t-242.5 96t-90.5 263q0 168 90.5 263.5t242.5 95.5zM370 123q82 0 127 60.5t45 166.5q0 107 -45 167t-127 60q-83 0 -128 -60t-45 -167q0 -106 45.5 -166.5t127.5 -60.5z" />
    <glyph glyph-name="P" unicode="P" horiz-adv-x="629" 
d="M333 700q135 0 202 -65t67 -178q0 -112 -67 -177.5t-202 -65.5h-128v-214h-153v700h281zM331 346q53 0 81 29.5t28 81.5q0 53 -28 82t-81 29h-126v-222h126z" />
    <glyph glyph-name="Q" unicode="Q" horiz-adv-x="730" 
d="M702 350q0 -143 -67 -236l50 -51l-91 -86l-54 54q-74 -40 -170 -40q-152 0 -242.5 96t-90.5 263q0 168 90.5 263.5t242.5 95.5t242 -95t90 -264zM370 123q38 0 67 13l-97 98l91 86l91 -92q20 52 20 122q0 107 -45 167t-127 60q-83 0 -128 -60t-45 -167
q0 -106 45.5 -166.5t127.5 -60.5z" />
    <glyph glyph-name="R" unicode="R" horiz-adv-x="669" 
d="M622 117q0 -82 20 -117h-153q-20 38 -20 117v47q0 41 -26 65.5t-71 24.5h-167v-254h-153v700h302q131 0 196 -58t65 -153q0 -106 -97 -166q56 -26 80 -62.5t24 -91.5v-52zM348 374q59 0 84 24.5t25 76.5q0 93 -106 93h-146v-194h143z" />
    <glyph glyph-name="S" unicode="S" horiz-adv-x="649" 
d="M391 406q120 -24 170.5 -70.5t50.5 -133.5q0 -100 -81 -155.5t-206 -55.5q-129 0 -205 62t-83 176h158q20 -112 132 -112q57 0 92 25t35 62t-23.5 56t-78.5 29l-92 17q-99 19 -153 64.5t-54 136.5t71.5 146.5t189.5 55.5q121 0 195.5 -55t83.5 -160h-157q-12 89 -122 89
q-51 0 -78 -25.5t-27 -54.5q0 -61 74 -75z" />
    <glyph glyph-name="T" unicode="T" horiz-adv-x="600" 
d="M578 700v-132h-201v-568h-153v568h-202v132h556z" />
    <glyph glyph-name="U" unicode="U" horiz-adv-x="681" 
d="M629 271q0 -132 -79 -206t-209 -74q-132 0 -210.5 73.5t-78.5 206.5v429h153v-423q0 -77 35.5 -115.5t100.5 -38.5t100 38.5t35 115.5v423h153v-429z" />
    <glyph glyph-name="V" unicode="V" horiz-adv-x="712" 
d="M532 700h163l-270 -700h-137l-271 700h163l176 -511z" />
    <glyph glyph-name="W" unicode="W" horiz-adv-x="1029" 
d="M847 700h160l-201 -700h-141l-151 466l-151 -466h-140l-201 700h160l120 -468l139 468h147l139 -468z" />
    <glyph glyph-name="X" unicode="X" horiz-adv-x="678" 
d="M661 0h-171l-151 230l-151 -230h-171l237 361l-223 339h171l137 -209l137 209h171l-222 -339z" />
    <glyph glyph-name="Y" unicode="Y" horiz-adv-x="705" 
d="M431 257v-257h-157v257l-252 443h172l158 -296l159 296h172z" />
    <glyph glyph-name="Z" unicode="Z" horiz-adv-x="622" 
d="M582 132v-132h-542v116l361 452h-352v132h529l1 -116l-363 -452h366z" />
    <glyph glyph-name="bracketleft" unicode="[" horiz-adv-x="324" 
d="M198 620v-625h74v-125h-220v875h220v-125h-74z" />
    <glyph glyph-name="backslash" unicode="\" horiz-adv-x="479" 
d="M30 700h146l273 -698h-147z" />
    <glyph glyph-name="bracketright" unicode="]" horiz-adv-x="324" 
d="M126 620h-74v125h220v-875h-220v125h74v625z" />
    <glyph glyph-name="asciicircum" unicode="^" horiz-adv-x="502" 
d="M346 465l-95 139l-95 -139h-111l163 235h86l163 -235h-111z" />
    <glyph glyph-name="underscore" unicode="_" horiz-adv-x="590" 
d="M45 0h500v-125h-500v125z" />
    <glyph glyph-name="grave" unicode="`" horiz-adv-x="237" 
d="M237 581l-80 128h-160l117 -128h123z" />
    <glyph glyph-name="a" unicode="a" horiz-adv-x="560" 
d="M505 135q0 -44 38 -47v-83q-20 -9 -53 -9q-51 0 -83 21.5t-32 61.5v4q-55 -90 -171 -90q-75 0 -126 39.5t-51 120.5q0 34 12 60t27.5 41t45 26.5t50.5 16t57 11.5q14 3 40.5 7.5t41 7t31.5 7.5t27 11v1q0 76 -82 76q-74 0 -83 -58h-138q15 165 222 165q122 0 174.5 -51
t52.5 -167v-172zM359 164v92q-13 -7 -29 -12t-24.5 -7.5t-33.5 -7.5t-31 -6q-36 -9 -52 -24t-16 -40q0 -26 18 -44t53 -18q31 0 58 14t38.5 27t18.5 26z" />
    <glyph glyph-name="b" unicode="b" horiz-adv-x="596" 
d="M340 525q38 0 76.5 -15t73.5 -45t57 -83.5t22 -121.5q0 -69 -22 -123t-58 -84t-74.5 -45t-77.5 -15q-28 0 -52.5 8t-40 19t-26.5 23.5t-15.5 22t-4.5 13.5v-79h-146v706h146v-252q15 27 53.5 49t88.5 22zM308 111q53 0 86.5 37.5t33.5 111.5t-33 110.5t-87 36.5
q-51 0 -83.5 -37.5t-32.5 -109.5q0 -73 32.5 -111t83.5 -38z" />
    <glyph glyph-name="c" unicode="c" horiz-adv-x="543" 
d="M284 111q77 0 98 75h131q-9 -55 -33 -95t-58 -60t-68 -29t-71 -9q-47 0 -90.5 14.5t-81.5 44.5t-61 83.5t-23 123.5q0 56 15 102t40 76t59 50.5t69 29t72 8.5q38 0 71.5 -8.5t66 -28t56 -58.5t33.5 -93h-134q-17 70 -92 70q-54 0 -84.5 -38.5t-30.5 -109.5
q0 -72 30.5 -110t85.5 -38z" />
    <glyph glyph-name="d" unicode="d" horiz-adv-x="596" 
d="M256 525q50 0 88.5 -22t53.5 -49v252h146v-706h-146v79q0 -4 -4.5 -13.5t-15.5 -22t-26.5 -23.5t-40 -19t-52.5 -8q-39 0 -77.5 15t-74.5 45t-58 84t-22 123q0 68 22 121.5t57 83.5t73.5 45t76.5 15zM288 111q51 0 83.5 38t32.5 111q0 72 -32.5 109.5t-83.5 37.5
q-54 0 -87 -36.5t-33 -110.5t33.5 -111.5t86.5 -37.5z" />
    <glyph glyph-name="e" unicode="e" horiz-adv-x="559" 
d="M532 241q0 -18 -1 -27h-363q8 -59 38.5 -86t84.5 -27q76 0 100 48h127q-45 -156 -235 -156q-47 0 -90.5 15t-81.5 45t-61 83t-23 121q0 70 23 123.5t61 84t82 45.5t91 15q51 0 93.5 -15.5t78.5 -47.5t56 -88.5t20 -132.5zM169 304h224q-2 52 -30 82.5t-79 30.5
q-99 0 -115 -113z" />
    <glyph glyph-name="f" unicode="f" horiz-adv-x="362" 
d="M301 604q-35 0 -48 -15t-13 -51v-18h99v-114h-99v-406h-146v406h-74v114h74v21q0 47 11.5 81t27.5 52t41.5 28t45 12t45.5 2q46 0 77 -11v-106q-25 5 -41 5z" />
    <glyph glyph-name="g" unicode="g" horiz-adv-x="592" 
d="M394 523h146v-509q0 -56 -17.5 -99.5t-44 -68t-62.5 -40.5t-68 -21t-65 -5q-82 0 -143 31t-88 84l90 57q48 -53 127 -53q66 0 95.5 27t29.5 88v65q0 -4 -4.5 -13.5t-16 -22t-26.5 -23.5t-40 -18.5t-53 -7.5q-37 0 -75 15t-73 44.5t-57 83.5t-22 123q0 68 22 121.5
t56.5 83.5t72 45t74.5 15q50 0 88 -22t54 -49v69zM286 112q51 0 82.5 37.5t31.5 110.5q0 72 -31.5 109.5t-82.5 37.5q-50 0 -82 -37t-32 -110q0 -74 32 -111t82 -37z" />
    <glyph glyph-name="h" unicode="h" horiz-adv-x="602" 
d="M365 525q185 0 185 -212v-313h-146v305q0 51 -25.5 75t-67.5 24q-49 0 -78.5 -32t-34.5 -65v-307h-146v706h146v-289q15 37 59 72.5t108 35.5z" />
    <glyph glyph-name="i" unicode="i" horiz-adv-x="250" 
d="M52 709h146v-111h-146v111zM52 520h146v-520h-146v520z" />
    <glyph glyph-name="j" unicode="j" horiz-adv-x="259" 
d="M61 709h146v-111h-146v111zM-62 -84q44 -12 68 -12q55 0 55 63v553h146v-577q0 -82 -42.5 -122.5t-119.5 -40.5q-65 0 -107 18v118z" />
    <glyph glyph-name="k" unicode="k" horiz-adv-x="581" 
d="M415 0l-171 208l-46 -47v-161h-146v706h146v-378l182 192h165l-211 -219l240 -301h-159z" />
    <glyph glyph-name="l" unicode="l" horiz-adv-x="250" 
d="M52 706h146v-706h-146v706z" />
    <glyph glyph-name="m" unicode="m" horiz-adv-x="923" 
d="M692 525q80 0 129.5 -53.5t49.5 -168.5v-303h-146v300q0 53 -23.5 78.5t-62.5 25.5q-48 0 -76.5 -32.5t-28.5 -59.5v-312h-146v300q0 53 -24 78.5t-61 25.5q-48 0 -75 -31.5t-30 -66.5v-306h-146v520h146v-103q15 38 55.5 73t103.5 35q127 0 163 -112q19 43 66 77.5
t106 34.5z" />
    <glyph glyph-name="n" unicode="n" horiz-adv-x="602" 
d="M365 525q185 0 185 -212v-313h-146v305q0 51 -25.5 75t-67.5 24q-49 0 -78.5 -32t-34.5 -65v-307h-146v520h146v-103q15 37 59 72.5t108 35.5z" />
    <glyph glyph-name="o" unicode="o" horiz-adv-x="570" 
d="M285 525q44 0 87 -15t82.5 -45t64 -84t24.5 -123q0 -68 -24.5 -121.5t-63.5 -83.5t-82.5 -45t-87.5 -15t-87.5 15t-82.5 45t-63.5 83.5t-24.5 121.5q0 69 24.5 123t64 84t82.5 45t87 15zM403 258q0 75 -33.5 112t-84.5 37t-84.5 -37t-33.5 -112q0 -72 34 -109.5t84 -37.5
t84 37.5t34 109.5z" />
    <glyph glyph-name="p" unicode="p" horiz-adv-x="596" 
d="M340 525q36 0 74.5 -15t74 -45t58 -83.5t22.5 -121.5q0 -69 -22.5 -123t-58.5 -84t-74.5 -45t-76.5 -15q-28 0 -52.5 7t-40 16.5t-26.5 20.5t-15.5 18.5t-4.5 11.5v-257h-146v710h146v-65q15 26 53.5 48t88.5 22zM307 111q52 0 86.5 37.5t34.5 111.5q0 73 -34.5 110
t-86.5 37q-51 0 -83 -37.5t-32 -109.5q0 -73 32 -111t83 -38z" />
    <glyph glyph-name="q" unicode="q" horiz-adv-x="596" 
d="M256 525q50 0 88.5 -22t53.5 -48v65h146v-710h-146v257q0 -4 -4.5 -11.5t-15.5 -18.5t-26.5 -20.5t-40 -16.5t-52.5 -7q-38 0 -76.5 15t-74.5 45t-58.5 84t-22.5 123q0 68 22.5 121.5t58 83.5t74 45t74.5 15zM289 111q51 0 83 38t32 111q0 72 -32 109.5t-83 37.5
q-52 0 -86.5 -37t-34.5 -110q0 -74 34.5 -111.5t86.5 -37.5z" />
    <glyph glyph-name="r" unicode="r" horiz-adv-x="420" 
d="M353 525q25 0 45 -4v-128q-20 1 -34 1q-146 0 -166 -117v-277h-146v520h146v-115q12 55 51.5 87.5t103.5 32.5z" />
    <glyph glyph-name="s" unicode="s" horiz-adv-x="505" 
d="M341 359q-16 58 -89 58q-35 0 -56 -13.5t-21 -37.5q0 -37 55 -49l93 -21q32 -7 45 -10.5t37 -11.5t34 -16.5t22.5 -23t17 -34.5t4.5 -46q0 -79 -63.5 -120t-167.5 -41q-101 0 -160 44t-70 129h134q16 -65 97 -65q84 0 84 55q0 20 -12.5 30.5t-42.5 16.5l-84 18
q-85 19 -122 56t-37 93q0 73 56 114t156 41q192 0 221 -166h-131z" />
    <glyph glyph-name="t" unicode="t" horiz-adv-x="381" 
d="M300 107q23 0 54 7v-105q-37 -15 -95 -15q-77 0 -119 31.5t-42 118.5v262h-86v114h86v130h146v-130h105v-114h-105v-246q0 -53 56 -53z" />
    <glyph glyph-name="u" unicode="u" horiz-adv-x="597" 
d="M399 520h146v-520h-146v102q-16 -38 -59.5 -73.5t-107.5 -35.5q-185 0 -185 213v314h146v-306q0 -51 25.5 -75.5t68.5 -24.5q49 0 78 32.5t34 65.5v308z" />
    <glyph glyph-name="v" unicode="v" horiz-adv-x="595" 
d="M378 0h-161l-200 520h146l135 -374l134 374h146z" />
    <glyph glyph-name="w" unicode="w" horiz-adv-x="814" 
d="M797 520l-147 -520h-124l-119 347l-118 -347h-125l-147 520h147l82 -335l103 335h116l103 -335l82 335h147z" />
    <glyph glyph-name="x" unicode="x" horiz-adv-x="580" 
d="M558 0h-159l-109 166l-109 -166h-159l187 271l-171 249h159l93 -143l93 143h159l-171 -249z" />
    <glyph glyph-name="y" unicode="y" horiz-adv-x="577" 
d="M412 520h148l-213 -518q-49 -122 -108 -165t-164 -33v123q44 -5 73.5 5.5t41 24.5t21.5 37q10 22 -7 64l-187 462h151l119 -336z" />
    <glyph glyph-name="z" unicode="z" horiz-adv-x="510" 
d="M214 122h256v-122h-430v122l255 276h-245v122h420v-122z" />
    <glyph glyph-name="braceleft" unicode="{" horiz-adv-x="351" 
d="M236 374l-56 -68l56 -66v-215q0 -30 35 -30h35v-125h-103q-45 0 -79 24.5t-34 88.5v252l-45 71l45 73v253q0 64 34.5 88.5t78.5 24.5h103v-125h-35q-35 0 -35 -30v-216z" />
    <glyph glyph-name="bar" unicode="|" horiz-adv-x="275" 
d="M75 800h125v-990h-125v990z" />
    <glyph glyph-name="braceright" unicode="}" horiz-adv-x="351" 
d="M115 374v216q0 30 -35 30h-35v125h103q44 0 78.5 -24.5t34.5 -88.5v-253l45 -73l-45 -71v-252q0 -64 -34 -88.5t-79 -24.5h-103v125h35q35 0 35 30v215l56 66z" />
    <glyph glyph-name="asciitilde" unicode="~" horiz-adv-x="533" 
d="M423 327h60q0 -59 -33.5 -98t-94.5 -39q-42 0 -103.5 41t-99.5 41q-17 0 -30 -9t-12 -23h-60q0 60 33.5 98.5t94.5 38.5q42 0 103.5 -41t99.5 -41q17 0 30 9t12 23z" />
    <glyph glyph-name="exclamdown" unicode="&#xa1;" horiz-adv-x="268" 
d="M52 354v166h158v-166h-158zM201 285l4 -465h-148l3 465h141z" />
    <glyph glyph-name="cent" unicode="&#xa2;" horiz-adv-x="543" 
d="M513 257q-16 -95 -72.5 -138.5t-131.5 -49.5v-109h-53v109q-96 9 -162.5 73t-66.5 187t67 187t162 73v111h53v-111q170 -14 200 -184h-134q-13 57 -66 67v-286q56 10 73 71h131zM168 329q0 -123 88 -142v284q-42 -8 -65 -45t-23 -97z" />
    <glyph glyph-name="sterling" unicode="&#xa3;" horiz-adv-x="583" 
d="M538 480h-138v18q0 31 -22.5 57.5t-76.5 26.5q-55 0 -79 -27t-24 -64q0 -10 1.5 -19.5t5 -20t6 -17t8.5 -18t8.5 -16t10.5 -17.5t10 -16h113v-79h-80q1 -4 1 -12q0 -54 -21 -87t-77 -74q40 16 83.5 15.5t78 -9t84 -9.5t102.5 13v-125q-61 -13 -118.5 -9t-99.5 16
t-94.5 10t-103.5 -27l-70 87q97 84 97 164q0 27 -7 47h-91v79h51q-40 70 -40 131q0 94 69.5 151.5t175.5 57.5q99 0 168 -56.5t69 -152.5v-18z" />
    <glyph glyph-name="currency" unicode="&#xa4;" horiz-adv-x="601" 
d="M522 476q0 -48 -18 -88l48 -48l-93 -92l-40 40q-55 -36 -121 -36t-119 34l-38 -38l-92 92l44 44q-19 44 -19 92q0 49 21 96l-46 46l92 92l42 -42q52 32 115 32q65 0 118 -33l43 43l93 -92l-50 -50q20 -43 20 -92zM298 371q56 0 81 35t25 70q0 34 -25 69.5t-81 35.5
t-80.5 -35.5t-24.5 -69.5q0 -35 24.5 -70t80.5 -35z" />
    <glyph glyph-name="yen" unicode="&#xa5;" horiz-adv-x="705" 
d="M683 700l-249 -438h116v-85h-119v-32h119v-85h-119v-60h-157v60h-116v85h116v32h-116v85h113l-249 438h172l158 -296l159 296h172z" />
    <glyph glyph-name="brokenbar" unicode="&#xa6;" horiz-adv-x="275" 
d="M75 800h125v-280h-125v280zM75 90h125v-280h-125v280z" />
    <glyph glyph-name="section" unicode="&#xa7;" horiz-adv-x="694" 
d="M644 197q0 -66 -40 -114q30 -43 30 -111q0 -105 -82 -156.5t-209 -51.5q-130 0 -207 59.5t-86 172.5h163q15 -96 131 -96q60 0 93 19.5t33 54.5q0 38 -22 56t-77 31l-90 20q-49 12 -83 25.5t-65.5 36t-47 58t-15.5 83.5q0 68 42 118q-32 43 -32 110q0 91 73 143.5
t194 52.5q117 0 191 -52.5t86 -156.5h-163q-10 73 -114 73q-53 0 -78 -18.5t-25 -45.5q0 -25 15 -42t55 -27l106 -25q120 -27 172 -77t52 -140zM304 211l106 -25q29 -6 63 -17q7 13 7 30q0 39 -22.5 58.5t-76.5 31.5l-90 20q-18 4 -42 11q-15 -18 -15 -40q0 -25 15 -42
t55 -27z" />
    <glyph glyph-name="dieresis" unicode="&#xa8;" horiz-adv-x="383" 
d="M0 709h148v-110h-148v110zM234 709h149v-110h-149v110z" />
    <glyph glyph-name="copyright" unicode="&#xa9;" horiz-adv-x="788" 
d="M394 -7q-150 0 -253.5 101.5t-103.5 255.5q0 153 104 254.5t253 101.5t253 -101.5t104 -254.5q0 -154 -103.5 -255.5t-253.5 -101.5zM394 77q115 0 194 77t79 196q0 118 -79 195t-194 77t-194 -77t-79 -195q0 -119 79 -196t194 -77zM395 240q61 0 78 54h100
q-13 -53 -44.5 -87t-64.5 -45.5t-69 -11.5q-79 0 -136.5 54t-57.5 146t57.5 145.5t136.5 53.5q59 0 108.5 -33t68.5 -109h-101q-14 52 -76 52q-43 0 -69.5 -28t-26.5 -81t27 -81.5t69 -28.5z" />
    <glyph glyph-name="ordfeminine" unicode="&#xaa;" horiz-adv-x="374" 
d="M333 461q0 -48 24 -85h-81q-24 21 -24 54q-50 -56 -111 -56q-47 0 -80.5 24.5t-33.5 80.5q0 49 32.5 72.5t100.5 28.5l78 6q0 30 -14.5 41t-46.5 11q-49 0 -57 -31h-83q7 58 46.5 83.5t96.5 25.5q85 0 119 -38t34 -119v-98zM163 451q25 0 41.5 9.5t21 17.5t12.5 27v17
q-31 -4 -79 -7q-37 -4 -37 -31q0 -33 41 -33z" />
    <glyph glyph-name="guillemotleft" unicode="&#xab;" horiz-adv-x="463" 
d="M213 366l-84 -67l84 -68v-132l-173 140v119l173 140v-132zM423 366l-84 -67l84 -68v-132l-173 140v114l173 145v-132z" />
    <glyph glyph-name="logicalnot" unicode="&#xac;" horiz-adv-x="523" 
d="M478 312v-212h-146v100h-287v112h433z" />
    <glyph glyph-name="uni00AD" unicode="&#xad;" horiz-adv-x="388" 
d="M40 331h308v-110h-308v110z" />
    <glyph glyph-name="registered" unicode="&#xae;" horiz-adv-x="788" 
d="M394 -7q-150 0 -253.5 101.5t-103.5 255.5q0 153 104 254.5t253 101.5t253 -101.5t104 -254.5q0 -154 -103.5 -255.5t-253.5 -101.5zM394 77q115 0 194 77t79 196q0 118 -79 195t-194 77t-194 -77t-79 -195q0 -119 79 -196t194 -77zM536 222q0 -54 12 -68h-90
q-8 11 -8 73v19q0 54 -57 54h-55v-146h-82v392h148q131 0 131 -111q0 -75 -83 -99q46 -7 65 -27t19 -58v-29zM393 367q63 0 63 60q0 25 -13.5 39t-38.5 14h-66v-113h55z" />
    <glyph glyph-name="macron" unicode="&#xaf;" horiz-adv-x="362" 
d="M0 709h362v-85h-362v85z" />
    <glyph glyph-name="degree" unicode="&#xb0;" horiz-adv-x="388" 
d="M194 424q-63 0 -106 43t-43 104t43 104.5t106 43.5t106 -43.5t43 -104.5t-43 -104t-106 -43zM194 527q18 0 29 10t13.5 19t2.5 15q0 7 -2.5 16t-13.5 19t-29 10t-29 -10t-13.5 -19t-2.5 -16q0 -6 2.5 -15t13.5 -19t29 -10z" />
    <glyph glyph-name="plusminus" unicode="&#xb1;" horiz-adv-x="591" 
d="M362 511h184v-126h-184v-183h-134v183h-183v126h183v182h134v-182zM118 -16v110h334v-110h-334z" />
    <glyph glyph-name="uni00B2" unicode="&#xb2;" horiz-adv-x="266" 
d="M40 440v7q0 44 14 71.5t58 53.5q4 2 13 7t12.5 7t9.5 6.5t8.5 8.5t4.5 9.5t2 12.5q0 15 -10 23t-22 8q-13 0 -23.5 -9t-10.5 -27v-8h-56v8q0 39 22.5 63t67.5 24q44 0 67.5 -23t23.5 -59q0 -9 -2 -17t-4.5 -14.5t-8.5 -13.5t-10 -10.5t-13.5 -10.5t-13.5 -9.5t-15.5 -10
t-15.5 -9.5q-34 -18 -34 -35v-3h117v-50h-181z" />
    <glyph glyph-name="uni00B3" unicode="&#xb3;" horiz-adv-x="271" 
d="M175 579q20 -1 38 -17t18 -48q0 -36 -26 -57t-74 -21q-44 0 -70 24t-26 61h55q1 -36 44 -36q42 0 42 36q0 35 -50 35h-11v41h11q37 0 37 33q0 26 -32 26q-34 0 -34 -33h-53q0 39 23.5 60.5t62.5 21.5q41 0 65 -20t24 -51q0 -22 -13 -36.5t-31 -18.5z" />
    <glyph glyph-name="acute" unicode="&#xb4;" horiz-adv-x="240" 
d="M0 581h123l117 128h-160z" />
    <glyph glyph-name="uni00B5" unicode="&#xb5;" horiz-adv-x="597" 
d="M399 520h146v-520h-146v102q-16 -38 -59.5 -73.5t-107.5 -35.5q-21 0 -39 3v-186h-146v710h146v-306q0 -51 25.5 -75.5t68.5 -24.5q49 0 78 32.5t34 65.5v308z" />
    <glyph glyph-name="paragraph" unicode="&#xb6;" horiz-adv-x="697" 
d="M645 700v-920h-118v834h-94v-834h-130v511h-47q-107 0 -168 61t-61 143q0 84 61 144.5t168 60.5h389z" />
    <glyph glyph-name="periodcentered" unicode="&#xb7;" horiz-adv-x="258" 
d="M50 367h158v-166h-158v166z" />
    <glyph glyph-name="cedilla" unicode="&#xb8;" horiz-adv-x="211" 
d="M111 -60q42 0 71 -23t29 -65q0 -32 -15.5 -54t-45.5 -32t-63 -14t-80 -4v59q93 0 93 41q0 23 -22 27.5t-43 -15.5l-35 56l48 85h121z" />
    <glyph glyph-name="uni00B9" unicode="&#xb9;" horiz-adv-x="191" 
d="M151 701v-261h-54v190q-16 -28 -57 -18v53q18 -2 34.5 9.5t22.5 26.5h54z" />
    <glyph glyph-name="ordmasculine" unicode="&#xba;" horiz-adv-x="382" 
d="M191 708q65 0 114.5 -45.5t49.5 -119.5q0 -78 -49.5 -124.5t-114.5 -46.5t-114.5 46.5t-49.5 124.5q0 74 50 119.5t114 45.5zM262 543q0 34 -19 55.5t-52 21.5q-32 0 -51 -21.5t-19 -55.5q0 -37 18.5 -59t51.5 -22t52 21.5t19 59.5z" />
    <glyph glyph-name="guillemotright" unicode="&#xbb;" horiz-adv-x="465" 
d="M47 366v132l173 -145v-114l-173 -140v132l84 68zM257 366v132l173 -140v-119l-173 -140v132l84 68z" />
    <glyph glyph-name="onequarter" unicode="&#xbc;" horiz-adv-x="611" 
d="M151 701v-261h-54v190q-16 -28 -57 -18v53q18 -2 34.5 9.5t22.5 26.5h54zM109 0h-73l436 700h73zM561 66h-30v-66h-54v66h-117v43l117 152h54v-152h30v-43zM477 109v90l-70 -90h70z" />
    <glyph glyph-name="onehalf" unicode="&#xbd;" horiz-adv-x="589" 
d="M143 701v-261h-54v190q-16 -28 -57 -18v53q18 -2 34.5 9.5t22.5 26.5h54zM109 0h-73l436 700h73zM363 0v7q0 44 14 71.5t58 53.5q4 2 13 7t12.5 7t9.5 6.5t8.5 8.5t4.5 9.5t2 12.5q0 15 -10 23t-22 8q-13 0 -23.5 -9t-10.5 -27v-8h-56v8q0 39 22.5 63t67.5 24
q44 0 67.5 -23t23.5 -59q0 -9 -2 -17t-4.5 -14.5t-8.5 -13.5t-10 -10.5t-13.5 -10.5t-13.5 -9.5t-15.5 -10t-15.5 -9.5q-34 -18 -34 -35v-3h117v-50h-181z" />
    <glyph glyph-name="threequarters" unicode="&#xbe;" horiz-adv-x="605" 
d="M169 579q20 -1 38 -17t18 -48q0 -36 -26 -57t-74 -21q-44 0 -70 24t-26 61h55q1 -36 44 -36q42 0 42 36q0 35 -50 35h-11v41h11q37 0 37 33q0 26 -32 26q-34 0 -34 -33h-53q0 39 23.5 60.5t62.5 21.5q41 0 65 -20t24 -51q0 -22 -13 -36.5t-31 -18.5zM106 0h-73l436 700
h73zM582 66h-30v-66h-54v66h-117v43l117 152h54v-152h30v-43zM498 109v90l-70 -90h70z" />
    <glyph glyph-name="questiondown" unicode="&#xbf;" horiz-adv-x="566" 
d="M346 354h-158v166h158v-166zM276 -187q109 0 178 59t67 183h-146q0 -117 -99 -117q-45 0 -65 23t-20 54q0 23 16 42t38.5 35.5t45 36.5t38.5 55t16 82v26h-156v-26q0 -34 -15 -59t-36 -41t-42 -33.5t-36 -47t-15 -70.5q0 -96 64 -149t167 -53z" />
    <glyph glyph-name="Agrave" unicode="&#xc0;" horiz-adv-x="722" 
d="M430 761h-123l-117 128h160zM536 0l-45 131h-259l-45 -131h-165l271 700h137l270 -700h-164zM270 243h183l-92 268z" />
    <glyph glyph-name="Aacute" unicode="&#xc1;" horiz-adv-x="722" 
d="M529 889l-117 -128h-123l80 128h160zM536 0l-45 131h-259l-45 -131h-165l271 700h137l270 -700h-164zM270 243h183l-92 268z" />
    <glyph glyph-name="Acircumflex" unicode="&#xc2;" horiz-adv-x="722" 
d="M361 826l-90 -78h-114l69 141h269l69 -141h-114zM536 0l-45 131h-259l-45 -131h-165l271 700h137l270 -700h-164zM270 243h183l-92 268z" />
    <glyph glyph-name="Atilde" unicode="&#xc3;" horiz-adv-x="722" 
d="M257 828q-16 0 -29 -8.5t-12 -22.5h-57q0 57 32 94t90 37q40 0 99 -39t94 -39q17 0 29.5 8.5t11.5 21.5h58q0 -57 -32 -93.5t-90 -36.5q-41 0 -100 39t-94 39zM536 0l-45 131h-259l-45 -131h-165l271 700h137l270 -700h-164zM270 243h183l-92 268z" />
    <glyph glyph-name="Adieresis" unicode="&#xc4;" horiz-adv-x="722" 
d="M318 889v-110h-148v110h148zM553 889v-110h-149v110h149zM536 0l-45 131h-259l-45 -131h-165l271 700h137l270 -700h-164zM270 243h183l-92 268z" />
    <glyph glyph-name="Aring" unicode="&#xc5;" horiz-adv-x="722" 
d="M360 759q-41 0 -70.5 29t-29.5 71t29.5 71t70.5 29t70.5 -29t29.5 -71t-29.5 -71t-70.5 -29zM360 896q-15 0 -25.5 -10t-10.5 -27t10.5 -27t25.5 -10q16 0 26.5 10t10.5 27t-10.5 27t-26.5 10zM536 0l-45 131h-259l-45 -131h-165l271 700h137l270 -700h-164zM270 243h183
l-92 268z" />
    <glyph glyph-name="AE" unicode="&#xc6;" horiz-adv-x="1034" 
d="M656 132h348v-132h-501v129h-232l-88 -129h-161l479 700h493v-132h-338v-152h288v-122h-288v-162zM352 247h151v222z" />
    <glyph glyph-name="Ccedilla" unicode="&#xc7;" horiz-adv-x="681" 
d="M651 224q-11 -97 -73.5 -155.5t-156.5 -72.5l-53 -56q42 0 71 -23t29 -65q0 -32 -15.5 -54t-45.5 -32t-63 -14t-80 -4v59q93 0 93 41q0 23 -22 27.5t-43 -15.5l-35 56l45 79q-123 18 -194 110t-71 245q0 171 88 265t235 94q115 0 196 -60t93 -172h-151q-20 53 -50 76.5
t-85 23.5q-79 0 -122.5 -60.5t-43.5 -166.5t43.5 -166.5t122.5 -60.5q55 0 86 24t50 77h152z" />
    <glyph glyph-name="Egrave" unicode="&#xc8;" horiz-adv-x="583" 
d="M372 761h-123l-117 128h160zM205 132h348v-132h-501v700h491v-132h-338v-152h288v-122h-288v-162z" />
    <glyph glyph-name="Eacute" unicode="&#xc9;" horiz-adv-x="583" 
d="M471 889l-117 -128h-123l80 128h160zM205 132h348v-132h-501v700h491v-132h-338v-152h288v-122h-288v-162z" />
    <glyph glyph-name="Ecircumflex" unicode="&#xca;" horiz-adv-x="583" 
d="M303 826l-90 -78h-114l69 141h269l69 -141h-114zM205 132h348v-132h-501v700h491v-132h-338v-152h288v-122h-288v-162z" />
    <glyph glyph-name="Edieresis" unicode="&#xcb;" horiz-adv-x="583" 
d="M260 889v-110h-148v110h148zM495 889v-110h-149v110h149zM205 132h348v-132h-501v700h491v-132h-338v-152h288v-122h-288v-162z" />
    <glyph glyph-name="Igrave" unicode="&#xcc;" horiz-adv-x="257" 
d="M197 761l-80 128h-160l117 -128h123zM205 0h-153v700h153v-700z" />
    <glyph glyph-name="Iacute" unicode="&#xcd;" horiz-adv-x="257" 
d="M56 761h123l117 128h-160zM205 0h-153v700h153v-700z" />
    <glyph glyph-name="Icircumflex" unicode="&#xce;" horiz-adv-x="257" 
d="M217 748l-89 78l-90 -78h-114l69 141h269l69 -141h-114zM205 0h-153v700h153v-700z" />
    <glyph glyph-name="Idieresis" unicode="&#xcf;" horiz-adv-x="257" 
d="M-63 889h148v-110h-148v110zM171 889h149v-110h-149v110zM205 0h-153v700h153v-700z" />
    <glyph glyph-name="Eth" unicode="&#xd0;" horiz-adv-x="722" 
d="M352 700q167 0 252.5 -90t85.5 -260t-85.5 -260t-252.5 -90h-266v289h-66v110h66v301h266zM338 132q110 0 154.5 50.5t44.5 167.5t-44.5 167.5t-154.5 50.5h-99v-169h89v-110h-89v-157h99z" />
    <glyph glyph-name="Ntilde" unicode="&#xd1;" horiz-adv-x="695" 
d="M502 880h58q0 -57 -32 -93.5t-90 -36.5q-41 0 -100 39t-94 39q-16 0 -29 -8.5t-12 -22.5h-57q0 57 32 94t90 37q40 0 99 -39t94 -39q17 0 29.5 8.5t11.5 21.5zM643 700v-700h-161l-274 446h-3v-446h-153v700h155l280 -455h3v455h153z" />
    <glyph glyph-name="Ograve" unicode="&#xd2;" horiz-adv-x="739" 
d="M439 761l-80 128h-160l117 -128h123zM370 709q152 0 242 -95t90 -264q0 -167 -90 -263t-242 -96t-242.5 96t-90.5 263q0 168 90.5 263.5t242.5 95.5zM370 123q82 0 127 60.5t45 166.5q0 107 -45 167t-127 60q-83 0 -128 -60t-45 -167q0 -106 45.5 -166.5t127.5 -60.5z
" />
    <glyph glyph-name="Oacute" unicode="&#xd3;" horiz-adv-x="739" 
d="M298 761h123l117 128h-160zM370 709q152 0 242 -95t90 -264q0 -167 -90 -263t-242 -96t-242.5 96t-90.5 263q0 168 90.5 263.5t242.5 95.5zM370 123q82 0 127 60.5t45 166.5q0 107 -45 167t-127 60q-83 0 -128 -60t-45 -167q0 -106 45.5 -166.5t127.5 -60.5z" />
    <glyph glyph-name="Ocircumflex" unicode="&#xd4;" horiz-adv-x="739" 
d="M459 748l-89 78l-90 -78h-114l69 141h269l69 -141h-114zM370 709q152 0 242 -95t90 -264q0 -167 -90 -263t-242 -96t-242.5 96t-90.5 263q0 168 90.5 263.5t242.5 95.5zM370 123q82 0 127 60.5t45 166.5q0 107 -45 167t-127 60q-83 0 -128 -60t-45 -167
q0 -106 45.5 -166.5t127.5 -60.5z" />
    <glyph glyph-name="Otilde" unicode="&#xd5;" horiz-adv-x="739" 
d="M524 880h58q0 -57 -32 -93.5t-90 -36.5q-41 0 -100 39t-94 39q-16 0 -29 -8.5t-12 -22.5h-57q0 57 32 94t90 37q40 0 99 -39t94 -39q17 0 29.5 8.5t11.5 21.5zM370 709q152 0 242 -95t90 -264q0 -167 -90 -263t-242 -96t-242.5 96t-90.5 263q0 168 90.5 263.5t242.5 95.5
zM370 123q82 0 127 60.5t45 166.5q0 107 -45 167t-127 60q-83 0 -128 -60t-45 -167q0 -106 45.5 -166.5t127.5 -60.5z" />
    <glyph glyph-name="Odieresis" unicode="&#xd6;" horiz-adv-x="739" 
d="M179 889h148v-110h-148v110zM413 889h149v-110h-149v110zM370 709q152 0 242 -95t90 -264q0 -167 -90 -263t-242 -96t-242.5 96t-90.5 263q0 168 90.5 263.5t242.5 95.5zM370 123q82 0 127 60.5t45 166.5q0 107 -45 167t-127 60q-83 0 -128 -60t-45 -167
q0 -106 45.5 -166.5t127.5 -60.5z" />
    <glyph glyph-name="multiply" unicode="&#xd7;" horiz-adv-x="533" 
d="M488 122l-89 -89l-130 130l-130 -129l-94 94l130 130l-130 129l89 89l130 -129l128 128l95 -94l-129 -129z" />
    <glyph glyph-name="Oslash" unicode="&#xd8;" horiz-adv-x="739" 
d="M577 645q125 -95 125 -295q0 -167 -90 -263t-242 -96q-54 0 -100 12l-25 -53h-164l59 124q-103 98 -103 276q0 168 90.5 263.5t242.5 95.5q37 0 71 -6l20 42h164zM197 350q0 -70 19 -118l165 345h-11q-83 0 -128 -60t-45 -167zM370 123q82 0 127 60.5t45 166.5
q0 91 -34 150l-178 -373q16 -4 40 -4z" />
    <glyph glyph-name="Ugrave" unicode="&#xd9;" horiz-adv-x="681" 
d="M398 761l-80 128h-160l117 -128h123zM629 271q0 -132 -79 -206t-209 -74q-132 0 -210.5 73.5t-78.5 206.5v429h153v-423q0 -77 35.5 -115.5t100.5 -38.5t100 38.5t35 115.5v423h153v-429z" />
    <glyph glyph-name="Uacute" unicode="&#xda;" horiz-adv-x="681" 
d="M257 761h123l117 128h-160zM629 271q0 -132 -79 -206t-209 -74q-132 0 -210.5 73.5t-78.5 206.5v429h153v-423q0 -77 35.5 -115.5t100.5 -38.5t100 38.5t35 115.5v423h153v-429z" />
    <glyph glyph-name="Ucircumflex" unicode="&#xdb;" horiz-adv-x="681" 
d="M418 748l-89 78l-90 -78h-114l69 141h269l69 -141h-114zM629 271q0 -132 -79 -206t-209 -74q-132 0 -210.5 73.5t-78.5 206.5v429h153v-423q0 -77 35.5 -115.5t100.5 -38.5t100 38.5t35 115.5v423h153v-429z" />
    <glyph glyph-name="Udieresis" unicode="&#xdc;" horiz-adv-x="681" 
d="M138 889h148v-110h-148v110zM372 889h149v-110h-149v110zM629 271q0 -132 -79 -206t-209 -74q-132 0 -210.5 73.5t-78.5 206.5v429h153v-423q0 -77 35.5 -115.5t100.5 -38.5t100 38.5t35 115.5v423h153v-429z" />
    <glyph glyph-name="Yacute" unicode="&#xdd;" horiz-adv-x="705" 
d="M280 761h123l117 128h-160zM431 257v-257h-157v257l-252 443h172l158 -296l159 296h172z" />
    <glyph glyph-name="Thorn" unicode="&#xde;" horiz-adv-x="641" 
d="M346 565q138 0 203 -53.5t65 -159.5q0 -112 -64 -162.5t-204 -50.5h-148v-139h-146v700h146v-135h148zM348 264q26 0 38.5 0.5t31 5t27.5 13.5t16 26t7 43q0 53 -31 70.5t-89 17.5h-150v-176h150z" />
    <glyph glyph-name="germandbls" unicode="&#xdf;" horiz-adv-x="635" 
d="M448 382q55 -4 100 -52t45 -115q0 -112 -66.5 -163.5t-210.5 -51.5h-35v125h38q128 0 128 95t-145 95h-21v110h21q100 0 100 77q0 73 -97 73q-107 0 -107 -111v-464h-146v464q0 236 246 236q250 0 250 -187q0 -55 -32 -92.5t-68 -38.5z" />
    <glyph glyph-name="agrave" unicode="&#xe0;" horiz-adv-x="560" 
d="M350 581h-123l-117 128h160zM505 135q0 -44 38 -47v-83q-20 -9 -53 -9q-51 0 -83 21.5t-32 61.5v4q-55 -90 -171 -90q-75 0 -126 39.5t-51 120.5q0 34 12 60t27.5 41t45 26.5t50.5 16t57 11.5q14 3 40.5 7.5t41 7t31.5 7.5t27 11v1q0 76 -82 76q-74 0 -83 -58h-138
q15 165 222 165q122 0 174.5 -51t52.5 -167v-172zM359 164v92q-13 -7 -29 -12t-24.5 -7.5t-33.5 -7.5t-31 -6q-36 -9 -52 -24t-16 -40q0 -26 18 -44t53 -18q31 0 58 14t38.5 27t18.5 26z" />
    <glyph glyph-name="aacute" unicode="&#xe1;" horiz-adv-x="560" 
d="M449 709l-117 -128h-123l80 128h160zM505 135q0 -44 38 -47v-83q-20 -9 -53 -9q-51 0 -83 21.5t-32 61.5v4q-55 -90 -171 -90q-75 0 -126 39.5t-51 120.5q0 34 12 60t27.5 41t45 26.5t50.5 16t57 11.5q14 3 40.5 7.5t41 7t31.5 7.5t27 11v1q0 76 -82 76q-74 0 -83 -58
h-138q15 165 222 165q122 0 174.5 -51t52.5 -167v-172zM359 164v92q-13 -7 -29 -12t-24.5 -7.5t-33.5 -7.5t-31 -6q-36 -9 -52 -24t-16 -40q0 -26 18 -44t53 -18q31 0 58 14t38.5 27t18.5 26z" />
    <glyph glyph-name="acircumflex" unicode="&#xe2;" horiz-adv-x="560" 
d="M281 646l-90 -78h-114l69 141h269l69 -141h-114zM505 135q0 -44 38 -47v-83q-20 -9 -53 -9q-51 0 -83 21.5t-32 61.5v4q-55 -90 -171 -90q-75 0 -126 39.5t-51 120.5q0 34 12 60t27.5 41t45 26.5t50.5 16t57 11.5q14 3 40.5 7.5t41 7t31.5 7.5t27 11v1q0 76 -82 76
q-74 0 -83 -58h-138q15 165 222 165q122 0 174.5 -51t52.5 -167v-172zM359 164v92q-13 -7 -29 -12t-24.5 -7.5t-33.5 -7.5t-31 -6q-36 -9 -52 -24t-16 -40q0 -26 18 -44t53 -18q31 0 58 14t38.5 27t18.5 26z" />
    <glyph glyph-name="atilde" unicode="&#xe3;" horiz-adv-x="560" 
d="M177 648q-16 0 -29 -8.5t-12 -22.5h-57q0 57 32 94t90 37q40 0 99 -39t94 -39q17 0 29.5 8.5t11.5 21.5h58q0 -57 -32 -93.5t-90 -36.5q-41 0 -100 39t-94 39zM505 135q0 -44 38 -47v-83q-20 -9 -53 -9q-51 0 -83 21.5t-32 61.5v4q-55 -90 -171 -90q-75 0 -126 39.5
t-51 120.5q0 34 12 60t27.5 41t45 26.5t50.5 16t57 11.5q14 3 40.5 7.5t41 7t31.5 7.5t27 11v1q0 76 -82 76q-74 0 -83 -58h-138q15 165 222 165q122 0 174.5 -51t52.5 -167v-172zM359 164v92q-13 -7 -29 -12t-24.5 -7.5t-33.5 -7.5t-31 -6q-36 -9 -52 -24t-16 -40
q0 -26 18 -44t53 -18q31 0 58 14t38.5 27t18.5 26z" />
    <glyph glyph-name="adieresis" unicode="&#xe4;" horiz-adv-x="560" 
d="M238 709v-110h-148v110h148zM473 709v-110h-149v110h149zM505 135q0 -44 38 -47v-83q-20 -9 -53 -9q-51 0 -83 21.5t-32 61.5v4q-55 -90 -171 -90q-75 0 -126 39.5t-51 120.5q0 34 12 60t27.5 41t45 26.5t50.5 16t57 11.5q14 3 40.5 7.5t41 7t31.5 7.5t27 11v1
q0 76 -82 76q-74 0 -83 -58h-138q15 165 222 165q122 0 174.5 -51t52.5 -167v-172zM359 164v92q-13 -7 -29 -12t-24.5 -7.5t-33.5 -7.5t-31 -6q-36 -9 -52 -24t-16 -40q0 -26 18 -44t53 -18q31 0 58 14t38.5 27t18.5 26z" />
    <glyph glyph-name="aring" unicode="&#xe5;" horiz-adv-x="560" 
d="M280 579q-41 0 -70.5 29t-29.5 71t29.5 71t70.5 29t70.5 -29t29.5 -71t-29.5 -71t-70.5 -29zM280 716q-15 0 -25.5 -10t-10.5 -27t10.5 -27t25.5 -10q16 0 26.5 10t10.5 27t-10.5 27t-26.5 10zM505 135q0 -44 38 -47v-83q-20 -9 -53 -9q-51 0 -83 21.5t-32 61.5v4
q-55 -90 -171 -90q-75 0 -126 39.5t-51 120.5q0 34 12 60t27.5 41t45 26.5t50.5 16t57 11.5q14 3 40.5 7.5t41 7t31.5 7.5t27 11v1q0 76 -82 76q-74 0 -83 -58h-138q15 165 222 165q122 0 174.5 -51t52.5 -167v-172zM359 164v92q-13 -7 -29 -12t-24.5 -7.5t-33.5 -7.5
t-31 -6q-36 -9 -52 -24t-16 -40q0 -26 18 -44t53 -18q31 0 58 14t38.5 27t18.5 26z" />
    <glyph glyph-name="ae" unicode="&#xe6;" horiz-adv-x="892" 
d="M865 241q0 -18 -1 -27h-363q8 -59 38.5 -86t84.5 -27q76 0 100 48h127q-45 -156 -235 -156q-61 0 -117.5 25t-92.5 76q-76 -101 -202 -101q-75 0 -126 38.5t-51 115.5q0 135 182 158q14 2 38 4.5t36 4t28.5 4t27.5 6.5t20 10v8q0 46 -23 61t-60 15q-73 0 -82 -53h-138
q8 78 63.5 119t156.5 41q124 0 178 -53q69 53 163 53q51 0 93.5 -15.5t78.5 -47.5t56 -88.5t20 -132.5zM504 304h222q-2 52 -30 82.5t-79 30.5q-91 0 -112 -98v-12zM359 161v87q-11 -5 -19.5 -8.5t-21.5 -6.5t-19 -4t-28.5 -4.5t-34.5 -5.5q-31 -4 -46 -23t-15 -43
q0 -23 17 -39.5t52 -16.5q45 0 74 21t41 43z" />
    <glyph glyph-name="ccedilla" unicode="&#xe7;" horiz-adv-x="543" 
d="M513 186q-26 -161 -178 -189l-55 -57q42 0 71 -23t29 -65q0 -32 -15.5 -54t-45.5 -32t-63 -14t-80 -4v59q93 0 93 41q0 23 -22 27.5t-43 -15.5l-35 56l48 84q-83 19 -136.5 83t-53.5 176q0 56 15 102t40 76t59 50.5t69 29t72 8.5q38 0 71.5 -8.5t66 -28t56 -58.5
t33.5 -93h-134q-17 70 -92 70q-54 0 -84.5 -38.5t-30.5 -109.5q0 -72 30.5 -110t85.5 -38q77 0 98 75h131z" />
    <glyph glyph-name="egrave" unicode="&#xe8;" horiz-adv-x="559" 
d="M351 581h-123l-117 128h160zM532 241q0 -18 -1 -27h-363q8 -59 38.5 -86t84.5 -27q76 0 100 48h127q-45 -156 -235 -156q-47 0 -90.5 15t-81.5 45t-61 83t-23 121q0 70 23 123.5t61 84t82 45.5t91 15q51 0 93.5 -15.5t78.5 -47.5t56 -88.5t20 -132.5zM169 304h224
q-2 52 -30 82.5t-79 30.5q-99 0 -115 -113z" />
    <glyph glyph-name="eacute" unicode="&#xe9;" horiz-adv-x="559" 
d="M450 709l-117 -128h-123l80 128h160zM532 241q0 -18 -1 -27h-363q8 -59 38.5 -86t84.5 -27q76 0 100 48h127q-45 -156 -235 -156q-47 0 -90.5 15t-81.5 45t-61 83t-23 121q0 70 23 123.5t61 84t82 45.5t91 15q51 0 93.5 -15.5t78.5 -47.5t56 -88.5t20 -132.5zM169 304
h224q-2 52 -30 82.5t-79 30.5q-99 0 -115 -113z" />
    <glyph glyph-name="ecircumflex" unicode="&#xea;" horiz-adv-x="559" 
d="M282 646l-90 -78h-114l69 141h269l69 -141h-114zM532 241q0 -18 -1 -27h-363q8 -59 38.5 -86t84.5 -27q76 0 100 48h127q-45 -156 -235 -156q-47 0 -90.5 15t-81.5 45t-61 83t-23 121q0 70 23 123.5t61 84t82 45.5t91 15q51 0 93.5 -15.5t78.5 -47.5t56 -88.5t20 -132.5z
M169 304h224q-2 52 -30 82.5t-79 30.5q-99 0 -115 -113z" />
    <glyph glyph-name="edieresis" unicode="&#xeb;" horiz-adv-x="559" 
d="M239 709v-110h-148v110h148zM474 709v-110h-149v110h149zM532 241q0 -18 -1 -27h-363q8 -59 38.5 -86t84.5 -27q76 0 100 48h127q-45 -156 -235 -156q-47 0 -90.5 15t-81.5 45t-61 83t-23 121q0 70 23 123.5t61 84t82 45.5t91 15q51 0 93.5 -15.5t78.5 -47.5t56 -88.5
t20 -132.5zM169 304h224q-2 52 -30 82.5t-79 30.5q-99 0 -115 -113z" />
    <glyph glyph-name="igrave" unicode="&#xec;" horiz-adv-x="250" 
d="M194 581l-80 128h-160l117 -128h123zM52 520h146v-520h-146v520z" />
    <glyph glyph-name="iacute" unicode="&#xed;" horiz-adv-x="250" 
d="M53 581h123l117 128h-160zM52 520h146v-520h-146v520z" />
    <glyph glyph-name="icircumflex" unicode="&#xee;" horiz-adv-x="250" 
d="M214 568l-89 78l-90 -78h-114l69 141h269l69 -141h-114zM52 520h146v-520h-146v520z" />
    <glyph glyph-name="idieresis" unicode="&#xef;" horiz-adv-x="250" 
d="M-66 709h148v-110h-148v110zM168 709h149v-110h-149v110zM52 520h146v-520h-146v520z" />
    <glyph glyph-name="eth" unicode="&#xf0;" horiz-adv-x="593" 
d="M445 577q56 -81 76 -147t20 -164q0 -136 -75.5 -206t-187.5 -70q-103 0 -177 68t-74 194q0 129 67 198.5t168 69.5q57 0 97 -28q-23 46 -39 70l-98 -12v65l56 7q-29 37 -73 78h147l49 -63l89 11v-65zM283 115q45 0 79 34.5t34 102.5q0 76 -31.5 109.5t-81.5 33.5
q-47 0 -79.5 -34t-32.5 -109q0 -69 32 -103t80 -34z" />
    <glyph glyph-name="ntilde" unicode="&#xf1;" horiz-adv-x="602" 
d="M197 648q-16 0 -29 -8.5t-12 -22.5h-57q0 57 32 94t90 37q40 0 99 -39t94 -39q17 0 29.5 8.5t11.5 21.5h58q0 -57 -32 -93.5t-90 -36.5q-41 0 -100 39t-94 39zM365 525q185 0 185 -212v-313h-146v305q0 51 -25.5 75t-67.5 24q-49 0 -78.5 -32t-34.5 -65v-307h-146v520
h146v-103q15 37 59 72.5t108 35.5z" />
    <glyph glyph-name="ograve" unicode="&#xf2;" horiz-adv-x="570" 
d="M354 581l-80 128h-160l117 -128h123zM285 525q44 0 87 -15t82.5 -45t64 -84t24.5 -123q0 -68 -24.5 -121.5t-63.5 -83.5t-82.5 -45t-87.5 -15t-87.5 15t-82.5 45t-63.5 83.5t-24.5 121.5q0 69 24.5 123t64 84t82.5 45t87 15zM403 258q0 75 -33.5 112t-84.5 37t-84.5 -37
t-33.5 -112q0 -72 34 -109.5t84 -37.5t84 37.5t34 109.5z" />
    <glyph glyph-name="oacute" unicode="&#xf3;" horiz-adv-x="570" 
d="M213 581h123l117 128h-160zM285 525q44 0 87 -15t82.5 -45t64 -84t24.5 -123q0 -68 -24.5 -121.5t-63.5 -83.5t-82.5 -45t-87.5 -15t-87.5 15t-82.5 45t-63.5 83.5t-24.5 121.5q0 69 24.5 123t64 84t82.5 45t87 15zM403 258q0 75 -33.5 112t-84.5 37t-84.5 -37
t-33.5 -112q0 -72 34 -109.5t84 -37.5t84 37.5t34 109.5z" />
    <glyph glyph-name="ocircumflex" unicode="&#xf4;" horiz-adv-x="570" 
d="M374 568l-89 78l-90 -78h-114l69 141h269l69 -141h-114zM285 525q44 0 87 -15t82.5 -45t64 -84t24.5 -123q0 -68 -24.5 -121.5t-63.5 -83.5t-82.5 -45t-87.5 -15t-87.5 15t-82.5 45t-63.5 83.5t-24.5 121.5q0 69 24.5 123t64 84t82.5 45t87 15zM403 258q0 75 -33.5 112
t-84.5 37t-84.5 -37t-33.5 -112q0 -72 34 -109.5t84 -37.5t84 37.5t34 109.5z" />
    <glyph glyph-name="otilde" unicode="&#xf5;" horiz-adv-x="570" 
d="M439 700h58q0 -57 -32 -93.5t-90 -36.5q-41 0 -100 39t-94 39q-16 0 -29 -8.5t-12 -22.5h-57q0 57 32 94t90 37q40 0 99 -39t94 -39q17 0 29.5 8.5t11.5 21.5zM285 525q44 0 87 -15t82.5 -45t64 -84t24.5 -123q0 -68 -24.5 -121.5t-63.5 -83.5t-82.5 -45t-87.5 -15
t-87.5 15t-82.5 45t-63.5 83.5t-24.5 121.5q0 69 24.5 123t64 84t82.5 45t87 15zM403 258q0 75 -33.5 112t-84.5 37t-84.5 -37t-33.5 -112q0 -72 34 -109.5t84 -37.5t84 37.5t34 109.5z" />
    <glyph glyph-name="odieresis" unicode="&#xf6;" horiz-adv-x="570" 
d="M94 709h148v-110h-148v110zM328 709h149v-110h-149v110zM285 525q44 0 87 -15t82.5 -45t64 -84t24.5 -123q0 -68 -24.5 -121.5t-63.5 -83.5t-82.5 -45t-87.5 -15t-87.5 15t-82.5 45t-63.5 83.5t-24.5 121.5q0 69 24.5 123t64 84t82.5 45t87 15zM403 258q0 75 -33.5 112
t-84.5 37t-84.5 -37t-33.5 -112q0 -72 34 -109.5t84 -37.5t84 37.5t34 109.5z" />
    <glyph glyph-name="divide" unicode="&#xf7;" horiz-adv-x="478" 
d="M239 384q-27 0 -45 18.5t-18 44.5t18 44t45 18q26 0 44 -18t18 -44t-18 -44.5t-44 -18.5zM36 331h334v-110h-334v110zM239 43q-27 0 -45 18.5t-18 45.5q0 26 18 43.5t45 17.5q26 0 44 -18t18 -43q0 -27 -18 -45.5t-44 -18.5z" />
    <glyph glyph-name="oslash" unicode="&#xf8;" horiz-adv-x="570" 
d="M449 469q94 -73 94 -211q0 -68 -24.5 -121.5t-63.5 -83.5t-82.5 -45t-87.5 -15q-32 0 -61 7l-24 -50h-124l47 97q-96 73 -96 211q0 69 24.5 123t64 84t82.5 45t87 15q34 0 63 -8l29 61h124zM167 258q0 -51 17 -83l111 232h-10q-51 0 -84.5 -37t-33.5 -112zM285 111
q50 0 84 37.5t34 109.5q0 48 -15 83l-111 -230h8z" />
    <glyph glyph-name="ugrave" unicode="&#xf9;" horiz-adv-x="597" 
d="M365 581h-123l-117 128h160zM399 520h146v-520h-146v102q-16 -38 -59.5 -73.5t-107.5 -35.5q-185 0 -185 213v314h146v-306q0 -51 25.5 -75.5t68.5 -24.5q49 0 78 32.5t34 65.5v308z" />
    <glyph glyph-name="uacute" unicode="&#xfa;" horiz-adv-x="597" 
d="M464 709l-117 -128h-123l80 128h160zM399 520h146v-520h-146v102q-16 -38 -59.5 -73.5t-107.5 -35.5q-185 0 -185 213v314h146v-306q0 -51 25.5 -75.5t68.5 -24.5q49 0 78 32.5t34 65.5v308z" />
    <glyph glyph-name="ucircumflex" unicode="&#xfb;" horiz-adv-x="597" 
d="M296 646l-90 -78h-114l69 141h269l69 -141h-114zM399 520h146v-520h-146v102q-16 -38 -59.5 -73.5t-107.5 -35.5q-185 0 -185 213v314h146v-306q0 -51 25.5 -75.5t68.5 -24.5q49 0 78 32.5t34 65.5v308z" />
    <glyph glyph-name="udieresis" unicode="&#xfc;" horiz-adv-x="597" 
d="M253 709v-110h-148v110h148zM488 709v-110h-149v110h149zM399 520h146v-520h-146v102q-16 -38 -59.5 -73.5t-107.5 -35.5q-185 0 -185 213v314h146v-306q0 -51 25.5 -75.5t68.5 -24.5q49 0 78 32.5t34 65.5v308z" />
    <glyph glyph-name="yacute" unicode="&#xfd;" horiz-adv-x="577" 
d="M215 581h123l117 128h-160zM412 520h148l-213 -518q-49 -122 -108 -165t-164 -33v123q44 -5 73.5 5.5t41 24.5t21.5 37q10 22 -7 64l-187 462h151l119 -336z" />
    <glyph glyph-name="thorn" unicode="&#xfe;" horiz-adv-x="596" 
d="M340 525q38 0 76.5 -15t73.5 -45t57 -83.5t22 -121.5q0 -69 -22 -123t-58 -84t-74.5 -45t-77.5 -15q-28 0 -52.5 7t-40 16.5t-26.5 20.5t-15.5 18.5t-4.5 11.5v-257h-146v896h146v-251q15 26 53 47.5t87 22.5h2zM308 111q51 0 85.5 37.5t34.5 111.5q0 73 -34.5 110
t-85.5 37t-83.5 -37.5t-32.5 -109.5q0 -73 32.5 -111t83.5 -38z" />
    <glyph glyph-name="ydieresis" unicode="&#xff;" horiz-adv-x="577" 
d="M96 709h148v-110h-148v110zM330 709h149v-110h-149v110zM412 520h148l-213 -518q-49 -122 -108 -165t-164 -33v123q44 -5 73.5 5.5t41 24.5t21.5 37q10 22 -7 64l-187 462h151l119 -336z" />
    <glyph glyph-name="Amacron" unicode="&#x100;" horiz-adv-x="722" 
d="M542 889v-85h-362v85h362zM536 0l-45 131h-259l-45 -131h-165l271 700h137l270 -700h-164zM270 243h183l-92 268z" />
    <glyph glyph-name="amacron" unicode="&#x101;" horiz-adv-x="560" 
d="M462 709v-85h-362v85h362zM505 135q0 -44 38 -47v-83q-20 -9 -53 -9q-51 0 -83 21.5t-32 61.5v4q-55 -90 -171 -90q-75 0 -126 39.5t-51 120.5q0 34 12 60t27.5 41t45 26.5t50.5 16t57 11.5q14 3 40.5 7.5t41 7t31.5 7.5t27 11v1q0 76 -82 76q-74 0 -83 -58h-138
q15 165 222 165q122 0 174.5 -51t52.5 -167v-172zM359 164v92q-13 -7 -29 -12t-24.5 -7.5t-33.5 -7.5t-31 -6q-36 -9 -52 -24t-16 -40q0 -26 18 -44t53 -18q31 0 58 14t38.5 27t18.5 26z" />
    <glyph glyph-name="Abreve" unicode="&#x102;" horiz-adv-x="722" 
d="M361 735q-84 0 -127.5 40.5t-43.5 113.5h95q8 -58 76 -58q69 0 77 58h95q0 -73 -44 -113.5t-128 -40.5zM536 0l-45 131h-259l-45 -131h-165l271 700h137l270 -700h-164zM270 243h183l-92 268z" />
    <glyph glyph-name="abreve" unicode="&#x103;" horiz-adv-x="560" 
d="M281 555q-84 0 -127.5 40.5t-43.5 113.5h95q8 -58 76 -58q69 0 77 58h95q0 -73 -44 -113.5t-128 -40.5zM505 135q0 -44 38 -47v-83q-20 -9 -53 -9q-51 0 -83 21.5t-32 61.5v4q-55 -90 -171 -90q-75 0 -126 39.5t-51 120.5q0 34 12 60t27.5 41t45 26.5t50.5 16t57 11.5
q14 3 40.5 7.5t41 7t31.5 7.5t27 11v1q0 76 -82 76q-74 0 -83 -58h-138q15 165 222 165q122 0 174.5 -51t52.5 -167v-172zM359 164v92q-13 -7 -29 -12t-24.5 -7.5t-33.5 -7.5t-31 -6q-36 -9 -52 -24t-16 -40q0 -26 18 -44t53 -18q31 0 58 14t38.5 27t18.5 26z" />
    <glyph glyph-name="Aogonek" unicode="&#x104;" horiz-adv-x="722" 
d="M642 0q-135 -36 -135 -108q0 -29 23.5 -35.5t61.5 7.5v-61q-27 -14 -64 -20.5t-72.5 -3t-60.5 25.5t-25 61q0 54 53 91t113 43l-45 131h-259l-45 -131h-165l271 700h137l270 -700h-58zM270 243h183l-92 268z" />
    <glyph glyph-name="aogonek" unicode="&#x105;" horiz-adv-x="560" 
d="M543 88v-83q-4 -2 -10 -4h4q-135 -36 -135 -108q0 -29 24 -35.5t61 7.5v-61q-27 -14 -64 -20.5t-72.5 -3t-60.5 25.5t-25 61q0 54 53 91t113 43h14q-70 17 -70 78v4q-55 -90 -171 -90q-75 0 -126 39.5t-51 120.5q0 34 12 60t27.5 41t45 26.5t50.5 16t57 11.5
q14 3 40.5 7.5t41 7t31.5 7.5t27 11v1q0 76 -82 76q-74 0 -83 -58h-138q15 165 222 165q122 0 174.5 -51t52.5 -167v-172q0 -44 38 -47zM359 164v92q-13 -7 -29 -12t-24.5 -7.5t-33.5 -7.5t-31 -6q-36 -9 -52 -24t-16 -40q0 -26 18 -44t53 -18q31 0 58 14t38.5 27t18.5 26z
" />
    <glyph glyph-name="Cacute" unicode="&#x106;" horiz-adv-x="681" 
d="M292 761h123l117 128h-160zM363 123q55 0 86 24t50 77h152q-12 -113 -93.5 -173t-197.5 -60q-147 0 -235 94t-88 265t88 265t235 94q115 0 196 -60t93 -172h-151q-20 53 -50 76.5t-85 23.5q-79 0 -122.5 -60.5t-43.5 -166.5t43.5 -166.5t122.5 -60.5z" />
    <glyph glyph-name="cacute" unicode="&#x107;" horiz-adv-x="543" 
d="M196 581h123l117 128h-160zM284 111q77 0 98 75h131q-9 -55 -33 -95t-58 -60t-68 -29t-71 -9q-47 0 -90.5 14.5t-81.5 44.5t-61 83.5t-23 123.5q0 56 15 102t40 76t59 50.5t69 29t72 8.5q38 0 71.5 -8.5t66 -28t56 -58.5t33.5 -93h-134q-17 70 -92 70q-54 0 -84.5 -38.5
t-30.5 -109.5q0 -72 30.5 -110t85.5 -38z" />
    <glyph glyph-name="Cdotaccent" unicode="&#x10a;" horiz-adv-x="681" 
d="M291 889h148v-110h-148v110zM363 123q55 0 86 24t50 77h152q-12 -113 -93.5 -173t-197.5 -60q-147 0 -235 94t-88 265t88 265t235 94q115 0 196 -60t93 -172h-151q-20 53 -50 76.5t-85 23.5q-79 0 -122.5 -60.5t-43.5 -166.5t43.5 -166.5t122.5 -60.5z" />
    <glyph glyph-name="cdotaccent" unicode="&#x10b;" horiz-adv-x="543" 
d="M195 709h148v-110h-148v110zM284 111q77 0 98 75h131q-9 -55 -33 -95t-58 -60t-68 -29t-71 -9q-47 0 -90.5 14.5t-81.5 44.5t-61 83.5t-23 123.5q0 56 15 102t40 76t59 50.5t69 29t72 8.5q38 0 71.5 -8.5t66 -28t56 -58.5t33.5 -93h-134q-17 70 -92 70q-54 0 -84.5 -38.5
t-30.5 -109.5q0 -72 30.5 -110t85.5 -38z" />
    <glyph glyph-name="Ccaron" unicode="&#x10c;" horiz-adv-x="681" 
d="M452 880h114l-69 -141h-269l-69 141h114l90 -78zM363 123q55 0 86 24t50 77h152q-12 -113 -93.5 -173t-197.5 -60q-147 0 -235 94t-88 265t88 265t235 94q115 0 196 -60t93 -172h-151q-20 53 -50 76.5t-85 23.5q-79 0 -122.5 -60.5t-43.5 -166.5t43.5 -166.5t122.5 -60.5
z" />
    <glyph glyph-name="ccaron" unicode="&#x10d;" horiz-adv-x="543" 
d="M356 700h114l-69 -141h-269l-69 141h114l90 -78zM284 111q77 0 98 75h131q-9 -55 -33 -95t-58 -60t-68 -29t-71 -9q-47 0 -90.5 14.5t-81.5 44.5t-61 83.5t-23 123.5q0 56 15 102t40 76t59 50.5t69 29t72 8.5q38 0 71.5 -8.5t66 -28t56 -58.5t33.5 -93h-134
q-17 70 -92 70q-54 0 -84.5 -38.5t-30.5 -109.5q0 -72 30.5 -110t85.5 -38z" />
    <glyph glyph-name="Dcaron" unicode="&#x10e;" horiz-adv-x="688" 
d="M467 739h-269l-69 141h114l90 -78l89 78h114zM318 700q167 0 252.5 -90t85.5 -260t-85.5 -260t-252.5 -90h-266v700h266zM304 132q110 0 154.5 50.5t44.5 167.5t-44.5 167.5t-154.5 50.5h-99v-436h99z" />
    <glyph glyph-name="dcaron" unicode="&#x10f;" horiz-adv-x="796" 
d="M256 525q50 0 88.5 -22t53.5 -49v252h146v-706h-146v79q0 -4 -4.5 -13.5t-15.5 -22t-26.5 -23.5t-40 -19t-52.5 -8q-39 0 -77.5 15t-74.5 45t-58 84t-22 123q0 68 22 121.5t57 83.5t73.5 45t76.5 15zM576 578h123l117 128h-160zM288 111q51 0 83.5 38t32.5 111
q0 72 -32.5 109.5t-83.5 37.5q-54 0 -87 -36.5t-33 -110.5t33.5 -111.5t86.5 -37.5z" />
    <glyph glyph-name="Dcroat" unicode="&#x110;" horiz-adv-x="722" 
d="M352 700q167 0 252.5 -90t85.5 -260t-85.5 -260t-252.5 -90h-266v289h-66v110h66v301h266zM338 132q110 0 154.5 50.5t44.5 167.5t-44.5 167.5t-154.5 50.5h-99v-169h89v-110h-89v-157h99z" />
    <glyph glyph-name="dcroat" unicode="&#x111;" horiz-adv-x="634" 
d="M622 645v-85h-78v-560h-146v79q0 -4 -4.5 -13.5t-15.5 -22t-26.5 -23.5t-40 -19t-52.5 -8q-39 0 -77.5 15t-74.5 45t-58 84t-22 123q0 68 22 121.5t57 83.5t73.5 45t76.5 15q50 0 88.5 -22t53.5 -49v106h-138v85h138v61h146v-61h78zM288 111q51 0 83.5 38t32.5 111
q0 72 -32.5 109.5t-83.5 37.5q-54 0 -87 -36.5t-33 -110.5t33.5 -111.5t86.5 -37.5z" />
    <glyph glyph-name="Emacron" unicode="&#x112;" horiz-adv-x="583" 
d="M484 889v-85h-362v85h362zM205 132h348v-132h-501v700h491v-132h-338v-152h288v-122h-288v-162z" />
    <glyph glyph-name="emacron" unicode="&#x113;" horiz-adv-x="559" 
d="M463 709v-85h-362v85h362zM532 241q0 -18 -1 -27h-363q8 -59 38.5 -86t84.5 -27q76 0 100 48h127q-45 -156 -235 -156q-47 0 -90.5 15t-81.5 45t-61 83t-23 121q0 70 23 123.5t61 84t82 45.5t91 15q51 0 93.5 -15.5t78.5 -47.5t56 -88.5t20 -132.5zM169 304h224
q-2 52 -30 82.5t-79 30.5q-99 0 -115 -113z" />
    <glyph glyph-name="Edotaccent" unicode="&#x116;" horiz-adv-x="583" 
d="M378 889v-110h-148v110h148zM205 132h348v-132h-501v700h491v-132h-338v-152h288v-122h-288v-162z" />
    <glyph glyph-name="edotaccent" unicode="&#x117;" horiz-adv-x="559" 
d="M357 709v-110h-148v110h148zM532 241q0 -18 -1 -27h-363q8 -59 38.5 -86t84.5 -27q76 0 100 48h127q-45 -156 -235 -156q-47 0 -90.5 15t-81.5 45t-61 83t-23 121q0 70 23 123.5t61 84t82 45.5t91 15q51 0 93.5 -15.5t78.5 -47.5t56 -88.5t20 -132.5zM169 304h224
q-2 52 -30 82.5t-79 30.5q-99 0 -115 -113z" />
    <glyph glyph-name="Eogonek" unicode="&#x118;" horiz-adv-x="583" 
d="M419 -108q0 -29 23.5 -35.5t61.5 7.5v-61q-27 -14 -64 -20.5t-72.5 -3t-60.5 25.5t-25 61q0 54 53 91t113 43h-396v700h491v-132h-338v-152h288v-122h-288v-162h348v-132h1q-135 -36 -135 -108z" />
    <glyph glyph-name="eogonek" unicode="&#x119;" horiz-adv-x="559" 
d="M532 241q0 -18 -1 -27h-363q8 -59 38.5 -86t84.5 -27q76 0 100 48h127q-36 -123 -161 -149h9q-135 -36 -135 -108q0 -29 23.5 -35.5t61.5 7.5v-61q-27 -14 -64 -20.5t-72.5 -3t-60.5 25.5t-25 61q0 49 43.5 84t100.5 47q-89 13 -150 78t-61 182q0 70 23 123.5t61 84
t82 45.5t91 15q51 0 93.5 -15.5t78.5 -47.5t56 -88.5t20 -132.5zM169 304h224q-2 52 -30 82.5t-79 30.5q-99 0 -115 -113z" />
    <glyph glyph-name="Ecaron" unicode="&#x11a;" horiz-adv-x="583" 
d="M436 739h-269l-69 141h114l90 -78l89 78h114zM205 132h348v-132h-501v700h491v-132h-338v-152h288v-122h-288v-162z" />
    <glyph glyph-name="ecaron" unicode="&#x11b;" horiz-adv-x="559" 
d="M415 559h-269l-69 141h114l90 -78l89 78h114zM532 241q0 -18 -1 -27h-363q8 -59 38.5 -86t84.5 -27q76 0 100 48h127q-45 -156 -235 -156q-47 0 -90.5 15t-81.5 45t-61 83t-23 121q0 70 23 123.5t61 84t82 45.5t91 15q51 0 93.5 -15.5t78.5 -47.5t56 -88.5t20 -132.5z
M169 304h224q-2 52 -30 82.5t-79 30.5q-99 0 -115 -113z" />
    <glyph glyph-name="Gbreve" unicode="&#x11e;" horiz-adv-x="712" 
d="M437 889h95q0 -73 -44 -113.5t-128 -40.5t-127.5 40.5t-43.5 113.5h95q8 -58 76 -58q69 0 77 58zM670 384v-47q0 -173 -72 -259.5t-229 -86.5q-153 0 -242.5 94t-89.5 265q0 170 88.5 264.5t234.5 94.5q109 0 189.5 -56.5t97.5 -160.5h-151q-21 44 -52 64.5t-81 20.5
q-79 0 -122.5 -60.5t-43.5 -166.5q0 -105 44 -166t128 -61q75 0 115 33t47 109h-145v119h284z" />
    <glyph glyph-name="gbreve" unicode="&#x11f;" horiz-adv-x="592" 
d="M275 555q-84 0 -127.5 40.5t-43.5 113.5h95q8 -58 76 -58q69 0 77 58h95q0 -73 -44 -113.5t-128 -40.5zM394 523h146v-509q0 -56 -17.5 -99.5t-44 -68t-62.5 -40.5t-68 -21t-65 -5q-82 0 -143 31t-88 84l90 57q48 -53 127 -53q66 0 95.5 27t29.5 88v65q0 -4 -4.5 -13.5
t-16 -22t-26.5 -23.5t-40 -18.5t-53 -7.5q-37 0 -75 15t-73 44.5t-57 83.5t-22 123q0 68 22 121.5t56.5 83.5t72 45t74.5 15q50 0 88 -22t54 -49v69zM286 112q51 0 82.5 37.5t31.5 110.5q0 72 -31.5 109.5t-82.5 37.5q-50 0 -82 -37t-32 -110q0 -74 32 -111t82 -37z" />
    <glyph glyph-name="Gdotaccent" unicode="&#x120;" horiz-adv-x="712" 
d="M287 889h148v-110h-148v110zM670 384v-47q0 -173 -72 -259.5t-229 -86.5q-153 0 -242.5 94t-89.5 265q0 170 88.5 264.5t234.5 94.5q109 0 189.5 -56.5t97.5 -160.5h-151q-21 44 -52 64.5t-81 20.5q-79 0 -122.5 -60.5t-43.5 -166.5q0 -105 44 -166t128 -61q75 0 115 33
t47 109h-145v119h284z" />
    <glyph glyph-name="gdotaccent" unicode="&#x121;" horiz-adv-x="592" 
d="M350 709v-110h-148v110h148zM394 523h146v-509q0 -56 -17.5 -99.5t-44 -68t-62.5 -40.5t-68 -21t-65 -5q-82 0 -143 31t-88 84l90 57q48 -53 127 -53q66 0 95.5 27t29.5 88v65q0 -4 -4.5 -13.5t-16 -22t-26.5 -23.5t-40 -18.5t-53 -7.5q-37 0 -75 15t-73 44.5t-57 83.5
t-22 123q0 68 22 121.5t56.5 83.5t72 45t74.5 15q50 0 88 -22t54 -49v69zM286 112q51 0 82.5 37.5t31.5 110.5q0 72 -31.5 109.5t-82.5 37.5q-50 0 -82 -37t-32 -110q0 -74 32 -111t82 -37z" />
    <glyph glyph-name="Gcommaaccent" unicode="&#x122;" horiz-adv-x="712" 
d="M670 384v-47q0 -173 -72 -259.5t-229 -86.5q-153 0 -242.5 94t-89.5 265q0 170 88.5 264.5t234.5 94.5q109 0 189.5 -56.5t97.5 -160.5h-151q-21 44 -52 64.5t-81 20.5q-79 0 -122.5 -60.5t-43.5 -166.5q0 -105 44 -166t128 -61q75 0 115 33t47 109h-145v119h284z
M291 -365v45q61 12 61 90v32h-61v166h158v-158q0 -46 -9.5 -79t-24 -51t-36.5 -28.5t-42 -13.5t-46 -3z" />
    <glyph glyph-name="gcommaaccent" unicode="&#x123;" horiz-adv-x="592" 
d="M340 732v-166h-158v158q0 46 9.5 79t24 51t36.5 28.5t42 13.5t46 3v-45q-61 -12 -61 -90v-32h61zM394 523h146v-509q0 -56 -17.5 -99.5t-44 -68t-62.5 -40.5t-68 -21t-65 -5q-82 0 -143 31t-88 84l90 57q48 -53 127 -53q66 0 95.5 27t29.5 88v65q0 -4 -4.5 -13.5t-16 -22
t-26.5 -23.5t-40 -18.5t-53 -7.5q-37 0 -75 15t-73 44.5t-57 83.5t-22 123q0 68 22 121.5t56.5 83.5t72 45t74.5 15q50 0 88 -22t54 -49v69zM286 112q51 0 82.5 37.5t31.5 110.5q0 72 -31.5 109.5t-82.5 37.5q-50 0 -82 -37t-32 -110q0 -74 32 -111t82 -37z" />
    <glyph glyph-name="Hbar" unicode="&#x126;" horiz-adv-x="678" 
d="M473 700h153v-700h-153v288h-268v-288h-153v700h153v-116h268v116zM205 412h268v52h-268v-52z" />
    <glyph glyph-name="hbar" unicode="&#x127;" horiz-adv-x="636" 
d="M399 525q185 0 185 -212v-313h-146v305q0 51 -25.5 75t-67.5 24q-49 0 -78.5 -32t-34.5 -65v-307h-146v513h-74v101h74v92h146v-92h84v-101h-84v-96q15 37 59 72.5t108 35.5z" />
    <glyph glyph-name="Imacron" unicode="&#x12a;" horiz-adv-x="257" 
d="M-53 889h362v-85h-362v85zM205 0h-153v700h153v-700z" />
    <glyph glyph-name="imacron" unicode="&#x12b;" horiz-adv-x="250" 
d="M-56 709h362v-85h-362v85zM52 520h146v-520h-146v520z" />
    <glyph glyph-name="Iogonek" unicode="&#x12e;" horiz-adv-x="257" 
d="M71 -108q0 -29 23.5 -35.5t61.5 7.5v-61q-27 -14 -64 -20.5t-72.5 -3t-60.5 25.5t-25 61q0 54 53 91t113 43h-48v700h153v-700h1q-135 -36 -135 -108z" />
    <glyph glyph-name="iogonek" unicode="&#x12f;" horiz-adv-x="250" 
d="M52 709h148v-110h-148v110zM52 0v520h146v-520h-40q-135 -36 -135 -108q0 -29 23.5 -35.5t61.5 7.5v-61q-27 -14 -64 -20.5t-72.5 -3t-60.5 25.5t-25 61q0 54 53 91t113 43z" />
    <glyph glyph-name="Idotaccent" unicode="&#x130;" horiz-adv-x="257" 
d="M55 889h148v-110h-148v110zM205 0h-153v700h153v-700z" />
    <glyph glyph-name="dotlessi" unicode="&#x131;" horiz-adv-x="250" 
d="M52 520h146v-520h-146v520z" />
    <glyph glyph-name="IJ" unicode="&#x132;" horiz-adv-x="783" 
d="M205 0h-153v700h153v-700zM354 181q54 -56 127 -56q103 0 103 122v453h152v-460q0 -126 -71 -186.5t-182 -60.5q-130 0 -209 93z" />
    <glyph glyph-name="ij" unicode="&#x133;" horiz-adv-x="499" 
d="M52 709h146v-111h-146v111zM301 709h146v-111h-146v111zM52 520h146v-520h-146v520zM178 -84q44 -12 68 -12q55 0 55 63v553h146v-577q0 -82 -42.5 -122.5t-119.5 -40.5q-65 0 -107 18v118z" />
    <glyph glyph-name="Kcommaaccent" unicode="&#x136;" horiz-adv-x="705" 
d="M389 385l296 -385h-169l-213 276v8l-98 -115v-169h-153v700h153v-325l278 325h175zM271 -198v166h158v-158q0 -46 -9.5 -79t-24 -51t-36.5 -28.5t-42 -13.5t-46 -3v45q61 12 61 90v32h-61z" />
    <glyph glyph-name="kcommaaccent" unicode="&#x137;" horiz-adv-x="581" 
d="M334 301l240 -301h-159l-171 208l-46 -47v-161h-146v706h146v-378l182 192h165zM228 -198v166h158v-158q0 -46 -9.5 -79t-24 -51t-36.5 -28.5t-42 -13.5t-46 -3v45q61 12 61 90v32h-61z" />
    <glyph glyph-name="Lacute" unicode="&#x139;" horiz-adv-x="551" 
d="M63 759h123l117 128h-160zM205 132h319v-132h-472v700h153v-568z" />
    <glyph glyph-name="lacute" unicode="&#x13a;" horiz-adv-x="250" 
d="M53 767h123l117 128h-160zM52 706h146v-706h-146v706z" />
    <glyph glyph-name="Lcommaaccent" unicode="&#x13b;" horiz-adv-x="551" 
d="M205 132h319v-132h-472v700h153v-568zM197 -370v45q61 12 61 90v32h-61v166h158v-158q0 -46 -9.5 -79t-24 -51t-36.5 -28.5t-42 -13.5t-46 -3z" />
    <glyph glyph-name="lcommaaccent" unicode="&#x13c;" horiz-adv-x="250" 
d="M52 706h146v-706h-146v706zM47 -365v45q61 12 61 90v32h-61v166h158v-158q0 -46 -9.5 -79t-24 -51t-36.5 -28.5t-42 -13.5t-46 -3z" />
    <glyph glyph-name="Lcaron" unicode="&#x13d;" horiz-adv-x="551" 
d="M205 132h319v-132h-472v700h153v-568zM299 367v45q61 12 61 90v32h-61v166h158v-158q0 -46 -9.5 -79t-24 -51t-36.5 -28.5t-42 -13.5t-46 -3z" />
    <glyph glyph-name="lcaron" unicode="&#x13e;" horiz-adv-x="452" 
d="M52 706h146v-706h-146v706zM254 367v45q61 12 61 90v32h-61v166h158v-158q0 -46 -9.5 -79t-24 -51t-36.5 -28.5t-42 -13.5t-46 -3z" />
    <glyph glyph-name="Lslash" unicode="&#x141;" horiz-adv-x="571" 
d="M225 132h319v-132h-472v193l-60 -63v148l60 63v359h153v-197l74 78h1v-147l-75 -79v-223z" />
    <glyph glyph-name="lslash" unicode="&#x142;" horiz-adv-x="305" 
d="M283 568v-145l-56 -59v-364h-146v210l-59 -62v146l59 62v350h146v-196l55 58h1z" />
    <glyph glyph-name="Nacute" unicode="&#x143;" horiz-adv-x="695" 
d="M276 761h123l117 128h-160zM643 700v-700h-161l-274 446h-3v-446h-153v700h155l280 -455h3v455h153z" />
    <glyph glyph-name="nacute" unicode="&#x144;" horiz-adv-x="602" 
d="M469 709l-117 -128h-123l80 128h160zM365 525q185 0 185 -212v-313h-146v305q0 51 -25.5 75t-67.5 24q-49 0 -78.5 -32t-34.5 -65v-307h-146v520h146v-103q15 37 59 72.5t108 35.5z" />
    <glyph glyph-name="Ncommaaccent" unicode="&#x145;" horiz-adv-x="695" 
d="M643 700v-700h-161l-274 446h-3v-446h-153v700h155l280 -455h3v455h153zM270 -365v45q61 12 61 90v32h-61v166h158v-158q0 -46 -9.5 -79t-24 -51t-36.5 -28.5t-42 -13.5t-46 -3z" />
    <glyph glyph-name="ncommaaccent" unicode="&#x146;" horiz-adv-x="602" 
d="M365 525q185 0 185 -212v-313h-146v305q0 51 -25.5 75t-67.5 24q-49 0 -78.5 -32t-34.5 -65v-307h-146v520h146v-103q15 37 59 72.5t108 35.5zM223 -198v166h158v-158q0 -46 -9.5 -79t-24 -51t-36.5 -28.5t-42 -13.5t-46 -3v45q61 12 61 90v32h-61z" />
    <glyph glyph-name="Ncaron" unicode="&#x147;" horiz-adv-x="695" 
d="M436 880h114l-69 -141h-269l-69 141h114l90 -78zM643 700v-700h-161l-274 446h-3v-446h-153v700h155l280 -455h3v455h153z" />
    <glyph glyph-name="ncaron" unicode="&#x148;" horiz-adv-x="602" 
d="M434 559h-269l-69 141h114l90 -78l89 78h114zM365 525q185 0 185 -212v-313h-146v305q0 51 -25.5 75t-67.5 24q-49 0 -78.5 -32t-34.5 -65v-307h-146v520h146v-103q15 37 59 72.5t108 35.5z" />
    <glyph glyph-name="Eng" unicode="&#x14a;" horiz-adv-x="695" 
d="M490 700h153v-673q0 -126 -71 -186.5t-183 -60.5q-68 0 -121 26.5t-87 66.5l79 95q54 -56 127 -56q85 0 100 82l-279 452h-3v-446h-153v700h155l280 -456h3v456z" />
    <glyph glyph-name="eng" unicode="&#x14b;" horiz-adv-x="602" 
d="M365 525q185 0 185 -212v-370q0 -82 -42.5 -122.5t-119.5 -40.5q-65 0 -107 18v118q44 -12 68 -12q55 0 55 63v338q0 51 -25.5 75t-67.5 24q-49 0 -78.5 -32t-34.5 -65v-307h-146v520h146v-103q15 37 59 72.5t108 35.5z" />
    <glyph glyph-name="Omacron" unicode="&#x14c;" horiz-adv-x="739" 
d="M189 889h362v-85h-362v85zM370 709q152 0 242 -95t90 -264q0 -167 -90 -263t-242 -96t-242.5 96t-90.5 263q0 168 90.5 263.5t242.5 95.5zM370 123q82 0 127 60.5t45 166.5q0 107 -45 167t-127 60q-83 0 -128 -60t-45 -167q0 -106 45.5 -166.5t127.5 -60.5z" />
    <glyph glyph-name="omacron" unicode="&#x14d;" horiz-adv-x="570" 
d="M104 709h362v-85h-362v85zM285 525q44 0 87 -15t82.5 -45t64 -84t24.5 -123q0 -68 -24.5 -121.5t-63.5 -83.5t-82.5 -45t-87.5 -15t-87.5 15t-82.5 45t-63.5 83.5t-24.5 121.5q0 69 24.5 123t64 84t82.5 45t87 15zM403 258q0 75 -33.5 112t-84.5 37t-84.5 -37t-33.5 -112
q0 -72 34 -109.5t84 -37.5t84 37.5t34 109.5z" />
    <glyph glyph-name="Ohungarumlaut" unicode="&#x150;" horiz-adv-x="739" 
d="M243 761h123l117 128h-160zM452 761h123l117 128h-160zM370 709q152 0 242 -95t90 -264q0 -167 -90 -263t-242 -96t-242.5 96t-90.5 263q0 168 90.5 263.5t242.5 95.5zM370 123q82 0 127 60.5t45 166.5q0 107 -45 167t-127 60q-83 0 -128 -60t-45 -167
q0 -106 45.5 -166.5t127.5 -60.5z" />
    <glyph glyph-name="ohungarumlaut" unicode="&#x151;" horiz-adv-x="570" 
d="M158 581h123l117 128h-160zM367 581h123l117 128h-160zM285 525q44 0 87 -15t82.5 -45t64 -84t24.5 -123q0 -68 -24.5 -121.5t-63.5 -83.5t-82.5 -45t-87.5 -15t-87.5 15t-82.5 45t-63.5 83.5t-24.5 121.5q0 69 24.5 123t64 84t82.5 45t87 15zM403 258q0 75 -33.5 112
t-84.5 37t-84.5 -37t-33.5 -112q0 -72 34 -109.5t84 -37.5t84 37.5t34 109.5z" />
    <glyph glyph-name="OE" unicode="&#x152;" horiz-adv-x="1079" 
d="M701 132h348v-132h-501v36q-75 -45 -178 -45q-152 0 -242.5 96t-90.5 263q0 168 90.5 263.5t242.5 95.5q102 0 178 -44v35h491v-132h-338v-152h288v-122h-288v-162zM370 123q82 0 127 60.5t45 166.5q0 107 -45 167t-127 60q-83 0 -128 -60t-45 -167q0 -106 45.5 -166.5
t127.5 -60.5z" />
    <glyph glyph-name="oe" unicode="&#x153;" horiz-adv-x="935" 
d="M908 241q0 -18 -1 -27h-363q8 -59 38.5 -86t84.5 -27q76 0 100 48h127q-45 -156 -235 -156q-116 0 -188 75q-74 -75 -186 -75q-44 0 -87.5 15t-82.5 45t-63.5 83.5t-24.5 121.5q0 69 24.5 123t64 84t82.5 45t87 15q113 0 186 -76q73 76 189 76q51 0 93.5 -15.5
t78.5 -47.5t56 -88.5t20 -132.5zM545 304h224q-2 52 -30 82.5t-79 30.5q-99 0 -115 -113zM285 111q50 0 84 37.5t34 109.5q0 75 -33.5 112t-84.5 37t-84.5 -37t-33.5 -112q0 -72 34 -109.5t84 -37.5z" />
    <glyph glyph-name="Racute" unicode="&#x154;" horiz-adv-x="669" 
d="M457 889l-117 -128h-123l80 128h160zM622 117q0 -82 20 -117h-153q-20 38 -20 117v47q0 41 -26 65.5t-71 24.5h-167v-254h-153v700h302q131 0 196 -58t65 -153q0 -106 -97 -166q56 -26 80 -62.5t24 -91.5v-52zM348 374q59 0 84 24.5t25 76.5q0 93 -106 93h-146v-194h143z
" />
    <glyph glyph-name="racute" unicode="&#x155;" horiz-adv-x="420" 
d="M391 709l-117 -128h-123l80 128h160zM353 525q25 0 45 -4v-128q-20 1 -34 1q-146 0 -166 -117v-277h-146v520h146v-115q12 55 51.5 87.5t103.5 32.5z" />
    <glyph glyph-name="Rcommaaccent" unicode="&#x156;" horiz-adv-x="669" 
d="M622 117q0 -82 20 -117h-153q-20 38 -20 117v47q0 41 -26 65.5t-71 24.5h-167v-254h-153v700h302q131 0 196 -58t65 -153q0 -106 -97 -166q56 -26 80 -62.5t24 -91.5v-52zM348 374q59 0 84 24.5t25 76.5q0 93 -106 93h-146v-194h143zM211 -198v166h158v-158
q0 -46 -9.5 -79t-24 -51t-36.5 -28.5t-42 -13.5t-46 -3v45q61 12 61 90v32h-61z" />
    <glyph glyph-name="rcommaaccent" unicode="&#x157;" horiz-adv-x="420" 
d="M353 525q25 0 45 -4v-128q-20 1 -34 1q-146 0 -166 -117v-277h-146v520h146v-115q12 55 51.5 87.5t103.5 32.5zM49 -198v166h158v-158q0 -46 -9.5 -79t-24 -51t-36.5 -28.5t-42 -13.5t-46 -3v45q61 12 61 90v32h-61z" />
    <glyph glyph-name="Rcaron" unicode="&#x158;" horiz-adv-x="669" 
d="M422 739h-269l-69 141h114l90 -78l89 78h114zM622 117q0 -82 20 -117h-153q-20 38 -20 117v47q0 41 -26 65.5t-71 24.5h-167v-254h-153v700h302q131 0 196 -58t65 -153q0 -106 -97 -166q56 -26 80 -62.5t24 -91.5v-52zM348 374q59 0 84 24.5t25 76.5q0 93 -106 93h-146
v-194h143z" />
    <glyph glyph-name="rcaron" unicode="&#x159;" horiz-adv-x="420" 
d="M356 559h-269l-69 141h114l90 -78l89 78h114zM198 405q12 55 51.5 87.5t103.5 32.5q25 0 45 -4v-128q-20 1 -34 1q-146 0 -166 -117v-277h-146v520h146v-115z" />
    <glyph glyph-name="Sacute" unicode="&#x15a;" horiz-adv-x="649" 
d="M245 761h123l117 128h-160zM391 406q120 -24 170.5 -70.5t50.5 -133.5q0 -100 -81 -155.5t-206 -55.5q-129 0 -205 62t-83 176h158q20 -112 132 -112q57 0 92 25t35 62t-23.5 56t-78.5 29l-92 17q-99 19 -153 64.5t-54 136.5t71.5 146.5t189.5 55.5q121 0 195.5 -55
t83.5 -160h-157q-12 89 -122 89q-51 0 -78 -25.5t-27 -54.5q0 -61 74 -75z" />
    <glyph glyph-name="sacute" unicode="&#x15b;" horiz-adv-x="505" 
d="M180 581h123l117 128h-160zM341 359q-16 58 -89 58q-35 0 -56 -13.5t-21 -37.5q0 -37 55 -49l93 -21q32 -7 45 -10.5t37 -11.5t34 -16.5t22.5 -23t17 -34.5t4.5 -46q0 -79 -63.5 -120t-167.5 -41q-101 0 -160 44t-70 129h134q16 -65 97 -65q84 0 84 55q0 20 -12.5 30.5
t-42.5 16.5l-84 18q-85 19 -122 56t-37 93q0 73 56 114t156 41q192 0 221 -166h-131z" />
    <glyph glyph-name="Scedilla" unicode="&#x15e;" horiz-adv-x="649" 
d="M612 202q0 -91 -67.5 -145.5t-176.5 -63.5l-50 -53q42 0 71 -23t29 -65q0 -32 -15.5 -54t-45.5 -32t-63 -14t-80 -4v59q93 0 93 41q0 23 -22 27.5t-43 -15.5l-35 56l46 81q-98 16 -154 75.5t-62 156.5h158q20 -112 132 -112q57 0 92 25t35 62t-23.5 56t-78.5 29l-92 17
q-99 19 -153 64.5t-54 136.5t71.5 146.5t189.5 55.5q121 0 195.5 -55t83.5 -160h-157q-12 89 -122 89q-51 0 -78 -25.5t-27 -54.5q0 -61 74 -75l108 -22q120 -24 170.5 -70.5t50.5 -133.5z" />
    <glyph glyph-name="scedilla" unicode="&#x15f;" horiz-adv-x="505" 
d="M483 154q0 -68 -47 -107.5t-127 -50.5l-53 -55q42 0 71 -23t29 -65q0 -32 -15.5 -54t-45.5 -32t-63 -14t-80 -4v59q93 0 93 41q0 23 -22 27.5t-43 -15.5l-35 56l46 81q-150 25 -169 168h134q16 -65 97 -65q84 0 84 55q0 20 -12.5 30.5t-42.5 16.5l-84 18q-85 19 -122 56
t-37 93q0 73 56 114t156 41q192 0 221 -166h-131q-16 58 -89 58q-35 0 -56 -13.5t-21 -37.5q0 -37 55 -49l93 -21q32 -7 45 -10.5t37 -11.5t34 -16.5t22.5 -23t17 -34.5t4.5 -46z" />
    <glyph glyph-name="Scaron" unicode="&#x160;" horiz-adv-x="649" 
d="M405 880h114l-69 -141h-269l-69 141h114l90 -78zM391 406q120 -24 170.5 -70.5t50.5 -133.5q0 -100 -81 -155.5t-206 -55.5q-129 0 -205 62t-83 176h158q20 -112 132 -112q57 0 92 25t35 62t-23.5 56t-78.5 29l-92 17q-99 19 -153 64.5t-54 136.5t71.5 146.5t189.5 55.5
q121 0 195.5 -55t83.5 -160h-157q-12 89 -122 89q-51 0 -78 -25.5t-27 -54.5q0 -61 74 -75z" />
    <glyph glyph-name="scaron" unicode="&#x161;" horiz-adv-x="505" 
d="M340 700h114l-69 -141h-269l-69 141h114l90 -78zM341 359q-16 58 -89 58q-35 0 -56 -13.5t-21 -37.5q0 -37 55 -49l93 -21q32 -7 45 -10.5t37 -11.5t34 -16.5t22.5 -23t17 -34.5t4.5 -46q0 -79 -63.5 -120t-167.5 -41q-101 0 -160 44t-70 129h134q16 -65 97 -65
q84 0 84 55q0 20 -12.5 30.5t-42.5 16.5l-84 18q-85 19 -122 56t-37 93q0 73 56 114t156 41q192 0 221 -166h-131z" />
    <glyph glyph-name="uni0162" unicode="&#x162;" horiz-adv-x="600" 
d="M377 0h-32l-58 -61q42 0 71 -23t29 -65q0 -32 -15.5 -54t-45.5 -32t-63 -14t-80 -4v59q93 0 93 41q0 23 -22 27.5t-43 -15.5l-35 56l48 85v568h-202v132h556v-132h-201v-568z" />
    <glyph glyph-name="uni0163" unicode="&#x163;" horiz-adv-x="381" 
d="M354 9q-17 -7 -48 -12l-54 -57q42 0 71 -23t29 -65q0 -32 -15.5 -54t-45.5 -32t-63 -14t-80 -4v59q93 0 93 41q0 23 -22 27.5t-43 -15.5l-35 56l48 85h2q-93 24 -93 143v262h-86v114h86v130h146v-130h105v-114h-105v-246q0 -53 56 -53q23 0 54 7v-105z" />
    <glyph glyph-name="Tcaron" unicode="&#x164;" horiz-adv-x="600" 
d="M433 739h-269l-69 141h114l90 -78l89 78h114zM578 700v-132h-201v-568h-153v568h-202v132h556z" />
    <glyph glyph-name="tcaron" unicode="&#x165;" horiz-adv-x="383" 
d="M350 706h160l-117 -128h-123zM244 160q0 -53 56 -53q23 0 54 7v-105q-37 -15 -95 -15q-77 0 -119 31.5t-42 118.5v262h-86v114h86v130h146v-130h105v-114h-105v-246z" />
    <glyph glyph-name="Tbar" unicode="&#x166;" horiz-adv-x="600" 
d="M578 568h-201v-80h105v-85h-105v-403h-153v403h-104v85h104v80h-202v132h556v-132z" />
    <glyph glyph-name="tbar" unicode="&#x167;" horiz-adv-x="381" 
d="M300 107q23 0 54 7v-105q-37 -15 -95 -15q-77 0 -119 31.5t-42 118.5v91h-86v117h86v54h-86v114h86v130h146v-130h105v-114h-105v-54h105v-117h-105v-75q0 -53 56 -53z" />
    <glyph glyph-name="Utilde" unicode="&#x168;" horiz-adv-x="681" 
d="M483 880h58q0 -57 -32 -93.5t-90 -36.5q-41 0 -100 39t-94 39q-16 0 -29 -8.5t-12 -22.5h-57q0 57 32 94t90 37q40 0 99 -39t94 -39q17 0 29.5 8.5t11.5 21.5zM629 271q0 -132 -79 -206t-209 -74q-132 0 -210.5 73.5t-78.5 206.5v429h153v-423q0 -77 35.5 -115.5
t100.5 -38.5t100 38.5t35 115.5v423h153v-429z" />
    <glyph glyph-name="utilde" unicode="&#x169;" horiz-adv-x="597" 
d="M192 648q-16 0 -29 -8.5t-12 -22.5h-57q0 57 32 94t90 37q40 0 99 -39t94 -39q17 0 29.5 8.5t11.5 21.5h58q0 -57 -32 -93.5t-90 -36.5q-41 0 -100 39t-94 39zM399 520h146v-520h-146v102q-16 -38 -59.5 -73.5t-107.5 -35.5q-185 0 -185 213v314h146v-306
q0 -51 25.5 -75.5t68.5 -24.5q49 0 78 32.5t34 65.5v308z" />
    <glyph glyph-name="Umacron" unicode="&#x16a;" horiz-adv-x="681" 
d="M148 889h362v-85h-362v85zM629 271q0 -132 -79 -206t-209 -74q-132 0 -210.5 73.5t-78.5 206.5v429h153v-423q0 -77 35.5 -115.5t100.5 -38.5t100 38.5t35 115.5v423h153v-429z" />
    <glyph glyph-name="umacron" unicode="&#x16b;" horiz-adv-x="597" 
d="M477 709v-85h-362v85h362zM399 520h146v-520h-146v102q-16 -38 -59.5 -73.5t-107.5 -35.5q-185 0 -185 213v314h146v-306q0 -51 25.5 -75.5t68.5 -24.5q49 0 78 32.5t34 65.5v308z" />
    <glyph glyph-name="Ubreve" unicode="&#x16c;" horiz-adv-x="681" 
d="M406 889h95q0 -73 -44 -113.5t-128 -40.5t-127.5 40.5t-43.5 113.5h95q8 -58 76 -58q69 0 77 58zM629 271q0 -132 -79 -206t-209 -74q-132 0 -210.5 73.5t-78.5 206.5v429h153v-423q0 -77 35.5 -115.5t100.5 -38.5t100 38.5t35 115.5v423h153v-429z" />
    <glyph glyph-name="ubreve" unicode="&#x16d;" horiz-adv-x="597" 
d="M296 555q-84 0 -127.5 40.5t-43.5 113.5h95q8 -58 76 -58q69 0 77 58h95q0 -73 -44 -113.5t-128 -40.5zM399 520h146v-520h-146v102q-16 -38 -59.5 -73.5t-107.5 -35.5q-185 0 -185 213v314h146v-306q0 -51 25.5 -75.5t68.5 -24.5q49 0 78 32.5t34 65.5v308z" />
    <glyph glyph-name="Uring" unicode="&#x16e;" horiz-adv-x="681" 
d="M328 759q-41 0 -70.5 29t-29.5 71t29.5 71t70.5 29t70.5 -29t29.5 -71t-29.5 -71t-70.5 -29zM328 822q16 0 26.5 10t10.5 27t-10.5 27t-26.5 10q-15 0 -25.5 -10t-10.5 -27t10.5 -27t25.5 -10zM629 271q0 -132 -79 -206t-209 -74q-132 0 -210.5 73.5t-78.5 206.5v429h153
v-423q0 -77 35.5 -115.5t100.5 -38.5t100 38.5t35 115.5v423h153v-429z" />
    <glyph glyph-name="uring" unicode="&#x16f;" horiz-adv-x="597" 
d="M295 579q-41 0 -70.5 29t-29.5 71t29.5 71t70.5 29t70.5 -29t29.5 -71t-29.5 -71t-70.5 -29zM295 716q-15 0 -25.5 -10t-10.5 -27t10.5 -27t25.5 -10q16 0 26.5 10t10.5 27t-10.5 27t-26.5 10zM399 520h146v-520h-146v102q-16 -38 -59.5 -73.5t-107.5 -35.5
q-185 0 -185 213v314h146v-306q0 -51 25.5 -75.5t68.5 -24.5q49 0 78 32.5t34 65.5v308z" />
    <glyph glyph-name="Uhungarumlaut" unicode="&#x170;" horiz-adv-x="681" 
d="M202 761h123l117 128h-160zM411 761h123l117 128h-160zM629 271q0 -132 -79 -206t-209 -74q-132 0 -210.5 73.5t-78.5 206.5v429h153v-423q0 -77 35.5 -115.5t100.5 -38.5t100 38.5t35 115.5v423h153v-429z" />
    <glyph glyph-name="uhungarumlaut" unicode="&#x171;" horiz-adv-x="597" 
d="M409 709l-117 -128h-123l80 128h160zM501 581h-123l80 128h160zM399 212v308h146v-520h-146v102q-16 -38 -59.5 -73.5t-107.5 -35.5q-185 0 -185 213v314h146v-306q0 -51 25.5 -75.5t68.5 -24.5q49 0 78 32.5t34 65.5z" />
    <glyph glyph-name="Uogonek" unicode="&#x172;" horiz-adv-x="681" 
d="M476 700h153v-429q0 -110 -54.5 -180t-149.5 -91h3q-135 -36 -135 -108q0 -29 23.5 -35.5t61.5 7.5v-61q-27 -14 -64 -20.5t-72.5 -3t-60.5 25.5t-25 61q0 46 40 80.5t94 47.5q-110 14 -174 86t-64 191v429h153v-423q0 -77 35.5 -115.5t100.5 -38.5t100 38.5t35 115.5
v423z" />
    <glyph glyph-name="uogonek" unicode="&#x173;" horiz-adv-x="597" 
d="M399 520h146v-520h-40q-135 -36 -135 -108q0 -29 24 -35.5t61 7.5v-61q-27 -14 -64 -20.5t-72.5 -3t-60.5 25.5t-25 61q0 54 53 91t113 43v102q-16 -38 -59.5 -73.5t-107.5 -35.5q-185 0 -185 213v314h146v-306q0 -51 25.5 -75.5t68.5 -24.5q49 0 78 32.5t34 65.5v308z
" />
    <glyph glyph-name="Wcircumflex" unicode="&#x174;" horiz-adv-x="1029" 
d="M603 748l-89 78l-90 -78h-114l69 141h269l69 -141h-114zM847 700h160l-201 -700h-141l-151 466l-151 -466h-140l-201 700h160l120 -468l139 468h147l139 -468z" />
    <glyph glyph-name="wcircumflex" unicode="&#x175;" horiz-adv-x="814" 
d="M495 568l-89 78l-90 -78h-114l69 141h269l69 -141h-114zM797 520l-147 -520h-124l-119 347l-118 -347h-125l-147 520h147l82 -335l103 335h116l103 -335l82 335h147z" />
    <glyph glyph-name="Ycircumflex" unicode="&#x176;" horiz-adv-x="705" 
d="M441 748l-89 78l-90 -78h-114l69 141h269l69 -141h-114zM431 257v-257h-157v257l-252 443h172l158 -296l159 296h172z" />
    <glyph glyph-name="ycircumflex" unicode="&#x177;" horiz-adv-x="577" 
d="M376 568l-89 78l-90 -78h-114l69 141h269l69 -141h-114zM412 520h148l-213 -518q-49 -122 -108 -165t-164 -33v123q44 -5 73.5 5.5t41 24.5t21.5 37q10 22 -7 64l-187 462h151l119 -336z" />
    <glyph glyph-name="Ydieresis" unicode="&#x178;" horiz-adv-x="705" 
d="M161 889h148v-110h-148v110zM395 889h149v-110h-149v110zM431 257v-257h-157v257l-252 443h172l158 -296l159 296h172z" />
    <glyph glyph-name="Zacute" unicode="&#x179;" horiz-adv-x="622" 
d="M250 761h123l117 128h-160zM582 132v-132h-542v116l361 452h-352v132h529l1 -116l-363 -452h366z" />
    <glyph glyph-name="zacute" unicode="&#x17a;" horiz-adv-x="510" 
d="M176 581h123l117 128h-160zM214 122h256v-122h-430v122l255 276h-245v122h420v-122z" />
    <glyph glyph-name="Zdotaccent" unicode="&#x17b;" horiz-adv-x="622" 
d="M249 889h148v-110h-148v110zM582 132v-132h-542v116l361 452h-352v132h529l1 -116l-363 -452h366z" />
    <glyph glyph-name="zdotaccent" unicode="&#x17c;" horiz-adv-x="510" 
d="M175 709h148v-110h-148v110zM214 122h256v-122h-430v122l255 276h-245v122h420v-122z" />
    <glyph glyph-name="Zcaron" unicode="&#x17d;" horiz-adv-x="622" 
d="M410 880h114l-69 -141h-269l-69 141h114l90 -78zM582 132v-132h-542v116l361 452h-352v132h529l1 -116l-363 -452h366z" />
    <glyph glyph-name="zcaron" unicode="&#x17e;" horiz-adv-x="510" 
d="M336 700h114l-69 -141h-269l-69 141h114l90 -78zM214 122h256v-122h-430v122l255 276h-245v122h420v-122z" />
    <glyph glyph-name="florin" unicode="&#x192;" horiz-adv-x="312" 
d="M292 571q-35 0 -49 -24t-14 -70v-55h63v-125h-63v-303q0 -97 -47 -140.5t-162 -43.5v125q39 0 51 23.5t12 70.5v268h-68v125h68v89q0 91 46 138t163 47v-125z" />
    <glyph glyph-name="uni01CD" unicode="&#x1cd;" horiz-adv-x="722" 
d="M494 739h-269l-69 141h114l90 -78l89 78h114zM536 0l-45 131h-259l-45 -131h-165l271 700h137l270 -700h-164zM270 243h183l-92 268z" />
    <glyph glyph-name="uni01CE" unicode="&#x1ce;" horiz-adv-x="560" 
d="M414 559h-269l-69 141h114l90 -78l89 78h114zM505 135q0 -44 38 -47v-83q-20 -9 -53 -9q-51 0 -83 21.5t-32 61.5v4q-55 -90 -171 -90q-75 0 -126 39.5t-51 120.5q0 34 12 60t27.5 41t45 26.5t50.5 16t57 11.5q14 3 40.5 7.5t41 7t31.5 7.5t27 11v1q0 76 -82 76
q-74 0 -83 -58h-138q15 165 222 165q122 0 174.5 -51t52.5 -167v-172zM359 164v92q-13 -7 -29 -12t-24.5 -7.5t-33.5 -7.5t-31 -6q-36 -9 -52 -24t-16 -40q0 -26 18 -44t53 -18q31 0 58 14t38.5 27t18.5 26z" />
    <glyph glyph-name="uni01CF" unicode="&#x1cf;" horiz-adv-x="257" 
d="M216 880h114l-69 -141h-269l-69 141h114l90 -78zM205 0h-153v700h153v-700z" />
    <glyph glyph-name="uni01D0" unicode="&#x1d0;" horiz-adv-x="250" 
d="M213 700h114l-69 -141h-269l-69 141h114l90 -78zM52 520h146v-520h-146v520z" />
    <glyph glyph-name="uni01D1" unicode="&#x1d1;" horiz-adv-x="739" 
d="M458 880h114l-69 -141h-269l-69 141h114l90 -78zM370 709q152 0 242 -95t90 -264q0 -167 -90 -263t-242 -96t-242.5 96t-90.5 263q0 168 90.5 263.5t242.5 95.5zM370 123q82 0 127 60.5t45 166.5q0 107 -45 167t-127 60q-83 0 -128 -60t-45 -167q0 -106 45.5 -166.5
t127.5 -60.5z" />
    <glyph glyph-name="uni01D2" unicode="&#x1d2;" horiz-adv-x="570" 
d="M373 700h114l-69 -141h-269l-69 141h114l90 -78zM285 525q44 0 87 -15t82.5 -45t64 -84t24.5 -123q0 -68 -24.5 -121.5t-63.5 -83.5t-82.5 -45t-87.5 -15t-87.5 15t-82.5 45t-63.5 83.5t-24.5 121.5q0 69 24.5 123t64 84t82.5 45t87 15zM403 258q0 75 -33.5 112t-84.5 37
t-84.5 -37t-33.5 -112q0 -72 34 -109.5t84 -37.5t84 37.5t34 109.5z" />
    <glyph glyph-name="uni01D3" unicode="&#x1d3;" horiz-adv-x="681" 
d="M417 880h114l-69 -141h-269l-69 141h114l90 -78zM629 271q0 -132 -79 -206t-209 -74q-132 0 -210.5 73.5t-78.5 206.5v429h153v-423q0 -77 35.5 -115.5t100.5 -38.5t100 38.5t35 115.5v423h153v-429z" />
    <glyph glyph-name="uni01D4" unicode="&#x1d4;" horiz-adv-x="597" 
d="M429 559h-269l-69 141h114l90 -78l89 78h114zM399 520h146v-520h-146v102q-16 -38 -59.5 -73.5t-107.5 -35.5q-185 0 -185 213v314h146v-306q0 -51 25.5 -75.5t68.5 -24.5q49 0 78 32.5t34 65.5v308z" />
    <glyph glyph-name="uni01EA" unicode="&#x1ea;" horiz-adv-x="739" 
d="M431 -5q-119 -36 -119 -103q0 -29 24 -35.5t61 7.5v-61q-27 -14 -64 -20.5t-72.5 -3t-60.5 25.5t-25 61q0 47 41 81t96 48q-128 18 -201.5 111.5t-73.5 243.5q0 168 90.5 263.5t242.5 95.5t242 -95t90 -264q0 -149 -72.5 -242.5t-198.5 -112.5zM197 350
q0 -106 45.5 -166.5t127.5 -60.5t127 60.5t45 166.5q0 107 -45 167t-127 60q-83 0 -128 -60t-45 -167z" />
    <glyph glyph-name="uni01EB" unicode="&#x1eb;" horiz-adv-x="570" 
d="M543 258q0 -110 -57.5 -174.5t-140.5 -83.5h3q-135 -36 -135 -108q0 -29 23.5 -35.5t61.5 7.5v-61q-27 -14 -64 -20.5t-72.5 -3t-60.5 25.5t-25 61q0 51 48 87.5t107 45.5q-85 17 -144.5 82t-59.5 177q0 69 24.5 123t64 84t82.5 45t87 15t87 -15t82.5 -45t64 -84
t24.5 -123zM285 111q50 0 84 37.5t34 109.5q0 75 -33.5 112t-84.5 37t-84.5 -37t-33.5 -112q0 -72 34 -109.5t84 -37.5z" />
    <glyph glyph-name="Scommaaccent" unicode="&#x218;" horiz-adv-x="649" 
d="M391 406q120 -24 170.5 -70.5t50.5 -133.5q0 -100 -81 -155.5t-206 -55.5q-129 0 -205 62t-83 176h158q20 -112 132 -112q57 0 92 25t35 62t-23.5 56t-78.5 29l-92 17q-99 19 -153 64.5t-54 136.5t71.5 146.5t189.5 55.5q121 0 195.5 -55t83.5 -160h-157q-12 89 -122 89
q-51 0 -78 -25.5t-27 -54.5q0 -61 74 -75zM236 -365v45q61 12 61 90v32h-61v166h158v-158q0 -46 -9.5 -79t-24 -51t-36.5 -28.5t-42 -13.5t-46 -3z" />
    <glyph glyph-name="scommaaccent" unicode="&#x219;" horiz-adv-x="505" 
d="M341 359q-16 58 -89 58q-35 0 -56 -13.5t-21 -37.5q0 -37 55 -49l93 -21q32 -7 45 -10.5t37 -11.5t34 -16.5t22.5 -23t17 -34.5t4.5 -46q0 -79 -63.5 -120t-167.5 -41q-101 0 -160 44t-70 129h134q16 -65 97 -65q84 0 84 55q0 20 -12.5 30.5t-42.5 16.5l-84 18
q-85 19 -122 56t-37 93q0 73 56 114t156 41q192 0 221 -166h-131zM174 -374v45q61 12 61 90v32h-61v166h158v-158q0 -46 -9.5 -79t-24 -51t-36.5 -28.5t-42 -13.5t-46 -3z" />
    <glyph glyph-name="uni021A" unicode="&#x21a;" horiz-adv-x="600" 
d="M578 700v-132h-201v-568h-153v568h-202v132h556zM205 -199v166h158v-158q0 -46 -9.5 -79t-24 -51t-36.5 -28.5t-42 -13.5t-46 -3v45q61 12 61 90v32h-61z" />
    <glyph glyph-name="uni021B" unicode="&#x21b;" horiz-adv-x="381" 
d="M300 107q23 0 54 7v-105q-37 -15 -95 -15q-77 0 -119 31.5t-42 118.5v262h-86v114h86v130h146v-130h105v-114h-105v-246q0 -53 56 -53zM170 -198v166h158v-158q0 -46 -9.5 -79t-24 -51t-36.5 -28.5t-42 -13.5t-46 -3v45q61 12 61 90v32h-61z" />
    <glyph glyph-name="uni0237" unicode="&#x237;" horiz-adv-x="259" 
d="M-62 -84q44 -12 68 -12q55 0 55 63v553h146v-577q0 -82 -42.5 -122.5t-119.5 -40.5q-65 0 -107 18v118z" />
    <glyph glyph-name="circumflex" unicode="&#x2c6;" horiz-adv-x="407" 
d="M293 568l-89 78l-90 -78h-114l69 141h269l69 -141h-114z" />
    <glyph glyph-name="caron" unicode="&#x2c7;" horiz-adv-x="407" 
d="M293 700h114l-69 -141h-269l-69 141h114l90 -78z" />
    <glyph glyph-name="breve" unicode="&#x2d8;" horiz-adv-x="343" 
d="M248 709h95q0 -73 -44 -113.5t-128 -40.5t-127.5 40.5t-43.5 113.5h95q8 -58 76 -58q69 0 77 58z" />
    <glyph glyph-name="dotaccent" unicode="&#x2d9;" horiz-adv-x="148" 
d="M0 709h148v-110h-148v110z" />
    <glyph glyph-name="ring" unicode="&#x2da;" horiz-adv-x="200" 
d="M100 579q-41 0 -70.5 29t-29.5 71t29.5 71t70.5 29t70.5 -29t29.5 -71t-29.5 -71t-70.5 -29zM100 642q16 0 26.5 10t10.5 27t-10.5 27t-26.5 10q-15 0 -25.5 -10t-10.5 -27t10.5 -27t25.5 -10z" />
    <glyph glyph-name="ogonek" unicode="&#x2db;" horiz-adv-x="272" 
d="M222 -197q-27 -14 -64 -20.5t-72.5 -3t-60.5 25.5t-25 61q0 54 53 91t113 43h106q-135 -36 -135 -108q0 -29 23.5 -35.5t61.5 7.5v-61z" />
    <glyph glyph-name="tilde" unicode="&#x2dc;" horiz-adv-x="414" 
d="M356 700h58q0 -57 -32 -93.5t-90 -36.5q-41 0 -100 39t-94 39q-16 0 -29 -8.5t-12 -22.5h-57q0 57 32 94t90 37q40 0 99 -39t94 -39q17 0 29.5 8.5t11.5 21.5z" />
    <glyph glyph-name="hungarumlaut" unicode="&#x2dd;" horiz-adv-x="454" 
d="M0 581h123l117 128h-160zM209 581h123l117 128h-160z" />
    <glyph glyph-name="uni0326" unicode="&#x326;" horiz-adv-x="0" 
d="M-158 -365v45q61 12 61 90v32h-61v166h158v-158q0 -46 -9.5 -79t-24 -51t-36.5 -28.5t-42 -13.5t-46 -3z" />
    <glyph glyph-name="uni0394" unicode="&#x394;" horiz-adv-x="717" 
d="M675 0h-633l301 700h31zM493 125l-134 341l-135 -341h269z" />
    <glyph glyph-name="uni03A9" unicode="&#x3a9;" horiz-adv-x="768" 
d="M731 355q0 -121 -79 -216h54v-139h-236v164l30 24q82 67 82 167q0 97 -57.5 152t-140.5 55t-139.5 -55t-56.5 -152q0 -102 80 -167l30 -24v-164h-236v139h54q-79 95 -79 216q0 100 51.5 182.5t130.5 126t165 43.5t165 -43.5t130.5 -126t51.5 -182.5z" />
    <glyph glyph-name="uni03BC" unicode="&#x3bc;" horiz-adv-x="597" 
d="M399 520h146v-520h-146v102q-16 -38 -59.5 -73.5t-107.5 -35.5q-21 0 -39 3v-186h-146v710h146v-306q0 -51 25.5 -75.5t68.5 -24.5q49 0 78 32.5t34 65.5v308z" />
    <glyph glyph-name="pi" unicode="&#x3c0;" horiz-adv-x="723" 
d="M618 119q32 0 68 18v-125q-15 -8 -53.5 -13t-62.5 -5q-51 0 -95.5 24.5t-44.5 75.5v301h-142v-395h-146v395h-100v125h633v-125h-99v-221q0 -33 9.5 -44t32.5 -11z" />
    <glyph glyph-name="uni0401" unicode="&#x401;" horiz-adv-x="583" 
d="M260 889v-110h-148v110h148zM495 889v-110h-149v110h149zM205 132h348v-132h-501v700h491v-132h-338v-152h288v-122h-288v-162z" />
    <glyph glyph-name="uni0403" unicode="&#x403;" horiz-adv-x="525" 
d="M189 761h123l117 128h-160zM503 700v-132h-298v-568h-153v700h451z" />
    <glyph glyph-name="uni0404" unicode="&#x404;" horiz-adv-x="681" 
d="M499 224h152q-12 -113 -93.5 -173t-197.5 -60q-147 0 -235 94t-88 265t88 265t235 94q115 0 196 -60t93 -172h-151q-20 53 -50 76.5t-85 23.5q-66 0 -107.5 -42t-53.5 -119h189v-122h-190q11 -81 52.5 -126t109.5 -45q55 0 86 24t50 77z" />
    <glyph glyph-name="uni0407" unicode="&#x407;" horiz-adv-x="257" 
d="M-63 889h148v-110h-148v110zM171 889h149v-110h-149v110zM205 0h-153v700h153v-700z" />
    <glyph glyph-name="uni040C" unicode="&#x40c;" horiz-adv-x="705" 
d="M520 889l-117 -128h-123l80 128h160zM389 385l296 -385h-169l-213 276v8l-98 -115v-169h-153v700h153v-325l278 325h175z" />
    <glyph glyph-name="uni040E" unicode="&#x40e;" horiz-adv-x="607" 
d="M380 889h95q0 -73 -44 -113.5t-128 -40.5t-127.5 40.5t-43.5 113.5h95q8 -58 76 -58q69 0 77 58zM416 700h169l-223 -518q-53 -122 -110.5 -165t-161.5 -33v135q44 -5 71.5 3.5t36 19t17.5 29.5q15 38 -13 103l-180 426h169l111 -307z" />
    <glyph glyph-name="uni0410" unicode="&#x410;" horiz-adv-x="722" 
d="M536 0l-45 131h-259l-45 -131h-165l271 700h137l270 -700h-164zM270 243h183l-92 268z" />
    <glyph glyph-name="uni0411" unicode="&#x411;" horiz-adv-x="644" 
d="M333 466q135 0 202 -61.5t67 -171.5q0 -109 -67 -171t-202 -62h-281v700h451v-132h-298v-102h128zM331 130q53 0 81 27t28 76q0 50 -28 77t-81 27h-126v-207h126z" />
    <glyph glyph-name="uni0412" unicode="&#x412;" horiz-adv-x="663" 
d="M488 385q61 -18 97 -67.5t36 -109.5q0 -99 -67.5 -153.5t-201.5 -54.5h-300v700h289q115 0 174.5 -48.5t59.5 -132.5q0 -46 -25 -81.5t-62 -52.5zM205 574v-147h134q36 0 56 22t20 55q0 35 -21 52.5t-51 17.5h-138zM347 126q57 0 83.5 25t26.5 64t-24.5 67.5t-80.5 28.5
h-147v-185h142z" />
    <glyph glyph-name="uni0413" unicode="&#x413;" horiz-adv-x="525" 
d="M503 700v-132h-298v-568h-153v700h451z" />
    <glyph glyph-name="uni0414" unicode="&#x414;" horiz-adv-x="838" 
d="M685 125h123v-194h-146v69h-494v-69h-146v194h85q41 41 65 122.5t24 248.5v204h489v-575zM268 125h264v443h-183v-72q0 -166 -22 -247.5t-59 -123.5z" />
    <glyph glyph-name="uni0415" unicode="&#x415;" horiz-adv-x="583" 
d="M205 132h348v-132h-501v700h491v-132h-338v-152h288v-122h-288v-162z" />
    <glyph glyph-name="uni0416" unicode="&#x416;" horiz-adv-x="1028" 
d="M1008 0h-174l-243 287v-287h-153v288l-244 -288h-174l295 353l-291 347h174l240 -282v282h153v-281l239 281h174l-291 -347z" />
    <glyph glyph-name="uni0417" unicode="&#x417;" horiz-adv-x="610" 
d="M422 371q20 -2 43.5 -11.5t48 -28t40.5 -52t16 -75.5q0 -97 -71 -156.5t-198 -59.5q-124 0 -195.5 68t-70.5 178h136q3 -62 41 -91.5t90 -29.5q47 0 84.5 23.5t37.5 75.5q0 43 -35.5 73t-109.5 30h-34v96h34q47 0 75.5 17t36 36t7.5 40q0 39 -29 59.5t-70 20.5
q-104 0 -107 -108h-136q0 110 64.5 171.5t176.5 61.5q107 0 174 -54.5t67 -132.5q0 -62 -35.5 -100.5t-80.5 -50.5z" />
    <glyph glyph-name="uni0418" unicode="&#x418;" horiz-adv-x="695" 
d="M52 700h153v-455h3l280 455h155v-700h-153v446h-3l-274 -446h-161v700z" />
    <glyph glyph-name="uni0419" unicode="&#x419;" horiz-adv-x="695" 
d="M424 889h95q0 -73 -44 -113.5t-128 -40.5t-127.5 40.5t-43.5 113.5h95q8 -58 76 -58q69 0 77 58zM52 700h153v-455h3l280 455h155v-700h-153v446h-3l-274 -446h-161v700z" />
    <glyph glyph-name="uni041A" unicode="&#x41a;" horiz-adv-x="705" 
d="M389 385l296 -385h-169l-213 276v8l-98 -115v-169h-153v700h153v-325l278 325h175z" />
    <glyph glyph-name="uni041B" unicode="&#x41b;" horiz-adv-x="685" 
d="M633 700v-700h-153v568h-209v-348q0 -123 -70 -181t-186 -46v132q50 -1 76.5 19.5t26.5 82.5v473h515z" />
    <glyph glyph-name="uni041C" unicode="&#x41c;" horiz-adv-x="849" 
d="M52 700h177l195 -497l196 497h177v-700h-153v443h-5l-159 -443h-112l-158 443h-5v-443h-153v700z" />
    <glyph glyph-name="uni041D" unicode="&#x41d;" horiz-adv-x="678" 
d="M473 700h153v-700h-153v288h-268v-288h-153v700h153v-288h268v288z" />
    <glyph glyph-name="uni041E" unicode="&#x41e;" horiz-adv-x="739" 
d="M370 709q152 0 242 -95t90 -264q0 -167 -90 -263t-242 -96t-242.5 96t-90.5 263q0 168 90.5 263.5t242.5 95.5zM370 123q82 0 127 60.5t45 166.5q0 107 -45 167t-127 60q-83 0 -128 -60t-45 -167q0 -106 45.5 -166.5t127.5 -60.5z" />
    <glyph glyph-name="uni041F" unicode="&#x41f;" horiz-adv-x="678" 
d="M626 700v-700h-153v568h-268v-568h-153v700h574z" />
    <glyph glyph-name="uni0420" unicode="&#x420;" horiz-adv-x="629" 
d="M333 700q135 0 202 -65t67 -178q0 -112 -67 -177.5t-202 -65.5h-128v-214h-153v700h281zM331 346q53 0 81 29.5t28 81.5q0 53 -28 82t-81 29h-126v-222h126z" />
    <glyph glyph-name="uni0421" unicode="&#x421;" horiz-adv-x="681" 
d="M363 123q55 0 86 24t50 77h152q-12 -113 -93.5 -173t-197.5 -60q-147 0 -235 94t-88 265t88 265t235 94q115 0 196 -60t93 -172h-151q-20 53 -50 76.5t-85 23.5q-79 0 -122.5 -60.5t-43.5 -166.5t43.5 -166.5t122.5 -60.5z" />
    <glyph glyph-name="uni0422" unicode="&#x422;" horiz-adv-x="600" 
d="M578 700v-132h-201v-568h-153v568h-202v132h556z" />
    <glyph glyph-name="uni0423" unicode="&#x423;" horiz-adv-x="607" 
d="M416 700h169l-223 -518q-53 -122 -110.5 -165t-161.5 -33v135q44 -5 71.5 3.5t36 19t17.5 29.5q15 38 -13 103l-180 426h169l111 -307z" />
    <glyph glyph-name="uni0424" unicode="&#x424;" horiz-adv-x="738" 
d="M701 350q0 -116 -68.5 -191t-187.5 -94v-80h-153v80q-119 19 -187 94t-68 191q0 117 68 192t187 93v80h153v-80q120 -18 188 -93t68 -192zM445 186q54 17 82 60t28 104q0 130 -110 164v-328zM183 350q0 -61 27.5 -104t81.5 -60v328q-109 -34 -109 -164z" />
    <glyph glyph-name="uni0425" unicode="&#x425;" horiz-adv-x="678" 
d="M661 0h-171l-151 230l-151 -230h-171l237 361l-223 339h171l137 -209l137 209h171l-222 -339z" />
    <glyph glyph-name="uni0426" unicode="&#x426;" horiz-adv-x="717" 
d="M626 132h69v-273h-146v141h-497v700h153v-568h268v568h153v-568z" />
    <glyph glyph-name="uni0427" unicode="&#x427;" horiz-adv-x="658" 
d="M453 700h153v-700h-153v273q-16 -39 -72 -80t-140 -41q-96 0 -150 56.5t-54 177.5v314h153v-307q0 -106 112 -106q64 0 105 36t46 69v308z" />
    <glyph glyph-name="uni0428" unicode="&#x428;" horiz-adv-x="838" 
d="M633 700h153v-700h-734v700h153v-568h138v568h152v-568h138v568z" />
    <glyph glyph-name="uni0429" unicode="&#x429;" horiz-adv-x="875" 
d="M786 132h67v-273h-146v141h-655v700h153v-568h138v568h152v-568h138v568h153v-568z" />
    <glyph glyph-name="uni042A" unicode="&#x42a;" horiz-adv-x="702" 
d="M391 466q135 0 202 -61.5t67 -171.5q0 -109 -67 -171t-202 -62h-281v568h-88v132h241v-234h128zM389 130q53 0 81 27t28 76q0 50 -28 77t-81 27h-126v-207h126z" />
    <glyph glyph-name="uni042B" unicode="&#x42b;" horiz-adv-x="879" 
d="M333 466q135 0 202 -61.5t67 -171.5q0 -109 -67 -171t-202 -62h-281v700h153v-234h128zM675 700h153v-700h-153v700zM331 130q53 0 81 27t28 76q0 50 -28 77t-81 27h-126v-207h126z" />
    <glyph glyph-name="uni042C" unicode="&#x42c;" horiz-adv-x="644" 
d="M333 466q135 0 202 -61.5t67 -171.5q0 -109 -67 -171t-202 -62h-281v700h153v-234h128zM331 130q53 0 81 27t28 76q0 50 -28 77t-81 27h-126v-207h126z" />
    <glyph glyph-name="uni042D" unicode="&#x42d;" horiz-adv-x="688" 
d="M328 709q147 0 235 -94t88 -265t-88 -265t-235 -94q-116 0 -197.5 60t-93.5 173h152q19 -53 50 -77t86 -24q68 0 109.5 45t52.5 126h-191v122h190q-12 77 -53.5 119t-107.5 42q-55 0 -85 -23.5t-50 -76.5h-151q12 112 93 172t196 60z" />
    <glyph glyph-name="uni042E" unicode="&#x42e;" horiz-adv-x="995" 
d="M626 709q152 0 242 -95t90 -264q0 -167 -90 -263t-242 -96q-137 0 -225 78.5t-104 218.5h-92v-288h-153v700h153v-288h92q16 141 104 219t225 78zM626 123q82 0 127 60.5t45 166.5q0 107 -45 167t-127 60q-83 0 -128 -60t-45 -167q0 -106 45.5 -166.5t127.5 -60.5z" />
    <glyph glyph-name="uni042F" unicode="&#x42f;" horiz-adv-x="669" 
d="M617 700v-700h-153v254h-167q-45 0 -71 -24.5t-26 -65.5v-47q0 -79 -20 -117h-153q20 35 20 117v52q0 55 24 91.5t80 62.5q-97 60 -97 166q0 95 65 153t196 58h302zM464 374v194h-146q-106 0 -106 -93q0 -52 25 -76.5t84 -24.5h143z" />
    <glyph glyph-name="uni0430" unicode="&#x430;" horiz-adv-x="560" 
d="M505 135q0 -44 38 -47v-83q-20 -9 -53 -9q-51 0 -83 21.5t-32 61.5v4q-55 -90 -171 -90q-75 0 -126 39.5t-51 120.5q0 34 12 60t27.5 41t45 26.5t50.5 16t57 11.5q14 3 40.5 7.5t41 7t31.5 7.5t27 11v1q0 76 -82 76q-74 0 -83 -58h-138q15 165 222 165q122 0 174.5 -51
t52.5 -167v-172zM359 164v92q-13 -7 -29 -12t-24.5 -7.5t-33.5 -7.5t-31 -6q-36 -9 -52 -24t-16 -40q0 -26 18 -44t53 -18q31 0 58 14t38.5 27t18.5 26z" />
    <glyph glyph-name="uni0431" unicode="&#x431;" horiz-adv-x="581" 
d="M329 520q28 0 57.5 -8.5t60 -28t54 -49t38.5 -75.5t15 -102q0 -72 -24.5 -126t-64 -83t-82.5 -43t-87 -14q-45 0 -87.5 16t-82.5 50.5t-64.5 100t-24.5 153.5v120q-1 139 59 204t177 65h33q52 0 78 22h129q-20 -75 -61 -105.5t-124 -30.5h-55q-45 0 -71 -29.5t-26 -72.5
v-31q7 25 50 46t103 21zM296 109q51 0 84 37t33 111q0 76 -33.5 114t-83.5 38q-51 0 -84.5 -38t-33.5 -114q0 -75 33 -111.5t85 -36.5z" />
    <glyph glyph-name="uni0432" unicode="&#x432;" horiz-adv-x="591" 
d="M454 289q51 -15 80.5 -50.5t29.5 -85.5q0 -153 -239 -153h-273v520h273q90 0 144 -33t54 -95q0 -79 -69 -103zM198 403v-87h126q26 0 42 10t19 18.5t3 16.5q0 42 -63 42h-127zM330 117q87 0 87 55q0 15 -4.5 25.5t-25.5 20.5t-58 10h-131v-111h132z" />
    <glyph glyph-name="uni0433" unicode="&#x433;" horiz-adv-x="445" 
d="M423 520v-114h-225v-406h-146v520h371z" />
    <glyph glyph-name="uni0434" unicode="&#x434;" horiz-adv-x="667" 
d="M595 114h50v-167h-133v53h-358v-53h-132v167h48q31 31 39.5 88.5t8.5 169.5v148h477v-406zM209 114h240v292h-185v-34q0 -105 -11 -166t-44 -92z" />
    <glyph glyph-name="uni0435" unicode="&#x435;" horiz-adv-x="559" 
d="M532 241q0 -18 -1 -27h-363q8 -59 38.5 -86t84.5 -27q76 0 100 48h127q-45 -156 -235 -156q-47 0 -90.5 15t-81.5 45t-61 83t-23 121q0 70 23 123.5t61 84t82 45.5t91 15q51 0 93.5 -15.5t78.5 -47.5t56 -88.5t20 -132.5zM169 304h224q-2 52 -30 82.5t-79 30.5
q-99 0 -115 -113z" />
    <glyph glyph-name="uni0436" unicode="&#x436;" horiz-adv-x="894" 
d="M887 0h-181l-182 192v-192h-146v193l-183 -193h-180l251 257l-246 263h181l177 -196v196h146v-196l177 196h180l-245 -263z" />
    <glyph glyph-name="uni0437" unicode="&#x437;" horiz-adv-x="550" 
d="M400 274q15 -3 29.5 -8.5t37.5 -18t37 -37t14 -56.5q0 -77 -72 -120t-180 -43q-117 0 -178 52.5t-61 154.5h132q0 -46 28.5 -74t78.5 -28t78.5 18.5t28.5 50.5q0 28 -30.5 47.5t-95.5 20.5v74q104 0 104 60q0 25 -24 39.5t-59 14.5q-40 0 -65.5 -21t-25.5 -59h-132
q0 88 59.5 137t159.5 49t162.5 -39t62.5 -104q0 -82 -89 -110z" />
    <glyph glyph-name="uni0438" unicode="&#x438;" horiz-adv-x="612" 
d="M52 520h146v-315h4l210 315h148v-520h-146v305h-3l-205 -305h-154v520z" />
    <glyph glyph-name="uni0439" unicode="&#x439;" horiz-adv-x="612" 
d="M384 709h95q0 -73 -44 -113.5t-128 -40.5t-127.5 40.5t-43.5 113.5h95q8 -58 76 -58q69 0 77 58zM52 520h146v-315h4l210 315h148v-520h-146v305h-3l-205 -305h-154v520z" />
    <glyph glyph-name="uni043A" unicode="&#x43a;" horiz-adv-x="581" 
d="M415 0l-171 208l-46 -47v-161h-146v520h146v-192l182 192h165l-211 -219l240 -301h-159z" />
    <glyph glyph-name="uni043B" unicode="&#x43b;" horiz-adv-x="624" 
d="M572 520v-520h-140l-5 406h-162v-189q0 -124 -66.5 -178t-183.5 -42v114q48 -1 76 23t28 90v296h453z" />
    <glyph glyph-name="uni043C" unicode="&#x43c;" horiz-adv-x="744" 
d="M52 520h170l150 -351l150 351h170v-520h-146v291h-5l-116 -291h-106l-116 291h-5v-291h-146v520z" />
    <glyph glyph-name="uni043D" unicode="&#x43d;" horiz-adv-x="574" 
d="M376 520h146v-520h-146v214h-178v-214h-146v520h146v-192h178v192z" />
    <glyph glyph-name="uni043E" unicode="&#x43e;" horiz-adv-x="570" 
d="M285 525q44 0 87 -15t82.5 -45t64 -84t24.5 -123q0 -68 -24.5 -121.5t-63.5 -83.5t-82.5 -45t-87.5 -15t-87.5 15t-82.5 45t-63.5 83.5t-24.5 121.5q0 69 24.5 123t64 84t82.5 45t87 15zM403 258q0 75 -33.5 112t-84.5 37t-84.5 -37t-33.5 -112q0 -72 34 -109.5t84 -37.5
t84 37.5t34 109.5z" />
    <glyph glyph-name="uni043F" unicode="&#x43f;" horiz-adv-x="568" 
d="M516 520v-520h-146v406h-172v-406h-146v520h464z" />
    <glyph glyph-name="uni0440" unicode="&#x440;" horiz-adv-x="596" 
d="M340 525q36 0 74.5 -15t74 -45t58 -83.5t22.5 -121.5q0 -69 -22.5 -123t-58.5 -84t-74.5 -45t-76.5 -15q-28 0 -52.5 7t-40 16.5t-26.5 20.5t-15.5 18.5t-4.5 11.5v-257h-146v710h146v-65q15 26 53.5 48t88.5 22zM307 111q52 0 86.5 37.5t34.5 111.5q0 73 -34.5 110
t-86.5 37q-51 0 -83 -37.5t-32 -109.5q0 -73 32 -111t83 -38z" />
    <glyph glyph-name="uni0441" unicode="&#x441;" horiz-adv-x="543" 
d="M284 111q77 0 98 75h131q-9 -55 -33 -95t-58 -60t-68 -29t-71 -9q-47 0 -90.5 14.5t-81.5 44.5t-61 83.5t-23 123.5q0 56 15 102t40 76t59 50.5t69 29t72 8.5q38 0 71.5 -8.5t66 -28t56 -58.5t33.5 -93h-134q-17 70 -92 70q-54 0 -84.5 -38.5t-30.5 -109.5
q0 -72 30.5 -110t85.5 -38z" />
    <glyph glyph-name="uni0442" unicode="&#x442;" horiz-adv-x="530" 
d="M500 520v-114h-162v-406h-146v406h-162v114h470z" />
    <glyph glyph-name="uni0443" unicode="&#x443;" horiz-adv-x="577" 
d="M412 520h148l-213 -518q-49 -122 -108 -165t-164 -33v123q44 -5 73.5 5.5t41 24.5t21.5 37q10 22 -7 64l-187 462h151l119 -336z" />
    <glyph glyph-name="uni0444" unicode="&#x444;" horiz-adv-x="614" 
d="M587 257q0 -111 -60.5 -176t-149.5 -83v-183h-138v184q-91 19 -151.5 82.5t-60.5 175.5q0 113 60.5 178.5t151.5 84.5v187h138v-187q90 -20 150 -85.5t60 -177.5zM146 257q0 -120 93 -148v300q-93 -30 -93 -152zM377 109q91 30 91 148q0 121 -91 152v-300z" />
    <glyph glyph-name="uni0445" unicode="&#x445;" horiz-adv-x="580" 
d="M558 0h-159l-109 166l-109 -166h-159l187 271l-171 249h159l93 -143l93 143h159l-171 -249z" />
    <glyph glyph-name="uni0446" unicode="&#x446;" horiz-adv-x="599" 
d="M516 114h66v-254h-140v140h-390v520h146v-406h172v406h146v-406z" />
    <glyph glyph-name="uni0447" unicode="&#x447;" horiz-adv-x="577" 
d="M379 520h146v-520h-146v241q-15 -37 -59.5 -72t-108.5 -35q-85 0 -134.5 49t-49.5 154v183h146v-175q0 -44 25 -67t69 -23q49 0 78 32t34 66v167z" />
    <glyph glyph-name="uni0448" unicode="&#x448;" horiz-adv-x="798" 
d="M600 520h146v-520h-694v520h146v-406h132v406h138v-406h132v406z" />
    <glyph glyph-name="uni0449" unicode="&#x449;" horiz-adv-x="828" 
d="M746 114h65v-254h-139v140h-620v520h146v-406h132v406h138v-406h132v406h146v-406z" />
    <glyph glyph-name="uni044A" unicode="&#x44a;" horiz-adv-x="634" 
d="M392 346q99 0 157 -47t58 -126q0 -81 -58 -127t-157 -46h-280v406h-90v114h236v-174h134zM391 114q74 0 74 59t-74 59h-133v-118h133z" />
    <glyph glyph-name="uni044B" unicode="&#x44b;" horiz-adv-x="810" 
d="M332 346q99 0 157 -47t58 -126q0 -81 -58 -127t-157 -46h-280v520h146v-174h134zM612 520h146v-520h-146v520zM331 114q74 0 74 59t-74 59h-133v-118h133z" />
    <glyph glyph-name="uni044C" unicode="&#x44c;" horiz-adv-x="574" 
d="M332 346q99 0 157 -47t58 -126q0 -81 -58 -127t-157 -46h-280v520h146v-174h134zM331 114q74 0 74 59t-74 59h-133v-118h133z" />
    <glyph glyph-name="uni044D" unicode="&#x44d;" horiz-adv-x="540" 
d="M258 525q37 0 72 -8.5t69 -29t59 -50.5t40 -76t15 -102q0 -70 -23 -123.5t-61 -83.5t-81.5 -44.5t-90.5 -14.5q-37 0 -71 9t-68 29t-58 60t-33 95h131q21 -75 98 -75q96 0 113 106h-141v89h140q-19 101 -111 101q-75 0 -92 -70h-134q10 54 33.5 93t56 58.5t66 28
t71.5 8.5z" />
    <glyph glyph-name="uni044E" unicode="&#x44e;" horiz-adv-x="802" 
d="M517 525q44 0 87 -15t82.5 -45t64 -84t24.5 -123q0 -68 -24.5 -121.5t-63.5 -83.5t-82.5 -45t-87.5 -15q-85 0 -160.5 53t-93.5 157h-65v-204h-146v520h146v-202h66q13 71 56 120t93.5 68.5t103.5 19.5zM517 111q50 0 84 37.5t34 109.5q0 75 -33.5 112t-84.5 37
t-84.5 -37t-33.5 -112q0 -72 34 -109.5t84 -37.5z" />
    <glyph glyph-name="uni044F" unicode="&#x44f;" horiz-adv-x="588" 
d="M536 520v-520h-146v174h-142q-57 0 -57 -53v-42q0 -50 -15 -79h-146q15 29 15 79v42q0 71 59 96q-63 47 -63 130q0 81 58 127t157 46h280zM390 288v118h-133q-74 0 -74 -59t74 -59h133z" />
    <glyph glyph-name="uni0451" unicode="&#x451;" horiz-adv-x="559" 
d="M239 709v-110h-148v110h148zM474 709v-110h-149v110h149zM532 241q0 -18 -1 -27h-363q8 -59 38.5 -86t84.5 -27q76 0 100 48h127q-45 -156 -235 -156q-47 0 -90.5 15t-81.5 45t-61 83t-23 121q0 70 23 123.5t61 84t82 45.5t91 15q51 0 93.5 -15.5t78.5 -47.5t56 -88.5
t20 -132.5zM169 304h224q-2 52 -30 82.5t-79 30.5q-99 0 -115 -113z" />
    <glyph glyph-name="uni0453" unicode="&#x453;" horiz-adv-x="445" 
d="M150 581h123l117 128h-160zM423 520v-114h-225v-406h-146v520h371z" />
    <glyph glyph-name="uni0454" unicode="&#x454;" horiz-adv-x="543" 
d="M382 186h131q-9 -55 -33 -95t-58 -60t-68 -29t-71 -9q-47 0 -90.5 14.5t-81.5 44.5t-61 83.5t-23 123.5q0 56 15 102t40 76t59 50.5t69 29t72 8.5q38 0 71.5 -8.5t66 -28t56 -58.5t33.5 -93h-134q-17 70 -92 70q-92 0 -111 -101h140v-89h-141q17 -106 113 -106
q77 0 98 75z" />
    <glyph glyph-name="uni0457" unicode="&#x457;" horiz-adv-x="250" 
d="M-66 709h148v-110h-148v110zM168 709h149v-110h-149v110zM52 520h146v-520h-146v520z" />
    <glyph glyph-name="uni045C" unicode="&#x45c;" horiz-adv-x="581" 
d="M458 709l-117 -128h-123l80 128h160zM415 0l-171 208l-46 -47v-161h-146v520h146v-192l182 192h165l-211 -219l240 -301h-159z" />
    <glyph glyph-name="uni045E" unicode="&#x45e;" horiz-adv-x="577" 
d="M365 709h95q0 -73 -44 -113.5t-128 -40.5t-127.5 40.5t-43.5 113.5h95q8 -58 76 -58q69 0 77 58zM412 520h148l-213 -518q-49 -122 -108 -165t-164 -33v123q44 -5 73.5 5.5t41 24.5t21.5 37q10 22 -7 64l-187 462h151l119 -336z" />
    <glyph glyph-name="uni0490" unicode="&#x490;" horiz-adv-x="525" 
d="M351 800h152v-232h-298v-568h-153v700h299v100z" />
    <glyph glyph-name="uni0491" unicode="&#x491;" horiz-adv-x="445" 
d="M298 586h125v-180h-225v-406h-146v520h246v66z" />
    <glyph glyph-name="Wgrave" unicode="&#x1e80;" horiz-adv-x="1029" 
d="M583 761l-80 128h-160l117 -128h123zM847 700h160l-201 -700h-141l-151 466l-151 -466h-140l-201 700h160l120 -468l139 468h147l139 -468z" />
    <glyph glyph-name="wgrave" unicode="&#x1e81;" horiz-adv-x="814" 
d="M475 581l-80 128h-160l117 -128h123zM797 520l-147 -520h-124l-119 347l-118 -347h-125l-147 520h147l82 -335l103 335h116l103 -335l82 335h147z" />
    <glyph glyph-name="Wacute" unicode="&#x1e82;" horiz-adv-x="1029" 
d="M442 761h123l117 128h-160zM847 700h160l-201 -700h-141l-151 466l-151 -466h-140l-201 700h160l120 -468l139 468h147l139 -468z" />
    <glyph glyph-name="wacute" unicode="&#x1e83;" horiz-adv-x="814" 
d="M334 581h123l117 128h-160zM797 520l-147 -520h-124l-119 347l-118 -347h-125l-147 520h147l82 -335l103 335h116l103 -335l82 335h147z" />
    <glyph glyph-name="Wdieresis" unicode="&#x1e84;" horiz-adv-x="1029" 
d="M323 889h148v-110h-148v110zM557 889h149v-110h-149v110zM847 700h160l-201 -700h-141l-151 466l-151 -466h-140l-201 700h160l120 -468l139 468h147l139 -468z" />
    <glyph glyph-name="wdieresis" unicode="&#x1e85;" horiz-adv-x="814" 
d="M215 709h148v-110h-148v110zM449 709h149v-110h-149v110zM797 520l-147 -520h-124l-119 347l-118 -347h-125l-147 520h147l82 -335l103 335h116l103 -335l82 335h147z" />
    <glyph glyph-name="uni1E9E" unicode="&#x1e9e;" horiz-adv-x="737" 
d="M483 442q94 -15 155.5 -74t61.5 -162q0 -99 -62 -157.5t-174 -58.5q-118 0 -170 56.5t-52 163.5h148q0 -34 17.5 -61t56.5 -27q38 0 56.5 25.5t18.5 57.5q0 57 -71 90t-185 27l137 257h-140q-40 0 -57.5 -20.5t-17.5 -62.5v-496h-153v512q0 103 52 151t160 48h377z" />
    <glyph glyph-name="Ygrave" unicode="&#x1ef2;" horiz-adv-x="705" 
d="M421 761l-80 128h-160l117 -128h123zM431 257v-257h-157v257l-252 443h172l158 -296l159 296h172z" />
    <glyph glyph-name="ygrave" unicode="&#x1ef3;" horiz-adv-x="577" 
d="M356 581l-80 128h-160l117 -128h123zM412 520h148l-213 -518q-49 -122 -108 -165t-164 -33v123q44 -5 73.5 5.5t41 24.5t21.5 37q10 22 -7 64l-187 462h151l119 -336z" />
    <glyph glyph-name="endash" unicode="&#x2013;" horiz-adv-x="600" 
d="M45 331h510v-110h-510v110z" />
    <glyph glyph-name="emdash" unicode="&#x2014;" horiz-adv-x="660" 
d="M45 331h570v-110h-570v110z" />
    <glyph glyph-name="quoteleft" unicode="&#x2018;" horiz-adv-x="238" 
d="M198 700v-45q-61 -12 -61 -90v-32h61v-166h-158v158q0 46 9.5 79t24 51t36.5 28.5t42 13.5t46 3z" />
    <glyph glyph-name="quoteright" unicode="&#x2019;" horiz-adv-x="238" 
d="M40 367v45q61 12 61 90v32h-61v166h158v-158q0 -46 -9.5 -79t-24 -51t-36.5 -28.5t-42 -13.5t-46 -3z" />
    <glyph glyph-name="quotesinglbase" unicode="&#x201a;" horiz-adv-x="238" 
d="M40 -167v45q61 12 61 90v32h-61v166h158v-158q0 -46 -9.5 -79t-24 -51t-36.5 -28.5t-42 -13.5t-46 -3z" />
    <glyph glyph-name="quotedblleft" unicode="&#x201c;" horiz-adv-x="484" 
d="M198 701v-45q-61 -12 -61 -90v-32h61v-166h-158v158q0 46 9.5 79t24 51t36.5 28.5t42 13.5t46 3zM443 701v-45q-61 -12 -61 -90v-32h61v-166h-158v158q0 46 9.5 79t24 51t36.5 28.5t42 13.5t46 3z" />
    <glyph glyph-name="quotedblright" unicode="&#x201d;" horiz-adv-x="484" 
d="M41 367v45q61 12 61 90v32h-61v166h158v-158q0 -46 -9.5 -79t-24 -51t-36.5 -28.5t-42 -13.5t-46 -3zM286 367v45q61 12 61 90v32h-61v166h158v-158q0 -46 -9.5 -79t-24 -51t-36.5 -28.5t-42 -13.5t-46 -3z" />
    <glyph glyph-name="quotedblbase" unicode="&#x201e;" horiz-adv-x="484" 
d="M41 -167v45q61 12 61 90v32h-61v166h158v-158q0 -46 -9.5 -79t-24 -51t-36.5 -28.5t-42 -13.5t-46 -3zM286 -167v45q61 12 61 90v32h-61v166h158v-158q0 -46 -9.5 -79t-24 -51t-36.5 -28.5t-42 -13.5t-46 -3z" />
    <glyph glyph-name="dagger" unicode="&#x2020;" horiz-adv-x="427" 
d="M377 553v-110h-105v-247h-116v247h-106v110h106v147h116v-147h105z" />
    <glyph glyph-name="daggerdbl" unicode="&#x2021;" horiz-adv-x="427" 
d="M377 457h-105v-214h105v-110h-105v-133h-116v133h-106v110h106v214h-106v110h106v133h116v-133h105v-110z" />
    <glyph glyph-name="bullet" unicode="&#x2022;" horiz-adv-x="279" 
d="M140 174q-37 0 -63.5 26.5t-26.5 63.5q0 36 26.5 62.5t63.5 26.5q36 0 62.5 -26.5t26.5 -62.5q0 -37 -26.5 -63.5t-62.5 -26.5z" />
    <glyph glyph-name="ellipsis" unicode="&#x2026;" horiz-adv-x="752" 
d="M50 166h158v-166h-158v166zM297 166h158v-166h-158v166zM544 166h158v-166h-158v166z" />
    <glyph glyph-name="perthousand" unicode="&#x2030;" horiz-adv-x="1058" 
d="M187 373q-64 0 -103 42t-39 124t39 124t103 42t103 -42t39 -124t-39 -124t-103 -42zM111 0l412 703l105 -3l-410 -700h-107zM187 466q20 0 30.5 15.5t10.5 57.5t-10.5 57.5t-30.5 15.5q-42 0 -42 -73t42 -73zM871 -2q-64 0 -103 42.5t-39 123.5q0 82 39 124.5t103 42.5
t103 -42.5t39 -124.5q0 -81 -39 -123.5t-103 -42.5zM554 -5q-64 0 -103 42t-39 124t39 124t103 42t103 -42t39 -124t-39 -124t-103 -42zM871 91q20 0 30.5 15.5t10.5 57.5q0 43 -10.5 58.5t-30.5 15.5q-42 0 -42 -74q0 -73 42 -73zM554 88q42 0 42 73t-42 73
q-20 0 -30.5 -15.5t-10.5 -57.5t10.5 -57.5t30.5 -15.5z" />
    <glyph glyph-name="guilsinglleft" unicode="&#x2039;" horiz-adv-x="253" 
d="M213 366l-84 -67l84 -68v-132l-173 140v119l173 140v-132z" />
    <glyph glyph-name="guilsinglright" unicode="&#x203a;" horiz-adv-x="255" 
d="M47 366v132l173 -140v-119l-173 -140v132l84 68z" />
    <glyph glyph-name="fraction" unicode="&#x2044;" horiz-adv-x="157" 
d="M-103 0h-73l436 700h73z" />
    <glyph glyph-name="Euro" unicode="&#x20ac;" horiz-adv-x="726" 
d="M544 224h152q-12 -113 -93.5 -173t-197.5 -60q-117 0 -198 60.5t-110 173.5h-62v88h48q-1 12 -1 37v11h-47v88h56q24 125 107 192.5t207 67.5q115 0 196 -60t93 -172h-151q-20 53 -50 76.5t-85 23.5q-119 0 -154 -128h131v-88h-143v-11q0 -25 1 -37h142v-88h-122
q41 -102 145 -102q55 0 86 24t50 77z" />
    <glyph glyph-name="trademark" unicode="&#x2122;" horiz-adv-x="519" 
d="M217 653h-60v-133h-57v133h-60v47h177v-47zM479 700v-180h-57v90l-33 -90h-50l-33 90v-90h-57v180h57l58 -135l58 135h57z" />
    <glyph glyph-name="partialdiff" unicode="&#x2202;" horiz-adv-x="601" 
d="M268 457q66 0 108.5 -23.5t49.5 -42.5q0 29 -3.5 56t-15 66t-41 62.5t-73.5 23.5q-35 0 -67 -21t-40 -64h-129q5 76 64 135.5t174 59.5q137 0 203 -98t66 -266q0 -183 -74.5 -268.5t-191.5 -85.5q-44 0 -86 12t-81.5 38t-64 75.5t-24.5 116.5q0 51 16 91t40.5 64.5
t56 40.5t59.5 22t54 6zM295 109q17 0 34.5 5.5t36.5 19t31 40.5t12 65q0 61 -35 89t-76 28t-77.5 -29t-36.5 -92q0 -66 34 -96t77 -30z" />
    <glyph glyph-name="product" unicode="&#x220f;" horiz-adv-x="744" 
d="M45 800h654v-990h-140v857h-374v-857h-140v990z" />
    <glyph glyph-name="summation" unicode="&#x2211;" horiz-adv-x="696" 
d="M651 668h-373l200 -363l-200 -363h373v-132h-606l275 495l-275 495h606v-132z" />
    <glyph glyph-name="minus" unicode="&#x2212;" horiz-adv-x="425" 
d="M39 307h334v-110h-334v110z" />
    <glyph glyph-name="radical" unicode="&#x221a;" horiz-adv-x="819" 
d="M774 800l-259 -990h-170l-176 429h-124v156h221l156 -397l208 802h144z" />
    <glyph glyph-name="infinity" unicode="&#x221e;" horiz-adv-x="831" 
d="M606 435q81 0 134.5 -47.5t53.5 -125.5q0 -80 -53.5 -128t-134.5 -48q-92 0 -190 96q-100 -96 -189 -96q-82 0 -136 48t-54 128q0 78 54 125.5t136 47.5q88 0 189 -95q99 95 190 95zM234 195q58 0 109 67q-53 67 -109 67q-33 0 -51.5 -20.5t-18.5 -46.5q0 -27 18.5 -47
t51.5 -20zM597 195q33 0 51.5 20t18.5 47q0 26 -18.5 46.5t-51.5 20.5q-56 0 -109 -67q51 -67 109 -67z" />
    <glyph glyph-name="integral" unicode="&#x222b;" horiz-adv-x="312" 
d="M83 511q0 91 46 138t163 47v-125q-35 0 -49 -24t-14 -70v-483q0 -97 -47 -140.5t-162 -43.5v125q39 0 51 23.5t12 70.5v482z" />
    <glyph glyph-name="approxequal" unicode="&#x2248;" horiz-adv-x="523" 
d="M418 395h60q0 -59 -33.5 -98t-94.5 -39q-42 0 -103.5 41t-99.5 41q-17 0 -30 -9t-12 -23h-60q0 60 33.5 98.5t94.5 38.5q42 0 103.5 -41t99.5 -41q17 0 30 9t12 23zM418 235h60q0 -59 -33.5 -98t-94.5 -39q-42 0 -103.5 41t-99.5 41q-17 0 -30 -9t-12 -23h-60
q0 60 33.5 98.5t94.5 38.5q42 0 103.5 -41t99.5 -41q17 0 30 9t12 23z" />
    <glyph glyph-name="notequal" unicode="&#x2260;" horiz-adv-x="425" 
d="M371 301h-103l-19 -50h122v-110h-165l-55 -141h-95l55 141h-74v110h117l19 50h-136v110h179l58 150h95l-58 -150h60v-110z" />
    <glyph glyph-name="lessequal" unicode="&#x2264;" horiz-adv-x="442" 
d="M393 279l-234 97l234 96v123l-343 -162v-114l343 -162v122zM50 110h342v-110h-342v110z" />
    <glyph glyph-name="greaterequal" unicode="&#x2265;" horiz-adv-x="444" 
d="M51 279v-122l343 162v114l-343 162v-123l234 -96zM394 110v-110h-342v110h342z" />
    <glyph glyph-name="lozenge" unicode="&#x25ca;" horiz-adv-x="606" 
d="M406 700l155 -350l-155 -350h-206l-155 350l155 350h206zM303 102l110 248l-110 248l-110 -248z" />
    <glyph glyph-name="G.ss01" horiz-adv-x="703" 
d="M399 371h267v-371h-141v75q-32 -45 -72.5 -64.5t-99.5 -19.5q-142 0 -229 95t-87 264q0 170 88.5 264.5t234.5 94.5q109 0 189.5 -56.5t97.5 -160.5h-151q-21 44 -52 64.5t-81 20.5q-79 0 -122.5 -60.5t-43.5 -166.5q0 -104 44 -165t128 -62q70 -1 110.5 31.5t44.5 94.5
h-125v122z" />
    <glyph glyph-name="R.ss01" horiz-adv-x="636" 
d="M609 0h-156l-119 214h-1h-128v-214h-153v700h281q135 0 202 -65t67 -178q0 -162 -130 -218zM205 568v-222h126q53 0 81 29.5t28 81.5q0 53 -28 82t-81 29h-126z" />
    <glyph glyph-name="G.ss05" horiz-adv-x="703" 
d="M399 371h267v-371h-141v75q-32 -45 -72.5 -64.5t-99.5 -19.5q-142 0 -229 95t-87 264q0 170 88.5 264.5t234.5 94.5q109 0 189.5 -56.5t97.5 -160.5h-151q-21 44 -52 64.5t-81 20.5q-79 0 -122.5 -60.5t-43.5 -166.5q0 -104 44 -165t128 -62q70 -1 110.5 31.5t44.5 94.5
h-125v122z" />
    <glyph glyph-name="i.loclTRK" horiz-adv-x="250" 
d="M52 709h148v-110h-148v110zM52 520h146v-520h-146v520z" />
    <glyph glyph-name="a.ss01" 
d="M387 520h146v-520h-146v63q-1 -11 -13 -26t-44.5 -29.5t-76.5 -14.5q-37 0 -74.5 14.5t-72.5 44.5t-57 84t-22 124q0 69 22 122.5t57 83t72.5 44.5t74.5 15q97 0 134 -69v64zM283 111q50 0 80 37t30 112q0 74 -30 110.5t-80 36.5t-80 -35.5t-30 -111.5t30 -112.5
t80 -36.5z" />
    <glyph glyph-name="aacute.ss01" 
d="M465 709l-117 -128h-123l80 128h160zM387 520h146v-520h-146v63q-1 -11 -13 -26t-44.5 -29.5t-76.5 -14.5q-37 0 -74.5 14.5t-72.5 44.5t-57 84t-22 124q0 69 22 122.5t57 83t72.5 44.5t74.5 15q97 0 134 -69v64zM283 111q50 0 80 37t30 112q0 74 -30 110.5t-80 36.5
t-80 -35.5t-30 -111.5t30 -112.5t80 -36.5z" />
    <glyph glyph-name="abreve.ss01" 
d="M297 555q-84 0 -127.5 40.5t-43.5 113.5h95q8 -58 76 -58q69 0 77 58h95q0 -73 -44 -113.5t-128 -40.5zM387 520h146v-520h-146v63q-1 -11 -13 -26t-44.5 -29.5t-76.5 -14.5q-37 0 -74.5 14.5t-72.5 44.5t-57 84t-22 124q0 69 22 122.5t57 83t72.5 44.5t74.5 15
q97 0 134 -69v64zM283 111q50 0 80 37t30 112q0 74 -30 110.5t-80 36.5t-80 -35.5t-30 -111.5t30 -112.5t80 -36.5z" />
    <glyph glyph-name="uni01CE.ss01" 
d="M430 559h-269l-69 141h114l90 -78l89 78h114zM387 520h146v-520h-146v63q-1 -11 -13 -26t-44.5 -29.5t-76.5 -14.5q-37 0 -74.5 14.5t-72.5 44.5t-57 84t-22 124q0 69 22 122.5t57 83t72.5 44.5t74.5 15q97 0 134 -69v64zM283 111q50 0 80 37t30 112q0 74 -30 110.5
t-80 36.5t-80 -35.5t-30 -111.5t30 -112.5t80 -36.5z" />
    <glyph glyph-name="acircumflex.ss01" 
d="M297 646l-90 -78h-114l69 141h269l69 -141h-114zM387 520h146v-520h-146v63q-1 -11 -13 -26t-44.5 -29.5t-76.5 -14.5q-37 0 -74.5 14.5t-72.5 44.5t-57 84t-22 124q0 69 22 122.5t57 83t72.5 44.5t74.5 15q97 0 134 -69v64zM283 111q50 0 80 37t30 112q0 74 -30 110.5
t-80 36.5t-80 -35.5t-30 -111.5t30 -112.5t80 -36.5z" />
    <glyph glyph-name="adieresis.ss01" 
d="M254 709v-110h-148v110h148zM489 709v-110h-149v110h149zM387 520h146v-520h-146v63q-1 -11 -13 -26t-44.5 -29.5t-76.5 -14.5q-37 0 -74.5 14.5t-72.5 44.5t-57 84t-22 124q0 69 22 122.5t57 83t72.5 44.5t74.5 15q97 0 134 -69v64zM283 111q50 0 80 37t30 112
q0 74 -30 110.5t-80 36.5t-80 -35.5t-30 -111.5t30 -112.5t80 -36.5z" />
    <glyph glyph-name="agrave.ss01" 
d="M366 581h-123l-117 128h160zM387 520h146v-520h-146v63q-1 -11 -13 -26t-44.5 -29.5t-76.5 -14.5q-37 0 -74.5 14.5t-72.5 44.5t-57 84t-22 124q0 69 22 122.5t57 83t72.5 44.5t74.5 15q97 0 134 -69v64zM283 111q50 0 80 37t30 112q0 74 -30 110.5t-80 36.5t-80 -35.5
t-30 -111.5t30 -112.5t80 -36.5z" />
    <glyph glyph-name="amacron.ss01" 
d="M478 709v-85h-362v85h362zM387 520h146v-520h-146v63q-1 -11 -13 -26t-44.5 -29.5t-76.5 -14.5q-37 0 -74.5 14.5t-72.5 44.5t-57 84t-22 124q0 69 22 122.5t57 83t72.5 44.5t74.5 15q97 0 134 -69v64zM283 111q50 0 80 37t30 112q0 74 -30 110.5t-80 36.5t-80 -35.5
t-30 -111.5t30 -112.5t80 -36.5z" />
    <glyph glyph-name="aogonek.ss01" 
d="M387 520h146v-520h-40q-135 -36 -135 -108q0 -29 24 -35.5t61 7.5v-61q-27 -14 -64 -20.5t-72.5 -3t-60.5 25.5t-25 61q0 54 53 91t113 43v63q-1 -11 -13 -26t-44.5 -29.5t-76.5 -14.5q-37 0 -74.5 14.5t-72.5 44.5t-57 84t-22 124q0 69 22 122.5t57 83t72.5 44.5
t74.5 15q97 0 134 -69v64zM283 111q50 0 80 37t30 112q0 74 -30 110.5t-80 36.5t-80 -35.5t-30 -111.5t30 -112.5t80 -36.5z" />
    <glyph glyph-name="aring.ss01" 
d="M296 579q-41 0 -70.5 29t-29.5 71t29.5 71t70.5 29t70.5 -29t29.5 -71t-29.5 -71t-70.5 -29zM296 716q-15 0 -25.5 -10t-10.5 -27t10.5 -27t25.5 -10q16 0 26.5 10t10.5 27t-10.5 27t-26.5 10zM387 520h146v-520h-146v63q-1 -11 -13 -26t-44.5 -29.5t-76.5 -14.5
q-37 0 -74.5 14.5t-72.5 44.5t-57 84t-22 124q0 69 22 122.5t57 83t72.5 44.5t74.5 15q97 0 134 -69v64zM283 111q50 0 80 37t30 112q0 74 -30 110.5t-80 36.5t-80 -35.5t-30 -111.5t30 -112.5t80 -36.5z" />
    <glyph glyph-name="atilde.ss01" 
d="M193 648q-16 0 -29 -8.5t-12 -22.5h-57q0 57 32 94t90 37q40 0 99 -39t94 -39q17 0 29.5 8.5t11.5 21.5h58q0 -57 -32 -93.5t-90 -36.5q-41 0 -100 39t-94 39zM387 520h146v-520h-146v63q-1 -11 -13 -26t-44.5 -29.5t-76.5 -14.5q-37 0 -74.5 14.5t-72.5 44.5t-57 84
t-22 124q0 69 22 122.5t57 83t72.5 44.5t74.5 15q97 0 134 -69v64zM283 111q50 0 80 37t30 112q0 74 -30 110.5t-80 36.5t-80 -35.5t-30 -111.5t30 -112.5t80 -36.5z" />
    <glyph glyph-name="g.ss01" horiz-adv-x="566" 
d="M274 138q48 0 90 -9t80 -28t60 -55.5t22 -86.5q0 -64 -39.5 -106t-93.5 -57.5t-119 -15.5q-45 0 -86.5 9.5t-79 29t-59.5 56t-22 84.5q0 91 103 131q-39 6 -68.5 27.5t-29.5 54.5q0 27 18.5 46.5t47.5 27.5q-33 42 -33 104q0 81 56 128.5t147 47.5q86 0 142 -45
q34 40 97 39v-106q-25 0 -45 -10q8 -27 8 -54q0 -81 -56 -128t-146 -47q-61 0 -106 21q-16 -5 -16 -23q0 -22 22.5 -28.5t69.5 -6.5h36zM268 424q-44 0 -61.5 -22t-17.5 -52t17.5 -51.5t61.5 -21.5q78 0 78 73q0 74 -78 74zM277 -116q108 0 108 75t-108 75t-108 -75t108 -75
z" />
    <glyph glyph-name="l.ss01" horiz-adv-x="278" 
d="M250 0q-51 -6 -88.5 -3t-61.5 18.5t-36 48t-12 86.5v557h146v-565q0 -37 52 -36v-106z" />
    <glyph glyph-name="a.ss02" 
d="M387 520h146v-520h-146v63q-1 -11 -13 -26t-44.5 -29.5t-76.5 -14.5q-37 0 -74.5 14.5t-72.5 44.5t-57 84t-22 124q0 69 22 122.5t57 83t72.5 44.5t74.5 15q97 0 134 -69v64zM283 111q50 0 80 37t30 112q0 74 -30 110.5t-80 36.5t-80 -35.5t-30 -111.5t30 -112.5
t80 -36.5z" />
    <glyph glyph-name="aacute.ss02" 
d="M465 709l-117 -128h-123l80 128h160zM387 520h146v-520h-146v63q-1 -11 -13 -26t-44.5 -29.5t-76.5 -14.5q-37 0 -74.5 14.5t-72.5 44.5t-57 84t-22 124q0 69 22 122.5t57 83t72.5 44.5t74.5 15q97 0 134 -69v64zM283 111q50 0 80 37t30 112q0 74 -30 110.5t-80 36.5
t-80 -35.5t-30 -111.5t30 -112.5t80 -36.5z" />
    <glyph glyph-name="abreve.ss02" 
d="M297 555q-84 0 -127.5 40.5t-43.5 113.5h95q8 -58 76 -58q69 0 77 58h95q0 -73 -44 -113.5t-128 -40.5zM387 520h146v-520h-146v63q-1 -11 -13 -26t-44.5 -29.5t-76.5 -14.5q-37 0 -74.5 14.5t-72.5 44.5t-57 84t-22 124q0 69 22 122.5t57 83t72.5 44.5t74.5 15
q97 0 134 -69v64zM283 111q50 0 80 37t30 112q0 74 -30 110.5t-80 36.5t-80 -35.5t-30 -111.5t30 -112.5t80 -36.5z" />
    <glyph glyph-name="uni01CE.ss02" 
d="M430 559h-269l-69 141h114l90 -78l89 78h114zM387 520h146v-520h-146v63q-1 -11 -13 -26t-44.5 -29.5t-76.5 -14.5q-37 0 -74.5 14.5t-72.5 44.5t-57 84t-22 124q0 69 22 122.5t57 83t72.5 44.5t74.5 15q97 0 134 -69v64zM283 111q50 0 80 37t30 112q0 74 -30 110.5
t-80 36.5t-80 -35.5t-30 -111.5t30 -112.5t80 -36.5z" />
    <glyph glyph-name="acircumflex.ss02" 
d="M297 646l-90 -78h-114l69 141h269l69 -141h-114zM387 520h146v-520h-146v63q-1 -11 -13 -26t-44.5 -29.5t-76.5 -14.5q-37 0 -74.5 14.5t-72.5 44.5t-57 84t-22 124q0 69 22 122.5t57 83t72.5 44.5t74.5 15q97 0 134 -69v64zM283 111q50 0 80 37t30 112q0 74 -30 110.5
t-80 36.5t-80 -35.5t-30 -111.5t30 -112.5t80 -36.5z" />
    <glyph glyph-name="adieresis.ss02" 
d="M254 709v-110h-148v110h148zM489 709v-110h-149v110h149zM387 520h146v-520h-146v63q-1 -11 -13 -26t-44.5 -29.5t-76.5 -14.5q-37 0 -74.5 14.5t-72.5 44.5t-57 84t-22 124q0 69 22 122.5t57 83t72.5 44.5t74.5 15q97 0 134 -69v64zM283 111q50 0 80 37t30 112
q0 74 -30 110.5t-80 36.5t-80 -35.5t-30 -111.5t30 -112.5t80 -36.5z" />
    <glyph glyph-name="agrave.ss02" 
d="M366 581h-123l-117 128h160zM387 520h146v-520h-146v63q-1 -11 -13 -26t-44.5 -29.5t-76.5 -14.5q-37 0 -74.5 14.5t-72.5 44.5t-57 84t-22 124q0 69 22 122.5t57 83t72.5 44.5t74.5 15q97 0 134 -69v64zM283 111q50 0 80 37t30 112q0 74 -30 110.5t-80 36.5t-80 -35.5
t-30 -111.5t30 -112.5t80 -36.5z" />
    <glyph glyph-name="amacron.ss02" 
d="M478 709v-85h-362v85h362zM387 520h146v-520h-146v63q-1 -11 -13 -26t-44.5 -29.5t-76.5 -14.5q-37 0 -74.5 14.5t-72.5 44.5t-57 84t-22 124q0 69 22 122.5t57 83t72.5 44.5t74.5 15q97 0 134 -69v64zM283 111q50 0 80 37t30 112q0 74 -30 110.5t-80 36.5t-80 -35.5
t-30 -111.5t30 -112.5t80 -36.5z" />
    <glyph glyph-name="aogonek.ss02" 
d="M387 520h146v-520h-40q-135 -36 -135 -108q0 -29 24 -35.5t61 7.5v-61q-27 -14 -64 -20.5t-72.5 -3t-60.5 25.5t-25 61q0 54 53 91t113 43v63q-1 -11 -13 -26t-44.5 -29.5t-76.5 -14.5q-37 0 -74.5 14.5t-72.5 44.5t-57 84t-22 124q0 69 22 122.5t57 83t72.5 44.5
t74.5 15q97 0 134 -69v64zM283 111q50 0 80 37t30 112q0 74 -30 110.5t-80 36.5t-80 -35.5t-30 -111.5t30 -112.5t80 -36.5z" />
    <glyph glyph-name="aring.ss02" 
d="M296 579q-41 0 -70.5 29t-29.5 71t29.5 71t70.5 29t70.5 -29t29.5 -71t-29.5 -71t-70.5 -29zM296 716q-15 0 -25.5 -10t-10.5 -27t10.5 -27t25.5 -10q16 0 26.5 10t10.5 27t-10.5 27t-26.5 10zM387 520h146v-520h-146v63q-1 -11 -13 -26t-44.5 -29.5t-76.5 -14.5
q-37 0 -74.5 14.5t-72.5 44.5t-57 84t-22 124q0 69 22 122.5t57 83t72.5 44.5t74.5 15q97 0 134 -69v64zM283 111q50 0 80 37t30 112q0 74 -30 110.5t-80 36.5t-80 -35.5t-30 -111.5t30 -112.5t80 -36.5z" />
    <glyph glyph-name="atilde.ss02" 
d="M193 648q-16 0 -29 -8.5t-12 -22.5h-57q0 57 32 94t90 37q40 0 99 -39t94 -39q17 0 29.5 8.5t11.5 21.5h58q0 -57 -32 -93.5t-90 -36.5q-41 0 -100 39t-94 39zM387 520h146v-520h-146v63q-1 -11 -13 -26t-44.5 -29.5t-76.5 -14.5q-37 0 -74.5 14.5t-72.5 44.5t-57 84
t-22 124q0 69 22 122.5t57 83t72.5 44.5t74.5 15q97 0 134 -69v64zM283 111q50 0 80 37t30 112q0 74 -30 110.5t-80 36.5t-80 -35.5t-30 -111.5t30 -112.5t80 -36.5z" />
    <glyph glyph-name="g.ss03" horiz-adv-x="566" 
d="M274 138q48 0 90 -9t80 -28t60 -55.5t22 -86.5q0 -64 -39.5 -106t-93.5 -57.5t-119 -15.5q-45 0 -86.5 9.5t-79 29t-59.5 56t-22 84.5q0 91 103 131q-39 6 -68.5 27.5t-29.5 54.5q0 27 18.5 46.5t47.5 27.5q-33 42 -33 104q0 81 56 128.5t147 47.5q86 0 142 -45
q34 40 97 39v-106q-25 0 -45 -10q8 -27 8 -54q0 -81 -56 -128t-146 -47q-61 0 -106 21q-16 -5 -16 -23q0 -22 22.5 -28.5t69.5 -6.5h36zM268 424q-44 0 -61.5 -22t-17.5 -52t17.5 -51.5t61.5 -21.5q78 0 78 73q0 74 -78 74zM277 -116q108 0 108 75t-108 75t-108 -75t108 -75
z" />
    <glyph glyph-name="l.ss04" horiz-adv-x="278" 
d="M250 0q-51 -6 -88.5 -3t-61.5 18.5t-36 48t-12 86.5v557h146v-565q0 -37 52 -36v-106z" />
    <glyph glyph-name="f_t" horiz-adv-x="731" 
d="M650 107q23 0 54 7v-105q-37 -15 -95 -15q-77 0 -119 31.5t-42 118.5v262h-208v-406h-146v406h-74v114h74v21q0 47 11.5 81t27.5 52t41.5 28t45 12t45.5 2q46 0 77 -11v-106q-25 5 -41 5q-35 0 -48 -15t-13 -51v-18h208v130h146v-130h105v-114h-105v-246q0 -53 56 -53z
" />
    <glyph glyph-name="r_t" horiz-adv-x="741" 
d="M661 107q23 0 54 7v-105q-37 -15 -95 -15q-77 0 -119 31.5t-42 118.5v262h-65q-170 0 -196 -134v-272h-146v520h146v-120q15 51 65.5 84.5t109.5 35.5h86v130h146v-130h105v-114h-105v-246q0 -53 56 -53z" />
    <glyph glyph-name="zero.dnom" horiz-adv-x="286" 
d="M143 -2q49 0 78.5 34.5t29.5 91.5v13q0 57 -29.5 91.5t-78.5 34.5q-48 0 -78 -34.5t-30 -91.5v-13q0 -57 30 -91.5t78 -34.5zM143 210q24 0 37.5 -20.5t13.5 -52.5v-13q0 -32 -13.5 -52.5t-37.5 -20.5t-37.5 20.5t-13.5 52.5v13q0 32 13.5 52.5t37.5 20.5z" />
    <glyph glyph-name="one.dnom" horiz-adv-x="196" 
d="M151 261v-261h-54v190q-16 -28 -57 -18v53q18 -2 34.5 9.5t22.5 26.5h54z" />
    <glyph glyph-name="two.dnom" horiz-adv-x="266" 
d="M40 0v7q0 44 14 71.5t58 53.5q4 2 13 7t12.5 7t9.5 6.5t8.5 8.5t4.5 9.5t2 12.5q0 15 -10 23t-22 8q-13 0 -23.5 -9t-10.5 -27v-8h-56v8q0 39 22.5 63t67.5 24q44 0 67.5 -23t23.5 -59q0 -9 -2 -17t-4.5 -14.5t-8.5 -13.5t-10 -10.5t-13.5 -10.5t-13.5 -9.5t-15.5 -10
t-15.5 -9.5q-34 -18 -34 -35v-3h117v-50h-181z" />
    <glyph glyph-name="three.dnom" horiz-adv-x="276" 
d="M180 139q20 -1 38 -17t18 -48q0 -36 -26 -57t-74 -21q-44 0 -70 24t-26 61h55q1 -36 44 -36q42 0 42 36q0 35 -50 35h-11v41h11q37 0 37 33q0 26 -32 26q-34 0 -34 -33h-53q0 39 23.5 60.5t62.5 21.5q41 0 65 -20t24 -51q0 -22 -13 -36.5t-31 -18.5z" />
    <glyph glyph-name="four.dnom" horiz-adv-x="281" 
d="M241 66h-30v-66h-54v66h-117v43l117 152h54v-152h30v-43zM157 109v90l-70 -90h70z" />
    <glyph glyph-name="five.dnom" horiz-adv-x="258" 
d="M139 180q38 0 63.5 -25t25.5 -65q0 -46 -27.5 -70.5t-74.5 -24.5q-45 0 -70.5 23.5t-25.5 61.5h55q1 -33 41 -33q16 0 29 10t13 33q0 25 -12 36.5t-29 11.5q-24 0 -38 -17h-52l20 140h144v-50h-104l-7 -46q18 15 49 15z" />
    <glyph glyph-name="six.dnom" horiz-adv-x="286" 
d="M158 174q88 0 88 -85q0 -47 -30 -70.5t-71 -23.5q-46 0 -75.5 35t-29.5 99q0 60 27 97.5t80 37.5q41 0 65 -22t24 -50h-50q-6 24 -39 24q-30 0 -42 -22.5t-11 -50.5q6 12 24.5 21.5t39.5 9.5zM145 47q19 0 30.5 11.5t11.5 32.5q0 20 -12.5 31.5t-31.5 11.5
q-17 0 -30.5 -11.5t-13.5 -32.5q0 -22 14 -32.5t32 -10.5z" />
    <glyph glyph-name="seven.dnom" horiz-adv-x="231" 
d="M201 261v-50l-99 -211h-52l99 211h-129v50h181z" />
    <glyph glyph-name="eight.dnom" horiz-adv-x="239" 
d="M172 144q42 -23 42 -65q0 -37 -26.5 -59t-68.5 -22q-40 0 -67 22t-27 59q0 44 42 65q-27 16 -27 51q0 28 21.5 48t57.5 20q37 0 58.5 -20t21.5 -48q0 -35 -27 -51zM88 193q0 -13 8.5 -21t22.5 -8q30 0 30 29q0 28 -30 28q-31 0 -31 -28zM119 40q20 0 31 10.5t11 27.5
q0 18 -11.5 29.5t-30.5 11.5t-30.5 -11.5t-11.5 -29.5q0 -16 11.5 -27t30.5 -11z" />
    <glyph glyph-name="nine.dnom" horiz-adv-x="286" 
d="M128 85q-88 0 -88 85q0 47 30 70.5t71 23.5q46 0 75.5 -35t29.5 -99q0 -60 -27 -97.5t-80 -37.5q-41 0 -65 22t-24 50h50q6 -24 39 -24q30 0 42 22.5t11 50.5q-6 -12 -24.5 -21.5t-39.5 -9.5zM141 212q-19 0 -30.5 -12t-11.5 -32t12.5 -31.5t31.5 -11.5q17 0 30.5 11.5
t13.5 32.5q0 22 -14 32.5t-32 10.5z" />
    <glyph glyph-name="zero.numr" horiz-adv-x="286" 
d="M143 438q49 0 78.5 34.5t29.5 91.5v13q0 57 -29.5 91.5t-78.5 34.5q-48 0 -78 -34.5t-30 -91.5v-13q0 -57 30 -91.5t78 -34.5zM143 650q24 0 37.5 -20.5t13.5 -52.5v-13q0 -32 -13.5 -52.5t-37.5 -20.5t-37.5 20.5t-13.5 52.5v13q0 32 13.5 52.5t37.5 20.5z" />
    <glyph glyph-name="one.numr" horiz-adv-x="201" 
d="M151 701v-261h-54v190q-16 -28 -57 -18v53q18 -2 34.5 9.5t22.5 26.5h54z" />
    <glyph glyph-name="two.numr" horiz-adv-x="266" 
d="M40 440v7q0 44 14 71.5t58 53.5q4 2 13 7t12.5 7t9.5 6.5t8.5 8.5t4.5 9.5t2 12.5q0 15 -10 23t-22 8q-13 0 -23.5 -9t-10.5 -27v-8h-56v8q0 39 22.5 63t67.5 24q44 0 67.5 -23t23.5 -59q0 -9 -2 -17t-4.5 -14.5t-8.5 -13.5t-10 -10.5t-13.5 -10.5t-13.5 -9.5t-15.5 -10
t-15.5 -9.5q-34 -18 -34 -35v-3h117v-50h-181z" />
    <glyph glyph-name="three.numr" horiz-adv-x="263" 
d="M169 579q20 -1 38 -17t18 -48q0 -36 -26 -57t-74 -21q-44 0 -70 24t-26 61h55q1 -36 44 -36q42 0 42 36q0 35 -50 35h-11v41h11q37 0 37 33q0 26 -32 26q-34 0 -34 -33h-53q0 39 23.5 60.5t62.5 21.5q41 0 65 -20t24 -51q0 -22 -13 -36.5t-31 -18.5z" />
    <glyph glyph-name="four.numr" horiz-adv-x="281" 
d="M241 506h-30v-66h-54v66h-117v43l117 152h54v-152h30v-43zM157 549v90l-70 -90h70z" />
    <glyph glyph-name="five.numr" horiz-adv-x="258" 
d="M139 620q38 0 63.5 -25t25.5 -65q0 -46 -27.5 -70.5t-74.5 -24.5q-45 0 -70.5 23.5t-25.5 61.5h55q1 -33 41 -33q16 0 29 10t13 33q0 25 -12 36.5t-29 11.5q-24 0 -38 -17h-52l20 140h144v-50h-104l-7 -46q18 15 49 15z" />
    <glyph glyph-name="six.numr" horiz-adv-x="286" 
d="M158 613q88 0 88 -85q0 -47 -30 -70.5t-71 -23.5q-46 0 -75.5 35t-29.5 99q0 60 27 97.5t80 37.5q41 0 65 -22t24 -50h-50q-6 24 -39 24q-30 0 -42 -22.5t-11 -50.5q6 12 24.5 21.5t39.5 9.5zM145 486q19 0 30.5 12t11.5 32t-12.5 31.5t-31.5 11.5q-17 0 -30.5 -11.5
t-13.5 -32.5q0 -22 14 -32.5t32 -10.5z" />
    <glyph glyph-name="seven.numr" horiz-adv-x="231" 
d="M201 701v-50l-99 -211h-52l99 211h-129v50h181z" />
    <glyph glyph-name="eight.numr" horiz-adv-x="239" 
d="M172 584q42 -23 42 -65q0 -37 -26.5 -59t-68.5 -22q-40 0 -67 22t-27 59q0 44 42 65q-27 16 -27 51q0 28 21.5 48t57.5 20q37 0 58.5 -20t21.5 -48q0 -35 -27 -51zM88 633q0 -13 8.5 -21t22.5 -8q30 0 30 29q0 28 -30 28q-31 0 -31 -28zM119 480q20 0 31 10.5t11 27.5
q0 18 -11.5 29.5t-30.5 11.5t-30.5 -11.5t-11.5 -29.5q0 -16 11.5 -27t30.5 -11z" />
    <glyph glyph-name="nine.numr" horiz-adv-x="286" 
d="M128 525q-88 0 -88 85q0 47 30 70.5t71 23.5q46 0 75.5 -35t29.5 -99q0 -60 -27 -97.5t-80 -37.5q-41 0 -65 22t-24 50h50q6 -24 39 -24q30 0 42 22.5t11 50.5q-6 -12 -24.5 -21.5t-39.5 -9.5zM141 652q-19 0 -30.5 -12t-11.5 -32t12.5 -31.5t31.5 -11.5q17 0 30.5 11.5
t13.5 32.5q0 22 -14 32.5t-32 10.5z" />
    <glyph glyph-name="ampersand.001" horiz-adv-x="725" 
d="M698 0h-160l-44 47q-79 -59 -189 -59q-111 0 -189.5 56t-78.5 156q0 38 13.5 68.5t38.5 52t46 34.5t51 27q-73 89 -73 161q0 74 48 122.5t148 48.5q97 0 145 -49t48 -122q0 -113 -136 -183l-1 -1l117 -126q31 60 32 135h132q-11 -142 -71 -235zM309 607q-36 0 -55 -20
t-19 -49q0 -23 12 -43t46 -58q88 48 88 100q0 30 -18.5 50t-53.5 20zM306 113q52 0 98 31l-146 157q-63 -39 -63 -98q0 -38 31 -64t80 -26z" />
    <glyph glyph-name="Aacutecy" horiz-adv-x="722" 
d="M529 889l-117 -128h-123l80 128h160zM536 0l-45 131h-259l-45 -131h-165l271 700h137l270 -700h-164zM270 243h183l-92 268z" />
    <glyph glyph-name="Ieacutecy" horiz-adv-x="583" 
d="M471 889l-117 -128h-123l80 128h160zM205 132h348v-132h-501v700h491v-132h-338v-152h288v-122h-288v-162z" />
    <glyph glyph-name="Iiacutecy" horiz-adv-x="695" 
d="M276 761h123l117 128h-160zM52 700h153v-455h3l280 455h155v-700h-153v446h-3l-274 -446h-161v700z" />
    <glyph glyph-name="Oacutecy" horiz-adv-x="739" 
d="M298 761h123l117 128h-160zM370 709q152 0 242 -95t90 -264q0 -167 -90 -263t-242 -96t-242.5 96t-90.5 263q0 168 90.5 263.5t242.5 95.5zM370 123q82 0 127 60.5t45 166.5q0 107 -45 167t-127 60q-83 0 -128 -60t-45 -167q0 -106 45.5 -166.5t127.5 -60.5z" />
    <glyph glyph-name="Uacutecy" horiz-adv-x="607" 
d="M231 761h123l117 128h-160zM416 700h169l-223 -518q-53 -122 -110.5 -165t-161.5 -33v135q44 -5 71.5 3.5t36 19t17.5 29.5q15 38 -13 103l-180 426h169l111 -307z" />
    <glyph glyph-name="Yeruacutecy" horiz-adv-x="879" 
d="M368 761l80 128h160l-117 -128h-123zM333 466q135 0 202 -61.5t67 -171.5q0 -109 -67 -171t-202 -62h-281v700h153v-234h128zM675 700h153v-700h-153v700zM331 130q53 0 81 27t28 76q0 50 -28 77t-81 27h-126v-207h126z" />
    <glyph glyph-name="Ereversedacutecy" horiz-adv-x="688" 
d="M513 889l-117 -128h-123l80 128h160zM328 709q147 0 235 -94t88 -265t-88 -265t-235 -94q-116 0 -197.5 60t-93.5 173h152q19 -53 50 -77t86 -24q68 0 109.5 45t52.5 126h-191v122h190q-12 77 -53.5 119t-107.5 42q-55 0 -85 -23.5t-50 -76.5h-151q12 112 93 172t196 60z
" />
    <glyph glyph-name="Iuacutecy" horiz-adv-x="995" 
d="M666 889l-117 -128h-123l80 128h160zM626 709q152 0 242 -95t90 -264q0 -167 -90 -263t-242 -96q-137 0 -225 78.5t-104 218.5h-92v-288h-153v700h153v-288h92q16 141 104 219t225 78zM626 123q82 0 127 60.5t45 166.5q0 107 -45 167t-127 60q-83 0 -128 -60t-45 -167
q0 -106 45.5 -166.5t127.5 -60.5z" />
    <glyph glyph-name="Iaacutecy" horiz-adv-x="669" 
d="M502 889l-117 -128h-123l80 128h160zM617 700v-700h-153v254h-167q-45 0 -71 -24.5t-26 -65.5v-47q0 -79 -20 -117h-153q20 35 20 117v52q0 55 24 91.5t80 62.5q-97 60 -97 166q0 95 65 153t196 58h302zM464 374v194h-146q-106 0 -106 -93q0 -52 25 -76.5t84 -24.5h143z
" />
    <glyph glyph-name="aacutecy" horiz-adv-x="560" 
d="M449 709l-117 -128h-123l80 128h160zM505 135q0 -44 38 -47v-83q-20 -9 -53 -9q-51 0 -83 21.5t-32 61.5v4q-55 -90 -171 -90q-75 0 -126 39.5t-51 120.5q0 34 12 60t27.5 41t45 26.5t50.5 16t57 11.5q14 3 40.5 7.5t41 7t31.5 7.5t27 11v1q0 76 -82 76q-74 0 -83 -58
h-138q15 165 222 165q122 0 174.5 -51t52.5 -167v-172zM359 164v92q-13 -7 -29 -12t-24.5 -7.5t-33.5 -7.5t-31 -6q-36 -9 -52 -24t-16 -40q0 -26 18 -44t53 -18q31 0 58 14t38.5 27t18.5 26z" />
    <glyph glyph-name="ieacutecy" horiz-adv-x="559" 
d="M450 709l-117 -128h-123l80 128h160zM532 241q0 -18 -1 -27h-363q8 -59 38.5 -86t84.5 -27q76 0 100 48h127q-45 -156 -235 -156q-47 0 -90.5 15t-81.5 45t-61 83t-23 121q0 70 23 123.5t61 84t82 45.5t91 15q51 0 93.5 -15.5t78.5 -47.5t56 -88.5t20 -132.5zM169 304
h224q-2 52 -30 82.5t-79 30.5q-99 0 -115 -113z" />
    <glyph glyph-name="iiacutecy" horiz-adv-x="612" 
d="M235 581h123l117 128h-160zM52 520h146v-315h4l210 315h148v-520h-146v305h-3l-205 -305h-154v520z" />
    <glyph glyph-name="oacutecy" horiz-adv-x="570" 
d="M213 581h123l117 128h-160zM285 525q44 0 87 -15t82.5 -45t64 -84t24.5 -123q0 -68 -24.5 -121.5t-63.5 -83.5t-82.5 -45t-87.5 -15t-87.5 15t-82.5 45t-63.5 83.5t-24.5 121.5q0 69 24.5 123t64 84t82.5 45t87 15zM403 258q0 75 -33.5 112t-84.5 37t-84.5 -37
t-33.5 -112q0 -72 34 -109.5t84 -37.5t84 37.5t34 109.5z" />
    <glyph glyph-name="uacutecy" horiz-adv-x="577" 
d="M216 581h123l117 128h-160zM412 520h148l-213 -518q-49 -122 -108 -165t-164 -33v123q44 -5 73.5 5.5t41 24.5t21.5 37q10 22 -7 64l-187 462h151l119 -336z" />
    <glyph glyph-name="yeruacutecy" horiz-adv-x="810" 
d="M333 581l80 128h160l-117 -128h-123zM332 346q99 0 157 -47t58 -126q0 -81 -58 -127t-157 -46h-280v520h146v-174h134zM612 520h146v-520h-146v520zM331 114q74 0 74 59t-74 59h-133v-118h133z" />
    <glyph glyph-name="ereversedacutecy" horiz-adv-x="540" 
d="M438 709l-117 -128h-123l80 128h160zM258 525q37 0 72 -8.5t69 -29t59 -50.5t40 -76t15 -102q0 -70 -23 -123.5t-61 -83.5t-81.5 -44.5t-90.5 -14.5q-37 0 -71 9t-68 29t-58 60t-33 95h131q21 -75 98 -75q96 0 113 106h-141v89h140q-19 101 -111 101q-75 0 -92 -70h-134
q10 54 33.5 93t56 58.5t66 28t71.5 8.5z" />
    <glyph glyph-name="iuacutecy" horiz-adv-x="802" 
d="M569 709l-117 -128h-123l80 128h160zM517 525q44 0 87 -15t82.5 -45t64 -84t24.5 -123q0 -68 -24.5 -121.5t-63.5 -83.5t-82.5 -45t-87.5 -15q-85 0 -160.5 53t-93.5 157h-65v-204h-146v520h146v-202h66q13 71 56 120t93.5 68.5t103.5 19.5zM517 111q50 0 84 37.5
t34 109.5q0 75 -33.5 112t-84.5 37t-84.5 -37t-33.5 -112q0 -72 34 -109.5t84 -37.5z" />
    <glyph glyph-name="iaacutecy" horiz-adv-x="588" 
d="M462 709l-117 -128h-123l80 128h160zM536 520v-520h-146v174h-142q-57 0 -57 -53v-42q0 -50 -15 -79h-146q15 29 15 79v42q0 71 59 96q-63 47 -63 130q0 81 58 127t157 46h280zM390 288v118h-133q-74 0 -74 -59t74 -59h133z" />
    </font>
</defs>
</svg>
