<svg width="65" height="65" viewBox="0 0 65 65" fill="none" xmlns="http://www.w3.org/2000/svg">
<g clip-path="url(#clip0_1177_1911)">
<mask id="mask0_1177_1911" style="mask-type:luminance" maskUnits="userSpaceOnUse" x="-4" y="-4" width="73" height="73">
<path d="M68.5036 -3.64453H-3.50244V68.3615H68.5036V-3.64453Z" fill="white"/>
</mask>
<g mask="url(#mask0_1177_1911)">
<path d="M32.8853 15.8301C33.0858 15.8282 33.2772 15.7469 33.4178 15.6041C33.5584 15.4612 33.6366 15.2685 33.6353 15.0681V9.11797C33.6394 9.01703 33.623 8.91631 33.5872 8.82185C33.5513 8.7274 33.4968 8.64116 33.4268 8.56831C33.3568 8.49545 33.2728 8.43749 33.1799 8.3979C33.0869 8.3583 32.987 8.33789 32.8859 8.33789C32.7849 8.33789 32.6849 8.3583 32.592 8.3979C32.4991 8.43749 32.4151 8.49545 32.3451 8.56831C32.2751 8.64116 32.2206 8.7274 32.1847 8.82185C32.1489 8.91631 32.1325 9.01703 32.1366 9.11797V15.0656C32.1353 15.2659 32.2133 15.4584 32.3537 15.6012C32.494 15.744 32.6851 15.8255 32.8853 15.8277" fill="black"/>
<path d="M55.7532 31.6631H49.9168C49.7201 31.6709 49.534 31.7546 49.3976 31.8965C49.2612 32.0385 49.1851 32.2277 49.1851 32.4245C49.1851 32.6214 49.2612 32.8106 49.3976 32.9526C49.534 33.0945 49.7201 33.1782 49.9168 33.186H55.7532C55.9499 33.1782 56.1359 33.0945 56.2723 32.9526C56.4087 32.8106 56.4849 32.6214 56.4849 32.4245C56.4849 32.2277 56.4087 32.0385 56.2723 31.8965C56.1359 31.7546 55.9499 31.6709 55.7532 31.6631Z" fill="black"/>
<path d="M44.9282 20.9103C45.0273 20.9107 45.1253 20.8911 45.2166 20.8526C45.3078 20.8142 45.3904 20.7577 45.4593 20.6866L49.5865 16.4807C49.726 16.3368 49.804 16.1441 49.804 15.9437C49.804 15.7432 49.726 15.5506 49.5865 15.4066C49.5174 15.3357 49.4348 15.2794 49.3436 15.2409C49.2524 15.2024 49.1544 15.1826 49.0554 15.1826C48.9565 15.1826 48.8585 15.2024 48.7673 15.2409C48.6761 15.2794 48.5935 15.3357 48.5244 15.4066L44.3984 19.6124C44.2583 19.7561 44.1799 19.9488 44.1799 20.1495C44.1799 20.3502 44.2583 20.5429 44.3984 20.6866C44.4671 20.7576 44.5495 20.814 44.6405 20.8525C44.7315 20.8909 44.8294 20.9106 44.9282 20.9103Z" fill="black"/>
<path d="M20.3125 20.6864C20.3815 20.7572 20.464 20.8135 20.5551 20.852C20.6462 20.8904 20.7441 20.9103 20.8429 20.9103C20.9418 20.9103 21.0397 20.8904 21.1308 20.852C21.2219 20.8135 21.3044 20.7572 21.3734 20.6864C21.5134 20.5427 21.5919 20.35 21.5919 20.1493C21.5919 19.9486 21.5134 19.7559 21.3734 19.6122L17.2474 15.4064C17.1785 15.3353 17.0959 15.2788 17.0047 15.2403C16.9134 15.2019 16.8154 15.1823 16.7163 15.1826C16.6173 15.1823 16.5192 15.2019 16.428 15.2403C16.3367 15.2788 16.2542 15.3353 16.1853 15.4064C16.0458 15.5504 15.9678 15.743 15.9678 15.9435C15.9678 16.144 16.0458 16.3366 16.1853 16.4805L20.3125 20.6864Z" fill="black"/>
<path d="M25.6735 16.6765C25.7288 16.8152 25.8244 16.9341 25.9479 17.018C26.0714 17.1019 26.2173 17.1468 26.3666 17.1471C26.4655 17.1472 26.5634 17.1275 26.6545 17.089C26.8384 17.0093 26.9837 16.8607 27.0593 16.675C27.1348 16.4893 27.1345 16.2814 27.0585 16.0959L25.5912 12.484C25.554 12.3911 25.4985 12.3067 25.4281 12.2356C25.3576 12.1646 25.2737 12.1084 25.1811 12.0703C25.091 12.0323 24.9941 12.0127 24.8963 12.0127C24.7984 12.0127 24.7016 12.0323 24.6114 12.0703C24.4274 12.1503 24.2819 12.2991 24.2062 12.4849C24.1305 12.6707 24.1305 12.8788 24.2062 13.0646L25.6735 16.6765Z" fill="black"/>
<path d="M47.9316 26.0696C47.9869 26.2085 48.0824 26.3276 48.2059 26.4116C48.3294 26.4957 48.4753 26.5409 48.6247 26.5414C48.7237 26.5411 48.8216 26.521 48.9126 26.4821L52.4556 24.987C52.6394 24.9068 52.7845 24.7579 52.86 24.5722C52.9355 24.3864 52.9354 24.1784 52.8596 23.9927C52.8226 23.8999 52.7673 23.8155 52.6971 23.7444C52.6269 23.6734 52.5431 23.6171 52.4507 23.579C52.3603 23.5411 52.2633 23.5215 52.1652 23.5215C52.0672 23.5215 51.9702 23.5411 51.8798 23.579L48.3368 25.0753C48.1527 25.1548 48.007 25.3034 47.9313 25.4891C47.8555 25.6748 47.8556 25.8828 47.9316 26.0684" fill="black"/>
<path d="M39.1172 17.0858C39.2085 17.1241 39.3065 17.1438 39.4056 17.1438C39.5046 17.1437 39.6026 17.1239 39.6938 17.0855C39.7851 17.0471 39.8677 16.9908 39.937 16.9201C40.0062 16.8493 40.0606 16.7654 40.097 16.6733L41.5655 13.0626C41.6412 12.8768 41.6412 12.6687 41.5655 12.4829C41.4897 12.2971 41.3443 12.1483 41.1603 12.0683C41.0699 12.0303 40.9728 12.0107 40.8748 12.0107C40.7768 12.0107 40.6797 12.0303 40.5893 12.0683C40.4971 12.1066 40.4134 12.1629 40.3432 12.2339C40.273 12.3049 40.2176 12.3893 40.1805 12.482L38.7132 16.0927C38.6375 16.2783 38.6376 16.4863 38.7133 16.6719C38.7891 16.8575 38.9345 17.0061 39.1184 17.0858" fill="black"/>
<path d="M52.4556 39.8603L48.9127 38.3652C48.8223 38.3272 48.7252 38.3076 48.6272 38.3076C48.5291 38.3076 48.4321 38.3272 48.3417 38.3652C48.2493 38.4035 48.1655 38.46 48.0953 38.5312C48.0251 38.6025 47.9698 38.6871 47.9329 38.7801C47.8565 38.9655 47.856 39.1735 47.9316 39.3593C48.0072 39.5451 48.1527 39.6937 48.3369 39.7732L51.8798 41.2695C51.9709 41.3079 52.0688 41.3277 52.1677 41.3275C52.3168 41.327 52.4624 41.282 52.5857 41.1981C52.709 41.1143 52.8044 40.9955 52.8596 40.857C52.9354 40.6713 52.9356 40.4634 52.8601 40.2776C52.7846 40.0918 52.6394 39.9429 52.4556 39.8627" fill="black"/>
<path d="M40.3631 19.7506C37.0548 17.6712 33.0111 17.1439 29.2165 18.1236C28.2488 18.3728 27.0053 18.9522 27.0053 18.9522C24.3623 20.151 22.4378 22.4105 22.4185 22.4335L22.41 22.4444C21.7621 23.1769 21.1944 23.9766 20.7165 24.8298C20.7 24.8604 20.6742 24.8849 20.6427 24.8998C20.6113 24.9148 20.5759 24.9192 20.5417 24.9126C20.5076 24.906 20.4764 24.8886 20.4528 24.8631C20.4292 24.8375 20.4144 24.8051 20.4105 24.7705C20.3827 24.5407 20.35 24.277 20.3222 24.0834C20.3101 23.9939 20.292 23.9056 20.2774 23.8161C20.2 23.3322 19.9146 23.0831 19.4525 23.0831H16.8869C16.4272 23.0831 16.1406 23.3335 16.0571 23.8088C16.0498 23.8524 16.0244 24.6556 16.0148 24.8031C15.9676 25.5289 15.8938 25.5604 14.8584 25.8591C14.7382 25.8959 14.6086 25.886 14.4955 25.8313C14.2693 25.6789 13.5278 25.1055 13.3802 24.9967C13.2798 24.9229 12.8625 24.5286 12.5044 24.8068C12.375 24.9072 11.0456 26.2583 10.9235 26.3793C9.96788 27.347 9.94611 27.428 10.7892 28.5445C11.4049 29.3622 11.4726 29.3053 11.0239 30.0855C10.8703 30.3529 10.742 30.5174 10.5787 30.5609C10.1427 30.6514 9.70222 30.7184 9.25905 30.7617C8.7752 30.8282 8.51029 31.1246 8.50666 31.623C8.49941 32.483 8.49941 33.3467 8.50666 34.1922C8.50666 34.6688 8.76431 34.97 9.22034 35.0389C9.26267 35.0462 9.52758 35.0946 9.66911 35.1018C11.0759 35.1683 10.8981 35.2228 11.2416 36.2473C11.3396 36.5376 11.2561 36.5824 11.2283 36.6259C11.0674 36.8679 10.8884 37.1098 10.7154 37.342C10.6114 37.4811 10.5074 37.6202 10.4058 37.7606C10.0659 38.2371 10.084 38.5649 10.4747 38.9702C10.8376 39.3512 12.0146 40.5366 12.2262 40.7544C12.5734 41.1076 12.9641 41.1366 13.356 40.8378C13.46 40.758 13.5641 40.6757 13.6681 40.5959C13.9257 40.3939 14.2027 40.1991 14.4677 40.0044C14.7616 39.7879 14.9031 39.7782 15.7825 40.2838C15.9712 40.3915 15.9519 41.0301 15.9857 41.4632C15.9954 41.5757 16.0438 41.8781 16.051 41.9241C16.1333 42.4877 16.3922 42.72 16.9449 42.726C17.3707 42.726 18.7703 42.726 18.7703 42.726C20.1649 42.726 20.2399 42.6583 20.367 41.2745C20.419 40.7072 20.4649 40.487 20.823 40.2645C20.8714 40.2342 20.9839 40.181 21.0891 40.1314C21.156 40.1011 21.2314 40.0953 21.3022 40.115C21.3729 40.1347 21.4345 40.1786 21.4762 40.2391C22.382 41.5315 23.4944 42.6659 24.7687 43.597C25.809 44.3602 26.3074 45.3666 26.2929 46.6754C26.2808 47.8209 26.2929 50.441 26.2929 50.441C26.2929 51.8296 27.2218 52.5675 28.3371 53.3791C28.4657 53.4858 28.5869 53.6009 28.7 53.7239C28.8452 53.9029 28.9879 54.0928 29.1258 54.2754C29.383 54.6339 29.666 54.9731 29.9725 55.2903C30.6233 55.9363 31.5099 56.16 32.2914 56.3572C32.3034 56.3572 33.6219 56.3294 33.6389 56.3197C33.6496 56.312 33.6609 56.3051 33.6727 56.2991C35.2912 56.0076 36.4875 55.0895 37.2266 53.5799C37.2866 53.4905 37.3747 53.4237 37.477 53.39C38.8596 52.8747 39.5611 51.8514 39.5648 50.3502C39.5648 49.8906 39.5648 47.2935 39.5648 46.4553C39.5637 45.9488 39.6759 45.4485 39.8931 44.991C40.1104 44.5335 40.4272 44.1303 40.8204 43.8111C40.9413 43.7082 41.453 43.3212 41.5764 43.2159C45.9903 39.4843 47.72 34.7728 46.7172 29.2122C45.9999 25.2362 43.7428 21.8759 40.3619 19.7518M33.1647 50.747C33.1634 50.9332 33.236 51.1123 33.3667 51.2449C33.4973 51.3776 33.6753 51.453 33.8614 51.4546H37.2955C37.3286 51.4548 37.3607 51.4657 37.3871 51.4857C37.4134 51.5057 37.4325 51.5337 37.4415 51.5655C37.4505 51.5973 37.449 51.6312 37.437 51.662C37.4251 51.6929 37.4035 51.719 37.3754 51.7365C37.1594 51.87 36.9107 51.9412 36.6569 51.9421C34.2739 51.9602 31.8305 51.9602 29.1863 51.9421C28.4774 51.9421 27.8968 51.4268 27.8642 50.7785C27.8484 50.4615 27.84 50.1301 27.8351 49.7442C27.8351 49.648 27.8734 49.5557 27.9414 49.4876C28.0095 49.4196 28.1018 49.3813 28.198 49.3813H35.4472C35.63 49.3738 35.8028 49.2959 35.9294 49.1639C36.0561 49.0319 36.1268 48.856 36.1268 48.6731C36.1268 48.4902 36.0561 48.3143 35.9294 48.1823C35.8028 48.0504 35.63 47.9724 35.4472 47.9649H28.2065C28.1216 47.9509 28.0445 47.9072 27.9888 47.8416C27.9332 47.776 27.9027 47.6928 27.9027 47.6068C27.9027 47.5208 27.9332 47.4376 27.9888 47.372C28.0445 47.3065 28.1216 47.2628 28.2065 47.2488C29.704 47.2488 35.5186 47.2488 37.6633 47.2488C37.7568 47.2491 37.8465 47.2864 37.9127 47.3526C37.9788 47.4188 38.0161 47.5084 38.0165 47.602C38.0165 47.8064 38.0237 49.2035 38.0165 49.6874C38.0158 49.7806 37.9783 49.8699 37.9122 49.9356C37.846 50.0013 37.7565 50.0382 37.6633 50.0382H33.8626C33.6765 50.0398 33.4985 50.1152 33.3679 50.2478C33.2373 50.3805 33.1646 50.5596 33.1659 50.7458M35.0239 53.5388C35.0604 53.5391 35.0961 53.5501 35.1265 53.5703C35.157 53.5905 35.1809 53.6192 35.1954 53.6528C35.2099 53.6863 35.2143 53.7234 35.2081 53.7594C35.2019 53.7954 35.1854 53.8289 35.1606 53.8557C34.6759 54.3745 34.0179 54.6977 33.3111 54.7641C32.3071 54.8851 31.4507 54.5875 30.7092 53.8618C30.6827 53.8356 30.6645 53.8021 30.657 53.7657C30.6494 53.7292 30.6529 53.6913 30.6668 53.6567C30.6808 53.6222 30.7047 53.5926 30.7355 53.5716C30.7662 53.5506 30.8026 53.5392 30.8398 53.5388H35.0239ZM19.017 39.7806C18.9868 40.0153 18.9082 40.5886 18.8646 40.9116C18.8556 40.9749 18.8241 41.0328 18.7759 41.0748C18.7277 41.1168 18.666 41.14 18.6021 41.1402H17.73C17.6664 41.1403 17.6048 41.1175 17.5566 41.076C17.5084 41.0345 17.4768 40.977 17.4675 40.914C17.424 40.6153 17.3465 40.1012 17.3296 39.8883C17.2788 39.3609 17.0332 39.0597 16.5337 38.9097C16.0454 38.7565 15.5737 38.5547 15.1257 38.3073C14.6866 38.0738 14.3273 38.1077 13.9584 38.4162C13.7951 38.5541 13.4141 38.8831 13.1806 39.0875C13.1261 39.1343 13.0563 39.1594 12.9845 39.1581C12.9127 39.1567 12.8438 39.129 12.7911 39.0802L12.1016 38.45C12.0473 38.4 12.0139 38.3313 12.0083 38.2576C12.0027 38.184 12.0252 38.1109 12.0714 38.0533C12.2831 37.7908 12.6302 37.3614 12.7766 37.1751C13.0572 36.8195 13.0875 36.4663 12.8734 36.0284C12.6404 35.5454 12.4384 35.048 12.2686 34.5393C12.1476 34.1982 11.9625 33.8426 11.4134 33.7858C11.1811 33.7616 10.5666 33.6781 10.2267 33.6297C10.159 33.6188 10.0974 33.584 10.0531 33.5316C10.0087 33.4793 9.98451 33.4129 9.98482 33.3442V32.4842C9.98451 32.4156 10.0087 32.3491 10.0531 32.2968C10.0974 32.2445 10.159 32.2097 10.2267 32.1987L11.4896 32.0233C11.6565 32.008 11.815 31.9428 11.9444 31.8363C12.0739 31.7297 12.1683 31.5867 12.2153 31.4258C12.427 30.8645 12.6665 30.2779 12.9266 29.6827C13.0035 29.5327 13.0358 29.3637 13.0197 29.1959C13.0036 29.0281 12.9398 28.8683 12.8359 28.7356C12.6847 28.5312 12.2891 28.0026 12.0666 27.705C12.0231 27.6472 12.0022 27.5755 12.0078 27.5034C12.0133 27.4312 12.045 27.3636 12.0968 27.3131L12.6907 26.7349C12.7428 26.6838 12.8116 26.6534 12.8844 26.6494C12.9572 26.6454 13.029 26.6681 13.0863 26.7131C13.3609 26.9296 13.8241 27.295 14.0189 27.451C14.3382 27.7062 14.6721 27.734 15.0713 27.5393C15.5712 27.2903 16.0863 27.073 16.6135 26.8885C16.805 26.8372 16.9756 26.7275 17.1018 26.5747C17.228 26.4218 17.3034 26.2334 17.3175 26.0357C17.3477 25.8023 17.4167 25.1963 17.4554 24.8515C17.4631 24.7828 17.4959 24.7193 17.5474 24.6731C17.5989 24.6269 17.6656 24.6013 17.7348 24.6011H18.6505C18.7222 24.601 18.7913 24.6282 18.8436 24.6772C18.896 24.7262 18.9277 24.7933 18.9323 24.8648C18.9529 25.1999 18.9844 25.7515 19.011 25.9813C19.0666 26.4652 19.2989 26.753 19.7634 26.8982C19.5882 27.374 19.4376 27.8585 19.3122 28.3497C19.2946 28.4222 19.2496 28.4851 19.1867 28.5253C19.1238 28.5654 19.0479 28.5796 18.9747 28.5651C18.7145 28.5136 18.45 28.4873 18.1848 28.4864H18.1691C15.7801 28.4864 13.829 30.4605 13.8145 32.8943C13.7999 35.328 15.7341 37.3021 18.1183 37.319C18.5805 37.3236 19.0405 37.2534 19.4803 37.111C19.5583 37.0849 19.6432 37.0891 19.7183 37.1227C19.7934 37.1563 19.8531 37.2169 19.8855 37.2924C20.0174 37.6057 20.2278 38.0944 20.3597 38.3581C20.3775 38.3938 20.3877 38.4327 20.3897 38.4725C20.3917 38.5122 20.3854 38.552 20.3713 38.5892C20.3573 38.6265 20.3356 38.6604 20.3078 38.6889C20.28 38.7174 20.2466 38.7399 20.2097 38.7549C20.0452 38.819 19.8831 38.8758 19.7259 38.9315C19.5336 38.9802 19.3616 39.0882 19.2341 39.2402C19.1067 39.3922 19.0303 39.5804 19.0158 39.7782M19.2154 35.1817C19.2363 35.2769 19.2205 35.3765 19.1712 35.4606C19.1219 35.5447 19.0426 35.6071 18.9493 35.6353C18.6986 35.7107 18.4382 35.749 18.1763 35.749H18.1691C17.8022 35.7489 17.4389 35.6759 17.1005 35.5343C16.762 35.3927 16.455 35.1852 16.1974 34.924C15.9304 34.6579 15.719 34.3412 15.5757 33.9925C15.4324 33.6438 15.36 33.2701 15.3628 32.8931C15.3712 31.3314 16.622 30.0577 18.1534 30.0541H18.1606C18.3455 30.0538 18.5299 30.0725 18.711 30.1097C18.7821 30.1259 18.8447 30.1679 18.8867 30.2276C18.9287 30.2872 18.9471 30.3603 18.9384 30.4327C18.7654 32.0209 18.8594 33.6269 19.2166 35.1841M42.2211 40.4544C41.7511 41.0206 41.2151 41.5287 40.6244 41.9676C39.3942 42.8639 38.6443 43.7941 38.2765 44.9009C38.2005 45.1294 38.0544 45.3282 37.8589 45.4689C37.6635 45.6096 37.4287 45.6851 37.1879 45.6848H28.654C28.4144 45.6852 28.1806 45.6107 27.9854 45.4716C27.7902 45.3326 27.6433 45.136 27.5654 44.9094C27.1311 43.6538 26.2457 42.7889 25.3276 42.0414C21.3274 38.7815 19.7573 34.5152 20.6621 29.361C21.0129 27.3639 21.8886 25.5071 23.2616 23.8463C24.2018 22.7546 25.2906 21.8002 26.4961 21.011C29.1427 19.4083 31.9394 18.8446 34.7965 19.3357C39.7087 20.1824 43.034 22.9645 44.6802 27.6155C46.3193 32.2423 45.4907 36.5667 42.2175 40.4544" fill="black"/>
<path d="M34.6573 32.1596C34.315 32.0132 33.9642 31.8911 33.5941 31.7629C33.2239 31.6346 32.8465 31.5028 32.4764 31.3443L32.3469 31.2899C31.7603 31.0407 31.153 30.7819 30.6305 30.373C30.3596 30.1552 30.1472 29.8735 30.0122 29.5531C29.8773 29.2328 29.8242 28.884 29.8576 28.538C29.878 28.1999 29.9826 27.8723 30.162 27.585C30.3414 27.2977 30.5897 27.0598 30.8845 26.8929C32.1449 26.2071 33.5142 26.195 34.8436 26.8567C35.498 27.182 35.8633 27.7578 35.8984 28.5223C35.8987 28.6265 35.9202 28.7295 35.9617 28.8251C36.0032 28.9206 36.0636 29.0068 36.1395 29.0782C36.2153 29.1496 36.3049 29.2048 36.4028 29.2405C36.5007 29.2761 36.6048 29.2915 36.7088 29.2856C36.8126 29.282 36.9147 29.2578 37.009 29.2142C37.1033 29.1706 37.1879 29.1087 37.2579 29.0319C37.3279 28.9552 37.3818 28.8652 37.4165 28.7673C37.4512 28.6694 37.466 28.5655 37.46 28.4618C37.4346 27.0103 36.7415 25.993 35.3432 25.3337C35.0575 25.2075 34.7642 25.0993 34.465 25.0096C34.3126 24.96 34.1553 24.908 33.9956 24.8523L33.6739 24.7386V24.3915C33.6739 24.2886 33.6739 24.1846 33.6739 24.0806C33.6739 23.8495 33.6739 23.61 33.6739 23.3766C33.6642 22.8927 33.3352 22.5371 32.8913 22.5371C32.4473 22.5371 32.1171 22.8939 32.1074 23.3838C32.1074 23.6149 32.1074 23.8447 32.1074 24.0878C32.1074 24.1979 32.1074 24.3104 32.1074 24.4217V24.793L31.7554 24.8922L31.5135 24.9576C31.3575 24.9987 31.2111 25.0374 31.0732 25.0785C29.6894 25.5333 28.8693 26.2688 28.4919 27.3925C27.9887 28.8888 28.5814 30.823 29.8406 31.7955C30.5543 32.3471 31.3865 32.6495 32.2671 32.9701C32.5223 33.0632 32.7872 33.1587 33.0473 33.2616C33.7344 33.5313 34.5134 33.8386 35.1581 34.3369C35.4342 34.5535 35.6498 34.8376 35.7841 35.1618C35.9184 35.4859 35.967 35.8392 35.925 36.1876C35.8914 36.5546 35.7628 36.9065 35.5517 37.2086C35.3407 37.5106 35.0545 37.7524 34.7214 37.9101C34.1538 38.1836 33.5322 38.3269 32.9021 38.3297C32.272 38.3324 31.6493 38.1944 31.0793 37.9259C30.3245 37.5884 29.9084 36.9787 29.8757 36.1659C29.8748 36.06 29.853 35.9554 29.8114 35.858C29.7699 35.7606 29.7095 35.6725 29.6338 35.5985C29.4848 35.4641 29.29 35.3918 29.0894 35.3965H29.0471C28.6141 35.4147 28.3056 35.7715 28.3129 36.2433C28.3286 37.2376 28.6758 38.0323 29.3652 38.6722C29.9543 39.2177 30.6813 39.5649 31.7228 39.7983L32.0978 39.8818V40.2737C32.0978 40.3947 32.0978 40.5035 32.0978 40.6148C32.0978 40.8567 32.0978 41.0769 32.0978 41.2995C32.105 41.8196 32.4219 42.1692 32.8852 42.1692C33.3533 42.1692 33.6606 41.8257 33.6666 41.2971C33.6666 41.0551 33.6666 40.8132 33.6666 40.6052C33.6666 40.5168 33.6666 40.4358 33.6666 40.3632V40.0378L33.963 39.9169C34.1795 39.8262 34.3888 39.7451 34.5908 39.6665C34.9801 39.5278 35.3588 39.3612 35.7242 39.1681C36.8455 38.5367 37.4273 37.5678 37.4527 36.288C37.4914 34.3901 36.5213 32.964 34.6501 32.1632" fill="black"/>
</g>
</g>
<defs>
<clipPath id="clip0_1177_1911">
<rect width="64" height="64" fill="white" transform="translate(0.5 0.356445)"/>
</clipPath>
</defs>
</svg>
