<svg width="65" height="65" viewBox="0 0 65 65" fill="none" xmlns="http://www.w3.org/2000/svg">
<g clip-path="url(#clip0_1177_1967)">
<mask id="mask0_1177_1967" style="mask-type:luminance" maskUnits="userSpaceOnUse" x="-2" y="-2" width="69" height="69">
<path d="M66.0885 -1.25586H-1.59204V66.3782H66.0885V-1.25586Z" fill="white"/>
</mask>
<g mask="url(#mask0_1177_1967)">
<path d="M54.2721 37.955C52.6952 36.0064 50.7476 36.478 49.9415 37.0006L49.9051 37.0256L41.0619 43.529C40.5161 42.0316 38.871 41.5691 37.9068 41.5487C37.7522 41.5373 37.0177 41.4987 34.4209 41.4907C34.0047 41.49 33.589 41.4596 33.1771 41.3999C33.1278 41.3928 33.0826 41.3682 33.0499 41.3307C33.0171 41.2932 32.9989 41.2451 32.9986 41.1953V39.4047C32.9987 39.3466 33.013 39.2894 33.0404 39.2381C33.0678 39.1868 33.1073 39.143 33.1555 39.1105L35.7966 37.3244C35.9933 37.1922 36.2313 37.1361 36.4663 37.1665C43.1027 37.9959 46.9843 35.7974 49.0865 33.767C51.4548 31.4822 52.1256 28.9531 52.1563 28.8463C52.1563 28.8463 52.2552 28.5202 52.1153 28.2839C51.9755 28.0476 51.5867 27.9839 51.5855 27.9839C44.7229 26.6819 40.6378 28.9735 38.4185 31.1266C37.1 32.409 36.0715 33.9586 35.4021 35.6713C35.3362 35.8478 35.217 35.9994 35.061 36.1053L33.2612 37.3221C33.2364 37.3387 33.2075 37.3483 33.1776 37.3498C33.1477 37.3513 33.118 37.3447 33.0916 37.3308C33.0651 37.3168 33.0429 37.296 33.0274 37.2704C33.0118 37.2449 33.0035 37.2157 33.0032 37.1858V35.0668C33.0031 34.9909 33.0285 34.9171 33.0753 34.8572C33.1221 34.7973 33.1875 34.7547 33.2612 34.7362C33.9755 34.5618 34.6284 34.1955 35.1495 33.6771C35.6705 33.1586 36.0397 32.5077 36.2173 31.7947C36.2294 31.7431 36.2555 31.6959 36.2929 31.6584C36.3302 31.6209 36.3773 31.5945 36.4288 31.5822C36.6744 31.5312 36.8952 31.3981 37.0548 31.2047C37.2144 31.0114 37.3032 30.7694 37.3065 30.5187V27.9544C37.3065 27.9544 37.3065 27.9476 37.3065 27.9442C37.3161 27.8989 37.321 27.8529 37.3213 27.8067C37.3213 26.216 39.2314 23.9971 39.9568 23.2904L39.9863 23.2586C41.4617 21.5384 42.2752 19.349 42.2807 17.0835C42.2807 11.7435 37.7954 7.39648 32.2823 7.39648C26.7692 7.39648 22.284 11.7423 22.284 17.0835C22.2894 19.3499 23.1033 21.5402 24.5795 23.2609C24.5891 23.2698 24.5982 23.2792 24.6067 23.2893C25.3083 23.971 27.1171 26.0649 27.2365 27.6442C27.2059 27.7448 27.1902 27.8493 27.1899 27.9544V30.5187C27.1933 30.7675 27.2807 31.0078 27.438 31.2006C27.5953 31.3935 27.8132 31.5275 28.0563 31.5811C28.1044 31.5915 28.1486 31.6154 28.1836 31.65C28.2187 31.6846 28.2431 31.7285 28.2541 31.7765C28.4324 32.5093 28.8127 33.1774 29.352 33.705C29.8912 34.2326 30.5677 34.5985 31.3045 34.7612C31.3728 34.7767 31.4338 34.8149 31.4774 34.8697C31.521 34.9244 31.5446 34.9923 31.5444 35.0623V37.221C31.5444 37.2509 31.5362 37.2801 31.5208 37.3057C31.5054 37.3313 31.4833 37.3522 31.4569 37.3662C31.4305 37.3802 31.4008 37.3868 31.371 37.3852C31.3411 37.3837 31.3123 37.374 31.2875 37.3574L29.4911 36.1439C29.3019 36.015 29.1561 35.8321 29.0727 35.619C28.4022 33.9268 27.3813 32.3955 26.0768 31.1254C23.8575 28.9724 19.7724 26.6807 12.9109 27.9817H12.903C12.8768 27.9817 12.5027 28.0521 12.3822 28.3225C12.31 28.4878 12.2944 28.6723 12.3379 28.8474C12.3652 28.9542 13.0348 31.4833 15.4077 33.7682C17.5133 35.7985 21.396 37.9982 28.0278 37.1676C28.2678 37.1383 28.5103 37.1973 28.71 37.3335L31.3705 39.1321C31.4247 39.1688 31.4691 39.2182 31.4999 39.276C31.5306 39.3339 31.5467 39.3983 31.5467 39.4638V40.7738C31.5467 40.8024 31.5399 40.8306 31.5271 40.8562C31.5142 40.8817 31.4955 40.9039 31.4726 40.921C31.4496 40.9381 31.423 40.9496 31.3948 40.9547C31.3666 40.9597 31.3377 40.958 31.3102 40.9499L31.0305 40.8659C29.6923 40.4636 28.1506 40.0228 25.3742 39.9808C21.3448 39.9183 17.3916 42.6474 15.6783 44.0062C15.6115 44.059 15.5293 44.0883 15.4443 44.0898C15.3592 44.0912 15.276 44.0646 15.2076 44.0142C14.9138 43.8043 14.5647 43.6856 14.2038 43.6726C13.8429 43.6597 13.4862 43.7532 13.1781 43.9415L10.7734 45.4185C10.5763 45.5378 10.4051 45.6954 10.2699 45.8819C10.1348 46.0685 10.0385 46.2803 9.98667 46.5047C9.93481 46.7272 9.92894 46.9579 9.9694 47.1828C10.0099 47.4076 10.0958 47.6219 10.222 47.8124L15.917 56.5109C16.1748 56.9032 16.5774 57.1777 17.0369 57.2745C17.1662 57.3025 17.298 57.3166 17.4303 57.3165C17.768 57.3168 18.099 57.2232 18.3865 57.0461L20.7911 55.5691C20.9883 55.4496 21.1596 55.292 21.2949 55.1055C21.4302 54.919 21.5268 54.7073 21.579 54.4829C21.6136 54.3305 21.627 54.1742 21.6188 54.0182C21.6136 53.9355 21.631 53.853 21.6693 53.7795C21.7076 53.706 21.7652 53.6443 21.836 53.6012C22.7547 53.0445 24.5829 52.2662 26.7624 53.0877C26.9898 53.1706 30.6008 54.4511 34.247 54.4511C36.2173 54.4511 38.199 54.0795 39.6657 52.9456C43.5154 49.9689 53.275 43.1291 53.3739 43.0609L53.3978 43.0439C54.4631 42.2304 56.0185 40.1228 54.2699 37.9629M48.0166 32.8229C45.6927 35.0361 42.5388 36.0803 38.6174 35.9383C38.5619 35.9365 38.5084 35.9172 38.4645 35.8832C38.4205 35.8492 38.3885 35.8022 38.3729 35.749C38.3572 35.6957 38.3588 35.6389 38.3774 35.5865C38.396 35.5342 38.4307 35.4891 38.4764 35.4577C40.6799 33.9432 45.1003 31.1698 49.6459 29.845C49.702 29.8288 49.7617 29.8296 49.8174 29.8472C49.873 29.8649 49.9222 29.8987 49.9587 29.9442C49.9952 29.9898 50.0174 30.0452 50.0224 30.1034C50.0274 30.1615 50.0151 30.2199 49.987 30.271C49.4631 31.2161 48.7992 32.0764 48.0178 32.8229M39.4906 32.0878C41.3768 30.279 43.7462 29.2667 46.5681 29.0565C46.6087 29.0528 46.6492 29.0639 46.6823 29.0877C46.7153 29.1115 46.7387 29.1464 46.7481 29.1861C46.7575 29.2257 46.7523 29.2673 46.7334 29.3034C46.7146 29.3395 46.6833 29.3676 46.6455 29.3826C43.3722 30.6767 40.4081 32.4502 38.4594 33.7398C38.4274 33.7606 38.3892 33.7696 38.3513 33.7651C38.3134 33.7606 38.2782 33.7429 38.2521 33.7151C38.2259 33.6874 38.2104 33.6513 38.2082 33.6132C38.2059 33.5751 38.2172 33.5375 38.24 33.5069C38.616 32.9994 39.0343 32.5246 39.4906 32.0878ZM25.8176 33.5921C23.845 32.2991 20.9207 30.5733 17.71 29.3212C17.6779 29.3079 17.6516 29.2838 17.6355 29.2531C17.6194 29.2223 17.6147 29.1869 17.6222 29.153C17.6297 29.1191 17.6488 29.089 17.6763 29.0678C17.7038 29.0466 17.7378 29.0358 17.7725 29.0372C20.6615 29.2224 23.0832 30.2381 25.0035 32.0798C25.3963 32.4566 25.7607 32.8618 26.0939 33.2921C26.1237 33.3308 26.139 33.3787 26.1369 33.4275C26.1348 33.4762 26.1155 33.5227 26.0824 33.5586C26.0493 33.5945 26.0046 33.6176 25.9561 33.6237C25.9077 33.6298 25.8586 33.6186 25.8176 33.5921ZM16.4787 32.8149C15.6533 32.0259 14.959 31.1104 14.4219 30.1029C14.4018 30.0649 14.3933 30.0219 14.3975 29.9792C14.4016 29.9365 14.4182 29.8959 14.4452 29.8625C14.4722 29.8291 14.5084 29.8044 14.5493 29.7914C14.5903 29.7784 14.6341 29.7777 14.6755 29.7893C19.2995 31.0982 23.8223 33.9409 26.045 35.4702C26.0888 35.5006 26.1218 35.544 26.1395 35.5942C26.1572 35.6444 26.1585 35.699 26.1434 35.75C26.1283 35.8011 26.0975 35.8461 26.0554 35.8787C26.0132 35.9113 25.9618 35.9297 25.9086 35.9315C21.9736 36.0803 18.8083 35.0362 16.4787 32.8172M28.6338 29.8177V28.6577C28.6338 28.5552 28.6746 28.457 28.7471 28.3845C28.8196 28.3121 28.9179 28.2714 29.0204 28.2714H35.4567C35.5592 28.2714 35.6575 28.3121 35.73 28.3845C35.8025 28.457 35.8433 28.5552 35.8433 28.6577V29.8154C35.8433 29.9179 35.8025 30.0161 35.73 30.0886C35.6575 30.161 35.5592 30.2017 35.4567 30.2017H29.0204C28.9179 30.2017 28.8196 30.161 28.7471 30.0886C28.6746 30.0161 28.6338 29.9179 28.6338 29.8154M23.7279 17.0835C23.7279 12.5195 27.5606 8.80534 32.2721 8.80534C36.9836 8.80534 40.8163 12.5195 40.8163 17.0835C40.8125 19.0054 40.1278 20.8638 38.8835 22.3292C38.6265 22.5848 36.7358 24.5106 36.0809 26.5262C36.0515 26.6241 35.9915 26.7101 35.9096 26.7714C35.8278 26.8328 35.7284 26.8663 35.6261 26.8671H28.9181C28.8158 26.8663 28.7164 26.8328 28.6346 26.7714C28.5527 26.7101 28.4927 26.6241 28.4633 26.5262C27.8084 24.5106 25.9177 22.5848 25.6596 22.3292C24.4156 20.8636 23.7309 19.0053 23.7267 17.0835M30.0152 31.6106H34.4391C34.4759 31.6105 34.5121 31.6197 34.5444 31.6372C34.5767 31.6548 34.604 31.6802 34.624 31.7111C34.6439 31.7419 34.6557 31.7773 34.6584 31.814C34.6611 31.8506 34.6545 31.8873 34.6392 31.9208C34.4251 32.3795 34.0843 32.7677 33.6571 33.0396C33.2298 33.3116 32.7338 33.4561 32.2272 33.4561C31.7206 33.4561 31.2246 33.3116 30.7973 33.0396C30.37 32.7677 30.0293 32.3795 29.8151 31.9208C29.7999 31.8873 29.7933 31.8506 29.796 31.814C29.7986 31.7773 29.8105 31.7419 29.8304 31.7111C29.8503 31.6802 29.8777 31.6548 29.91 31.6372C29.9423 31.6197 29.9785 31.6105 30.0152 31.6106ZM19.8395 54.4749L17.793 55.7463C17.6683 55.824 17.5182 55.8498 17.3747 55.8181C17.2312 55.7865 17.1059 55.6999 17.0255 55.577L11.5306 47.1864C11.497 47.135 11.4739 47.0773 11.4628 47.0169C11.4517 46.9565 11.4528 46.8944 11.4661 46.8344C11.4793 46.7744 11.5044 46.7176 11.5399 46.6674C11.5754 46.6172 11.6206 46.5747 11.6728 46.5422L13.8466 45.1924C13.9492 45.1285 14.0727 45.1074 14.1907 45.1335C14.3087 45.1596 14.4117 45.2309 14.4776 45.3321L19.9941 53.7637C20.0312 53.8205 20.0565 53.8842 20.0686 53.951C20.0807 54.0177 20.0793 54.0862 20.0646 54.1525C20.0499 54.2187 20.0221 54.2813 19.9828 54.3367C19.9436 54.3921 19.8937 54.4391 19.8361 54.4749M52.5099 41.9191C52.0755 42.2236 42.5672 48.8906 38.7607 51.8333C35.2213 54.5704 27.3502 51.7901 27.2775 51.7663C24.6852 50.7892 22.4966 51.5913 21.2721 52.2832C21.1699 52.3402 21.05 52.3563 20.9364 52.3282C20.8229 52.3002 20.7242 52.2301 20.6604 52.1321L16.4923 45.7696C16.4219 45.6625 16.3946 45.5328 16.4156 45.4065C16.4367 45.2801 16.5047 45.1664 16.606 45.0879C18.1818 43.846 21.8201 41.3283 25.3492 41.3828C28.0051 41.4237 29.449 41.8589 30.7236 42.2429C31.8275 42.5747 32.869 42.8882 34.4164 42.8939C37.1962 42.903 37.7875 42.9473 37.8079 42.9485H37.8614C38.2141 42.9694 38.5605 43.0521 38.8846 43.1927C39.5008 43.4734 39.7942 43.9256 39.7942 44.6152C39.7942 45.3469 39.6123 46.3195 38.0353 46.3195H27.8471C27.6601 46.3195 27.4808 46.3937 27.3486 46.5258C27.2164 46.6579 27.1422 46.8371 27.1422 47.0239C27.1422 47.2107 27.2164 47.3899 27.3486 47.522C27.4808 47.6541 27.6601 47.7283 27.8471 47.7283H38.0308C39.7169 47.7283 40.8334 46.9092 41.1506 45.4958C41.201 45.2819 41.3264 45.0933 41.5042 44.964L50.759 38.1697C51.0045 38.0254 52.0676 37.5187 53.1284 38.8276C54.379 40.3693 52.7418 41.7418 52.5099 41.9248" fill="black"/>
<path d="M33.4408 17.5194C33.2134 17.4274 32.986 17.3524 32.7484 17.2729C32.5108 17.1934 31.9685 16.9923 31.9685 16.9923C31.6001 16.8618 31.2494 16.6859 30.9247 16.4685C30.7834 16.362 30.6717 16.221 30.6005 16.0591C30.5292 15.8972 30.5007 15.7197 30.5177 15.5436C30.5306 15.3717 30.5867 15.2058 30.681 15.0614C30.7752 14.917 30.9044 14.7988 31.0566 14.7176C31.414 14.53 31.811 14.4304 32.2147 14.4272C32.6183 14.4241 33.0169 14.5174 33.3772 14.6995C33.5393 14.7694 33.6775 14.8849 33.775 15.032C33.8725 15.179 33.9251 15.3513 33.9263 15.5277C33.9363 15.7154 34.0197 15.8916 34.1585 16.0185C34.2973 16.1453 34.4803 16.2127 34.6683 16.206C34.8562 16.1993 35.034 16.1191 35.1634 15.9827C35.2928 15.8462 35.3634 15.6645 35.36 15.4766C35.3429 14.5245 34.8461 13.8235 33.882 13.3929C33.6888 13.3116 33.491 13.2418 33.2896 13.1838C33.235 13.1679 33.1327 13.1349 33.0543 13.1088C33.0229 13.0989 32.9955 13.0792 32.976 13.0527C32.9566 13.0261 32.9462 12.994 32.9462 12.9611C32.9462 12.7952 32.9462 12.4953 32.9462 12.393C32.9462 12.2023 32.8704 12.0194 32.7355 11.8845C32.6005 11.7496 32.4174 11.6738 32.2266 11.6738C32.0357 11.6738 31.8526 11.7496 31.7177 11.8845C31.5827 12.0194 31.5069 12.2023 31.5069 12.393C31.5069 12.4885 31.5069 12.785 31.5069 12.9611C31.507 12.9982 31.4949 13.0344 31.4722 13.0638C31.4496 13.0932 31.4177 13.1142 31.3818 13.1236L31.2943 13.1463C31.1965 13.1713 31.0953 13.1974 31.0021 13.2258C30.0493 13.5235 29.4819 14.0109 29.2182 14.7608C28.868 15.7493 29.2784 17.0252 30.1516 17.666C30.6337 18.0193 31.1749 18.208 31.7559 18.4079C31.9173 18.4636 32.0844 18.5215 32.2493 18.5829C32.6722 18.7408 33.1532 18.9237 33.5386 19.2044C33.6822 19.3094 33.7952 19.4507 33.866 19.6139C33.9367 19.777 33.9627 19.9561 33.9411 20.1326C33.9209 20.3207 33.8516 20.5001 33.74 20.6529C33.6285 20.8057 33.4786 20.9264 33.3055 21.0029C32.9699 21.1554 32.6056 21.2348 32.237 21.236C31.8683 21.2372 31.5035 21.1601 31.1669 21.0098C30.7633 20.8382 30.5495 20.5428 30.5314 20.1315C30.5293 20.0381 30.508 19.9462 30.4689 19.8613C30.4298 19.7765 30.3736 19.7006 30.304 19.6384C30.1755 19.5248 30.1141 19.4612 29.7719 19.4612C29.6789 19.4636 29.5874 19.4845 29.5027 19.5227C29.4179 19.5608 29.3416 19.6154 29.2781 19.6833C29.2146 19.7511 29.1653 19.8309 29.1329 19.918C29.1006 20.0051 29.0859 20.0978 29.0897 20.1906C29.0861 20.4994 29.1506 20.8052 29.2788 21.0862C29.4069 21.3672 29.5954 21.6165 29.831 21.8164C30.224 22.149 30.6924 22.3807 31.1953 22.4913C31.2385 22.5027 31.3318 22.5243 31.4034 22.5402C31.4311 22.5462 31.4558 22.5616 31.4734 22.5837C31.491 22.6059 31.5004 22.6335 31.5 22.6617C31.5 22.8276 31.5 23.1537 31.5 23.2526C31.497 23.3488 31.5134 23.4447 31.5484 23.5345C31.5834 23.6242 31.6363 23.7059 31.7037 23.7747C31.7712 23.8435 31.8519 23.898 31.9409 23.9347C32.03 23.9715 32.1256 23.9899 32.222 23.9888C32.3187 23.9908 32.4147 23.9729 32.5041 23.9362C32.5936 23.8995 32.6745 23.8448 32.7419 23.7756C32.8093 23.7063 32.8617 23.6239 32.8959 23.5336C32.93 23.4432 32.9453 23.3468 32.9406 23.2503C32.9406 23.148 32.9406 22.8685 32.9406 22.7208C32.9404 22.6929 32.9487 22.6657 32.9643 22.6426C32.9799 22.6195 33.0022 22.6016 33.0281 22.5913L33.1418 22.5481L33.3897 22.4561C33.6469 22.369 33.8977 22.2638 34.14 22.1414C34.9155 21.7255 35.3361 21.0586 35.3532 20.2099C35.3805 18.9669 34.7165 18.0341 33.434 17.5126" fill="black"/>
</g>
</g>
<defs>
<clipPath id="clip0_1177_1967">
<rect width="64" height="64" fill="white" transform="translate(0.5 0.356445)"/>
</clipPath>
</defs>
</svg>
