<svg width="65" height="65" viewBox="0 0 65 65" fill="none" xmlns="http://www.w3.org/2000/svg">
<g clip-path="url(#clip0_1177_1957)">
<mask id="mask0_1177_1957" style="mask-type:luminance" maskUnits="userSpaceOnUse" x="-5" y="-5" width="75" height="75">
<path d="M69.8339 -4.97656H-4.83276V69.6901H69.8339V-4.97656Z" fill="white"/>
</mask>
<g mask="url(#mask0_1177_1957)">
<path d="M57.3812 52.699C57.3832 52.2524 57.2083 51.8232 56.8948 51.5051C56.5812 51.1871 56.1545 51.0062 55.7079 51.0019H55.3831C55.2853 51.0009 55.1888 50.9806 55.0989 50.9423C55.009 50.9039 54.9276 50.8481 54.8593 50.7782C54.791 50.7083 54.7372 50.6256 54.7009 50.5348C54.6647 50.444 54.6467 50.347 54.648 50.2493C54.648 48.0643 54.648 38.8614 54.648 36.6714C54.648 36.5727 54.6868 36.4779 54.756 36.4075C54.8252 36.3371 54.9194 36.2967 55.0181 36.2951H55.0469C55.1736 36.2953 55.299 36.2704 55.4159 36.2217C55.5328 36.173 55.6389 36.1016 55.728 36.0116C55.8197 35.9197 55.8921 35.8105 55.9412 35.6904C55.9903 35.5702 56.0151 35.4415 56.014 35.3117C56.014 33.8253 55.9989 31.9251 55.9914 31.3104C55.9902 30.7491 55.7762 30.209 55.3926 29.7991C55.0091 29.3893 54.4844 29.14 53.9243 29.1016C53.7236 29.0916 53.5229 29.0941 53.3097 29.1016H53.0852V28.9762C53.0852 28.8394 53.0852 28.7178 53.0852 28.5999C53.0676 27.1248 52.2297 26.2769 50.786 26.2731C50.0334 26.2731 48.7929 26.2731 47.6502 26.2731C47.5285 26.2728 47.4094 26.2371 47.3076 26.1703C47.2059 26.1034 47.1257 26.0084 47.077 25.8968C45.9093 23.1476 44.0062 20.7736 41.5769 19.0357C39.2185 17.3466 36.4418 16.337 33.5493 16.117C33.4302 16.1072 33.3191 16.0527 33.2384 15.9646C33.1577 15.8765 33.1133 15.7611 33.114 15.6416C33.114 15.4823 33.114 15.3255 33.114 15.1863C33.114 15.0865 33.1537 14.9908 33.2242 14.9202C33.2948 14.8496 33.3905 14.81 33.4903 14.81C34.7973 14.81 38.5364 14.81 40.389 14.81C40.9434 14.81 41.1817 14.5967 41.2833 14.4199C41.4314 14.169 41.3862 13.8053 41.1579 13.4164C41.0551 13.2408 40.9497 13.0665 40.8443 12.8909C40.6349 12.5422 40.4179 12.1797 40.2247 11.8147C40.1943 11.7463 40.178 11.6725 40.177 11.5977C40.1759 11.5229 40.19 11.4486 40.2184 11.3794C40.4543 10.9316 40.7202 10.4901 40.9836 10.0637L41.1316 9.82157C41.2821 9.57071 41.5079 9.19442 41.2758 8.77171C41.0438 8.34901 40.6487 8.36532 40.31 8.36532C38.4469 8.36532 36.5847 8.36532 34.7233 8.36532H32.7164C31.7556 8.36532 31.5486 8.57479 31.5474 9.54437V10.978C31.5474 12.5121 31.5474 14.0988 31.5537 15.6441C31.5547 15.7637 31.5107 15.8794 31.4302 15.968C31.3498 16.0566 31.2389 16.1116 31.1197 16.122C28.2157 16.3433 25.4287 17.3601 23.0645 19.0608C20.6516 20.7953 18.7601 23.1579 17.5957 25.8918C17.5469 26.0036 17.4665 26.0987 17.3645 26.1656C17.2625 26.2324 17.1432 26.268 17.0212 26.2681C16.0629 26.2681 15.0444 26.2681 13.8152 26.2681C13.2317 26.2699 12.672 26.4989 12.2547 26.9066C11.8373 27.3143 11.5953 27.8686 11.58 28.4519C11.58 28.6112 11.58 28.768 11.58 28.9335C11.58 28.9799 11.58 29.0263 11.58 29.074C11.4546 29.074 11.1723 29.074 10.5765 29.0828C10.0708 29.0946 9.58988 29.3044 9.23713 29.667C8.88437 30.0296 8.68795 30.5161 8.69006 31.022L8.67877 35.318C8.67809 35.4476 8.70313 35.5761 8.75243 35.6961C8.80174 35.816 8.87433 35.9249 8.96601 36.0166C9.05486 36.1066 9.16072 36.178 9.27744 36.2267C9.39415 36.2753 9.51939 36.3003 9.64584 36.3001C9.74455 36.3017 9.83866 36.3421 9.90788 36.4125C9.9771 36.4829 10.0159 36.5777 10.0159 36.6764C10.0159 38.8238 10.0284 47.7143 10.0284 50.2543C10.0296 50.3521 10.0114 50.4492 9.97504 50.5399C9.93865 50.6307 9.88472 50.7134 9.81633 50.7833C9.74794 50.8532 9.66644 50.9089 9.57649 50.9473C9.48655 50.9857 9.38991 51.0059 9.29213 51.0069C8.84599 51.0109 8.41953 51.1912 8.10582 51.5084C7.79211 51.8256 7.61661 52.2541 7.61762 52.7002L7.61135 54.6569C7.61025 54.8823 7.65406 55.1056 7.7402 55.3139C7.82634 55.5221 7.9531 55.7111 8.11307 55.8699C8.26693 56.0259 8.45031 56.1497 8.65253 56.2342C8.85474 56.3186 9.07174 56.3619 9.29087 56.3616H55.713C55.932 56.3618 56.1488 56.3185 56.351 56.2343C56.5532 56.1502 56.7366 56.0267 56.8907 55.8711C57.0506 55.7128 57.1773 55.5242 57.2634 55.3164C57.3496 55.1086 57.3934 54.8857 57.3925 54.6607L57.3812 52.699ZM39.2928 10.1489C39.034 10.4341 38.7935 10.7353 38.5728 11.0508C38.4646 11.2059 38.4061 11.3901 38.405 11.5791C38.4039 11.7682 38.4602 11.9531 38.5665 12.1094C38.7854 12.4271 39.026 12.7293 39.2865 13.0138C39.301 13.0296 39.3105 13.0493 39.3139 13.0705C39.3172 13.0917 39.3142 13.1134 39.3053 13.133C39.2971 13.1518 39.2836 13.1679 39.2665 13.1792C39.2493 13.1906 39.2293 13.1967 39.2087 13.1969H33.4389C33.3652 13.1959 33.295 13.1658 33.2435 13.1132C33.192 13.0605 33.1635 12.9896 33.1642 12.916V10.248C33.1637 10.2115 33.1704 10.1753 33.184 10.1414C33.1975 10.1075 33.2176 10.0766 33.2432 10.0505C33.2687 10.0244 33.2991 10.0036 33.3327 9.98925C33.3663 9.97494 33.4024 9.9674 33.4389 9.96707H39.2087C39.2292 9.96687 39.2493 9.97271 39.2665 9.98386C39.2836 9.99502 39.2972 10.011 39.3053 10.0298C39.316 10.0499 39.32 10.0728 39.3169 10.0954C39.3137 10.1179 39.3035 10.1388 39.2877 10.1552M19.4157 25.9294C21.8227 20.9624 26.8964 17.7538 32.3414 17.7538C37.7863 17.7538 42.8512 20.9586 45.2608 25.9194C45.2786 25.9571 45.2868 25.9986 45.2847 26.0402C45.2825 26.0818 45.2699 26.1222 45.2482 26.1577C45.2272 26.1924 45.1975 26.221 45.1621 26.2408C45.1267 26.2606 45.0868 26.2709 45.0463 26.2706L19.6264 26.2781C19.5864 26.2786 19.5471 26.2686 19.5121 26.2493C19.4771 26.2299 19.4478 26.2019 19.427 26.1678C19.405 26.1323 19.3923 26.092 19.3899 26.0504C19.3875 26.0087 19.3955 25.9672 19.4132 25.9294M45.2821 42.5278C45.2732 42.2173 45.3265 41.9082 45.439 41.6186C45.5514 41.3291 45.7207 41.065 45.9368 40.842C46.137 40.6523 46.3736 40.5054 46.6324 40.4103C46.8912 40.3152 47.1667 40.2739 47.442 40.2888C47.9583 40.298 48.4512 40.5058 48.8182 40.8691C49.1852 41.2323 49.3981 41.7231 49.4125 42.2393C49.4489 44.3302 49.4414 46.4688 49.4351 48.5359C49.4351 49.2157 49.4351 49.8981 49.4351 50.5829C49.4358 50.6936 49.3926 50.8001 49.3151 50.879C49.2375 50.958 49.1319 51.0031 49.0212 51.0044H45.6897C45.5792 51.0034 45.4735 50.9586 45.3959 50.8798C45.3183 50.8011 45.2752 50.6948 45.2758 50.5842C45.2758 48.8846 45.2758 44.6977 45.2821 42.5278ZM35.0983 42.3647C35.0912 41.9842 35.1919 41.6095 35.3888 41.2839C35.5857 40.9583 35.8707 40.695 36.2109 40.5246C36.5146 40.3761 36.8487 40.3005 37.1868 40.3039C37.5692 40.3016 37.9443 40.4086 38.268 40.6124C38.8951 41.0063 39.23 41.5782 39.2351 42.2669C39.2514 44.6789 39.2438 49.2446 39.2351 50.5867C39.2357 50.6971 39.1927 50.8032 39.1154 50.8819C39.0381 50.9606 38.9327 51.0056 38.8224 51.0069H35.511C35.4003 51.0056 35.2947 50.9605 35.2171 50.8815C35.1396 50.8026 35.0964 50.6961 35.0971 50.5855C35.0971 48.8721 35.0971 44.6425 35.0971 42.3735M14.7158 42.5591C14.7158 41.2734 15.5612 40.3227 16.7164 40.3014C16.9959 40.2897 17.275 40.3333 17.5376 40.4297C17.8002 40.5262 18.0411 40.6735 18.2467 40.8633C18.4387 41.0522 18.5912 41.2775 18.6952 41.5261C18.7992 41.7746 18.8527 42.0413 18.8525 42.3108C18.8851 44.64 18.8701 48.8721 18.8625 50.5829C18.8625 50.6932 18.8191 50.799 18.7416 50.8774C18.6641 50.9558 18.5588 51.0006 18.4486 51.0019H15.1259C15.0154 51.0009 14.9097 50.9561 14.8321 50.8773C14.7545 50.7986 14.7113 50.6923 14.712 50.5817C14.712 48.8921 14.712 44.7278 14.712 42.5541M50.9967 42.5666C50.9905 40.6212 49.8152 39.1261 48.004 38.7585C47.4985 38.6612 46.9779 38.6743 46.478 38.7971C45.9781 38.9199 45.5106 39.1493 45.1077 39.4697C44.7114 39.7702 44.3849 40.1529 44.1506 40.5916C43.9163 41.0303 43.7798 41.5145 43.7506 42.011C43.6766 43.5663 43.6941 47.9451 43.7029 50.0499V50.5767C43.7033 50.6327 43.6923 50.6882 43.6708 50.7399C43.6492 50.7917 43.6175 50.8385 43.5775 50.8777C43.5399 50.9168 43.4949 50.948 43.4452 50.9695C43.3955 50.9911 43.3419 51.0025 43.2877 51.0031H41.2231C41.1689 51.0025 41.1154 50.9912 41.0656 50.9696C41.0159 50.9481 40.9709 50.9168 40.9334 50.8777C40.8935 50.8384 40.8618 50.7916 40.8403 50.7399C40.8187 50.6882 40.8078 50.6327 40.808 50.5767C40.8142 48.4581 40.8205 44.5836 40.7967 42.4349C40.7982 41.7554 40.6157 41.0882 40.2685 40.5041C39.9213 39.9199 39.4225 39.4407 38.8249 39.1173C38.2681 38.8187 37.6414 38.6751 37.0102 38.7013C36.379 38.7276 35.7664 38.9228 35.2363 39.2665C34.1012 40.0016 33.5242 41.0615 33.5229 42.4174C33.5229 44.6438 33.5229 49.0652 33.5229 50.5704C33.5234 50.6251 33.5131 50.6793 33.4927 50.7301C33.4722 50.7808 33.4419 50.827 33.4036 50.866C33.3653 50.905 33.3197 50.9361 33.2693 50.9575C33.219 50.9788 33.1649 50.9901 33.1103 50.9906H31.0281C30.9739 50.99 30.9203 50.9786 30.8706 50.9571C30.8208 50.9355 30.7759 50.9043 30.7383 50.8652C30.6982 50.8261 30.6664 50.7792 30.6448 50.7275C30.6233 50.6757 30.6124 50.6202 30.6129 50.5641C30.6129 48.8395 30.623 44.5936 30.6041 42.4111C30.6084 41.91 30.5124 41.4131 30.322 40.9496C30.1316 40.4861 29.8506 40.0653 29.4953 39.7118C29.1461 39.3757 28.7331 39.113 28.2807 38.9392C27.8283 38.7653 27.3457 38.6839 26.8613 38.6996C24.8907 38.736 23.3367 40.3779 23.3229 42.4387C23.3091 44.5999 23.3141 48.8495 23.3229 50.5754C23.323 50.6314 23.312 50.6869 23.2904 50.7386C23.2689 50.7902 23.2373 50.8371 23.1974 50.8765C23.1599 50.9155 23.1149 50.9467 23.0651 50.9683C23.0154 50.9898 22.9619 51.0012 22.9077 51.0019H20.8506C20.7964 51.0012 20.7429 50.9898 20.6931 50.9683C20.6434 50.9467 20.5984 50.9155 20.5609 50.8765C20.5209 50.8374 20.4892 50.7908 20.4677 50.7393C20.4462 50.6878 20.4352 50.6325 20.4354 50.5767C20.4354 49.2559 20.4354 44.7767 20.4354 42.5491C20.4279 40.6438 19.284 39.1624 17.5217 38.7723C17.0031 38.6609 16.4664 38.6655 15.9498 38.7858C15.4333 38.9062 14.9498 39.1393 14.5339 39.4685C14.1316 39.7754 13.8021 40.1674 13.569 40.6164C13.3359 41.0655 13.2049 41.5606 13.1855 42.0662C13.114 44.3992 13.1341 49.1693 13.1416 50.5767C13.1417 50.6327 13.1307 50.6881 13.1092 50.7398C13.0877 50.7915 13.056 50.8384 13.0162 50.8777C12.9785 50.9169 12.9333 50.9482 12.8833 50.9698C12.8334 50.9913 12.7796 51.0026 12.7252 51.0031H11.9989C11.8884 51.0018 11.7828 50.9567 11.7055 50.8777C11.6281 50.7987 11.5853 50.6923 11.5863 50.5817V36.9536C11.5849 36.7818 11.6518 36.6165 11.7722 36.494C11.8926 36.3715 12.0567 36.3017 12.2285 36.3001H52.4154C52.587 36.3021 52.7509 36.3719 52.8713 36.4944C52.9916 36.6168 53.0586 36.7819 53.0576 36.9536V50.5804C53.0582 50.691 53.015 50.7973 52.9375 50.8761C52.8599 50.9548 52.7542 50.9996 52.6437 51.0006H51.4182C51.3636 51.0002 51.3096 50.9889 51.2594 50.9674C51.2092 50.9459 51.1638 50.9145 51.1259 50.8752C51.0864 50.8361 51.055 50.7896 51.0335 50.7384C51.012 50.6872 51.0008 50.6322 51.0005 50.5767C51.0005 48.8746 51.0005 44.6814 51.0005 42.5604M10.2467 31.3982C10.2467 30.8965 10.4461 30.7021 10.9415 30.6845C11.0507 30.6845 20.2297 30.6845 30.0623 30.6845H53.7775C54.2291 30.7084 54.4248 30.9078 54.4285 31.3493C54.4386 32.2273 54.4386 33.1179 54.4285 34.0085C54.4285 34.4512 54.2304 34.6507 53.7801 34.6733C53.6546 34.6733 46.273 34.6733 39.7644 34.6733H11.2225C10.3595 34.6733 10.2504 34.5629 10.2504 33.6836V33.0289C10.2504 32.487 10.2504 31.9435 10.2504 31.3982M24.8945 42.4876C24.889 42.1316 24.9696 41.7795 25.1295 41.4613C25.2893 41.1431 25.5237 40.8682 25.8127 40.6601C26.1521 40.4166 26.559 40.285 26.9767 40.2838C27.2064 40.2846 27.4345 40.3236 27.6515 40.3992C28.2786 40.6162 29.0036 41.2145 29.0174 42.1853C29.0513 44.6124 29.04 49.2258 29.0362 50.5817C29.0369 50.6919 28.9939 50.7979 28.9165 50.8764C28.8391 50.955 28.7338 50.9996 28.6236 51.0006H25.3135C25.2032 50.9993 25.0979 50.9546 25.0205 50.8762C24.943 50.7977 24.8995 50.6919 24.8995 50.5817C24.8995 48.8808 24.8882 44.6864 24.8995 42.4876M51.1924 29.0665L13.4928 29.0527C13.4044 29.052 13.3199 29.0164 13.2576 28.9537C13.1954 28.891 13.1604 28.8062 13.1604 28.7178C13.1604 28.5798 13.1604 28.4744 13.1692 28.3766C13.1968 28.0405 13.3824 27.8623 13.7086 27.8611C15.3015 27.8536 36.3476 27.8523 45.9569 27.8523H50.6844C51.0607 27.8523 51.2639 27.9 51.373 28.0091C51.4822 28.1182 51.5286 28.3289 51.5261 28.7291C51.5261 28.8179 51.491 28.9032 51.4286 28.9663C51.3661 29.0295 51.2812 29.0655 51.1924 29.0665ZM55.8196 53.1493V54.2267C55.8206 54.3697 55.7649 54.5072 55.6648 54.6092C55.5646 54.7112 55.4282 54.7694 55.2852 54.7711H9.60696C9.4639 54.7694 9.3273 54.7113 9.22697 54.6093C9.12663 54.5073 9.0707 54.3698 9.07137 54.2267V53.1618C9.0707 53.0189 9.12667 52.8815 9.22704 52.7797C9.32742 52.6779 9.46402 52.62 9.60696 52.6187H55.2827C55.4257 52.6203 55.5621 52.6786 55.6623 52.7806C55.7624 52.8826 55.8181 53.0201 55.8171 53.1631" fill="black"/>
</g>
</g>
<defs>
<clipPath id="clip0_1177_1957">
<rect width="64" height="64" fill="white" transform="translate(0.5 0.356445)"/>
</clipPath>
</defs>
</svg>
