<svg width="65" height="65" viewBox="0 0 65 65" fill="none" xmlns="http://www.w3.org/2000/svg">
<path d="M53.577 38.4001C52.0504 36.4949 50.165 36.9561 49.3846 37.4668L49.3494 37.491L40.7886 43.8516C40.2603 42.3878 38.6676 41.9354 37.7343 41.9145C37.5846 41.9046 36.8736 41.8672 34.3597 41.8584C33.8983 41.8582 33.4377 41.8192 32.9828 41.7417C32.5069 41.656 32.0368 41.5409 31.5751 41.3972L31.1987 41.2871C29.8779 40.8843 28.3733 40.4275 25.5997 40.3846C21.6649 40.323 17.8071 43.0383 16.1715 44.3546C16.1197 44.3967 16.0553 44.4203 15.9885 44.4217C15.9217 44.4231 15.8564 44.4022 15.8028 44.3623C15.5187 44.142 15.1741 44.0134 14.8151 43.9938C14.4561 43.9741 14.0996 44.0643 13.793 44.2523L11.5103 45.671C11.1208 45.9041 10.8358 46.2781 10.7145 46.7155C10.6569 46.9388 10.6468 47.1717 10.6847 47.3992C10.7226 47.6267 10.8078 47.8437 10.9347 48.0363L16.4467 56.541C16.565 56.7344 16.7226 56.9008 16.9094 57.0294C17.0962 57.158 17.3079 57.2458 17.5308 57.2872C17.9787 57.3655 18.4398 57.2878 18.8373 57.0671L21.1652 55.6208C21.3565 55.5034 21.5226 55.349 21.6535 55.1666C21.7845 54.9842 21.8778 54.7776 21.9279 54.5587C21.9561 54.4338 21.9698 54.306 21.9686 54.1779C21.9694 54.0657 21.9999 53.9557 22.0569 53.859C22.1139 53.7624 22.1955 53.6825 22.2933 53.6276C23.2146 53.0927 24.9239 52.4257 26.9458 53.195C27.1659 53.2765 30.6615 54.5235 34.1913 54.5235C36.0987 54.5235 38.0171 54.1592 39.437 53.0508C43.1638 50.1407 52.6117 43.4543 52.7075 43.3872L52.7306 43.3707C53.7619 42.576 55.2676 40.509 53.5748 38.4034M20.3914 54.4608L18.101 55.8916C18.0255 55.9382 17.9349 55.9536 17.8483 55.9347C17.7617 55.9159 17.6857 55.8641 17.6365 55.7903L12.1333 47.3242C12.1089 47.2862 12.0923 47.2438 12.0846 47.1993C12.077 47.1548 12.0783 47.1093 12.0886 47.0653C12.0988 47.0214 12.1178 46.98 12.1444 46.9435C12.171 46.907 12.2046 46.8763 12.2433 46.8531L14.5129 45.4377C14.591 45.3888 14.6851 45.3724 14.7752 45.3919C14.8652 45.4114 14.9441 45.4654 14.9949 45.5422L20.4982 54.0117C20.522 54.048 20.5383 54.0887 20.546 54.1315C20.5537 54.1742 20.5527 54.2181 20.543 54.2605C20.5334 54.3028 20.5153 54.3428 20.4898 54.378C20.4643 54.4131 20.4319 54.4428 20.3947 54.4652M51.8732 42.2821C51.4527 42.5793 42.248 49.0973 38.5631 51.9744C35.1368 54.6501 27.517 51.9326 27.4466 51.9084C24.9624 50.964 22.8635 51.7224 21.6704 52.3926C21.5622 52.4538 21.4348 52.4716 21.314 52.4424C21.1933 52.4131 21.0881 52.3391 21.0199 52.2353L16.9211 45.9098C16.8778 45.8417 16.8609 45.7601 16.8737 45.6804C16.8865 45.6007 16.928 45.5285 16.9904 45.4773C18.4422 44.304 22.0655 41.701 25.5755 41.7571C28.1466 41.7967 29.5444 42.2216 30.7782 42.5969C31.8469 42.9216 32.8551 43.2287 34.3531 43.2342C37.0442 43.243 37.6165 43.2859 37.6363 43.287H37.6881C38.0298 43.3068 38.3652 43.3873 38.6786 43.5247C39.2752 43.7999 39.5592 44.2413 39.5592 44.916C39.5592 45.6314 39.383 46.5823 37.8565 46.5823H28.0255C27.8407 46.5777 27.6613 46.6446 27.5247 46.7691C27.3881 46.8936 27.3049 47.066 27.2925 47.2504C27.2905 47.3436 27.3074 47.4363 27.3419 47.5228C27.3765 47.6094 27.4282 47.6881 27.4938 47.7543C27.5594 47.8206 27.6376 47.8729 27.7238 47.9083C27.8101 47.9437 27.9026 47.9614 27.9958 47.9603H37.8543C39.4326 47.9603 40.4958 47.2119 40.8414 45.9131C40.9289 45.6012 41.1184 45.3276 41.3796 45.1361L50.176 38.6038C50.4137 38.4618 51.4428 37.9665 52.4697 39.2465C53.6804 40.7533 52.0955 42.095 51.871 42.2744" fill="black"/>
<path d="M34.8714 23.4714C34.626 23.3712 34.3816 23.2898 34.1219 23.2028C33.8621 23.1159 33.2777 22.8957 33.2777 22.8957C32.878 22.7521 32.4982 22.5583 32.1473 22.319C31.994 22.202 31.873 22.0478 31.796 21.871C31.7189 21.6942 31.6883 21.5006 31.7071 21.3086C31.7206 21.1207 31.7818 20.9394 31.8848 20.7817C31.9878 20.624 32.1293 20.4951 32.2959 20.4072C33.0939 19.99 33.9634 19.9834 34.8087 20.3874C34.9848 20.4643 35.1348 20.5907 35.2404 20.7514C35.3459 20.912 35.4024 21.0999 35.403 21.2921C35.4181 21.4923 35.5101 21.6789 35.6596 21.8127C35.8092 21.9466 36.0048 22.0174 36.2054 22.0103C36.406 22.0032 36.5961 21.9187 36.7359 21.7746C36.8756 21.6304 36.9541 21.4378 36.9549 21.2371C36.9362 20.1959 36.4046 19.4287 35.3579 18.9576C35.1487 18.8691 34.9344 18.7931 34.7162 18.7298L34.5412 18.6737C34.4847 18.6556 34.4353 18.6201 34.4001 18.5723C34.3649 18.5244 34.3457 18.4667 34.3453 18.4073C34.3453 18.2224 34.3453 17.9671 34.3453 17.8691C34.3453 17.6624 34.2632 17.4642 34.1171 17.3181C33.9709 17.1719 33.7727 17.0898 33.5661 17.0898C33.3594 17.0898 33.1612 17.1719 33.015 17.3181C32.8689 17.4642 32.7868 17.6624 32.7868 17.8691C32.7868 17.9605 32.7868 18.2202 32.7868 18.4106C32.7866 18.4738 32.7654 18.5351 32.7265 18.5849C32.6877 18.6347 32.6334 18.6702 32.5722 18.6858C32.4423 18.721 32.2937 18.7606 32.242 18.7771C31.2096 19.1073 30.591 19.6367 30.3092 20.4556C29.9306 21.5365 30.3753 22.9321 31.3207 23.6321C31.8424 24.0195 32.4324 24.2253 33.0576 24.4433C33.2326 24.5049 33.4131 24.5676 33.5914 24.6348C34.0503 24.8087 34.5698 25.0046 34.9881 25.315C35.1445 25.4302 35.2676 25.5848 35.345 25.763C35.4223 25.9413 35.4511 26.1368 35.4283 26.3298C35.4069 26.5346 35.3322 26.7303 35.2114 26.8971C35.0907 27.064 34.9283 27.1963 34.7404 27.2807C34.3781 27.4468 33.9844 27.5336 33.5857 27.5351C33.1871 27.5366 32.7927 27.4529 32.4291 27.2895C31.9888 27.1013 31.7599 26.7777 31.7412 26.3287C31.7392 26.227 31.7166 26.1268 31.6748 26.0341C31.633 25.9414 31.5728 25.8582 31.4979 25.7893C31.3489 25.6607 31.1576 25.5917 30.9608 25.5956H30.9223C30.7193 25.6048 30.5281 25.6938 30.3904 25.8432C30.2527 25.9927 30.1796 26.1905 30.1871 26.3936C30.1811 26.7297 30.2485 27.0631 30.3846 27.3705C30.5207 27.6779 30.7223 27.9518 30.9751 28.1733C31.3868 28.5388 31.8843 28.7787 32.5733 28.9438L32.6525 28.9614C32.6885 28.9689 32.7207 28.9886 32.7439 29.017C32.7672 29.0454 32.78 29.081 32.7802 29.1177C32.7802 29.1177 32.7802 29.5976 32.7802 29.744C32.7762 29.8489 32.7935 29.9536 32.8311 30.0516C32.8687 30.1496 32.9258 30.239 32.999 30.3144C33.0721 30.3897 33.1598 30.4494 33.2567 30.4898C33.3536 30.5303 33.4577 30.5506 33.5628 30.5496C34.014 30.5496 34.3332 30.2194 34.3398 29.7418C34.3398 29.6383 34.3398 29.3521 34.3398 29.1749C34.3394 29.1352 34.3525 29.0965 34.3768 29.0651C34.4012 29.0338 34.4355 29.0116 34.4741 29.0021C34.4849 28.9999 34.4956 28.997 34.506 28.9933L34.823 28.8734C35.1015 28.7781 35.3729 28.6633 35.6353 28.53C36.4762 28.0743 36.9307 27.3457 36.956 26.4233C36.9847 25.0629 36.2659 24.0426 34.8769 23.4725" fill="black"/>
<path d="M17.5154 23.4893L18.3651 23.847C19.0927 24.153 19.8444 24.47 20.5862 24.7748C20.6441 24.7901 20.6954 24.8241 20.732 24.8714C20.7686 24.9188 20.7886 24.9769 20.7888 25.0368C20.8519 25.5353 20.9408 26.0301 21.0551 26.5194C21.1101 26.7505 21.0771 26.8661 20.912 27.0114C20.2516 27.5936 19.5979 28.2001 18.9639 28.7867L18.517 29.1994C18.1494 29.5384 18.0239 29.7872 18.3057 30.2891C18.8835 31.3182 19.4691 32.3121 20.0447 33.241C20.365 33.7583 20.6369 33.7759 21.1641 33.6207L21.8696 33.4127C22.6654 33.1783 23.4875 32.9372 24.291 32.6863C24.4781 32.6291 24.5849 32.6544 24.7434 32.7964C25.1077 33.1265 25.505 33.4501 25.9244 33.7616C25.9866 33.7949 26.0357 33.8483 26.0639 33.913C26.0921 33.9777 26.0976 34.05 26.0796 34.1182C25.9695 34.9228 25.8737 35.7285 25.7714 36.5826C25.734 36.8886 25.6973 37.2022 25.6613 37.5236C25.5997 37.8648 25.8143 38.1774 26.2116 38.3205L26.872 38.5593C27.736 38.8741 28.6331 39.1999 29.5136 39.496C29.6453 39.5444 29.7839 39.5715 29.9241 39.5763C30.2202 39.5763 30.3963 39.4024 30.6153 39.0744L30.9455 38.5791C31.4309 37.8538 31.9361 37.1054 32.4204 36.3624C32.4515 36.3043 32.5002 36.2576 32.5595 36.2289C32.6188 36.2002 32.6857 36.1911 32.7506 36.2029C33.3339 36.2282 33.8512 36.2282 34.3256 36.2029C34.527 36.1918 34.6151 36.2337 34.7163 36.3889C35.2281 37.1758 35.7597 37.9683 36.2737 38.7343L36.5214 39.103C36.7932 39.5081 37.0299 39.682 37.5703 39.5026C38.7051 39.1251 39.8167 38.7321 40.8722 38.3326C41.3719 38.1444 41.4908 37.9375 41.4226 37.3684C41.3125 36.4142 41.1826 35.2772 41.0241 34.1182C41.007 34.0496 41.0133 33.9773 41.042 33.9126C41.0707 33.848 41.1202 33.7949 41.1826 33.7616C41.6669 33.3951 42.0499 33.0792 42.3878 32.771C42.4402 32.7126 42.5099 32.6724 42.5868 32.6566C42.6637 32.6407 42.7436 32.65 42.8149 32.683C43.8055 32.989 44.8246 33.2894 45.8053 33.58L45.9748 33.6295C46.4349 33.766 46.7453 33.7484 47.0402 33.2674C47.6654 32.2581 48.251 31.2665 48.787 30.3188C49.0863 29.785 48.9664 29.5483 48.5668 29.1719L48.0352 28.6799C47.4387 28.1296 46.8245 27.5584 46.2016 27.0103C46.0365 26.865 46.0023 26.7505 46.0585 26.5183C46.1731 26.0408 46.2605 25.5572 46.3204 25.0698C46.3206 24.9987 46.3444 24.9297 46.388 24.8735C46.4316 24.8173 46.4926 24.7772 46.5615 24.7594C47.1712 24.5107 47.7887 24.252 48.3863 24.0022C48.8134 23.8232 49.2404 23.6449 49.6675 23.4673C50.2002 23.2472 50.2596 22.8872 50.2178 22.6231C50.0582 21.66 49.8414 20.3888 49.5882 19.101C49.4881 18.5947 49.192 18.477 48.7473 18.4516L47.9351 18.4043C47.0953 18.3548 46.2269 18.3042 45.3717 18.2645C45.3052 18.2694 45.2389 18.2528 45.1826 18.2172C45.1263 18.1815 45.083 18.1286 45.0591 18.0664C44.7927 17.5755 44.5363 17.1386 44.2754 16.7346C44.1654 16.5662 44.1599 16.476 44.2446 16.3175C44.5374 15.7672 44.8257 15.2102 45.1042 14.6665C45.3243 14.234 45.55 13.8003 45.7767 13.37C45.9869 12.9715 45.9308 12.6193 45.6127 12.3541C44.6485 11.5451 43.7757 10.8132 42.8611 10.0966C42.4274 9.75434 42.1523 9.83469 41.766 10.1165L41.3488 10.4202C40.6059 10.9606 39.8376 11.5209 39.0892 12.08C39.0356 12.1299 38.9677 12.1618 38.895 12.1711C38.8223 12.1803 38.7486 12.1666 38.6841 12.1317C38.1437 11.9116 37.6605 11.741 37.2071 11.6045C37.131 11.5908 37.0616 11.5525 37.0095 11.4954C36.9573 11.4383 36.9255 11.3656 36.9187 11.2886C36.7305 10.4599 36.5258 9.62116 36.3288 8.80889L36.1659 8.13859C36.0558 7.66862 35.894 7.42758 35.3503 7.41547C34.1561 7.39016 32.9476 7.39016 31.7589 7.41547C31.2185 7.42758 31.0611 7.66972 30.9477 8.1408C30.8883 8.38294 30.8299 8.62508 30.7705 8.86612C30.5768 9.65969 30.3754 10.4808 30.196 11.2875C30.1541 11.4747 30.0859 11.5473 29.8658 11.6177C29.3155 11.7894 28.8675 11.9479 28.4558 12.1218C28.3812 12.1615 28.296 12.1767 28.2122 12.1652C28.1285 12.1538 28.0504 12.1163 27.9892 12.058C27.1626 11.4361 26.3118 10.8165 25.4896 10.2177L25.3432 10.1076C24.9536 9.82478 24.6905 9.74994 24.2492 10.0966C23.2586 10.8671 22.388 11.5847 21.5735 12.2814C21.1046 12.6843 21.1167 12.9418 21.3853 13.4613L21.6374 13.9489C22.0424 14.7359 22.4628 15.5492 22.8822 16.345C22.9183 16.3929 22.937 16.4517 22.9354 16.5116C22.9338 16.5716 22.912 16.6293 22.8734 16.6752C22.7193 16.9129 22.5751 17.1606 22.4331 17.4005C22.2911 17.6405 22.1657 17.8595 22.0226 18.0818C21.9622 18.1678 21.8705 18.2266 21.7672 18.2458C20.8944 18.3064 20.0062 18.3559 19.1455 18.4043L18.3949 18.4461C17.8842 18.4748 17.6244 18.5903 17.5055 19.1671C17.2975 20.2017 17.1016 21.288 16.909 22.4888C16.8121 23.0876 17.019 23.2813 17.511 23.4893M23.2289 19.0757C23.5866 18.3823 24.0114 17.7043 24.3802 17.1331C24.6091 16.7765 24.6289 16.4617 24.444 16.1128C24.0566 15.3808 23.6835 14.6577 23.2894 13.8928L22.8701 13.0805C22.9449 13.0134 23.0209 12.9451 23.0902 12.8758C23.3103 12.6799 23.5305 12.4762 23.7605 12.2869C23.9905 12.0976 24.2261 11.9204 24.4759 11.7366L24.75 11.5297L25.1033 11.7872L26.0223 12.4586L26.3855 12.7239C26.7807 13.0123 27.1879 13.3105 27.5852 13.6044C27.8637 13.8135 28.1609 13.8465 28.5208 13.7145C29.2912 13.4206 30.0771 13.1421 30.8476 12.8857C31.2218 12.7624 31.4342 12.5401 31.5156 12.1868C31.6026 11.8092 31.6939 11.4328 31.7842 11.0553C31.9339 10.4389 32.088 9.80057 32.2245 9.1688C32.2839 8.88923 32.3763 8.80999 32.6427 8.81659C33.2712 8.8342 33.9195 8.8375 34.5666 8.8287C34.7515 8.8287 34.8055 8.87603 34.8506 9.07414C34.9607 9.58044 35.0872 10.0922 35.2061 10.5886C35.3294 11.1026 35.456 11.6342 35.5737 12.1582C35.6596 12.5379 35.8797 12.7657 36.288 12.8978C37.0585 13.1454 37.8179 13.4162 38.5466 13.7024C38.9285 13.852 39.2367 13.8124 39.5438 13.5868C40.2229 13.0827 40.8964 12.5896 41.6086 12.0679L42.3702 11.511L42.7213 11.8059C43.1924 12.2022 43.6789 12.6116 44.1444 13.0167C44.1705 13.0877 44.1705 13.1657 44.1444 13.2368C43.7515 14.0204 43.2298 15.0517 42.6729 16.0908C42.4726 16.4628 42.4946 16.7864 42.7455 17.1705C43.1957 17.8606 43.571 18.4913 43.8935 19.1153C44.1059 19.5237 44.3899 19.7053 44.8434 19.7229C45.3342 19.7427 45.8339 19.768 46.316 19.7933C46.8575 19.8219 47.4167 19.8517 47.967 19.8704C48.2069 19.8792 48.2818 19.9353 48.3137 20.1334C48.4238 20.8048 48.5503 21.4861 48.6637 22.0871C48.6912 22.2368 48.6571 22.2951 48.5008 22.3589C48.0341 22.5482 47.562 22.7475 47.1041 22.939C46.5769 23.1591 46.0321 23.3902 45.4927 23.6071C45.1141 23.759 44.9259 24.0011 44.8643 24.4149C44.7432 25.225 44.5836 26.0406 44.424 26.8011C44.3845 26.961 44.3915 27.1288 44.4441 27.2848C44.4968 27.4407 44.5929 27.5785 44.7212 27.6817C45.0514 27.9821 45.3816 28.287 45.7118 28.5908C46.1685 29.0112 46.6418 29.446 47.114 29.8664C47.2604 29.9974 47.2736 30.0679 47.1778 30.2252C46.7717 30.8856 46.4701 31.4029 46.2005 31.8861C46.0904 32.0853 46.0001 32.1173 45.7668 32.0435C45.2022 31.8652 44.6232 31.6957 44.0652 31.5317C43.6194 31.4007 43.1594 31.2665 42.7092 31.1278C42.3295 31.01 42.018 31.0826 41.7021 31.3611C41.1518 31.8476 40.5464 32.3429 39.8574 32.8756C39.5405 33.1199 39.4172 33.3907 39.4656 33.7506C39.5283 34.2437 39.5878 34.7412 39.6461 35.2332C39.7144 35.8121 39.7859 36.4098 39.8662 36.9942C39.8872 37.1494 39.8662 37.1901 39.7298 37.2375C39.0011 37.4884 38.2769 37.7504 37.7266 37.9496C37.5978 37.9958 37.5417 37.9727 37.4525 37.8395C37.206 37.462 36.9506 37.0812 36.703 36.7135C36.3728 36.2238 36.0349 35.7175 35.7124 35.2123C35.6185 35.0447 35.4795 34.9068 35.3113 34.8142C35.143 34.7216 34.9521 34.678 34.7603 34.6884H34.6745C33.9117 34.7236 33.1512 34.7236 32.4149 34.6884C31.9339 34.6663 31.6257 34.8215 31.3781 35.2112C31.1304 35.6008 30.8707 35.9816 30.6175 36.3613C30.3247 36.7961 30.0221 37.2419 29.737 37.6986C29.573 37.9617 29.442 38.0068 29.157 37.8978C28.6804 37.7162 28.1895 37.5434 27.7151 37.3772L27.2 37.1956C27.2374 36.8797 27.2749 36.5705 27.3101 36.2645C27.4135 35.3961 27.5104 34.575 27.6161 33.7462C27.6612 33.3874 27.5401 33.1177 27.2231 32.8712C26.6156 32.4012 25.986 31.8806 25.352 31.3303C25.0538 31.0716 24.7621 31.0001 24.4055 31.1102C24.0015 31.2323 23.5976 31.3512 23.1948 31.4701C22.6004 31.6451 21.9841 31.8256 21.3831 32.0204C21.0892 32.114 20.9825 32.0787 20.8614 31.8531C20.5807 31.3292 20.2693 30.813 19.9688 30.3122L19.8917 30.1856C19.8125 30.0546 19.8235 29.9952 19.9479 29.8829C20.3298 29.5395 20.7183 29.1873 21.0848 28.845C21.4877 28.4752 21.9037 28.0933 22.3176 27.7224C22.6411 27.434 22.7358 27.1236 22.6356 26.6867C22.4815 26.0131 22.3473 25.2668 22.2262 24.4061C22.2121 24.2264 22.1462 24.0546 22.0367 23.9115C21.9271 23.7684 21.7785 23.66 21.6087 23.5994C21.1344 23.4056 20.6534 23.2042 20.1889 23.0083C19.6804 22.7948 19.1543 22.5736 18.6326 22.3633C18.4477 22.2885 18.4125 22.2236 18.4433 22.0452C18.5599 21.4487 18.6733 20.8202 18.7922 20.1257C18.8241 19.9331 18.8945 19.8748 19.1059 19.8682C19.6133 19.8495 20.1284 19.8219 20.627 19.7966C21.1531 19.768 21.6979 19.7394 22.2328 19.7218C22.7083 19.7053 23.0033 19.5127 23.2333 19.0757" fill="black"/>
<path d="M33.521 32.5143H33.6002C34.7835 32.5167 35.9557 32.2857 37.0496 31.8345C38.1435 31.3833 39.1376 30.7208 39.9752 29.8849C40.8003 29.0823 41.4578 28.1239 41.9097 27.0653C42.3615 26.0066 42.5987 24.8687 42.6074 23.7177C42.6161 22.5667 42.3962 21.4254 41.9604 20.36C41.5246 19.2946 40.8816 18.3264 40.0687 17.5114C39.2197 16.6498 38.2077 15.9658 37.0917 15.4993C35.9757 15.0327 34.7779 14.793 33.5683 14.7939H33.5353C28.5989 14.7939 24.5507 18.7409 24.51 23.6068C24.4994 24.7736 24.7255 25.9305 25.1746 27.0075C25.6237 28.0844 26.2865 29.0592 27.1229 29.8728C28.829 31.5561 31.1265 32.5043 33.5232 32.5143M33.5705 31.0835H33.5485C29.366 31.0714 25.9684 27.7386 25.9651 23.6541C25.9617 19.5696 29.3627 16.2413 33.5452 16.227H33.5727C37.7254 16.227 41.1231 19.5421 41.1518 23.6288C41.1559 24.5924 40.9682 25.5472 40.5998 26.4376C40.2313 27.328 39.6893 28.1362 39.0055 28.8151C38.296 29.5363 37.4495 30.1085 36.5158 30.498C35.5821 30.8876 34.58 31.0866 33.5683 31.0835" fill="black"/>
</svg>
