<svg width="65" height="65" viewBox="0 0 65 65" fill="none" xmlns="http://www.w3.org/2000/svg">
<g clip-path="url(#clip0_1177_1870)">
<mask id="mask0_1177_1870" style="mask-type:luminance" maskUnits="userSpaceOnUse" x="-7" y="-8" width="79" height="80">
<path d="M71.906 -7.02246H-6.8147V71.7367H71.906V-7.02246Z" fill="white"/>
</mask>
<g mask="url(#mask0_1177_1870)">
<path d="M57.8845 53.9042V34.8376C57.8851 34.7409 57.9204 34.6476 57.984 34.5747C58.0476 34.5019 58.1352 34.4543 58.231 34.4407C58.6832 34.3719 58.8525 34.1179 58.6647 33.3756C58.5774 33.0277 57.8858 30.2175 57.8633 30.0547C57.8346 29.8691 57.744 29.6987 57.6062 29.5711C57.4684 29.4436 57.2915 29.3664 57.1043 29.3522H37.0697C36.9375 29.322 36.812 29.2678 36.6994 29.1921C36.2524 28.8203 33.9528 26.882 33.9528 26.882C34.6708 25.9321 34.9948 24.8538 35.2448 23.7318C35.2564 23.6777 35.2791 23.6267 35.3116 23.5819C35.3441 23.5372 35.3856 23.4997 35.4334 23.4719C35.4812 23.4441 35.5343 23.4266 35.5893 23.4206C35.6442 23.4146 35.6999 23.4201 35.7526 23.4368C36.0964 23.5466 36.5606 23.6868 36.7788 23.7252C37.4029 23.839 38.1012 23.9819 38.732 23.9038C39.1452 23.8713 39.5421 23.7283 39.8811 23.4897C40.4167 23.0928 40.7077 22.205 40.5027 21.5991C40.2298 20.7594 39.7652 19.9947 39.1459 19.3657C39.0651 19.2712 38.9595 19.2011 38.8411 19.1632C38.7227 19.1254 38.596 19.1213 38.4754 19.1514C38.3265 19.1866 38.1898 19.2614 38.0797 19.3678C37.9696 19.4742 37.8903 19.6083 37.8499 19.756C37.7296 20.1609 37.9253 20.4546 38.1356 20.7205C38.4199 21.0791 39.0745 21.9113 38.9422 22.1203C38.7928 22.3492 37.8393 22.3307 35.8359 21.7459C35.6825 21.693 35.615 21.5633 35.615 21.3569C35.615 21.1505 35.6772 20.7153 35.7182 20.3832C35.7379 20.2747 35.7962 20.1769 35.8822 20.108C35.9628 20.0484 36.0461 19.9915 36.1295 19.932C36.2908 19.8195 36.4574 19.7031 36.6135 19.5761L36.8779 19.3591C37.3395 18.9834 37.8169 18.5957 38.2572 18.1789C38.8565 17.6444 39.3853 17.0358 39.8309 16.3677C40.2131 15.7551 40.5543 15.1412 40.5252 14.3606C40.5117 13.9824 40.3678 13.6206 40.1179 13.3365C39.7211 12.8669 39.1922 12.6486 38.4172 12.6486C38.053 12.6526 37.6898 12.6876 37.3315 12.7531C36.7285 12.8378 35.5965 13.15 35.5106 13.1765C35.4856 13.1832 35.4596 13.1847 35.434 13.1811C35.4085 13.1775 35.3839 13.1688 35.3618 13.1554C35.3397 13.1421 35.3205 13.1244 35.3054 13.1035C35.2903 13.0825 35.2796 13.0588 35.2739 13.0336C35.221 12.81 35.1416 12.458 35.1138 12.3495C34.95 11.6039 34.6759 10.8868 34.3006 10.2221C33.9845 9.68225 33.5666 9.23241 32.916 8.985C32.6761 8.90214 32.4153 8.90214 32.1754 8.985C31.7114 9.17507 31.3061 9.4851 31.0011 9.88336C30.6597 10.3802 30.394 10.9251 30.213 11.5001C30.1164 11.7793 30.0437 12.073 29.9736 12.3562C29.9445 12.4739 29.9154 12.5917 29.885 12.7081C29.8546 12.8245 29.8202 12.9595 29.7911 13.0825L29.7567 13.2228L29.3151 13.0997C28.9726 13.0018 28.6539 12.9105 28.3127 12.8351C27.8456 12.7309 27.3712 12.6633 26.8937 12.6327C26.5506 12.6283 26.2087 12.6729 25.8781 12.765C25.6022 12.8228 25.3456 12.9504 25.1331 13.1357C24.9205 13.3211 24.7591 13.5578 24.6641 13.8234C24.558 14.1225 24.5196 14.4414 24.5516 14.7572C24.5837 15.0729 24.6853 15.3776 24.8493 15.6493C25.0515 15.999 25.2723 16.3377 25.5105 16.664C25.6017 16.7963 25.6943 16.9287 25.7829 17.061C25.8425 17.1573 25.9209 17.2407 26.0133 17.3062C26.1058 17.3716 26.2105 17.4178 26.3211 17.442C26.4234 17.459 26.528 17.4553 26.6288 17.4312C26.7297 17.4071 26.8247 17.3631 26.9083 17.3018C27.0035 17.2362 27.084 17.1515 27.1448 17.0531C27.2056 16.9547 27.2453 16.8447 27.2613 16.7302C27.2794 16.6093 27.2735 16.4861 27.2437 16.3676C27.214 16.249 27.1611 16.1375 27.0881 16.0396C26.8038 15.6694 26.5449 15.2804 26.3132 14.8753C26.2763 14.8061 26.2432 14.735 26.214 14.6623C26.1999 14.6268 26.1947 14.5884 26.199 14.5504C26.2032 14.5125 26.2167 14.4762 26.2382 14.4447C26.2598 14.4132 26.2888 14.3875 26.3226 14.3698C26.3564 14.3522 26.394 14.3431 26.4322 14.3434C27.0317 14.335 27.6298 14.4057 28.2108 14.5538C28.7649 14.7086 28.9514 14.7641 29.3137 14.8832C29.3645 14.9058 29.4073 14.9431 29.4368 14.9902C29.4662 15.0374 29.481 15.0923 29.479 15.1478C29.4618 15.3119 29.4063 15.8676 29.3574 16.2063C29.3457 16.3073 29.2989 16.401 29.2251 16.4709C29.0612 16.6032 28.8906 16.7249 28.7253 16.8466C28.519 16.9975 28.3047 17.1536 28.1024 17.3203C27.5351 17.786 26.1823 19.0614 25.8146 19.498C25.1534 20.2813 24.6139 21.0209 24.5583 22.0383C24.5238 22.4269 24.6293 22.815 24.8559 23.1325C25.2394 23.6551 25.812 23.9197 26.6041 23.9422C27.0213 23.9518 27.4385 23.9212 27.8498 23.8509C28.1581 23.7949 28.4631 23.7224 28.7636 23.6339L29.0863 23.5479C29.2423 23.5069 29.3957 23.4619 29.5584 23.4156C29.5839 23.4083 29.6107 23.4064 29.637 23.41C29.6634 23.4135 29.6887 23.4225 29.7114 23.4362C29.7341 23.45 29.7537 23.4684 29.7691 23.4901C29.7844 23.5118 29.795 23.5364 29.8004 23.5625C30.0384 24.699 30.377 25.8765 31.1294 26.8992C31.1294 26.8992 29.0043 28.6788 28.675 28.9606C28.3894 29.2067 28.1183 29.3694 27.7242 29.3694H27.7004C23.1751 29.3548 8.55316 29.3575 7.91972 29.3575C7.65524 29.3575 7.27439 29.6922 7.21488 29.9846C7.15537 30.277 6.48491 32.808 6.28919 33.5741C6.19001 33.9644 6.26274 34.356 6.88956 34.4486C6.97502 34.4629 7.05256 34.5072 7.10811 34.5737C7.16367 34.6403 7.19357 34.7245 7.1924 34.8111V53.9161C7.19156 53.9622 7.17474 54.0065 7.14482 54.0415C7.11491 54.0765 7.07375 54.1 7.02842 54.108C6.83703 54.1516 6.66446 54.2549 6.53562 54.4031C6.40679 54.5513 6.32836 54.7366 6.31167 54.9322C6.31167 55.2895 6.52458 55.7962 7.21488 55.7962H57.702C57.8885 55.8061 58.0745 55.7673 58.2415 55.6837C58.3428 55.6263 58.4306 55.5478 58.499 55.4535C58.5675 55.3593 58.6149 55.2514 58.6383 55.1373C58.669 55.0192 58.6753 54.8961 58.6566 54.7755C58.638 54.6549 58.5948 54.5394 58.5298 54.4361C58.4755 54.3503 58.4048 54.2762 58.3217 54.2178C58.2387 54.1595 58.1449 54.1181 58.0458 54.0961C58.0004 54.0887 57.9589 54.0655 57.9287 54.0307C57.8985 53.9959 57.8815 53.9516 57.8805 53.9056M33.6142 46.3879H36.3913C36.4538 46.3883 36.5137 46.4134 36.5578 46.4578C36.6019 46.5021 36.6267 46.5622 36.6267 46.6248V53.8381C36.6267 53.9007 36.6019 53.9607 36.5578 54.0051C36.5137 54.0494 36.4538 54.0746 36.3913 54.0749H33.5838C33.5526 54.0749 33.5217 54.0687 33.4929 54.0568C33.4641 54.0448 33.438 54.0272 33.416 54.0051C33.394 53.9829 33.3766 53.9567 33.3647 53.9278C33.3529 53.8989 33.3469 53.868 33.3471 53.8368L33.3815 46.6261C33.3815 46.595 33.3876 46.5642 33.3995 46.5354C33.4114 46.5067 33.4288 46.4806 33.4508 46.4586C33.4728 46.4366 33.4989 46.4192 33.5276 46.4073C33.5563 46.3954 33.5871 46.3892 33.6182 46.3892M31.4851 54.0749H28.6922C28.6611 54.0747 28.6304 54.0684 28.6017 54.0564C28.5731 54.0443 28.5471 54.0267 28.5252 54.0046C28.5034 53.9825 28.4861 53.9563 28.4743 53.9275C28.4626 53.8987 28.4566 53.8679 28.4568 53.8368V46.6274C28.4568 46.5648 28.4816 46.5048 28.5257 46.4604C28.5698 46.416 28.6297 46.3909 28.6922 46.3906H31.4838C31.515 46.3906 31.5459 46.3967 31.5747 46.4087C31.6035 46.4207 31.6297 46.4383 31.6517 46.4604C31.6737 46.4825 31.6911 46.5088 31.7029 46.5377C31.7147 46.5666 31.7207 46.5975 31.7205 46.6287V53.8381C31.7205 53.901 31.6956 53.9614 31.6513 54.006C31.6069 54.0506 31.5467 54.0759 31.4838 54.0762M40.8134 32.6162L39.2199 31.309C39.1949 31.2888 39.1768 31.2613 39.1682 31.2303C39.1595 31.1993 39.1607 31.1664 39.1716 31.1361C39.1825 31.1058 39.2026 31.0797 39.229 31.0614C39.2555 31.043 39.287 31.0334 39.3191 31.0338L56.0358 31.0748C56.1504 31.0755 56.2615 31.1151 56.3506 31.1872C56.4398 31.2594 56.5018 31.3597 56.5264 31.4717L56.7406 32.4482C56.7489 32.4855 56.7487 32.5243 56.7401 32.5615C56.7315 32.5988 56.7146 32.6337 56.6908 32.6637C56.667 32.6936 56.6367 32.7178 56.6023 32.7346C56.5679 32.7513 56.5302 32.7601 56.492 32.7604L41.3213 32.8014C41.1351 32.8015 40.9547 32.737 40.8108 32.6188M23.8257 32.8014L8.65763 32.7604C8.61938 32.7601 8.58167 32.7513 8.54727 32.7346C8.51287 32.7178 8.48265 32.6936 8.45882 32.6637C8.43498 32.6337 8.41814 32.5988 8.40953 32.5615C8.40091 32.5243 8.40074 32.4855 8.40902 32.4482L8.62325 31.4717C8.64786 31.3597 8.70984 31.2594 8.799 31.1872C8.88816 31.1151 8.9992 31.0755 9.11386 31.0748L25.8305 31.0338C25.8625 31.0337 25.8938 31.0435 25.9201 31.0619C25.9463 31.0804 25.9661 31.1065 25.9769 31.1367C25.9876 31.1669 25.9887 31.1997 25.98 31.2306C25.9713 31.2614 25.9533 31.2888 25.9284 31.309L24.3415 32.6162C24.1964 32.7362 24.014 32.8018 23.8257 32.8014ZM41.9428 34.4738L55.9604 34.4923C55.9989 34.4923 56.0371 34.4999 56.0727 34.5146C56.1083 34.5294 56.1407 34.551 56.168 34.5783C56.1952 34.6056 56.2168 34.638 56.2316 34.6736C56.2464 34.7092 56.254 34.7474 56.254 34.786V53.6079C56.254 53.7283 56.2062 53.8439 56.1212 53.9292C56.0362 54.0145 55.9208 54.0626 55.8004 54.063H41.9732C41.8528 54.0626 41.7374 54.0145 41.6524 53.9292C41.5674 53.8439 41.5196 53.7283 41.5196 53.6079V34.8945C41.5194 34.8392 41.5302 34.7844 41.5513 34.7333C41.5723 34.6822 41.6033 34.6357 41.6424 34.5966C41.6815 34.5575 41.7279 34.5265 41.779 34.5054C41.8301 34.4843 41.8849 34.4736 41.9401 34.4738M31.0963 21.5845C31.0934 21.5621 31.0968 21.5393 31.1059 21.5187C31.1151 21.498 31.1298 21.4803 31.1484 21.4675C31.167 21.4546 31.1887 21.4472 31.2113 21.4459C31.2338 21.4446 31.2563 21.4495 31.2762 21.4601L33.597 22.6707C33.6473 22.6981 33.6873 22.7409 33.7112 22.7929C33.735 22.8449 33.7414 22.9032 33.7293 22.9592C33.7293 22.9737 33.6354 23.4183 33.5798 23.6379C33.4479 24.2318 33.2492 24.8088 32.9874 25.3579C32.9702 25.391 32.9054 25.5113 32.83 25.6476C32.8022 25.6984 32.7613 25.7408 32.7115 25.7703C32.6617 25.7998 32.6049 25.8154 32.547 25.8154C32.4892 25.8154 32.4324 25.7998 32.3826 25.7703C32.3328 25.7408 32.2918 25.6984 32.264 25.6476C32.2204 25.5696 32.1873 25.5153 32.1821 25.4994C32.0018 25.1329 31.8467 24.7545 31.7179 24.3669C31.5856 23.9832 31.3582 23.0544 31.3582 23.0544C31.3 22.8176 31.1585 22.1283 31.0937 21.5805M39.7264 33.885C39.7883 33.949 39.8361 34.0253 39.8666 34.1089C39.8972 34.1926 39.9098 34.2817 39.9036 34.3706V53.805C39.9036 53.8728 39.8768 53.9379 39.829 53.986C39.7811 54.0341 39.7162 54.0613 39.6484 54.0617H38.5058C38.4724 54.0617 38.4393 54.0551 38.4084 54.0422C38.3775 54.0294 38.3494 54.0105 38.3258 53.9868C38.3022 53.9631 38.2836 53.9349 38.2709 53.9039C38.2582 53.873 38.2518 53.8398 38.2519 53.8063C38.2519 52.5944 38.2519 47.4027 38.2612 45.5914C38.2582 45.3611 38.1658 45.1409 38.0033 44.9775C37.9287 44.8946 37.8381 44.8277 37.737 44.7806C37.6359 44.7335 37.5263 44.7074 37.4148 44.7037C34.3151 44.7142 31.0316 44.7142 27.6541 44.7037C27.5441 44.7084 27.4361 44.7352 27.3366 44.7825C27.2371 44.8297 27.1481 44.8965 27.0749 44.9789C26.9195 45.1325 26.8291 45.3399 26.8223 45.5584C26.8329 47.3736 26.8316 52.5904 26.8316 53.805C26.8316 53.8385 26.825 53.8716 26.8121 53.9025C26.7993 53.9334 26.7804 53.9615 26.7567 53.9851C26.733 54.0087 26.7049 54.0274 26.6739 54.0401C26.643 54.0528 26.6098 54.0592 26.5763 54.059H25.4338C25.4003 54.059 25.3672 54.0524 25.3363 54.0396C25.3054 54.0267 25.2774 54.0079 25.2538 53.9842C25.2302 53.9604 25.2115 53.9323 25.1988 53.9013C25.1861 53.8703 25.1797 53.8371 25.1799 53.8037C25.1799 53.8037 25.1799 39.77 25.168 34.3547C25.168 34.0491 25.3227 33.9181 25.488 33.7792L32.1688 28.1892C32.2744 28.1011 32.4075 28.0528 32.5451 28.0528C32.6826 28.0528 32.8157 28.1011 32.9213 28.1892C34.3852 29.4131 39.6378 33.8043 39.7264 33.8929M34.0996 20.788C34.0962 20.8145 34.0867 20.8398 34.0717 20.8618C34.0568 20.8839 34.0368 20.9021 34.0135 20.915C33.9901 20.9279 33.9641 20.9351 33.9375 20.936C33.9108 20.937 33.8844 20.9316 33.8602 20.9203C32.8657 20.4414 31.8581 19.9254 31.0514 19.3406C30.9815 19.2904 30.9341 19.2149 30.9191 19.1302C30.9191 18.8736 30.9191 18.6142 30.9258 18.3536C30.9258 18.0599 30.935 17.7556 30.9258 17.4566C30.9258 17.2687 31.0435 17.2369 31.1453 17.1721C31.8369 16.7368 32.8565 16.1811 33.8047 15.6982C33.8302 15.6845 33.8588 15.6774 33.8878 15.6775C33.9169 15.6776 33.9454 15.6849 33.9709 15.6988C33.9963 15.7128 34.0179 15.7328 34.0337 15.7572C34.0495 15.7816 34.0589 15.8095 34.0612 15.8385C34.2027 17.4711 34.253 19.5933 34.0996 20.7814M32.5127 10.6256C33.5124 10.6256 33.7835 13.1989 33.7332 13.5681C33.683 13.9372 33.6195 13.9134 33.3947 14.0272C33.0297 14.2137 32.1344 14.6887 31.5579 14.9957C31.5085 15.022 31.4527 15.0342 31.3968 15.0308C31.3409 15.0275 31.287 15.0088 31.2411 14.9768C31.1952 14.9448 31.1589 14.9007 31.1364 14.8494C31.1139 14.7981 31.106 14.7416 31.1135 14.6861C31.2775 13.4358 31.7351 10.6256 32.5127 10.6256ZM8.84145 34.6894C8.83452 34.6376 8.83858 34.5848 8.85335 34.5346C8.86408 34.511 8.88112 34.4909 8.9026 34.4764C8.92407 34.4619 8.94914 34.4537 8.97501 34.4526C9.057 34.4526 9.14164 34.4605 9.21569 34.4658C9.28975 34.4711 9.38496 34.4791 9.48017 34.4791C14.0478 34.4791 18.6154 34.4791 23.183 34.4791C23.2318 34.4779 23.2804 34.4735 23.3285 34.4658C23.4158 34.4552 23.5044 34.4447 23.5176 34.4724C23.5632 34.6022 23.5817 34.7401 23.5718 34.8773V34.9183C23.5718 40.4302 23.5718 45.9429 23.5718 51.4566V54.063H8.8388V34.7529C8.8388 34.7331 8.8388 34.7132 8.8388 34.6934M38.7518 14.3606C38.9555 14.3606 38.9647 14.6702 38.851 14.8541C38.5776 15.3005 38.2769 15.7296 37.9504 16.1388C37.5008 16.7156 37.0512 17.0927 36.0329 17.9077C36.0144 17.9237 35.9918 17.9342 35.9677 17.9381C35.9435 17.942 35.9188 17.9392 35.8962 17.9298C35.8736 17.9205 35.854 17.9051 35.8396 17.8853C35.8252 17.8655 35.8166 17.8421 35.8147 17.8178C35.8081 17.6854 35.8028 17.5346 35.8015 17.5108C35.783 17.2105 35.7592 16.5026 35.7076 15.943C35.6706 15.5289 35.6005 15.2021 35.6005 15.1491C35.5952 15.095 35.6067 15.0406 35.6334 14.9932C35.6602 14.9459 35.7009 14.9079 35.7499 14.8845C35.9662 14.8027 36.1869 14.7334 36.4111 14.6768C36.4111 14.6768 37.35 14.4453 37.7573 14.3897C38.0868 14.3301 38.4235 14.3207 38.7558 14.3619M29.3825 20.3025C29.4182 20.6994 29.4843 21.0963 29.4843 21.4866C29.4815 21.5473 29.4578 21.6051 29.4174 21.6504C29.3769 21.6957 29.3221 21.7257 29.2622 21.7353C29.0069 21.8081 28.4965 21.9457 28.109 22.0436C27.5903 22.1732 27.0566 22.2328 26.5221 22.2209C26.3052 22.2209 26.1809 22.0595 26.2695 21.7988C26.4556 21.3701 26.7004 20.9693 26.9969 20.6081C27.6375 19.8139 28.3785 19.1063 29.2013 18.5031C29.3071 18.4608 29.2965 18.6248 29.2899 18.7002C29.2767 18.8484 29.3415 19.9082 29.3772 20.2998" fill="black"/>
<path d="M33.2665 18.392C33.2665 18.5228 33.2277 18.6507 33.1551 18.7595C33.0824 18.8683 32.9792 18.9531 32.8583 19.0032C32.7375 19.0532 32.6046 19.0663 32.4763 19.0408C32.348 19.0153 32.2302 18.9523 32.1378 18.8598C32.0453 18.7673 31.9823 18.6494 31.9568 18.5211C31.9313 18.3927 31.9444 18.2597 31.9944 18.1388C32.0445 18.018 32.1292 17.9146 32.238 17.842C32.3467 17.7693 32.4745 17.7305 32.6053 17.7305C32.7807 17.7305 32.9488 17.8002 33.0728 17.9242C33.1968 18.0483 33.2665 18.2166 33.2665 18.392Z" fill="black"/>
<path d="M30.6533 42.9885H27.9793C27.835 42.9882 27.6922 42.9594 27.559 42.9038C27.4258 42.8482 27.3049 42.767 27.2031 42.6646C27.1013 42.5623 27.0206 42.4409 26.9657 42.3074C26.9108 42.1738 26.8827 42.0308 26.8831 41.8864V38.1818C26.8827 38.0375 26.9108 37.8945 26.9657 37.7611C27.0206 37.6276 27.1013 37.5063 27.2031 37.4041C27.305 37.3019 27.4259 37.2207 27.5591 37.1653C27.6923 37.1098 27.8351 37.0812 27.9793 37.0811H30.6533C30.7976 37.0812 30.9404 37.1098 31.0737 37.1653C31.207 37.2207 31.328 37.3018 31.4299 37.404C31.5319 37.5062 31.6127 37.6275 31.6677 37.761C31.7228 37.8945 31.751 38.0375 31.7509 38.1818V41.8864C31.7512 42.1781 31.6358 42.4581 31.43 42.6647C31.2242 42.8714 30.9448 42.9878 30.6533 42.9885ZM28.749 41.4008H29.8836C29.9218 41.4008 29.9595 41.3933 29.9948 41.3787C30.03 41.364 30.062 41.3426 30.0889 41.3155C30.1158 41.2885 30.1371 41.2564 30.1516 41.2211C30.166 41.1858 30.1734 41.1479 30.1732 41.1098V38.9479C30.1732 38.8709 30.1428 38.7971 30.0885 38.7425C30.0342 38.688 29.9605 38.6572 29.8836 38.6568H28.749C28.6721 38.6572 28.5984 38.688 28.5441 38.7425C28.4898 38.7971 28.4594 38.8709 28.4594 38.9479V41.1124C28.4592 41.1506 28.4666 41.1884 28.481 41.2237C28.4955 41.259 28.5168 41.2911 28.5437 41.3182C28.5706 41.3452 28.6026 41.3667 28.6378 41.3813C28.6731 41.396 28.7108 41.4035 28.749 41.4035" fill="black"/>
<path d="M37.1384 42.9885H34.4644C34.3201 42.9882 34.1773 42.9594 34.0441 42.9038C33.9109 42.8482 33.79 42.767 33.6882 42.6646C33.5864 42.5623 33.5057 42.4409 33.4508 42.3074C33.3959 42.1738 33.3678 42.0308 33.3682 41.8864V38.1818C33.3678 38.0375 33.3959 37.8945 33.4508 37.7611C33.5058 37.6276 33.5864 37.5063 33.6882 37.4041C33.7901 37.3019 33.911 37.2207 34.0442 37.1653C34.1774 37.1098 34.3202 37.0812 34.4644 37.0811H37.1384C37.2827 37.0812 37.4256 37.1098 37.5588 37.1653C37.6921 37.2207 37.8131 37.3018 37.915 37.404C38.017 37.5062 38.0978 37.6275 38.1528 37.761C38.2079 37.8945 38.2361 38.0375 38.236 38.1818V41.8864C38.2363 42.1781 38.1209 42.4581 37.9151 42.6647C37.7093 42.8714 37.4299 42.9878 37.1384 42.9885ZM35.2381 41.4008H36.3727C36.4108 41.4008 36.4486 41.3933 36.4838 41.3787C36.519 41.364 36.551 41.3426 36.5779 41.3155C36.6049 41.2885 36.6262 41.2564 36.6406 41.2211C36.6551 41.1858 36.6625 41.1479 36.6623 41.1098V38.9479C36.6623 38.8709 36.6318 38.7971 36.5776 38.7425C36.5233 38.688 36.4496 38.6572 36.3727 38.6568H35.2381C35.1611 38.6572 35.0875 38.688 35.0332 38.7425C34.9789 38.7971 34.9485 38.8709 34.9485 38.9479V41.1124C34.9488 41.189 34.9795 41.2624 35.0337 41.3164C35.088 41.3705 35.1615 41.4008 35.2381 41.4008Z" fill="black"/>
<path d="M32.535 35.2585C32.0454 35.2598 31.5664 35.1157 31.1586 34.8445C30.7509 34.5733 30.4327 34.1872 30.2444 33.735C30.0562 33.2827 30.0062 32.7848 30.1009 32.3042C30.1957 31.8236 30.4308 31.3819 30.7765 31.035C31.1223 30.6881 31.5632 30.4517 32.0433 30.3557C32.5234 30.2596 33.0213 30.3083 33.4738 30.4954C33.9262 30.6826 34.3131 30.9999 34.5852 31.4071C34.8574 31.8143 35.0027 32.2932 35.0027 32.7831C35.003 33.4385 34.7434 34.0674 34.2807 34.5315C33.8181 34.9956 33.1902 35.2571 32.535 35.2585ZM32.535 31.8913C32.3587 31.8911 32.1863 31.9431 32.0395 32.041C31.8928 32.1388 31.7783 32.278 31.7106 32.4409C31.643 32.6038 31.6251 32.7831 31.6594 32.9562C31.6936 33.1293 31.7784 33.2883 31.903 33.4131C32.0276 33.538 32.1864 33.6231 32.3594 33.6576C32.5323 33.6921 32.7116 33.6745 32.8745 33.607C33.0375 33.5396 33.1767 33.4253 33.2747 33.2786C33.3727 33.1319 33.425 32.9595 33.425 32.7831C33.425 32.5468 33.3313 32.3202 33.1644 32.153C32.9976 31.9858 32.7712 31.8917 32.535 31.8913Z" fill="black"/>
<path d="M46.9759 42.9885H44.302C44.0104 42.9878 43.731 42.8714 43.5252 42.6647C43.3194 42.4581 43.204 42.1781 43.2043 41.8864V38.1818C43.204 38.0374 43.2321 37.8943 43.2871 37.7608C43.3421 37.6272 43.4229 37.5059 43.5249 37.4036C43.6269 37.3014 43.748 37.2202 43.8813 37.1649C44.0146 37.1095 44.1576 37.0811 44.302 37.0811H46.9759C47.1201 37.0812 47.2629 37.1098 47.3961 37.1653C47.5293 37.2207 47.6503 37.3019 47.7521 37.4041C47.8539 37.5063 47.9346 37.6276 47.9895 37.7611C48.0444 37.8945 48.0725 38.0375 48.0722 38.1818V41.8864C48.0725 42.0308 48.0444 42.1738 47.9895 42.3074C47.9346 42.4409 47.854 42.5623 47.7522 42.6646C47.6504 42.767 47.5294 42.8482 47.3962 42.9038C47.263 42.9594 47.1202 42.9882 46.9759 42.9885ZM45.0716 41.4008H46.2049C46.2431 41.4008 46.2808 41.3933 46.316 41.3787C46.3513 41.364 46.3833 41.3426 46.4102 41.3155C46.4371 41.2885 46.4584 41.2564 46.4729 41.2211C46.4873 41.1858 46.4947 41.1479 46.4945 41.1098V38.9479C46.4945 38.8709 46.464 38.7971 46.4098 38.7425C46.3555 38.688 46.2818 38.6572 46.2049 38.6568H45.0716C44.9947 38.6572 44.921 38.688 44.8667 38.7425C44.8125 38.7971 44.782 38.8709 44.782 38.9479V41.1124C44.7818 41.1506 44.7892 41.1884 44.8037 41.2237C44.8181 41.259 44.8394 41.2911 44.8663 41.3182C44.8933 41.3452 44.9252 41.3667 44.9605 41.3813C44.9957 41.396 45.0335 41.4035 45.0716 41.4035" fill="black"/>
<path d="M53.461 42.9885H50.7871C50.4955 42.9878 50.2161 42.8714 50.0103 42.6647C49.8045 42.4581 49.6891 42.1781 49.6895 41.8864V38.1818C49.6891 38.0374 49.7172 37.8943 49.7722 37.7608C49.8272 37.6272 49.908 37.5059 50.01 37.4036C50.112 37.3014 50.2331 37.2202 50.3664 37.1649C50.4998 37.1095 50.6427 37.0811 50.7871 37.0811H53.461C53.6052 37.0812 53.748 37.1098 53.8812 37.1653C54.0144 37.2207 54.1354 37.3019 54.2372 37.4041C54.339 37.5063 54.4197 37.6276 54.4746 37.7611C54.5295 37.8945 54.5576 38.0375 54.5573 38.1818V41.8864C54.5576 42.0308 54.5295 42.1738 54.4746 42.3074C54.4197 42.4409 54.3391 42.5623 54.2373 42.6646C54.1355 42.767 54.0145 42.8482 53.8813 42.9038C53.7481 42.9594 53.6053 42.9882 53.461 42.9885ZM51.5567 41.4008H52.694C52.7321 41.4008 52.7699 41.3933 52.8051 41.3787C52.8403 41.364 52.8723 41.3426 52.8992 41.3155C52.9261 41.2885 52.9474 41.2564 52.9619 41.2211C52.9764 41.1858 52.9838 41.1479 52.9836 41.1098V38.9479C52.9836 38.8709 52.9531 38.7971 52.8988 38.7425C52.8446 38.688 52.7709 38.6572 52.694 38.6568H51.5567C51.4798 38.6572 51.4061 38.688 51.3518 38.7425C51.2976 38.7971 51.2671 38.8709 51.2671 38.9479V41.1124C51.2669 41.1506 51.2743 41.1884 51.2888 41.2237C51.3032 41.259 51.3245 41.2911 51.3515 41.3182C51.3784 41.3452 51.4103 41.3667 51.4456 41.3813C51.4808 41.396 51.5186 41.4035 51.5567 41.4035" fill="black"/>
<path d="M46.9759 50.6403H44.302C44.0106 50.6396 43.7314 50.5233 43.5257 50.3169C43.3199 50.1106 43.2043 49.831 43.2043 49.5395V45.8283C43.2042 45.6839 43.2324 45.5409 43.2875 45.4075C43.3426 45.274 43.4234 45.1527 43.5253 45.0505C43.6272 44.9483 43.7482 44.8672 43.8815 44.8117C44.0148 44.7563 44.1576 44.7277 44.302 44.7275H46.9759C47.2671 44.7282 47.5461 44.8446 47.7517 45.051C47.9572 45.2574 48.0725 45.537 48.0722 45.8283V49.5395C48.0725 49.8309 47.9572 50.1105 47.7517 50.3169C47.5461 50.5233 47.2671 50.6396 46.9759 50.6403ZM45.0716 49.0526H46.2049C46.2817 49.0526 46.3554 49.0221 46.4097 48.9678C46.464 48.9134 46.4945 48.8397 46.4945 48.7629V46.601C46.4945 46.5241 46.464 46.4504 46.4097 46.3961C46.3554 46.3418 46.2817 46.3112 46.2049 46.3112H45.0716C44.9948 46.3112 44.9211 46.3418 44.8668 46.3961C44.8125 46.4504 44.782 46.5241 44.782 46.601V48.7668C44.782 48.8437 44.8125 48.9174 44.8668 48.9717C44.9211 49.0261 44.9948 49.0566 45.0716 49.0566" fill="black"/>
<path d="M53.461 50.6403H50.7871C50.4957 50.6396 50.2165 50.5233 50.0108 50.3169C49.805 50.1106 49.6895 49.831 49.6895 49.5395V45.8283C49.6893 45.6839 49.7175 45.5409 49.7726 45.4075C49.8277 45.274 49.9085 45.1527 50.0104 45.0505C50.1123 44.9483 50.2334 44.8672 50.3666 44.8117C50.4999 44.7563 50.6427 44.7277 50.7871 44.7275H53.461C53.7522 44.7282 54.0312 44.8446 54.2368 45.051C54.4423 45.2574 54.5576 45.537 54.5573 45.8283V49.5395C54.5576 49.8309 54.4423 50.1105 54.2368 50.3169C54.0312 50.5233 53.7522 50.6396 53.461 50.6403ZM51.5567 49.0526H52.694C52.7708 49.0526 52.8444 49.0221 52.8988 48.9678C52.9531 48.9134 52.9836 48.8397 52.9836 48.7629V46.601C52.9836 46.5241 52.9531 46.4504 52.8988 46.3961C52.8444 46.3418 52.7708 46.3112 52.694 46.3112H51.5567C51.4799 46.3112 51.4062 46.3418 51.3519 46.3961C51.2976 46.4504 51.2671 46.5241 51.2671 46.601V48.7668C51.2671 48.8437 51.2976 48.9174 51.3519 48.9717C51.4062 49.0261 51.4799 49.0566 51.5567 49.0566" fill="black"/>
<path d="M14.2553 42.9885H11.5814C11.4371 42.9882 11.2942 42.9594 11.161 42.9038C11.0279 42.8482 10.9069 42.767 10.8051 42.6646C10.7033 42.5623 10.6227 42.4409 10.5677 42.3074C10.5128 42.1738 10.4848 42.0308 10.4851 41.8864V38.1818C10.4848 38.0375 10.5129 37.8945 10.5678 37.7611C10.6227 37.6276 10.7034 37.5063 10.8052 37.4041C10.907 37.3019 11.028 37.2207 11.1612 37.1653C11.2943 37.1098 11.4371 37.0812 11.5814 37.0811H14.2553C14.3996 37.0812 14.5425 37.1098 14.6758 37.1653C14.809 37.2207 14.9301 37.3018 15.032 37.404C15.1339 37.5062 15.2147 37.6275 15.2698 37.761C15.3248 37.8945 15.3531 38.0375 15.3529 38.1818V41.8864C15.3533 42.1781 15.2379 42.4581 15.0321 42.6647C14.8263 42.8714 14.5469 42.9878 14.2553 42.9885ZM12.3524 41.4008H13.4857C13.5238 41.4008 13.5616 41.3933 13.5968 41.3787C13.632 41.364 13.664 41.3426 13.6909 41.3155C13.7178 41.2885 13.7391 41.2564 13.7536 41.2211C13.7681 41.1858 13.7754 41.1479 13.7753 41.1098V38.9479C13.7753 38.8709 13.7448 38.7971 13.6905 38.7425C13.6363 38.688 13.5626 38.6572 13.4857 38.6568H12.3524C12.2754 38.6572 12.2018 38.688 12.1475 38.7425C12.0932 38.7971 12.0627 38.8709 12.0627 38.9479V41.1124C12.0626 41.1506 12.0699 41.1884 12.0844 41.2237C12.0989 41.259 12.1202 41.2911 12.1471 41.3182C12.174 41.3452 12.206 41.3667 12.2412 41.3813C12.2764 41.396 12.3142 41.4035 12.3524 41.4035" fill="black"/>
<path d="M20.7404 42.9885H18.0665C17.9222 42.9882 17.7794 42.9594 17.6462 42.9038C17.513 42.8482 17.392 42.767 17.2902 42.6646C17.1884 42.5623 17.1078 42.4409 17.0529 42.3074C16.9979 42.1738 16.9699 42.0308 16.9702 41.8864V38.1818C16.9699 38.0375 16.998 37.8945 17.0529 37.7611C17.1078 37.6276 17.1885 37.5063 17.2903 37.4041C17.3921 37.3019 17.5131 37.2207 17.6463 37.1653C17.7794 37.1098 17.9222 37.0812 18.0665 37.0811H20.7404C20.8847 37.0812 21.0276 37.1098 21.1609 37.1653C21.2941 37.2207 21.4152 37.3018 21.5171 37.404C21.619 37.5062 21.6998 37.6275 21.7549 37.761C21.8099 37.8945 21.8382 38.0375 21.838 38.1818V41.8864C21.8384 42.1781 21.723 42.4581 21.5172 42.6647C21.3114 42.8714 21.032 42.9878 20.7404 42.9885ZM18.8401 41.4008H19.9734C20.0116 41.4008 20.0493 41.3933 20.0846 41.3787C20.1198 41.364 20.1518 41.3426 20.1787 41.3155C20.2056 41.2885 20.2269 41.2564 20.2414 41.2211C20.2558 41.1858 20.2632 41.1479 20.263 41.1098V38.9479C20.263 38.8709 20.2326 38.7971 20.1783 38.7425C20.124 38.688 20.0504 38.6572 19.9734 38.6568H18.8401C18.7632 38.6572 18.6895 38.688 18.6352 38.7425C18.581 38.7971 18.5505 38.8709 18.5505 38.9479V41.1124C18.5509 41.189 18.5815 41.2624 18.6358 41.3164C18.6901 41.3705 18.7635 41.4008 18.8401 41.4008Z" fill="black"/>
<path d="M14.2553 50.6403H11.5814C11.2902 50.6396 11.0111 50.5233 10.8056 50.3169C10.6 50.1105 10.4848 49.8309 10.4851 49.5395V45.8283C10.4848 45.537 10.6 45.2574 10.8056 45.051C11.0111 44.8446 11.2902 44.7282 11.5814 44.7275H14.2553C14.5467 44.7282 14.8258 44.8445 15.0316 45.0509C15.2374 45.2572 15.3529 45.5368 15.3529 45.8283V49.5395C15.3529 49.831 15.2374 50.1106 15.0316 50.3169C14.8258 50.5233 14.5467 50.6396 14.2553 50.6403ZM12.3524 49.0526H13.4857C13.5625 49.0526 13.6361 49.0221 13.6904 48.9678C13.7448 48.9134 13.7753 48.8397 13.7753 48.7629V46.601C13.7753 46.5241 13.7448 46.4504 13.6904 46.3961C13.6361 46.3418 13.5625 46.3112 13.4857 46.3112H12.3524C12.2755 46.3112 12.2019 46.3418 12.1476 46.3961C12.0933 46.4504 12.0627 46.5241 12.0627 46.601V48.7668C12.0627 48.8437 12.0933 48.9174 12.1476 48.9717C12.2019 49.0261 12.2755 49.0566 12.3524 49.0566" fill="black"/>
<path d="M20.7407 50.6403H18.0667C17.7755 50.6396 17.4965 50.5233 17.2909 50.3169C17.0854 50.1105 16.9701 49.8309 16.9705 49.5395V45.8283C16.9701 45.537 17.0854 45.2574 17.2909 45.051C17.4965 44.8446 17.7755 44.7282 18.0667 44.7275H20.7407C21.032 44.7282 21.3112 44.8445 21.5169 45.0509C21.7227 45.2572 21.8383 45.5368 21.8383 45.8283V49.5395C21.8383 49.831 21.7227 50.1106 21.5169 50.3169C21.3112 50.5233 21.032 50.6396 20.7407 50.6403ZM18.8377 49.0526H19.971C20.0478 49.0526 20.1215 49.0221 20.1758 48.9678C20.2301 48.9134 20.2606 48.8397 20.2606 48.7629V46.601C20.2606 46.5241 20.2301 46.4504 20.1758 46.3961C20.1215 46.3418 20.0478 46.3112 19.971 46.3112H18.8404C18.7635 46.3112 18.6899 46.3418 18.6356 46.3961C18.5813 46.4504 18.5507 46.5241 18.5507 46.601V48.7668C18.5507 48.8437 18.5813 48.9174 18.6356 48.9717C18.6899 49.0261 18.7635 49.0566 18.8404 49.0566" fill="black"/>
</g>
</g>
<defs>
<clipPath id="clip0_1177_1870">
<rect width="64" height="64" fill="white" transform="translate(0.5 0.356445)"/>
</clipPath>
</defs>
</svg>
