<svg width="65" height="65" viewBox="0 0 65 65" fill="none" xmlns="http://www.w3.org/2000/svg">
<g clip-path="url(#clip0_1177_1891)">
<mask id="mask0_1177_1891" style="mask-type:luminance" maskUnits="userSpaceOnUse" x="-2" y="-2" width="69" height="69">
<path d="M66.7968 -1.96484H-1.79468V66.6757H66.7968V-1.96484Z" fill="white"/>
</mask>
<g mask="url(#mask0_1177_1891)">
<path d="M29.3243 24.4484C29.293 24.4695 29.2603 24.4883 29.2264 24.5049C26.7341 25.9267 25.462 28.0864 25.447 30.9241C25.4366 32.6803 25.447 37.65 25.447 37.65C25.447 38.3638 25.6901 38.6048 26.4045 38.6048C30.4758 38.6048 34.5471 38.6048 38.6184 38.6048C38.8719 38.6042 39.1148 38.5031 39.294 38.3238C39.4732 38.1444 39.5742 37.9014 39.5748 37.6477C39.5748 37.0354 39.5898 32.4865 39.569 30.8238C39.5368 28.0956 38.3085 25.9924 35.921 24.5729C35.8703 24.543 35.7666 24.4772 35.6905 24.4288C35.6685 24.4182 35.6493 24.4026 35.6345 24.3832C35.6196 24.3638 35.6095 24.3411 35.605 24.3171C35.6005 24.2931 35.6018 24.2683 35.6086 24.2449C35.6155 24.2214 35.6277 24.1999 35.6445 24.182C36.9765 23.1904 37.7957 21.7917 37.949 20.2327C38.0231 19.4731 37.9387 18.7064 37.701 17.9812C37.4634 17.2559 37.0778 16.588 36.5686 16.0198C36.0594 15.4516 35.4378 14.9955 34.7431 14.6804C34.0485 14.3653 33.296 14.1981 32.5334 14.1895H32.5034C31.7406 14.1934 30.987 14.3558 30.2902 14.6664C29.5935 14.9771 28.9688 15.4292 28.4557 15.9941C27.9427 16.559 27.5525 17.2243 27.3099 17.948C27.0673 18.6717 26.9775 19.4379 27.0463 20.1982C27.1927 21.741 27.9877 23.1304 29.2886 24.1267C29.3347 24.1613 29.4638 24.3331 29.3151 24.4484M38.0734 30.336C38.1045 31.1051 38.093 36.1925 38.0918 36.806C38.0918 36.8844 38.0608 36.9596 38.0055 37.0151C37.9502 37.0707 37.8752 37.102 37.7969 37.1023H27.2076C27.133 37.0969 27.0626 37.0656 27.0085 37.0138C26.9545 36.9621 26.9202 36.893 26.9115 36.8187C26.9115 36.2098 26.8977 32.0553 26.9196 30.584C26.9576 28.1625 28.6353 26.0477 30.9778 25.3951C31.0642 25.3709 31.2256 25.3351 31.3546 25.3063C31.3762 25.3015 31.3986 25.3022 31.4198 25.3084C31.441 25.3146 31.4603 25.326 31.476 25.3417C31.4916 25.3573 31.503 25.3766 31.5092 25.3979C31.5154 25.4191 31.5161 25.4415 31.5113 25.4631C31.3016 26.4156 30.404 30.4871 30.2611 31.2285C30.2236 31.5153 30.2751 31.8068 30.4086 32.0634C30.7912 32.7079 31.8201 34.2035 31.8201 34.2035C32.0241 34.5021 32.2626 34.6589 32.5115 34.6647C32.7558 34.6647 32.9931 34.5079 33.1971 34.2115C33.1971 34.2115 34.2214 32.7229 34.6086 32.0703C34.7513 31.8169 34.8033 31.5224 34.7561 31.2354C34.5256 30.1077 33.7375 26.4709 33.5289 25.5092C33.5234 25.4837 33.5245 25.4571 33.5319 25.432C33.5394 25.4069 33.5531 25.3842 33.5717 25.3658C33.5903 25.3474 33.6132 25.334 33.6384 25.3268C33.6635 25.3196 33.6901 25.3189 33.7156 25.3248C33.8412 25.3524 33.9864 25.3847 34.0693 25.4089C36.3312 26.05 37.987 28.0529 38.0757 30.3464M31.706 30.9956L32.3709 27.3945C32.3789 27.3546 32.4005 27.3186 32.432 27.2928C32.4635 27.267 32.503 27.2529 32.5437 27.2529C32.5845 27.2529 32.6239 27.267 32.6554 27.2928C32.6869 27.3186 32.7085 27.3546 32.7166 27.3945L33.3814 30.9968C33.4046 31.1215 33.3872 31.2504 33.3319 31.3646L32.8122 32.4381C32.7876 32.4885 32.7493 32.5309 32.7017 32.5606C32.6541 32.5903 32.5992 32.606 32.5432 32.606C32.4871 32.606 32.4322 32.5903 32.3846 32.5606C32.337 32.5309 32.2988 32.4885 32.2741 32.4381L31.7544 31.3588C31.6991 31.2447 31.6817 31.1157 31.7049 30.991M32.0897 15.7011L32.5115 15.6769C33.5409 15.6772 34.5304 16.0757 35.2731 16.7889C36.0159 17.5022 36.4544 18.4752 36.4971 19.5044C36.5398 20.5337 36.1833 21.5397 35.5022 22.3121C34.8211 23.0845 33.868 23.5636 32.8422 23.6493C32.8422 23.6493 32.7269 23.6609 32.5115 23.6609C32.296 23.6609 32.1658 23.6482 32.1658 23.6482C31.1775 23.5626 30.2565 23.1117 29.5826 22.3833C28.9086 21.6549 28.53 20.7013 28.5206 19.7087C28.5113 18.7161 28.8718 17.7555 29.532 17.0146C30.1921 16.2736 31.1044 15.8053 32.0909 15.7011" fill="black"/>
<path d="M54.8965 37.9996C54.0346 36.3853 52.7959 34.9486 50.9972 33.4819C50.6827 33.2259 50.4038 33.0829 50.0639 33.2178C49.7056 33.3608 49.6088 33.6583 49.5661 34.093C49.5293 34.4827 49.4071 35.5309 49.3357 36.1432C49.3291 36.1994 49.3101 36.2534 49.2801 36.3013C49.2501 36.3493 49.2099 36.39 49.1622 36.4204C49.1146 36.4509 49.0608 36.4704 49.0047 36.4774C48.9486 36.4845 48.8916 36.4791 48.8379 36.4614C48.1708 36.2435 46.939 35.8411 46.4908 35.69C46.0863 35.5528 45.7522 35.4732 45.4468 35.7788C45.1415 36.0844 45.2233 36.4199 45.3627 36.8223C45.5367 37.3228 45.993 38.6673 46.258 39.4525C46.279 39.5145 46.2837 39.5809 46.2718 39.6452C46.2598 39.7096 46.2315 39.7698 46.1897 39.8201C46.1479 39.8704 46.0938 39.9091 46.0328 39.9326C45.9717 39.9561 45.9056 39.9635 45.8409 39.9541C45.024 39.8388 43.6286 39.6301 43.1273 39.5528C42.7459 39.4952 42.451 39.5597 42.2747 39.7396C42.0984 39.9195 42.0442 40.2124 42.1076 40.5883C42.2032 41.1372 42.4683 42.6869 42.6042 43.4871C42.6139 43.5449 42.6102 43.6041 42.5932 43.6602C42.5763 43.7163 42.5467 43.7677 42.5067 43.8104C42.4666 43.8532 42.4173 43.8861 42.3624 43.9066C42.3076 43.9271 42.2488 43.9347 42.1906 43.9288C41.1766 43.8227 38.9055 43.5828 38.1819 43.4894C38.0699 43.4813 37.9576 43.4972 37.8523 43.536C37.747 43.5747 37.6511 43.6355 37.5712 43.7143C37.4719 43.8021 37.3928 43.9103 37.3391 44.0315C37.2854 44.1526 37.2584 44.284 37.2601 44.4165C37.252 45.2525 37.2416 46.1992 37.2601 47.1332C37.2693 47.4791 37.1368 47.6428 36.7888 47.7178C36.0179 47.885 35.2471 48.0799 34.5834 48.2482C34.2216 48.3404 33.9773 48.5353 33.8978 48.7959C33.8183 49.0565 33.9116 49.3529 34.1593 49.6331C34.3149 49.8072 34.4693 49.979 34.6202 50.16C35.3761 51.0225 36.1585 51.9138 37.0515 52.6334C40.7122 55.5818 44.5965 56.0246 48.5936 53.949C51.4259 52.4993 53.7054 50.1607 55.0831 47.2911C56.5961 44.1997 56.5304 41.0749 54.8896 37.9996M54.711 43.3038C54.6384 45.2168 53.8733 47.0432 52.3707 48.887C50.6423 51.0098 48.914 52.3682 46.9309 53.1649C45.9497 53.5678 44.9 53.7777 43.8394 53.783C42.1952 53.783 40.5544 53.2595 38.932 52.2136C37.8795 51.5301 36.932 50.6969 36.1193 49.7403L36.0686 49.6815C36.0487 49.6579 36.0351 49.6297 36.0291 49.5995C36.0231 49.5693 36.0248 49.538 36.0341 49.5087C36.0434 49.4793 36.06 49.4527 36.0824 49.4315C36.1048 49.4103 36.1321 49.3952 36.162 49.3874L37.9491 48.9262C38.5794 48.7613 38.7084 48.5964 38.7119 47.9415C38.7119 47.4606 38.6877 45.9882 38.6739 45.2894C38.6727 45.2432 38.6817 45.1973 38.7001 45.1549C38.7185 45.1125 38.746 45.0747 38.7805 45.044C38.8151 45.0134 38.856 44.9907 38.9003 44.9775C38.9445 44.9643 38.9911 44.9609 39.0368 44.9677C40.0819 45.1176 43.0029 45.535 43.3509 45.5742C43.6989 45.6134 43.9454 45.5419 44.1091 45.369C44.1514 45.3242 44.1868 45.2733 44.2139 45.2179C44.302 45.0129 44.323 44.7852 44.2738 44.5676C44.1344 43.7604 43.8417 42.1542 43.7127 41.4427C43.7054 41.4027 43.7078 41.3614 43.7196 41.3225C43.7315 41.2835 43.7526 41.248 43.781 41.2189C43.8095 41.1897 43.8445 41.1678 43.8831 41.155C43.9217 41.1422 43.9629 41.1388 44.0031 41.1452L47.1003 41.6295C47.5785 41.7045 47.9242 41.6295 48.1016 41.4231C48.2791 41.2167 48.2871 40.88 48.1396 40.443C47.9922 40.006 47.4564 38.5681 47.1429 37.731C47.1234 37.6802 47.1195 37.6247 47.1317 37.5716C47.1439 37.5186 47.1717 37.4704 47.2114 37.4333C47.2511 37.3961 47.301 37.3716 47.3547 37.3631C47.4084 37.3545 47.4635 37.3621 47.5128 37.385C48.1385 37.671 49.0626 38.0884 49.3564 38.1853C49.8058 38.3329 50.1054 38.3432 50.299 38.2199C50.4926 38.0965 50.6043 37.8301 50.6585 37.3781C50.6919 37.1025 50.8014 36.2781 50.8682 35.7788C50.8728 35.7409 50.8881 35.7051 50.9122 35.6755C50.9364 35.6459 50.9684 35.6238 51.0046 35.6117C51.0408 35.5997 51.0797 35.5981 51.1167 35.6073C51.1538 35.6164 51.1875 35.6359 51.2139 35.6635L51.3418 35.7903C51.457 35.9056 51.5618 36.0106 51.6679 36.1213C53.1036 37.6203 54.015 39.1296 54.439 40.7393C54.5472 41.1527 54.6242 41.5736 54.6695 41.9985C54.7146 42.4316 54.7285 42.8675 54.711 43.3026" fill="black"/>
<path d="M27.7112 48.9283L27.0314 48.5708L27.0429 48.5258C27.1074 48.2652 27.1716 48.0089 27.2353 47.7567C27.3851 47.1663 27.5257 46.6036 27.6594 46.0398C27.692 45.9345 27.7029 45.8237 27.6914 45.7141C27.6799 45.6045 27.6463 45.4983 27.5925 45.4021C27.5266 45.3091 27.4424 45.2305 27.3451 45.171C27.2479 45.1116 27.1396 45.0725 27.0268 45.0562C26.8908 45.0262 26.7514 45.0043 26.6154 44.9824L26.4449 44.9559L23.0561 44.3886L23.0642 44.3332C23.0964 44.0972 23.1287 43.8639 23.161 43.6333C23.2347 43.1064 23.3038 42.6094 23.3695 42.102C23.4513 41.4678 23.2762 41.2199 22.6482 41.0804C22.0467 40.9466 21.4499 40.8209 20.8173 40.6872L19.975 40.5096L19.9197 40.4981L20.119 39.4891C20.2607 38.7742 20.3978 38.0801 20.5338 37.3859C20.5753 37.2503 20.5801 37.1061 20.5477 36.9681C20.5153 36.83 20.4468 36.703 20.3494 36.6001C20.2519 36.4971 20.1289 36.4219 19.9928 36.3821C19.8568 36.3423 19.7127 36.3393 19.5751 36.3735L19.1142 36.4381C18.3077 36.5534 17.4677 36.6687 16.6473 36.8025C16.3465 36.852 16.176 36.7794 16.0193 36.5373C15.7013 36.0449 15.3636 35.5537 15.0364 35.0775C14.9212 34.9091 14.806 34.7419 14.6907 34.5736C14.3981 34.1435 14.1307 33.9336 13.8738 33.9336C13.6214 33.9336 13.3656 34.14 13.0891 34.5574L12.9393 34.788C12.2111 35.8904 11.4598 37.0285 10.871 38.2219C9.18525 41.635 8.54921 44.8429 8.92138 48.0265C9.32467 51.4477 11.4368 53.9222 14.7172 54.8147C16.3834 55.2679 18.1233 55.3544 20.036 55.0776C23.2197 54.6164 26.2156 53.348 29.1942 51.1998C29.5686 50.93 29.7565 50.6487 29.738 50.3927C29.7196 50.1367 29.4914 49.8738 29.0778 49.6547C28.6238 49.4141 28.1675 49.1735 27.7089 48.9329M27.3114 50.704C25.4067 51.8744 23.6011 52.6977 21.8255 53.1947C21.4314 53.3053 21.0381 53.3995 20.6456 53.4772C19.677 53.6713 18.6917 53.7691 17.7039 53.7689C17.4596 53.7689 17.2149 53.7631 16.9699 53.7516C14.6446 53.6363 12.9243 52.8141 11.7098 51.2275C10.818 50.0617 10.3559 48.6434 10.2995 46.8931C10.1992 43.8224 11.0611 40.7241 12.9358 37.4205C13.096 37.1403 13.5788 36.392 13.6445 36.287C13.6744 36.2398 13.8749 35.9965 14.0362 36.2259C14.3197 36.6168 14.9189 37.5151 15.1447 37.8668C15.4143 38.2842 15.7324 38.4271 16.2082 38.3453C16.7302 38.2553 18.1337 38.0789 18.666 38.0051C18.8884 37.9751 18.87 38.2184 18.87 38.2184C18.87 38.2184 18.4863 40.1556 18.363 40.7829C18.3173 41.007 18.3612 41.2401 18.4853 41.4322C18.6093 41.6242 18.8037 41.76 19.0267 41.8103C19.4945 41.9187 20.8322 42.2035 21.481 42.3407C21.5792 42.3616 21.6659 42.4191 21.7234 42.5015C21.781 42.5839 21.8051 42.6851 21.7909 42.7846C21.6964 43.4615 21.5029 44.8406 21.4994 44.8971C21.4933 44.9971 21.5003 45.0975 21.5201 45.1957C21.6561 45.5555 21.8347 45.6708 22.314 45.7538C23.0054 45.8691 25.0622 46.2208 25.795 46.3454C25.8285 46.3509 25.8605 46.3633 25.8889 46.3818C25.9174 46.4003 25.9417 46.4245 25.9603 46.4529C25.9789 46.4813 25.9915 46.5132 25.9971 46.5467C26.0028 46.5802 26.0015 46.6145 25.9932 46.6475C25.8688 47.1525 25.598 48.256 25.5058 48.6365C25.3767 49.1727 25.4816 49.4149 25.9563 49.6743L27.3863 50.4399C27.4051 50.4502 27.4209 50.4651 27.4322 50.4833C27.4435 50.5015 27.4499 50.5223 27.4507 50.5437C27.4515 50.5651 27.4468 50.5864 27.4369 50.6054C27.427 50.6244 27.4123 50.6405 27.3943 50.6521L27.3114 50.7063" fill="black"/>
<path d="M40.0323 25.0172L40.0438 25.0287C40.1112 25.1011 40.1927 25.1589 40.2832 25.1986C40.3738 25.2383 40.4715 25.2589 40.5704 25.2593C40.6692 25.2602 40.7671 25.2411 40.8584 25.2033C40.9496 25.1654 41.0323 25.1096 41.1016 25.0391L42.8357 23.268C42.8755 23.2269 42.9232 23.1944 42.9758 23.1722C43.0285 23.15 43.0851 23.1386 43.1422 23.1388C43.1998 23.1385 43.2569 23.1499 43.31 23.1723C43.363 23.1947 43.411 23.2277 43.451 23.2691C43.451 23.2691 44.4454 24.2965 44.8245 24.6747C45.0734 24.9238 45.3016 25.0414 45.509 25.0322C45.7164 25.023 45.9307 24.8915 46.1565 24.6263C46.2867 24.4752 49.0752 21.1302 49.0752 21.1302C49.1094 21.0895 49.1518 21.0567 49.1997 21.0338C49.2476 21.0109 49.2998 20.9986 49.3529 20.9976C49.4054 20.9961 49.4576 21.0056 49.5062 21.0255C49.5548 21.0453 49.5987 21.0751 49.6352 21.1129C49.6352 21.1129 50.0673 21.5914 50.2643 21.7874C50.5489 22.0699 50.8405 22.1933 51.0939 22.1333C51.3474 22.0734 51.5422 21.8462 51.6701 21.4715C51.9305 20.7047 52.979 17.551 53.2533 16.7438C53.3858 16.3518 53.3408 16.0751 53.1058 15.8467C52.8707 15.6184 52.6161 15.5885 52.2485 15.7141C51.3993 16.0024 48.2156 17.0609 47.4782 17.3112C47.1325 17.4265 46.902 17.6317 46.8444 17.8796C46.7868 18.1275 46.8928 18.3997 47.1452 18.6556C47.3975 18.9116 48.0508 19.4916 48.0508 19.4916C48.1231 19.5556 48.1675 19.6453 48.1746 19.7416C48.1817 19.8379 48.151 19.9332 48.0889 20.0071L45.7198 22.8506C45.6812 22.8968 45.6334 22.9344 45.5794 22.961C45.5254 22.9875 45.4664 23.0025 45.4063 23.0049C45.3461 23.0073 45.2862 22.997 45.2302 22.9748C45.1743 22.9526 45.1236 22.9189 45.0815 22.8759C45.0815 22.8759 44.0836 21.8474 43.6907 21.4599C43.5357 21.2841 43.3182 21.1757 43.0846 21.1578C43.007 21.1591 42.9304 21.1758 42.8594 21.2071C42.7884 21.2384 42.7243 21.2836 42.671 21.34C41.8886 22.1057 40.0438 23.9921 40.0438 23.9921C39.9079 24.1273 39.8306 24.3105 39.8284 24.5023C39.8263 24.694 39.8995 24.879 40.0323 25.0172ZM49.1167 18.342C49.1327 18.2742 49.1658 18.2116 49.2128 18.1601C49.2598 18.1087 49.3191 18.0701 49.3852 18.048L50.9361 17.5268C51.0087 17.5021 51.0868 17.4983 51.1615 17.5157C51.2361 17.5331 51.3045 17.571 51.3588 17.6252C51.413 17.6794 51.4511 17.7477 51.4686 17.8224C51.4862 17.8971 51.4825 17.9752 51.4581 18.048L50.9361 19.6115C50.9132 19.6778 50.8741 19.7373 50.8224 19.7847C50.7707 19.832 50.708 19.8656 50.64 19.8825C50.5711 19.8958 50.5 19.8923 50.4328 19.8722C50.3656 19.8521 50.3043 19.8161 50.254 19.7672L49.2238 18.7294C49.1746 18.6795 49.1388 18.6178 49.1201 18.5502C49.1013 18.4826 49.1002 18.4113 49.1167 18.3432" fill="black"/>
<path d="M27.8506 40.211V43.4534C27.8509 43.6312 27.9217 43.8016 28.0474 43.9272C28.1731 44.0528 28.3435 44.1234 28.5212 44.1234H28.5915C28.769 44.1234 28.9393 44.0528 29.0649 43.9271C29.1904 43.8015 29.2609 43.6311 29.2609 43.4534V40.211C29.2609 40.0333 29.1904 39.8629 29.0649 39.7372C28.9393 39.6116 28.769 39.541 28.5915 39.541H28.5212C28.3435 39.541 28.1731 39.6116 28.0474 39.7372C27.9217 39.8628 27.8509 40.0332 27.8506 40.211Z" fill="black"/>
<path d="M32.5427 42.6982H32.4724C32.2949 42.6982 32.1246 42.7688 31.9991 42.8945C31.8735 43.0201 31.803 43.1905 31.803 43.3682V46.6106C31.803 46.7883 31.8735 46.9587 31.9991 47.0844C32.1246 47.21 32.2949 47.2806 32.4724 47.2806H32.5427C32.7204 47.2806 32.8908 47.21 33.0165 47.0844C33.1422 46.9588 33.213 46.7884 33.2133 46.6106V43.3682C33.213 43.1904 33.1422 43.02 33.0165 42.8944C32.8908 42.7688 32.7204 42.6982 32.5427 42.6982Z" fill="black"/>
<path d="M37.503 13.923C37.6158 14.0358 37.7687 14.0992 37.9282 14.0992C38.0876 14.0992 38.2406 14.0358 38.3534 13.923L39.5471 12.7273C39.6552 12.6186 39.7177 12.4727 39.7217 12.3194C39.7258 12.1661 39.6712 12.0171 39.569 11.9028L39.5598 11.8925C39.5053 11.8314 39.439 11.7821 39.3648 11.7476C39.2907 11.7131 39.2103 11.694 39.1285 11.6917C39.0468 11.6893 38.9654 11.7036 38.8894 11.7338C38.8133 11.764 38.7443 11.8093 38.6864 11.8671L37.4892 13.0594C37.4332 13.1151 37.3889 13.1813 37.3586 13.2542C37.3283 13.3272 37.3127 13.4053 37.3127 13.4843C37.3127 13.5633 37.3283 13.6414 37.3586 13.7144C37.3889 13.7873 37.4332 13.8535 37.4892 13.9092L37.503 13.923Z" fill="black"/>
<path d="M32.4008 12.4632H32.607C32.7664 12.4632 32.9192 12.4 33.0319 12.2873C33.1447 12.1747 33.2082 12.0219 33.2085 11.8625V10.0775C33.2085 9.99845 33.193 9.92018 33.1627 9.84715C33.1325 9.77413 33.0882 9.70777 33.0324 9.65188C32.9765 9.59599 32.9102 9.55165 32.8372 9.5214C32.7642 9.49115 32.686 9.47559 32.607 9.47559H32.4008C32.2414 9.47589 32.0886 9.5394 31.9758 9.65222C31.8631 9.76503 31.7996 9.91795 31.7993 10.0775V11.8625C31.7999 12.0218 31.8635 12.1744 31.9762 12.287C32.0889 12.3996 32.2416 12.4629 32.4008 12.4632Z" fill="black"/>
<path d="M35.769 40.211V41.8702C35.769 42.048 35.8395 42.2185 35.9651 42.3444C36.0906 42.4702 36.2608 42.541 36.4385 42.5413H36.5088C36.6865 42.541 36.8567 42.4702 36.9822 42.3444C37.1078 42.2185 37.1783 42.048 37.1783 41.8702V40.211C37.1783 40.0333 37.1077 39.8629 36.9822 39.7372C36.8566 39.6116 36.6863 39.541 36.5088 39.541H36.4385C36.261 39.541 36.0907 39.6116 35.9651 39.7372C35.8396 39.8629 35.769 40.0333 35.769 40.211Z" fill="black"/>
<path d="M26.719 14.0739C26.8321 14.1861 26.9849 14.2491 27.1442 14.2491C27.3035 14.2491 27.4563 14.1861 27.5694 14.0739L27.6109 14.0324C27.667 13.9766 27.7115 13.9102 27.7419 13.8371C27.7723 13.7639 27.788 13.6855 27.788 13.6063C27.788 13.5271 27.7723 13.4487 27.7419 13.3756C27.7115 13.3025 27.667 13.2361 27.6109 13.1803L26.3595 11.9292C26.2475 11.8187 26.097 11.7562 25.9398 11.7549C25.7825 11.7536 25.631 11.8136 25.5172 11.9223L25.4757 11.9626C25.4184 12.0182 25.3727 12.0846 25.3413 12.158C25.3099 12.2314 25.2934 12.3103 25.2927 12.3901C25.2921 12.4699 25.3073 12.5491 25.3376 12.623C25.3678 12.6969 25.4124 12.764 25.4688 12.8205L26.719 14.0739Z" fill="black"/>
<path d="M17.9931 22.5039C18.454 22.8498 18.9702 23.0366 19.5187 23.2326C19.6719 23.2868 19.831 23.3479 19.9877 23.4044C20.391 23.5601 20.8484 23.7365 21.216 24.0156C21.3538 24.1215 21.4617 24.2615 21.5289 24.4218C21.5962 24.5822 21.6206 24.7573 21.5997 24.9299C21.5819 25.1133 21.5166 25.2889 21.4104 25.4393C21.3041 25.5898 21.1604 25.7099 20.9936 25.7878C20.6751 25.9376 20.3277 26.0158 19.9758 26.017C19.6238 26.0182 19.2759 25.9423 18.9564 25.7948C18.7796 25.7286 18.627 25.6105 18.5186 25.456C18.4103 25.3014 18.3512 25.1176 18.3492 24.9288C18.3479 24.8383 18.3285 24.749 18.2921 24.6662C18.2557 24.5834 18.203 24.5088 18.1371 24.4468C18.008 24.3322 17.8407 24.2701 17.6682 24.2727H17.6336C17.5445 24.2771 17.4571 24.2991 17.3765 24.3374C17.2959 24.3757 17.2237 24.4296 17.1639 24.4959C17.1042 24.5622 17.0581 24.6397 17.0284 24.7239C16.9987 24.8081 16.9858 24.8973 16.9906 24.9864C16.9865 25.2874 17.0473 25.5857 17.169 25.8609C17.2907 26.1362 17.4704 26.3819 17.6958 26.5812C18.0538 26.896 18.4828 27.1191 18.946 27.2315C18.999 27.2465 19.1108 27.273 19.1926 27.2915C19.2201 27.2978 19.2446 27.3134 19.262 27.3356C19.2794 27.3579 19.2887 27.3854 19.2882 27.4137C19.2882 27.5786 19.2882 27.8991 19.2882 27.9902C19.294 28.4076 19.5821 28.7109 19.9727 28.7109C20.3633 28.7109 20.6468 28.4134 20.6525 27.9879C20.6525 27.8911 20.6525 27.6258 20.6525 27.4702C20.6526 27.4354 20.6638 27.4017 20.6845 27.3738C20.7053 27.346 20.7345 27.3256 20.7677 27.3157C20.868 27.2811 21.0109 27.2326 21.0846 27.2004C21.3295 27.1148 21.5679 27.0115 21.7979 26.8913C22.1455 26.7134 22.4371 26.4427 22.6405 26.1091C22.8439 25.7756 22.951 25.3922 22.9501 25.0014C22.9755 23.7815 22.344 22.8659 21.1249 22.3493C20.9118 22.2594 20.6986 22.1868 20.4716 22.1095C20.2446 22.0323 19.7249 21.8316 19.7249 21.8316C19.3726 21.7022 19.0383 21.5278 18.7306 21.3127C18.5945 21.206 18.4876 21.0667 18.4198 20.9077C18.3519 20.7487 18.3252 20.575 18.3422 20.4029C18.3526 20.235 18.4051 20.0723 18.4949 19.93C18.5848 19.7877 18.709 19.6704 18.8561 19.5889C19.1947 19.4039 19.5737 19.3055 19.9594 19.3023C20.3451 19.2991 20.7257 19.3912 21.0673 19.5704C21.2254 19.6437 21.3587 19.7617 21.4506 19.9098C21.5425 20.058 21.5891 20.2298 21.5847 20.4041C21.5946 20.582 21.6738 20.7489 21.8054 20.869C21.9369 20.989 22.1103 21.0527 22.2882 21.0462C22.4662 21.0397 22.6345 20.9636 22.7569 20.8343C22.8794 20.7049 22.9463 20.5327 22.9432 20.3545C22.9259 19.4205 22.4546 18.7333 21.5409 18.3101C21.3572 18.2299 21.1686 18.1613 20.9763 18.1049L20.8012 18.0472C20.7568 18.0326 20.7182 18.0043 20.6909 17.9664C20.6635 17.9285 20.6489 17.8829 20.6491 17.8362C20.6491 17.669 20.6491 17.4188 20.6491 17.3288C20.6528 17.2369 20.638 17.1452 20.6055 17.0591C20.5729 16.9731 20.5233 16.8945 20.4597 16.8281C20.396 16.7617 20.3196 16.7089 20.235 16.6728C20.1504 16.6368 20.0594 16.6182 19.9675 16.6182C19.8756 16.6182 19.7846 16.6368 19.7 16.6728C19.6154 16.7089 19.539 16.7617 19.4753 16.8281C19.4117 16.8945 19.3621 16.9731 19.3295 17.0591C19.297 17.1452 19.2822 17.2369 19.2859 17.3288C19.2859 17.4222 19.2859 17.7024 19.2859 17.8742C19.2862 17.9148 19.273 17.9542 19.2484 17.9864C19.2238 18.0185 19.1891 18.0416 19.15 18.0518L19.0808 18.0703C18.9887 18.0945 18.8919 18.1199 18.8043 18.1487C17.8975 18.4404 17.3594 18.9189 17.107 19.6546C16.7752 20.6243 17.1658 21.8766 17.9954 22.505" fill="black"/>
</g>
</g>
<defs>
<clipPath id="clip0_1177_1891">
<rect width="64" height="64" fill="white" transform="translate(0.5 0.356445)"/>
</clipPath>
</defs>
</svg>
