<svg width="65" height="65" viewBox="0 0 65 65" fill="none" xmlns="http://www.w3.org/2000/svg">
<path d="M55.3866 31.8392C55.2976 31.7031 55.1675 31.5991 55.0152 31.5423C54.8629 31.4855 54.6964 31.4789 54.54 31.5235L37.2141 36.5607C37.1265 36.5863 37.0343 36.5921 36.9441 36.5777C36.8539 36.5633 36.7681 36.529 36.6928 36.4774C36.6174 36.4258 36.5545 36.3581 36.5085 36.2792C36.4625 36.2004 36.4346 36.1123 36.4268 36.0213L34.4579 13.6473C34.4413 13.4577 34.3542 13.2813 34.2138 13.1527C34.0734 13.0242 33.8899 12.953 33.6996 12.9531H28.3395C28.1494 12.953 27.9661 13.024 27.8258 13.1523C27.6854 13.2806 27.5982 13.4567 27.5812 13.6461L25.8022 33.3449L23.2625 34.131L21.319 13.6425C21.3009 13.4539 21.2132 13.2787 21.073 13.1513C20.9328 13.0238 20.7501 12.9532 20.5607 12.9531H15.2514C15.0622 12.9532 14.8798 13.0237 14.7399 13.1509C14.5999 13.2782 14.5123 13.453 14.4943 13.6413L12.2605 36.8933C12.2415 37.0921 12.1641 37.2809 12.038 37.4359C11.9118 37.5909 11.7427 37.705 11.5518 37.764L9.40754 38.4292C9.14496 38.5107 8.91531 38.674 8.75212 38.8953C8.58894 39.1166 8.50077 39.3842 8.50049 39.6592V55.0972C8.50049 55.2626 8.53309 55.4264 8.59644 55.5793C8.65978 55.7321 8.75263 55.8709 8.86966 55.9879C8.9867 56.1048 9.12563 56.1975 9.27852 56.2607C9.43141 56.3239 9.59525 56.3563 9.76069 56.3562H54.2498C54.4151 56.3562 54.5788 56.3236 54.7316 56.2603C54.8843 56.1971 55.0231 56.1043 55.14 55.9874C55.2569 55.8705 55.3497 55.7317 55.4129 55.579C55.4762 55.4262 55.5088 55.2625 55.5088 55.0972V32.2818C55.5124 32.1256 55.4704 31.9718 55.3878 31.8392M28.9854 20.9013H30.7922C30.9813 20.9043 31.165 20.8384 31.3091 20.7161C31.4533 20.5937 31.5481 20.4232 31.5759 20.2362C31.5895 20.129 31.5801 20.0203 31.5483 19.9171C31.5166 19.8139 31.4633 19.7186 31.3919 19.6376C31.3205 19.5566 31.2327 19.4918 31.1343 19.4473C31.0359 19.4029 30.9292 19.3799 30.8212 19.3799H29.2272C29.1466 19.3797 29.0668 19.3628 28.9931 19.3301C28.9193 19.2975 28.8531 19.2498 28.7988 19.1902C28.7444 19.1306 28.703 19.0604 28.6773 18.9839C28.6515 18.9075 28.6419 18.8265 28.6491 18.7462L28.9781 15.1083C28.9932 14.9357 29.0726 14.7751 29.2005 14.6582C29.3283 14.5413 29.4954 14.4766 29.6687 14.477H32.3681C32.5414 14.4769 32.7085 14.5418 32.8363 14.6589C32.9642 14.776 33.0435 14.9368 33.0586 15.1095L34.0842 26.7754C34.0914 26.8556 34.0819 26.9365 34.0561 27.0128C34.0303 27.0891 33.9889 27.1592 33.9345 27.2186C33.8801 27.278 33.8139 27.3254 33.7401 27.3578C33.6664 27.3902 33.5867 27.4069 33.5061 27.4067H30.8382C30.6489 27.4035 30.4649 27.4695 30.3206 27.5921C30.1764 27.7147 30.0818 27.8857 30.0545 28.0731C30.0409 28.1802 30.0503 28.289 30.082 28.3922C30.1138 28.4954 30.1671 28.5906 30.2385 28.6716C30.3099 28.7526 30.3977 28.8175 30.4961 28.8619C30.5945 28.9064 30.7012 28.9293 30.8091 28.9293H33.7419C33.8872 28.9294 34.0272 28.9837 34.1344 29.0818C34.2416 29.1798 34.3083 29.3144 34.3212 29.4591L34.9368 36.4627C34.955 36.672 34.9001 36.881 34.7815 37.0544C34.6628 37.2277 34.4878 37.3545 34.2862 37.4133L33.257 37.712C33.1863 37.7318 33.112 37.7349 33.04 37.7212C32.9679 37.7076 32.8999 37.6774 32.8414 37.6332C32.7829 37.589 32.7354 37.5318 32.7026 37.4662C32.6698 37.4005 32.6525 37.3282 32.6523 37.2549V32.2661C32.655 32.1456 32.629 32.0263 32.5763 31.9179C32.5237 31.8096 32.4459 31.7153 32.3495 31.6431C32.2531 31.5708 32.1409 31.5226 32.0221 31.5024C31.9033 31.4823 31.7815 31.4907 31.6666 31.5271L28.0384 32.6543C27.966 32.6769 27.8892 32.6812 27.8148 32.6668C27.7404 32.6524 27.6707 32.6198 27.612 32.5718C27.5532 32.5239 27.5073 32.4622 27.4783 32.3921C27.4493 32.3221 27.4381 32.246 27.4458 32.1705L28.4133 21.425C28.4266 21.2805 28.4934 21.1462 28.6005 21.0485C28.7077 20.9507 28.8475 20.8965 28.9926 20.8965M14.8886 31.5876H17.4888C17.6781 31.5905 17.8621 31.5246 18.0065 31.402C18.1509 31.2794 18.2458 31.1086 18.2737 30.9212C18.287 30.8141 18.2775 30.7053 18.2456 30.6021C18.2137 30.4989 18.1603 30.4036 18.0888 30.3227C18.0173 30.2417 17.9295 30.1768 17.831 30.1324C17.7326 30.088 17.6258 30.065 17.5178 30.065H15.1534C15.0639 30.0649 14.9754 30.0461 14.8935 30.0098C14.8117 29.9735 14.7383 29.9206 14.6781 29.8543C14.6179 29.7881 14.5721 29.71 14.5438 29.6251C14.5155 29.5401 14.5052 29.4502 14.5136 29.3611L15.8839 15.1083C15.9007 14.9368 15.9807 14.7776 16.1084 14.6619C16.236 14.5461 16.4021 14.4819 16.5745 14.4818H19.2352C19.4075 14.4819 19.5737 14.5463 19.7012 14.6624C19.8286 14.7785 19.9083 14.9379 19.9245 15.1095L20.7469 23.7531C20.7555 23.8423 20.7454 23.9322 20.7171 24.0173C20.6889 24.1023 20.6432 24.1804 20.5829 24.2467C20.5226 24.313 20.4492 24.366 20.3673 24.4022C20.2853 24.4384 20.1967 24.457 20.1071 24.457H18.4877C18.2984 24.4538 18.1145 24.5197 17.9702 24.6424C17.826 24.765 17.7314 24.936 17.704 25.1233C17.6905 25.2305 17.6999 25.3392 17.7316 25.4424C17.7633 25.5456 17.8167 25.6409 17.888 25.7219C17.9594 25.8029 18.0472 25.8677 18.1456 25.9122C18.244 25.9566 18.3508 25.9796 18.4587 25.9796H20.9622L21.7326 34.0826C21.7467 34.2298 21.7097 34.3774 21.6278 34.5006C21.5458 34.6237 21.4239 34.7149 21.2827 34.7587L14.4302 36.8775C14.3579 36.8999 14.2812 36.904 14.207 36.8895C14.1327 36.875 14.0632 36.8423 14.0046 36.7944C13.9461 36.7465 13.9003 36.6848 13.8714 36.6149C13.8424 36.545 13.8312 36.4691 13.8388 36.3938L14.2439 32.173C14.259 32.0137 14.3329 31.8659 14.4513 31.7583C14.5696 31.6507 14.7238 31.5911 14.8837 31.5912M53.2266 54.8348H10.7838C10.582 54.8344 10.3885 54.754 10.2459 54.6112C10.1032 54.4683 10.0231 54.2747 10.0231 54.0728V40.5118C10.0233 40.315 10.0865 40.1233 10.2033 39.9649C10.3201 39.8065 10.4846 39.6896 10.6726 39.6313L13.1156 38.8731L22.8162 35.8653H22.8222L30.1367 33.5964C30.2505 33.5613 30.371 33.5533 30.4884 33.5731C30.6059 33.5929 30.7171 33.64 30.813 33.7105C30.909 33.7811 30.9871 33.8732 31.041 33.9794C31.0949 34.0856 31.1232 34.203 31.1236 34.3221V38.8924C31.1211 39.0117 31.1468 39.1298 31.1986 39.2373C31.2504 39.3447 31.3269 39.4384 31.4218 39.5107C31.5167 39.5829 31.6274 39.6318 31.7447 39.6532C31.8621 39.6745 31.9829 39.6679 32.0972 39.6338L36.0277 38.4909L53.0126 33.5517C53.1256 33.5188 53.2448 33.5125 53.3606 33.5334C53.4765 33.5543 53.586 33.6018 53.6804 33.6721C53.7749 33.7424 53.8517 33.8336 53.905 33.9386C53.9582 34.0437 53.9864 34.1596 53.9874 34.2773V54.0728C53.9874 54.2749 53.9071 54.4687 53.7642 54.6116C53.6213 54.7545 53.4275 54.8348 53.2254 54.8348" fill="black"/>
<path d="M16.1428 42.8727H13.782C13.6795 42.8686 13.5772 42.8853 13.4813 42.9217C13.3853 42.9581 13.2977 43.0135 13.2237 43.0846C13.1498 43.1557 13.0909 43.241 13.0507 43.3354C13.0105 43.4298 12.9897 43.5314 12.9897 43.634C12.9897 43.7366 13.0105 43.8382 13.0507 43.9326C13.0909 44.027 13.1498 44.1123 13.2237 44.1834C13.2977 44.2545 13.3853 44.3099 13.4813 44.3463C13.5772 44.3827 13.6795 44.3994 13.782 44.3953H16.1428C16.2453 44.3994 16.3476 44.3827 16.4435 44.3463C16.5395 44.3099 16.6271 44.2545 16.701 44.1834C16.775 44.1123 16.8339 44.027 16.8741 43.9326C16.9143 43.8382 16.935 43.7366 16.935 43.634C16.935 43.5314 16.9143 43.4298 16.8741 43.3354C16.8339 43.241 16.775 43.1557 16.701 43.0846C16.6271 43.0135 16.5395 42.9581 16.4435 42.9217C16.3476 42.8853 16.2453 42.8686 16.1428 42.8727Z" fill="black"/>
<path d="M21.7822 42.873H19.4154C19.2187 42.8809 19.0327 42.9645 18.8964 43.1064C18.76 43.2484 18.6838 43.4375 18.6838 43.6344C18.6838 43.8312 18.76 44.0204 18.8964 44.1623C19.0327 44.3042 19.2187 44.3878 19.4154 44.3957H21.7822C21.9789 44.3878 22.1649 44.3042 22.3013 44.1623C22.4376 44.0204 22.5138 43.8312 22.5138 43.6344C22.5138 43.4375 22.4376 43.2484 22.3013 43.1064C22.1649 42.9645 21.9789 42.8809 21.7822 42.873Z" fill="black"/>
<path d="M27.4108 42.8727H25.0476C24.9451 42.8686 24.8428 42.8853 24.7469 42.9217C24.6509 42.9581 24.5634 43.0135 24.4894 43.0846C24.4154 43.1557 24.3565 43.241 24.3163 43.3354C24.2761 43.4298 24.2554 43.5314 24.2554 43.634C24.2554 43.7366 24.2761 43.8382 24.3163 43.9326C24.3565 44.027 24.4154 44.1123 24.4894 44.1834C24.5634 44.2545 24.6509 44.3099 24.7469 44.3463C24.8428 44.3827 24.9451 44.3994 25.0476 44.3953H27.4084C27.5109 44.3994 27.6132 44.3827 27.7092 44.3463C27.8051 44.3099 27.8927 44.2545 27.9667 44.1834C28.0407 44.1123 28.0995 44.027 28.1397 43.9326C28.1799 43.8382 28.2007 43.7366 28.2007 43.634C28.2007 43.5314 28.1799 43.4298 28.1397 43.3354C28.0995 43.241 28.0407 43.1557 27.9667 43.0846C27.8927 43.0135 27.8051 42.9581 27.7092 42.9217C27.6132 42.8853 27.5109 42.8686 27.4084 42.8727" fill="black"/>
<path d="M33.0454 42.873H30.6835C30.4868 42.8809 30.3008 42.9645 30.1644 43.1064C30.0281 43.2484 29.9519 43.4375 29.9519 43.6344C29.9519 43.8312 30.0281 44.0204 30.1644 44.1623C30.3008 44.3042 30.4868 44.3878 30.6835 44.3957H33.0454C33.2421 44.3878 33.4281 44.3042 33.5645 44.1623C33.7009 44.0204 33.777 43.8312 33.777 43.6344C33.777 43.4375 33.7009 43.2484 33.5645 43.1064C33.4281 42.9645 33.2421 42.8809 33.0454 42.873Z" fill="black"/>
<path d="M35.5571 43.635C35.5571 43.7349 35.5768 43.8338 35.615 43.9261C35.6533 44.0184 35.7093 44.1022 35.7799 44.1729C35.8506 44.2435 35.9344 44.2995 36.0267 44.3378C36.119 44.376 36.2179 44.3957 36.3178 44.3957H38.6798C38.8765 44.3878 39.0625 44.3042 39.1988 44.1623C39.3352 44.0204 39.4114 43.8312 39.4114 43.6344C39.4114 43.4375 39.3352 43.2484 39.1988 43.1064C39.0625 42.9645 38.8765 42.8809 38.6798 42.873H36.3178C36.2178 42.873 36.1188 42.8928 36.0265 42.9311C35.9341 42.9694 35.8502 43.0255 35.7795 43.0963C35.7089 43.167 35.6528 43.2511 35.6147 43.3435C35.5765 43.4359 35.557 43.535 35.5571 43.635Z" fill="black"/>
<path d="M41.9524 44.3953H44.3132C44.4157 44.3994 44.518 44.3827 44.6139 44.3463C44.7099 44.3099 44.7975 44.2545 44.8715 44.1834C44.9454 44.1123 45.0043 44.027 45.0445 43.9326C45.0847 43.8382 45.1055 43.7366 45.1055 43.634C45.1055 43.5314 45.0847 43.4298 45.0445 43.3354C45.0043 43.241 44.9454 43.1557 44.8715 43.0846C44.7975 43.0135 44.7099 42.9581 44.6139 42.9217C44.518 42.8853 44.4157 42.8686 44.3132 42.8727H41.9524C41.8499 42.8686 41.7476 42.8853 41.6517 42.9217C41.5557 42.9581 41.4681 43.0135 41.3942 43.0846C41.3202 43.1557 41.2613 43.241 41.2211 43.3354C41.1809 43.4298 41.1602 43.5314 41.1602 43.634C41.1602 43.7366 41.1809 43.8382 41.2211 43.9326C41.2613 44.027 41.3202 44.1123 41.3942 44.1834C41.4681 44.2545 41.5557 44.3099 41.6517 44.3463C41.7476 44.3827 41.8499 44.3994 41.9524 44.3953Z" fill="black"/>
<path d="M47.5861 44.3957H49.948C50.1447 44.3878 50.3307 44.3042 50.4671 44.1623C50.6034 44.0204 50.6796 43.8312 50.6796 43.6344C50.6796 43.4375 50.6034 43.2484 50.4671 43.1064C50.3307 42.9645 50.1447 42.8809 49.948 42.873H47.5861C47.3894 42.8809 47.2034 42.9645 47.067 43.1064C46.9307 43.2484 46.8545 43.4375 46.8545 43.6344C46.8545 43.8312 46.9307 44.0204 47.067 44.1623C47.2034 44.3042 47.3894 44.3878 47.5861 44.3957Z" fill="black"/>
<path d="M16.1427 46.6826H13.782C13.5802 46.6826 13.3867 46.7628 13.244 46.9054C13.1014 47.0481 13.0212 47.2416 13.0212 47.4433C13.0212 47.6451 13.1014 47.8386 13.244 47.9812C13.3867 48.1239 13.5802 48.204 13.782 48.204H16.1427C16.3445 48.204 16.538 48.1239 16.6806 47.9812C16.8233 47.8386 16.9034 47.6451 16.9034 47.4433C16.9034 47.2416 16.8233 47.0481 16.6806 46.9054C16.538 46.7628 16.3445 46.6826 16.1427 46.6826Z" fill="black"/>
<path d="M21.7821 46.6826H19.4153C19.2135 46.6826 19.02 46.7628 18.8773 46.9054C18.7347 47.0481 18.6545 47.2416 18.6545 47.4433C18.6545 47.6451 18.7347 47.8386 18.8773 47.9812C19.02 48.1239 19.2135 48.204 19.4153 48.204H21.7821C21.9838 48.204 22.1773 48.1239 22.32 47.9812C22.4626 47.8386 22.5428 47.6451 22.5428 47.4433C22.5428 47.2416 22.4626 47.0481 22.32 46.9054C22.1773 46.7628 21.9838 46.6826 21.7821 46.6826Z" fill="black"/>
<path d="M27.4108 46.6826H25.0476C24.8458 46.6826 24.6523 46.7628 24.5097 46.9054C24.367 47.0481 24.2869 47.2416 24.2869 47.4433C24.2869 47.6451 24.367 47.8386 24.5097 47.9812C24.6523 48.1239 24.8458 48.204 25.0476 48.204H27.4083C27.6101 48.204 27.8036 48.1239 27.9462 47.9812C28.0889 47.8386 28.169 47.6451 28.169 47.4433C28.169 47.2416 28.0889 47.0481 27.9462 46.9054C27.8036 46.7628 27.6101 46.6826 27.4083 46.6826" fill="black"/>
<path d="M33.0453 46.6826H30.6833C30.4816 46.6826 30.2881 46.7628 30.1454 46.9054C30.0028 47.0481 29.9226 47.2416 29.9226 47.4433C29.9226 47.6451 30.0028 47.8386 30.1454 47.9812C30.2881 48.1239 30.4816 48.204 30.6833 48.204H33.0453C33.247 48.204 33.4405 48.1239 33.5832 47.9812C33.7259 47.8386 33.806 47.6451 33.806 47.4433C33.806 47.2416 33.7259 47.0481 33.5832 46.9054C33.4405 46.7628 33.247 46.6826 33.0453 46.6826Z" fill="black"/>
<path d="M38.6798 46.6826H36.3178C36.1161 46.6826 35.9226 46.7628 35.7799 46.9054C35.6373 47.0481 35.5571 47.2416 35.5571 47.4433C35.5571 47.6451 35.6373 47.8386 35.7799 47.9812C35.9226 48.1239 36.1161 48.204 36.3178 48.204H38.6798C38.8816 48.204 39.0751 48.1239 39.2177 47.9812C39.3604 47.8386 39.4405 47.6451 39.4405 47.4433C39.4405 47.2416 39.3604 47.0481 39.2177 46.9054C39.0751 46.7628 38.8816 46.6826 38.6798 46.6826Z" fill="black"/>
<path d="M41.9526 48.204H44.3134C44.5151 48.204 44.7086 48.1239 44.8513 47.9812C44.9939 47.8386 45.0741 47.6451 45.0741 47.4433C45.0741 47.2416 44.9939 47.0481 44.8513 46.9054C44.7086 46.7628 44.5151 46.6826 44.3134 46.6826H41.9526C41.7509 46.6826 41.5574 46.7628 41.4147 46.9054C41.272 47.0481 41.1919 47.2416 41.1919 47.4433C41.1919 47.6451 41.272 47.8386 41.4147 47.9812C41.5574 48.1239 41.7509 48.204 41.9526 48.204Z" fill="black"/>
<path d="M47.5859 48.204H49.9479C50.1496 48.204 50.3431 48.1239 50.4858 47.9812C50.6284 47.8386 50.7086 47.6451 50.7086 47.4433C50.7086 47.2416 50.6284 47.0481 50.4858 46.9054C50.3431 46.7628 50.1496 46.6826 49.9479 46.6826H47.5859C47.3842 46.6826 47.1907 46.7628 47.048 46.9054C46.9053 47.0481 46.8252 47.2416 46.8252 47.4433C46.8252 47.6451 46.9053 47.8386 47.048 47.9812C47.1907 48.1239 47.3842 48.204 47.5859 48.204Z" fill="black"/>
<path d="M16.1428 50.4908H13.782C13.6795 50.4868 13.5772 50.5034 13.4813 50.5398C13.3853 50.5763 13.2977 50.6317 13.2237 50.7028C13.1498 50.7739 13.0909 50.8592 13.0507 50.9536C13.0105 51.048 12.9897 51.1495 12.9897 51.2522C12.9897 51.3548 13.0105 51.4563 13.0507 51.5507C13.0909 51.6451 13.1498 51.7304 13.2237 51.8015C13.2977 51.8726 13.3853 51.9281 13.4813 51.9645C13.5772 52.0009 13.6795 52.0176 13.782 52.0135H16.1428C16.2453 52.0176 16.3476 52.0009 16.4435 51.9645C16.5395 51.9281 16.6271 51.8726 16.701 51.8015C16.775 51.7304 16.8339 51.6451 16.8741 51.5507C16.9143 51.4563 16.935 51.3548 16.935 51.2522C16.935 51.1495 16.9143 51.048 16.8741 50.9536C16.8339 50.8592 16.775 50.7739 16.701 50.7028C16.6271 50.6317 16.5395 50.5763 16.4435 50.5398C16.3476 50.5034 16.2453 50.4868 16.1428 50.4908Z" fill="black"/>
<path d="M21.7822 50.4912H19.4154C19.2187 50.4991 19.0327 50.5827 18.8964 50.7246C18.76 50.8665 18.6838 51.0557 18.6838 51.2525C18.6838 51.4494 18.76 51.6385 18.8964 51.7805C19.0327 51.9224 19.2187 52.006 19.4154 52.0139H21.7822C21.9789 52.006 22.1649 51.9224 22.3013 51.7805C22.4376 51.6385 22.5138 51.4494 22.5138 51.2525C22.5138 51.0557 22.4376 50.8665 22.3013 50.7246C22.1649 50.5827 21.9789 50.4991 21.7822 50.4912Z" fill="black"/>
<path d="M27.4108 50.4908H25.0476C24.9451 50.4868 24.8428 50.5034 24.7469 50.5398C24.6509 50.5763 24.5634 50.6317 24.4894 50.7028C24.4154 50.7739 24.3565 50.8592 24.3163 50.9536C24.2761 51.048 24.2554 51.1495 24.2554 51.2522C24.2554 51.3548 24.2761 51.4563 24.3163 51.5507C24.3565 51.6451 24.4154 51.7304 24.4894 51.8015C24.5634 51.8726 24.6509 51.9281 24.7469 51.9645C24.8428 52.0009 24.9451 52.0176 25.0476 52.0135H27.4084C27.5109 52.0176 27.6132 52.0009 27.7092 51.9645C27.8051 51.9281 27.8927 51.8726 27.9667 51.8015C28.0407 51.7304 28.0995 51.6451 28.1397 51.5507C28.1799 51.4563 28.2007 51.3548 28.2007 51.2522C28.2007 51.1495 28.1799 51.048 28.1397 50.9536C28.0995 50.8592 28.0407 50.7739 27.9667 50.7028C27.8927 50.6317 27.8051 50.5763 27.7092 50.5398C27.6132 50.5034 27.5109 50.4868 27.4084 50.4908" fill="black"/>
<path d="M33.0452 50.4912H30.6832C30.4866 50.4991 30.3006 50.5827 30.1642 50.7246C30.0278 50.8665 29.9517 51.0557 29.9517 51.2525C29.9517 51.4494 30.0278 51.6385 30.1642 51.7805C30.3006 51.9224 30.4866 52.006 30.6832 52.0139H33.0452C33.2419 52.006 33.4279 51.9224 33.5642 51.7805C33.7006 51.6385 33.7768 51.4494 33.7768 51.2525C33.7768 51.0557 33.7006 50.8665 33.5642 50.7246C33.4279 50.5827 33.2419 50.4991 33.0452 50.4912Z" fill="black"/>
<path d="M38.68 50.4912H36.318C36.1213 50.4991 35.9353 50.5827 35.799 50.7246C35.6626 50.8665 35.5864 51.0557 35.5864 51.2525C35.5864 51.4494 35.6626 51.6385 35.799 51.7805C35.9353 51.9224 36.1213 52.006 36.318 52.0139H38.68C38.8766 52.006 39.0626 51.9224 39.199 51.7805C39.3354 51.6385 39.4115 51.4494 39.4115 51.2525C39.4115 51.0557 39.3354 50.8665 39.199 50.7246C39.0626 50.5827 38.8766 50.4991 38.68 50.4912Z" fill="black"/>
<path d="M41.9524 52.0135H44.3132C44.4157 52.0176 44.518 52.0009 44.6139 51.9645C44.7099 51.9281 44.7975 51.8726 44.8715 51.8015C44.9454 51.7304 45.0043 51.6451 45.0445 51.5507C45.0847 51.4563 45.1055 51.3548 45.1055 51.2522C45.1055 51.1495 45.0847 51.048 45.0445 50.9536C45.0043 50.8592 44.9454 50.7739 44.8715 50.7028C44.7975 50.6317 44.7099 50.5763 44.6139 50.5398C44.518 50.5034 44.4157 50.4868 44.3132 50.4908H41.9524C41.8499 50.4868 41.7476 50.5034 41.6517 50.5398C41.5557 50.5763 41.4681 50.6317 41.3942 50.7028C41.3202 50.7739 41.2613 50.8592 41.2211 50.9536C41.1809 51.048 41.1602 51.1495 41.1602 51.2522C41.1602 51.3548 41.1809 51.4563 41.2211 51.5507C41.2613 51.6451 41.3202 51.7304 41.3942 51.8015C41.4681 51.8726 41.5557 51.9281 41.6517 51.9645C41.7476 52.0009 41.8499 52.0176 41.9524 52.0135Z" fill="black"/>
<path d="M47.5861 52.0139H49.948C50.1447 52.006 50.3307 51.9224 50.4671 51.7805C50.6034 51.6385 50.6796 51.4494 50.6796 51.2525C50.6796 51.0557 50.6034 50.8665 50.4671 50.7246C50.3307 50.5827 50.1447 50.4991 49.948 50.4912H47.5861C47.3894 50.4991 47.2034 50.5827 47.067 50.7246C46.9307 50.8665 46.8545 51.0557 46.8545 51.2525C46.8545 51.4494 46.9307 51.6385 47.067 51.7805C47.2034 51.9224 47.3894 52.006 47.5861 52.0139Z" fill="black"/>
<path d="M54.1941 19.4007C54.1175 19.3337 54.0281 19.2827 53.9314 19.2508C53.8347 19.2189 53.7325 19.2068 53.631 19.2151C53.5295 19.2235 53.4307 19.2521 53.3404 19.2994C53.2502 19.3466 53.1704 19.4115 53.1057 19.4902C52.9825 19.6513 52.9264 19.8536 52.9489 20.0551C52.9714 20.2566 53.0709 20.4416 53.2266 20.5714C54.9137 22.0517 55.1 22.6709 54.9645 22.9249C54.8291 23.1789 54.2195 23.3917 52.1164 22.9781C51.6326 22.8826 51.1174 22.7556 50.5829 22.6008C50.4483 22.5618 50.3318 22.4767 50.2537 22.3604C50.1757 22.244 50.141 22.1039 50.156 21.9647C50.185 21.6929 50.21 21.4168 50.2309 21.1362C50.2391 21.0324 50.2714 20.9319 50.3251 20.8427C50.3788 20.7535 50.4526 20.678 50.5405 20.6222C53.7866 18.5662 55.9248 16.451 56.2913 14.9138C56.3557 14.6839 56.3728 14.4433 56.3416 14.2065C56.3104 13.9697 56.2316 13.7418 56.1098 13.5363C55.3382 12.2846 53.0501 12.3971 50.3531 13.2195C50.2864 13.24 50.2161 13.2465 50.1468 13.2387C50.0774 13.2308 50.0104 13.2087 49.95 13.1737C49.8896 13.1387 49.8371 13.0917 49.7957 13.0354C49.7544 12.9792 49.7251 12.915 49.7097 12.847C49.6178 12.4491 49.5162 12.0705 49.4049 11.7137C48.5414 8.93938 47.3792 8.35645 46.5556 8.35645C45.732 8.35645 44.5709 8.94059 43.7062 11.7222C43.578 12.1346 43.4643 12.5773 43.3603 13.0441C43.3462 13.1079 43.3193 13.1681 43.2813 13.2212C43.2433 13.2743 43.1949 13.3192 43.1391 13.3531C43.0833 13.387 43.0211 13.4092 42.9565 13.4185C42.8918 13.4277 42.826 13.4238 42.7629 13.4069C40.54 12.7817 37.6834 12.3402 36.8271 13.8447C36.2418 14.8703 36.838 16.2139 38.5989 17.8357C38.7421 17.968 38.9306 18.0402 39.1255 18.0375C39.3203 18.0348 39.5068 17.9574 39.6462 17.8212C39.7187 17.7452 39.7753 17.6554 39.8126 17.5572C39.8499 17.459 39.8672 17.3543 39.8635 17.2493C39.8598 17.1442 39.8351 17.041 39.791 16.9457C39.7468 16.8504 39.684 16.7648 39.6063 16.6941C38.1804 15.371 38.0946 14.6925 38.155 14.5958C38.2929 14.3539 39.6172 14.0479 42.677 14.9586C42.773 14.9872 42.856 15.0487 42.9112 15.1322C42.9665 15.2158 42.9906 15.3162 42.9794 15.4157C42.9443 15.7217 42.9153 16.0313 42.8911 16.347C42.882 16.4605 42.8468 16.5705 42.788 16.668C42.7292 16.7656 42.6486 16.8482 42.5524 16.9093C39.4189 18.8928 37.2577 20.9959 36.8465 22.5355C36.6638 23.214 36.8332 23.6929 37.0073 23.9759C37.4342 24.6677 38.2881 24.9168 39.2967 24.9168C40.563 24.9168 42.0711 24.525 43.2878 24.1222C43.3992 24.6869 43.5393 25.2456 43.7074 25.796C44.5721 28.5704 45.7344 29.1533 46.5568 29.1533C47.3792 29.1533 48.5426 28.5704 49.4061 25.796C49.5897 25.2002 49.7399 24.5945 49.856 23.9819C51.3194 24.4282 52.6909 24.6979 53.8035 24.6979C54.9839 24.6979 55.8752 24.3956 56.2804 23.6844C56.902 22.596 56.1993 21.1568 54.1941 19.4056M44.3121 18.7622C44.3121 18.4598 44.3165 18.1603 44.3254 17.8636C44.3277 17.7845 44.3501 17.7074 44.3905 17.6395C44.431 17.5715 44.4881 17.515 44.5564 17.4753C44.8346 17.3157 45.12 17.1549 45.4139 16.9916C46.3475 16.4861 47.2812 16.0349 48.1883 15.6455C48.2371 15.6245 48.2902 15.6153 48.3433 15.6188C48.3964 15.6222 48.4479 15.6381 48.4936 15.6652C48.5394 15.6923 48.5781 15.7299 48.6066 15.7748C48.635 15.8197 48.6525 15.8707 48.6575 15.9237C48.747 16.8259 48.793 17.7801 48.793 18.7573C48.793 19.7031 48.7506 20.6246 48.672 21.5002C48.6671 21.5524 48.6501 21.6027 48.6223 21.6472C48.5946 21.6917 48.5568 21.7291 48.5121 21.7564C48.4674 21.7838 48.4169 21.8003 48.3647 21.8048C48.3125 21.8092 48.2599 21.8014 48.2112 21.782C47.3199 21.4289 46.3971 21.0177 45.4828 20.5569C45.1768 20.4045 44.8781 20.2449 44.5746 20.084C44.5034 20.0454 44.4436 19.9887 44.4012 19.9198C44.3587 19.8508 44.3351 19.7719 44.3327 19.691C44.323 19.383 44.3182 19.0718 44.3182 18.7573M51.964 14.3708C54.0539 13.887 54.8182 13.9729 54.8242 14.476C54.8315 15.1726 53.2883 16.8948 50.7861 18.634C50.7407 18.6659 50.6875 18.6849 50.6322 18.689C50.5769 18.6932 50.5216 18.6822 50.472 18.6574C50.4224 18.6326 50.3804 18.5949 50.3505 18.5482C50.3207 18.5014 50.304 18.4475 50.3023 18.3921C50.2781 17.606 50.2249 16.191 50.1414 15.4448C50.1248 15.2933 50.1611 15.1408 50.2443 15.0132C50.3274 14.8855 50.4522 14.7906 50.5974 14.7445C51.0715 14.5958 51.5274 14.47 51.9616 14.3708M45.1599 12.1709C45.6836 10.4935 46.281 9.88392 46.5556 9.88392C46.8301 9.88392 47.4287 10.4886 47.9524 12.1709C48.0734 12.5664 48.1858 12.9921 48.2826 13.442C48.3114 13.5748 48.2927 13.7136 48.2297 13.834C48.1667 13.9545 48.0634 14.049 47.9379 14.1011C47.1736 14.4192 45.8142 15.0928 45.0414 15.4835C44.9852 15.5118 44.9223 15.5243 44.8596 15.5197C44.7968 15.5151 44.7365 15.4935 44.685 15.4572C44.6336 15.4209 44.593 15.3713 44.5676 15.3137C44.5421 15.2562 44.5329 15.1928 44.5407 15.1303C44.6638 14.1282 44.8709 13.1383 45.1599 12.1709ZM38.299 23.1765C38.0075 22.6564 40.0127 20.4819 42.4387 18.8081C42.4718 18.7849 42.5106 18.7713 42.5509 18.7688C42.5912 18.7663 42.6314 18.7749 42.667 18.7938C42.7027 18.8127 42.7325 18.8411 42.753 18.8759C42.7735 18.9106 42.7841 18.9504 42.7834 18.9907C42.7735 20.0227 42.8361 21.054 42.9709 22.0771C42.9907 22.2242 42.958 22.3736 42.8786 22.499C42.7992 22.6244 42.6781 22.7178 42.5367 22.7629C39.6958 23.6651 38.5892 23.6953 38.3038 23.1765M47.9573 25.3449C47.4336 27.0224 46.9789 27.6319 46.5604 27.6319C46.1419 27.6319 45.6884 27.0272 45.1647 25.3449C44.872 24.3711 44.6624 23.3742 44.5383 22.365C44.5312 22.3044 44.5403 22.2431 44.5647 22.1872C44.589 22.1313 44.6278 22.0829 44.6769 22.0469C44.7261 22.0109 44.784 21.9885 44.8446 21.9822C44.9052 21.9758 44.9664 21.9856 45.022 22.0106C45.8819 22.4121 47.5146 23.1583 48.3939 23.4825C48.2816 24.11 48.1321 24.7303 47.9464 25.3401" fill="black"/>
<path d="M46.5555 19.7523C46.7517 19.7494 46.9427 19.6886 47.1045 19.5775C47.2662 19.4664 47.3916 19.31 47.4647 19.1279C47.5378 18.9458 47.5554 18.7461 47.5154 18.554C47.4754 18.3619 47.3795 18.1859 47.2397 18.0482C47.0999 17.9104 46.9226 17.8171 46.7299 17.7798C46.5372 17.7426 46.3378 17.7631 46.1568 17.8388C45.9758 17.9146 45.8212 18.0422 45.7124 18.2055C45.6037 18.3689 45.5457 18.5607 45.5457 18.757C45.5479 19.0228 45.6555 19.2768 45.8448 19.4634C46.0341 19.65 46.2897 19.7539 46.5555 19.7523Z" fill="black"/>
</svg>
