<svg width="65" height="65" viewBox="0 0 65 65" fill="none" xmlns="http://www.w3.org/2000/svg">
<path d="M21.4381 32.2505C21.4614 32.2553 21.4823 32.268 21.4972 32.2866C21.512 32.3052 21.5199 32.3284 21.5194 32.3522C21.5194 32.7062 21.5266 38.6024 21.5266 38.6584C21.5258 38.6945 21.5131 38.7293 21.4905 38.7574C21.4678 38.7856 21.4365 38.8055 21.4015 38.814C21.2473 38.8622 21.1131 38.9596 21.0196 39.0913C20.9261 39.2231 20.8784 39.3818 20.8837 39.5433V40.655C20.8837 41.1411 21.3496 41.5836 21.8602 41.5836H29.8557L43.0956 41.5917C43.6621 41.5917 44.1066 41.1951 44.1066 40.6885V39.4995C44.1091 39.3347 44.0587 39.1734 43.9628 39.0394C43.8669 38.9054 43.7305 38.8057 43.5736 38.755C43.5421 38.7474 43.514 38.7296 43.4936 38.7044C43.4732 38.6793 43.4616 38.6481 43.4607 38.6156C43.4607 37.8559 43.4607 33.4283 43.4658 32.4336C43.4667 32.4033 43.4781 32.3742 43.4979 32.3512C43.5177 32.3283 43.5448 32.3128 43.5746 32.3075C44.1056 32.1905 44.1056 31.6118 44.1056 31.331V29.6274C44.1035 29.3622 43.9979 29.1083 43.8113 28.9198C43.6248 28.7313 43.3719 28.6231 43.1068 28.6184L39.7503 28.6062H39.1644C39.1335 28.6062 39.1037 28.5949 39.0804 28.5745C39.0572 28.5541 39.0423 28.526 39.0383 28.4953C39.019 28.358 39.0037 28.2553 38.9905 28.1902C38.9559 28.0081 38.8949 27.7213 38.8074 27.3877L38.7972 27.3521C38.2429 25.6779 37.1515 24.4075 35.5536 23.5755C34.8126 23.197 34.0069 22.9614 33.1787 22.8808C33.1646 22.8798 33.1514 22.8736 33.1417 22.8635C33.1319 22.8534 33.1262 22.84 33.1258 22.8259V22.6123C33.1258 22.6057 33.1271 22.5993 33.1296 22.5932C33.1321 22.5872 33.1358 22.5817 33.1404 22.5771C33.145 22.5724 33.1505 22.5688 33.1565 22.5662C33.1626 22.5637 33.1691 22.5625 33.1756 22.5625C33.1756 22.5625 35.5852 22.5625 36.3663 22.5625C36.7732 22.5625 36.9481 22.3712 37.0142 22.2573C37.0803 22.1434 37.1648 21.8962 36.9512 21.5453C36.9237 21.5016 36.7884 21.2819 36.6715 21.0907L36.5636 20.9157C36.5486 20.892 36.5407 20.8645 36.5407 20.8364C36.5407 20.8083 36.5486 20.7808 36.5636 20.7571L36.9359 20.157C37.0213 20.0227 37.1983 19.744 37.0102 19.4216C36.822 19.0992 36.5128 19.1165 36.3277 19.1104H32.6813C32.0812 19.1104 31.8676 19.3138 31.8676 19.8986V22.8269C31.8679 22.8406 31.8629 22.8539 31.8536 22.8639C31.8443 22.874 31.8314 22.88 31.8178 22.8808C31.6056 22.8986 31.3947 22.9292 31.1861 22.9724C30.8064 23.045 30.4337 23.1509 30.0724 23.2887L29.813 23.3904C29.4728 23.5522 29.1421 23.7332 28.8224 23.9325C28.3744 24.2486 27.9536 24.6014 27.5642 24.9873C27.409 25.149 27.2655 25.3217 27.135 25.504C26.5035 26.3543 26.0982 27.351 25.9571 28.4007C25.9497 28.4546 25.9229 28.504 25.8817 28.5396C25.8405 28.5751 25.7878 28.5945 25.7334 28.594L22.1928 28.5991C21.3669 28.5991 20.8115 29.0059 20.8115 29.605V31.4033C20.8115 31.8335 21.0556 32.1651 21.433 32.2475M35.3238 20.3838C35.2678 20.4713 35.2221 20.5475 35.1671 20.6167C35.1233 20.6779 35.0991 20.7509 35.0979 20.8261C35.0966 20.9014 35.1183 20.9752 35.16 21.0378C35.2149 21.1212 35.2678 21.2036 35.3207 21.287C35.3229 21.291 35.3241 21.2956 35.3241 21.3002C35.3241 21.3048 35.3229 21.3094 35.3207 21.3134C35.3187 21.3179 35.3154 21.3216 35.3112 21.3241C35.307 21.3267 35.3022 21.3279 35.2973 21.3277H33.2214C33.2008 21.3277 33.181 21.3196 33.1664 21.3051C33.1517 21.2906 33.1433 21.271 33.1431 21.2504V20.4204C33.1433 20.3998 33.1517 20.3801 33.1664 20.3657C33.181 20.3512 33.2008 20.3431 33.2214 20.3431H35.3014C35.306 20.3428 35.3106 20.344 35.3146 20.3463C35.3186 20.3487 35.3218 20.3522 35.3238 20.3563C35.3263 20.3605 35.3276 20.3652 35.3276 20.3701C35.3276 20.3749 35.3263 20.3796 35.3238 20.3838ZM27.2224 28.4567C27.2397 28.3468 27.2651 28.1973 27.2865 28.1047C27.434 27.4628 27.7059 26.856 28.087 26.3187L28.0951 26.3075C28.2093 26.1482 28.3319 25.9951 28.4623 25.8488C28.7988 25.4766 29.1853 25.1528 29.6106 24.8866L29.7225 24.8184C30.557 24.3241 31.509 24.0631 32.4789 24.0627C33.182 24.065 33.8782 24.201 34.5304 24.4634C36.1192 25.0971 37.2644 26.3797 37.6733 27.9837C37.6947 28.0691 37.7221 28.2064 37.7516 28.3804C37.7565 28.4079 37.7552 28.4361 37.7478 28.463C37.7404 28.4899 37.7271 28.5148 37.7089 28.536C37.6911 28.5576 37.6687 28.575 37.6434 28.5869C37.6181 28.5989 37.5905 28.6051 37.5625 28.6052H27.3496C27.3313 28.605 27.3134 28.601 27.2969 28.5933C27.2803 28.5855 27.2657 28.5743 27.254 28.5604C27.2421 28.5465 27.2335 28.5302 27.2288 28.5126C27.224 28.495 27.2233 28.4766 27.2265 28.4587M22.1439 29.8542C22.1726 29.8458 22.2026 29.8423 22.2324 29.844H42.6867C42.7162 29.844 42.7447 29.844 42.7742 29.844C42.825 29.844 42.8423 29.8521 42.8423 29.8491C42.8471 29.8666 42.8488 29.8849 42.8474 29.903C42.8474 30.3099 42.8474 30.7167 42.8474 31.1164C42.8474 31.152 42.8474 31.1663 42.8474 31.1663C42.8242 31.1741 42.7997 31.1776 42.7752 31.1764C42.7355 31.1764 42.6948 31.1764 42.6542 31.1764H22.3555C22.2876 31.1802 22.2194 31.1771 22.1521 31.1673C22.1404 31.1025 22.1366 31.0366 22.1409 30.971V30.6526C22.1409 30.4105 22.1409 30.1675 22.1409 29.9254C22.1428 29.9017 22.1428 29.8779 22.1409 29.8542M41.7042 35.0415C41.7042 34.0244 41.0563 33.2463 40.0635 33.054C39.9409 33.0301 39.8162 33.0181 39.6913 33.0184C39.2463 33.0197 38.8138 33.1661 38.4596 33.4355C38.2473 33.5904 38.0716 33.7898 37.9445 34.0198C37.8175 34.2498 37.7423 34.5048 37.7242 34.7669C37.6987 35.2754 37.6998 37.5558 37.7018 38.5139C37.7018 38.5318 37.6983 38.5495 37.6914 38.5659C37.6845 38.5824 37.6745 38.5974 37.6618 38.6099C37.6491 38.6225 37.6341 38.6325 37.6176 38.6392C37.6011 38.6459 37.5834 38.6493 37.5655 38.6492H36.9552C36.9373 38.6493 36.9195 38.6458 36.903 38.639C36.8864 38.6322 36.8713 38.6222 36.8586 38.6095C36.8456 38.5971 36.8353 38.5821 36.8285 38.5655C36.8216 38.5488 36.8184 38.5309 36.8189 38.5129C36.8189 38.0511 36.8189 35.7067 36.8128 34.9296C36.8067 34.1525 36.406 33.5463 35.6726 33.2056C35.3424 33.0411 34.9722 32.9739 34.6052 33.0117C34.2382 33.0495 33.8895 33.1908 33.5998 33.4192C33.3532 33.5935 33.153 33.8256 33.0166 34.095C32.8803 34.3645 32.812 34.6633 32.8176 34.9652C32.8176 35.6151 32.8176 37.4399 32.8176 38.2912V38.5261C32.8176 38.5582 32.8048 38.589 32.7821 38.6117C32.7594 38.6344 32.7287 38.6472 32.6966 38.6472H32.0456C32.0136 38.6469 31.9829 38.6341 31.9603 38.6114C31.9377 38.5888 31.9248 38.5582 31.9246 38.5261C31.9246 37.8762 31.9246 35.6975 31.9246 34.9662C31.9249 34.7022 31.8711 34.4408 31.7665 34.1984C31.6618 33.9559 31.5086 33.7374 31.3163 33.5565C30.9223 33.1933 30.4016 32.999 29.8659 33.0154C29.349 33.0205 28.8549 33.229 28.4907 33.5959C28.1265 33.9628 27.9215 34.4584 27.9202 34.9754C27.9202 35.7036 27.9202 37.8803 27.9202 38.5302C27.9199 38.5622 27.9071 38.5929 27.8844 38.6155C27.8618 38.6381 27.8311 38.651 27.7991 38.6512H27.1614C27.1455 38.6514 27.1297 38.6483 27.1149 38.6423C27.1002 38.6363 27.0868 38.6274 27.0755 38.6161C27.0642 38.6048 27.0553 38.5914 27.0493 38.5767C27.0433 38.5619 27.0402 38.5461 27.0404 38.5302C27.0404 37.7074 27.0404 35.7179 27.0404 35.0272C27.0404 34.0315 26.4097 33.2575 25.4425 33.054C25.1562 32.9946 24.8606 32.9972 24.5754 33.0618C24.2903 33.1263 24.0223 33.2513 23.7896 33.4283C23.5724 33.587 23.3937 33.7926 23.2668 34.0297C23.1398 34.2669 23.0679 34.5296 23.0563 34.7984C23.0319 35.5602 23.0339 37.8498 23.036 38.5312C23.0361 38.5471 23.033 38.5629 23.0269 38.5776C23.0208 38.5923 23.0118 38.6056 23.0004 38.6167C22.9833 38.6325 22.962 38.6431 22.9391 38.6472C22.9162 38.6513 22.8925 38.6486 22.8711 38.6396C22.8496 38.6306 22.8312 38.6156 22.818 38.5963C22.8049 38.5771 22.7976 38.5545 22.7969 38.5312V32.4112H42.1893V38.5139C42.1891 38.5502 42.1745 38.5848 42.1488 38.6104C42.123 38.6359 42.0883 38.6502 42.052 38.6502H41.8486C41.8307 38.6504 41.8129 38.6469 41.7963 38.6401C41.7797 38.6333 41.7646 38.6233 41.7519 38.6106C41.7392 38.5979 41.7292 38.5828 41.7224 38.5662C41.7156 38.5497 41.7122 38.5319 41.7123 38.5139C41.7123 38.2393 41.7123 35.8074 41.7123 35.0303M24.2931 35.0303C24.2931 34.5746 24.5881 34.2492 25.0051 34.24H25.0214C25.2217 34.2364 25.4158 34.3091 25.5645 34.4434C25.6304 34.5052 25.6829 34.5799 25.7188 34.6628C25.7547 34.7458 25.7731 34.8352 25.773 34.9255C25.7822 35.5033 25.7832 36.6801 25.773 38.4244V38.5363C25.773 38.5522 25.7699 38.5678 25.7638 38.5825C25.7577 38.5971 25.7488 38.6104 25.7375 38.6215C25.7263 38.6327 25.7129 38.6415 25.6982 38.6475C25.6836 38.6535 25.6678 38.6565 25.652 38.6563H24.4081C24.376 38.6563 24.3452 38.6436 24.3225 38.6209C24.2998 38.5982 24.287 38.5674 24.287 38.5353C24.287 38.5099 24.287 35.9925 24.287 35.0334M29.1692 35.0049C29.1671 34.8784 29.1962 34.7533 29.2541 34.6408C29.3119 34.5283 29.3967 34.4319 29.5008 34.36C29.6207 34.2785 29.7626 34.2356 29.9076 34.2369C29.9936 34.237 30.0789 34.2518 30.1599 34.2807C30.4803 34.3936 30.645 34.5858 30.6491 34.8686C30.6552 35.2846 30.6613 36.2417 30.6583 38.4458V38.5373C30.658 38.5693 30.6451 38.6 30.6225 38.6226C30.5999 38.6453 30.5692 38.6581 30.5372 38.6584H29.2953C29.2793 38.6584 29.2635 38.6552 29.2488 38.6491C29.234 38.6429 29.2206 38.6339 29.2094 38.6226C29.1981 38.6112 29.1892 38.5977 29.1832 38.5829C29.1772 38.5681 29.1741 38.5523 29.1743 38.5363C29.1743 38.5109 29.1743 35.965 29.1743 35.0049M34.0727 34.9398C34.0693 34.8076 34.1054 34.6775 34.1764 34.5661C34.2475 34.4546 34.3502 34.3669 34.4714 34.3142C34.5852 34.2515 34.7139 34.2211 34.8437 34.2263C34.9735 34.2315 35.0994 34.2721 35.2078 34.3437C35.3083 34.3967 35.3929 34.4753 35.4532 34.5716C35.5134 34.6679 35.547 34.7785 35.5506 34.892C35.5557 35.6538 35.5506 37.4856 35.5506 38.5109C35.5506 38.5287 35.5471 38.5464 35.5402 38.5629C35.5333 38.5794 35.5233 38.5943 35.5106 38.6069C35.4979 38.6195 35.4829 38.6294 35.4664 38.6362C35.4498 38.6429 35.4321 38.6463 35.4143 38.6462H34.207C34.1891 38.6463 34.1714 38.6429 34.1549 38.6362C34.1384 38.6294 34.1233 38.6195 34.1107 38.6069C34.098 38.5943 34.0879 38.5794 34.0811 38.5629C34.0742 38.5464 34.0707 38.5287 34.0707 38.5109C34.0707 37.8213 34.0707 35.7545 34.0707 34.9398M38.959 35.014C38.9552 34.9052 38.9738 34.7968 39.0137 34.6955C39.0536 34.5942 39.1139 34.5021 39.1909 34.4251C39.3331 34.2962 39.5198 34.2276 39.7116 34.2339H39.735C39.9129 34.2312 40.085 34.2973 40.2154 34.4184C40.3457 34.5395 40.4243 34.7062 40.4348 34.8838C40.4501 35.7179 40.445 37.748 40.444 38.5129C40.4437 38.5492 40.4291 38.5838 40.4034 38.6093C40.3777 38.6349 40.3429 38.6492 40.3066 38.6492H39.0963C39.0601 38.6492 39.0255 38.6348 38.9999 38.6093C38.9743 38.5837 38.96 38.5491 38.96 38.5129C38.96 38.0786 38.96 35.8684 38.96 35.013M22.1419 39.9908C22.1419 39.9638 22.1526 39.9379 22.1717 39.9189C22.1908 39.8998 22.2167 39.8891 22.2436 39.8891H42.7447C42.7716 39.8891 42.7975 39.8998 42.8166 39.9189C42.8357 39.9379 42.8464 39.9638 42.8464 39.9908V40.2715C42.8464 40.2985 42.8357 40.3244 42.8166 40.3434C42.7975 40.3625 42.7716 40.3732 42.7447 40.3732H22.2457C22.2319 40.3734 22.2182 40.3708 22.2054 40.3656C22.1926 40.3604 22.1811 40.3526 22.1714 40.3427C22.1616 40.3331 22.1538 40.3215 22.1485 40.3087C22.1433 40.296 22.1407 40.2823 22.1409 40.2685L22.1419 39.9908Z" fill="black"/>
<path d="M52.099 40.8051C50.6435 39.0089 48.8442 39.4472 48.0946 39.9304L48.057 39.9558L40.51 45.5042C40.4757 45.5291 40.4367 45.5467 40.3953 45.5558C40.3539 45.5648 40.3111 45.5651 40.2695 45.5567C40.228 45.5483 40.1887 45.5313 40.1541 45.5069C40.1195 45.4824 40.0903 45.451 40.0685 45.4147C39.4644 44.3976 38.2276 44.0121 37.3559 43.9907C37.2064 43.9805 36.5422 43.946 34.2232 43.9378C33.7997 43.9386 33.3768 43.9046 32.9589 43.8361C32.5209 43.7682 32.0895 43.6634 31.6692 43.5228L31.3203 43.4211C30.0876 43.0499 28.69 42.6298 26.1076 42.5901H25.9814C22.4815 42.5901 19.1027 44.84 17.3888 46.1918C17.3333 46.2339 17.2658 46.2572 17.1961 46.2583C17.1264 46.2594 17.0581 46.2382 17.0013 46.1979C16.7247 46.0111 16.4002 45.9079 16.0666 45.9005C15.733 45.8931 15.4042 45.9818 15.1196 46.1562L12.9623 47.4784C12.7753 47.5916 12.6128 47.7411 12.4845 47.9181C12.3561 48.095 12.2644 48.2958 12.2147 48.5088C12.1657 48.7203 12.1603 48.9397 12.1989 49.1534C12.2376 49.3671 12.3195 49.5707 12.4395 49.7517L17.5506 57.5499C17.7969 57.92 18.1778 58.1794 18.6124 58.2731C18.7178 58.2953 18.8252 58.3063 18.9328 58.3056C19.2679 58.3055 19.5974 58.2198 19.8899 58.0564L22.0472 56.7342C22.2347 56.6215 22.3975 56.4722 22.5259 56.2952C22.6544 56.1181 22.7458 55.917 22.7948 55.7039C22.8247 55.5742 22.8381 55.4412 22.8345 55.3082C22.8314 55.2361 22.8476 55.1644 22.8814 55.1006C22.9152 55.0368 22.9653 54.9831 23.0267 54.9451C23.815 54.4782 25.42 53.8008 27.3251 54.5179C27.4634 54.5677 30.7639 55.7384 34.0686 55.7384C36.1547 55.7384 37.8085 55.2777 38.9843 54.3684C42.3723 51.7503 50.911 45.7646 51.2762 45.5093L51.3006 45.492C51.9444 45.0007 52.6788 44.0955 52.8069 43.0255C52.8995 42.2484 52.6615 41.4998 52.095 40.8061M18.2503 47.3747C19.538 46.3575 22.8762 43.9795 26.0821 44.0324C28.452 44.069 29.7438 44.4576 30.8779 44.7993C31.8746 45.0994 32.8104 45.3821 34.216 45.3872C36.3693 45.3943 37.1128 45.4279 37.2898 45.4381H37.304C37.6084 45.4555 37.9074 45.5268 38.1869 45.6486C38.7117 45.8866 38.9446 46.2589 38.9446 46.8407C38.9446 47.5099 38.7758 48.2779 37.4576 48.2779H28.3259C28.2287 48.2742 28.1318 48.2902 28.0409 48.3249C27.9501 48.3596 27.8672 48.4122 27.7971 48.4797C27.7271 48.5471 27.6713 48.628 27.6333 48.7175C27.5952 48.807 27.5756 48.9033 27.5756 49.0005C27.5756 49.0978 27.5952 49.194 27.6333 49.2835C27.6713 49.373 27.7271 49.4539 27.7971 49.5214C27.8672 49.5889 27.9501 49.6415 28.0409 49.6762C28.1318 49.7108 28.2287 49.7268 28.3259 49.7232H37.4596C38.9934 49.7232 40.0452 48.9736 40.3442 47.6656C40.3864 47.4865 40.4914 47.3284 40.6402 47.2201L48.9236 41.1306C49.1687 40.9851 50.0424 40.5986 50.9314 41.6991C51.2365 42.0734 51.3647 42.4681 51.3189 42.8719C51.2314 43.6469 50.5367 44.2307 50.3923 44.3447C50.0007 44.6193 41.4508 50.6142 38.0597 53.2353C34.9402 55.6459 27.9201 53.1855 27.8509 53.1611C27.1453 52.8927 26.3967 52.7548 25.6417 52.7542C24.4881 52.7651 23.3568 53.0737 22.3575 53.6503C22.2955 53.6857 22.2223 53.6963 22.1529 53.6798C22.0834 53.6634 22.0227 53.6212 21.9832 53.5618L18.1863 47.7703C18.1454 47.7085 18.1294 47.6336 18.1412 47.5605C18.1531 47.4874 18.192 47.4214 18.2503 47.3757M21.3017 55.3662C21.2938 55.4027 21.2786 55.4372 21.2569 55.4677C21.2352 55.4981 21.2075 55.5238 21.1756 55.5431L19.1505 56.7881C19.0888 56.8265 19.0145 56.8391 18.9436 56.8233C18.8726 56.8075 18.8107 56.7646 18.7711 56.7037L13.7394 49.0377C13.7018 48.9782 13.6893 48.9062 13.7048 48.8375C13.7202 48.7689 13.7623 48.7091 13.8218 48.6715L15.8743 47.4011C15.9163 47.3754 15.9645 47.3616 16.0137 47.3614C16.0575 47.3616 16.1007 47.3726 16.1392 47.3936C16.1777 47.4145 16.2104 47.4447 16.2344 47.4815L21.261 55.1556C21.2815 55.1868 21.2955 55.2218 21.3021 55.2585C21.3088 55.2952 21.3079 55.3328 21.2997 55.3692" fill="black"/>
<path d="M31.1566 12.3924C31.4688 12.6213 31.8126 12.7403 32.1737 12.8654C32.2754 12.9 32.3771 12.9346 32.4737 12.9671C32.7425 13.0544 32.9983 13.1772 33.2346 13.3322C33.3044 13.3833 33.3594 13.4521 33.3937 13.5315C33.428 13.6109 33.4405 13.698 33.4298 13.7838C33.42 13.877 33.3857 13.9659 33.3306 14.0416C33.2754 14.1174 33.2012 14.1772 33.1156 14.2151C32.9254 14.3006 32.7193 14.3448 32.5109 14.3448C32.3024 14.3448 32.0963 14.3006 31.9062 14.2151C31.8165 14.1848 31.7384 14.1275 31.6827 14.051C31.6269 13.9745 31.5963 13.8826 31.595 13.7879C31.5932 13.7136 31.5762 13.6404 31.5451 13.5729C31.514 13.5053 31.4693 13.4449 31.4139 13.3953C31.3049 13.3013 31.1652 13.2506 31.0213 13.2529H30.9949C30.9213 13.255 30.8489 13.2717 30.7818 13.3019C30.7147 13.3321 30.6542 13.3753 30.6039 13.429C30.5536 13.4828 30.5145 13.5459 30.4887 13.6148C30.4629 13.6837 30.451 13.7571 30.4537 13.8306C30.4515 14.0382 30.4951 14.2438 30.5814 14.4326C30.6677 14.6215 30.7947 14.7889 30.9532 14.923C31.2347 15.1562 31.5706 15.3147 31.9296 15.3838C31.9318 15.384 31.9339 15.3851 31.9354 15.3868C31.9369 15.3885 31.9377 15.3907 31.9377 15.3929C31.9377 15.4946 31.9377 15.6553 31.9377 15.7103C31.9345 15.7874 31.9469 15.8645 31.9741 15.9367C32.0014 16.009 32.0431 16.0749 32.0965 16.1307C32.1499 16.1864 32.2141 16.2308 32.2852 16.2611C32.3562 16.2914 32.4326 16.307 32.5099 16.307C32.5871 16.307 32.6635 16.2914 32.7346 16.2611C32.8056 16.2308 32.8698 16.1864 32.9232 16.1307C32.9767 16.0749 33.0183 16.009 33.0456 15.9367C33.0729 15.8645 33.0852 15.7874 33.082 15.7103C33.082 15.6553 33.082 15.5018 33.082 15.4051L33.1745 15.3726L33.2671 15.339C33.4312 15.2829 33.5909 15.2149 33.7451 15.1356C33.9884 15.0178 34.1936 14.8341 34.3375 14.6054C34.4813 14.3766 34.558 14.112 34.5588 13.8418C34.5761 13.021 34.1408 12.4057 33.2986 12.0639C33.1573 12.0069 33.0149 11.9622 32.8643 11.9093C32.7138 11.8564 32.3954 11.7405 32.3944 11.7405C32.1792 11.6642 31.9743 11.5617 31.7841 11.4353C31.7152 11.3829 31.6608 11.3137 31.626 11.2343C31.5913 11.1549 31.5775 11.0679 31.5858 10.9817C31.5912 10.8972 31.618 10.8155 31.6637 10.7444C31.7095 10.6732 31.7726 10.6148 31.8472 10.5748C32.0491 10.4691 32.2733 10.4131 32.5011 10.4115C32.729 10.41 32.9539 10.4628 33.1573 10.5657C33.2356 10.5988 33.3024 10.6543 33.3492 10.7252C33.3961 10.7962 33.421 10.8794 33.4207 10.9644C33.4286 11.1114 33.4939 11.2493 33.6025 11.3486C33.7111 11.4479 33.8544 11.5006 34.0015 11.4953H34.0106C34.1576 11.4932 34.2978 11.4333 34.4009 11.3286C34.5041 11.224 34.5619 11.0829 34.5619 10.9359C34.5497 10.2972 34.2191 9.82827 33.5794 9.54145C33.4726 9.49364 33.1929 9.40515 33.1013 9.37667H33.081C33.081 9.37667 33.081 9.13155 33.081 9.04916C33.081 8.89756 33.0207 8.75216 32.9135 8.64496C32.8063 8.53776 32.661 8.47754 32.5093 8.47754C32.3577 8.47754 32.2124 8.53776 32.1052 8.64496C31.998 8.75216 31.9377 8.89756 31.9377 9.04916C31.9377 9.10612 31.9377 9.27496 31.9377 9.37667H31.9276L31.8045 9.4082L31.717 9.43058C31.0894 9.62688 30.7141 9.95236 30.5372 10.4538C30.3053 11.1109 30.5768 11.9581 31.1566 12.3863" fill="black"/>
<path d="M32.4829 18.1926H32.5368C34.1116 18.1962 35.6264 17.5891 36.7629 16.4991C37.3357 15.9618 37.7933 15.3138 38.108 14.5943C38.4227 13.8748 38.588 13.0989 38.5938 12.3136C38.5963 11.5379 38.4414 10.7696 38.1384 10.0555C37.8354 9.3413 37.3907 8.69603 36.8311 8.15871C35.6785 7.0337 34.1311 6.40496 32.5205 6.40723H32.4992C29.1844 6.40723 26.4626 9.03547 26.4321 12.2679C26.4258 13.046 26.5784 13.8172 26.8806 14.5343C27.1828 15.2514 27.6283 15.8992 28.1897 16.4381C29.3401 17.5602 30.8819 18.1909 32.489 18.1967M32.4982 7.37553L32.5165 7.46605C35.2474 7.46605 37.4851 9.62947 37.5004 12.2872C37.5028 12.9271 37.3746 13.5608 37.1236 14.1495C36.8727 14.7382 36.5042 15.2695 36.0408 15.7108C35.0975 16.6301 33.8316 17.1431 32.5144 17.1399H32.5002C29.754 17.1317 27.5163 14.9612 27.5092 12.3014C27.5021 9.64167 29.7469 7.47317 32.4982 7.46402V7.37553Z" fill="black"/>
</svg>
