<svg width="576" height="562" viewBox="0 0 576 562" fill="none" xmlns="http://www.w3.org/2000/svg">
<g style="mix-blend-mode:multiply">
<path d="M133.788 484.921L178.384 509.242L218.858 362.569L133.788 484.921Z" stroke="#313131" stroke-miterlimit="10" stroke-linecap="round" stroke-linejoin="round"/>
<path d="M47.594 159.77L1.87378 307.94L80.5725 199.431L47.594 159.77Z" stroke="#313131" stroke-miterlimit="10" stroke-linecap="round" stroke-linejoin="round"/>
<path d="M49.8425 367.059L68.2056 415.326L218.858 362.569L49.8425 367.059Z" stroke="#313131" stroke-miterlimit="10" stroke-linecap="round" stroke-linejoin="round"/>
<path d="M114.675 179.601L80.5726 199.431L218.858 362.569L114.675 179.601Z" stroke="#313131" stroke-miterlimit="10" stroke-linecap="round" stroke-linejoin="round"/>
<path d="M47.594 159.77L80.5725 199.431L114.675 179.6L47.594 159.77Z" stroke="#313131" stroke-miterlimit="10" stroke-linecap="round" stroke-linejoin="round"/>
<path d="M68.2056 415.326L81.6968 514.106L133.788 484.921L68.2056 415.326Z" stroke="#313131" stroke-miterlimit="10" stroke-linecap="round" stroke-linejoin="round"/>
<path d="M411.107 57.2476L312.921 25.4434L416.354 76.7043L411.107 57.2476Z" stroke="#313131" stroke-miterlimit="10" stroke-linecap="round" stroke-linejoin="round"/>
<path d="M133.788 484.921L128.916 544.414L178.384 509.242L133.788 484.921Z" stroke="#313131" stroke-miterlimit="10" stroke-linecap="round" stroke-linejoin="round"/>
<path d="M559.885 243.958L327.911 282.123L574.126 358.079L559.885 243.958Z" stroke="#313131" stroke-miterlimit="10" stroke-linecap="round" stroke-linejoin="round"/>
<path d="M68.2056 415.326L133.788 484.921L218.858 362.569L68.2056 415.326Z" stroke="#313131" stroke-miterlimit="10" stroke-linecap="round" stroke-linejoin="round"/>
<path d="M80.5725 199.431L49.8425 367.059L218.858 362.569L80.5725 199.431Z" stroke="#313131" stroke-miterlimit="10" stroke-linecap="round" stroke-linejoin="round"/>
<path d="M312.921 25.4434L327.912 282.122L416.354 76.7043L312.921 25.4434Z" stroke="#313131" stroke-miterlimit="10" stroke-linecap="round" stroke-linejoin="round"/>
<path d="M498.801 108.509L511.542 107.76L514.54 76.7043L498.801 108.509Z" stroke="#313131" stroke-miterlimit="10" stroke-linecap="round" stroke-linejoin="round"/>
<path d="M218.858 362.569L178.384 509.242L285.189 438.525L218.858 362.569Z" stroke="#313131" stroke-miterlimit="10" stroke-linecap="round" stroke-linejoin="round"/>
<path d="M327.912 282.123L285.189 438.525L436.966 499.888L327.912 282.123Z" stroke="#313131" stroke-miterlimit="10" stroke-linecap="round" stroke-linejoin="round"/>
<path d="M47.594 159.77L114.675 179.6L312.921 25.4434L47.594 159.77Z" stroke="#313131" stroke-miterlimit="10" stroke-linecap="round" stroke-linejoin="round"/>
<path d="M312.921 25.4434L114.675 179.6L327.912 282.122L312.921 25.4434Z" stroke="#313131" stroke-miterlimit="10" stroke-linecap="round" stroke-linejoin="round"/>
<path d="M218.858 362.569L285.189 438.525L327.912 282.123L218.858 362.569Z" stroke="#313131" stroke-miterlimit="10" stroke-linecap="round" stroke-linejoin="round"/>
<path d="M114.675 179.601L218.858 362.569L327.912 282.123L114.675 179.601Z" stroke="#313131" stroke-miterlimit="10" stroke-linecap="round" stroke-linejoin="round"/>
<path d="M285.189 438.525L178.384 509.242L436.966 499.888L285.189 438.525Z" stroke="#313131" stroke-miterlimit="10" stroke-linecap="round" stroke-linejoin="round"/>
<path d="M327.911 282.123L436.965 499.888L574.126 358.079L327.911 282.123Z" stroke="#313131" stroke-miterlimit="10" stroke-linecap="round" stroke-linejoin="round"/>
<path d="M178.384 509.242L120.671 560.129L436.965 499.888L178.384 509.242Z" stroke="#313131" stroke-miterlimit="10" stroke-linecap="round" stroke-linejoin="round"/>
<path d="M378.504 1.87085L312.921 25.4434L411.107 57.2477L378.504 1.87085Z" stroke="#313131" stroke-miterlimit="10" stroke-linecap="round" stroke-linejoin="round"/>
<path d="M411.107 57.2477L416.354 76.7044L445.585 16.4634L411.107 57.2477Z" stroke="#313131" stroke-miterlimit="10" stroke-linecap="round" stroke-linejoin="round"/>
<path d="M378.504 1.87085L411.107 57.2477L445.585 16.4634L378.504 1.87085Z" stroke="#313131" stroke-miterlimit="10" stroke-linecap="round" stroke-linejoin="round"/>
<path d="M498.8 151.912L327.911 282.123L559.885 243.957L498.8 151.912Z" stroke="#313131" stroke-miterlimit="10" stroke-linecap="round" stroke-linejoin="round"/>
<path d="M498.801 108.509V151.912L511.542 107.76L498.801 108.509Z" stroke="#313131" stroke-miterlimit="10" stroke-linecap="round" stroke-linejoin="round"/>
<path d="M445.585 16.4634L416.354 76.7044L498.8 108.509L445.585 16.4634Z" stroke="#313131" stroke-miterlimit="10" stroke-linecap="round" stroke-linejoin="round"/>
<path d="M498.8 108.509L416.354 76.7043L498.8 151.912V108.509Z" stroke="#313131" stroke-miterlimit="10" stroke-linecap="round" stroke-linejoin="round"/>
<path d="M416.354 76.7043L327.911 282.122L498.8 151.912L416.354 76.7043Z" stroke="#313131" stroke-miterlimit="10" stroke-linecap="round" stroke-linejoin="round"/>
<path d="M498.801 151.912L559.886 243.958L565.507 102.148L498.801 151.912Z" stroke="#313131" stroke-miterlimit="10" stroke-linecap="round" stroke-linejoin="round"/>
<path d="M511.542 107.76L498.801 151.912L565.507 102.148L511.542 107.76Z" stroke="#313131" stroke-miterlimit="10" stroke-linecap="round" stroke-linejoin="round"/>
</g>
</svg>
