<svg width="994" height="993" viewBox="0 0 994 993" fill="none" xmlns="http://www.w3.org/2000/svg">
<circle cx="496.889" cy="487.766" r="269.5" stroke="#C0C0C0" stroke-dasharray="15 15"/>
<circle cx="496.389" cy="496.48" r="377.5" stroke="#C0C0C0" stroke-dasharray="15 15"/>
<circle cx="496.389" cy="496.48" r="495.785" stroke="#C0C0C0" stroke-dasharray="15 15"/>
<g style="mix-blend-mode:multiply">
<path d="M317.676 707.402L362.272 731.723L402.745 585.049L317.676 707.402Z" stroke="#313131" stroke-miterlimit="10" stroke-linecap="round" stroke-linejoin="round"/>
<path d="M231.482 382.25L185.762 530.42L264.46 421.912L231.482 382.25Z" stroke="#313131" stroke-miterlimit="10" stroke-linecap="round" stroke-linejoin="round"/>
<path d="M233.73 589.539L252.094 637.806L402.745 585.049L233.73 589.539Z" stroke="#313131" stroke-miterlimit="10" stroke-linecap="round" stroke-linejoin="round"/>
<path d="M298.564 402.082L264.461 421.913L402.746 585.05L298.564 402.082Z" stroke="#313131" stroke-miterlimit="10" stroke-linecap="round" stroke-linejoin="round"/>
<path d="M231.482 382.25L264.461 421.912L298.564 402.081L231.482 382.25Z" stroke="#313131" stroke-miterlimit="10" stroke-linecap="round" stroke-linejoin="round"/>
<path d="M252.094 637.807L265.585 736.587L317.676 707.402L252.094 637.807Z" stroke="#313131" stroke-miterlimit="10" stroke-linecap="round" stroke-linejoin="round"/>
<path d="M594.995 279.728L496.809 247.924L600.241 299.185L594.995 279.728Z" stroke="#313131" stroke-miterlimit="10" stroke-linecap="round" stroke-linejoin="round"/>
<path d="M317.677 707.402L312.805 766.895L362.272 731.723L317.677 707.402Z" stroke="#313131" stroke-miterlimit="10" stroke-linecap="round" stroke-linejoin="round"/>
<path d="M743.773 466.438L511.799 504.603L758.014 580.559L743.773 466.438Z" stroke="#313131" stroke-miterlimit="10" stroke-linecap="round" stroke-linejoin="round"/>
<path d="M252.094 637.806L317.676 707.402L402.746 585.049L252.094 637.806Z" stroke="#313131" stroke-miterlimit="10" stroke-linecap="round" stroke-linejoin="round"/>
<path d="M264.46 421.912L233.73 589.539L402.745 585.049L264.46 421.912Z" stroke="#313131" stroke-miterlimit="10" stroke-linecap="round" stroke-linejoin="round"/>
<path d="M496.809 247.924L511.799 504.603L600.241 299.185L496.809 247.924Z" stroke="#313131" stroke-miterlimit="10" stroke-linecap="round" stroke-linejoin="round"/>
<path d="M682.689 330.99L695.431 330.241L698.429 299.186L682.689 330.99Z" stroke="#313131" stroke-miterlimit="10" stroke-linecap="round" stroke-linejoin="round"/>
<path d="M402.745 585.049L362.271 731.723L469.077 661.005L402.745 585.049Z" stroke="#313131" stroke-miterlimit="10" stroke-linecap="round" stroke-linejoin="round"/>
<path d="M511.8 504.604L469.078 661.006L620.854 722.369L511.8 504.604Z" stroke="#313131" stroke-miterlimit="10" stroke-linecap="round" stroke-linejoin="round"/>
<path d="M231.482 382.25L298.564 402.081L496.81 247.924L231.482 382.25Z" stroke="#313131" stroke-miterlimit="10" stroke-linecap="round" stroke-linejoin="round"/>
<path d="M496.808 247.924L298.562 402.081L511.799 504.603L496.808 247.924Z" stroke="#313131" stroke-miterlimit="10" stroke-linecap="round" stroke-linejoin="round"/>
<path d="M402.746 585.05L469.078 661.006L511.8 504.604L402.746 585.05Z" stroke="#313131" stroke-miterlimit="10" stroke-linecap="round" stroke-linejoin="round"/>
<path d="M298.562 402.082L402.745 585.05L511.799 504.604L298.562 402.082Z" stroke="#313131" stroke-miterlimit="10" stroke-linecap="round" stroke-linejoin="round"/>
<path d="M469.077 661.006L362.271 731.724L620.853 722.369L469.077 661.006Z" stroke="#313131" stroke-miterlimit="10" stroke-linecap="round" stroke-linejoin="round"/>
<path d="M511.799 504.604L620.853 722.369L758.014 580.56L511.799 504.604Z" stroke="#313131" stroke-miterlimit="10" stroke-linecap="round" stroke-linejoin="round"/>
<path d="M362.271 731.723L304.559 782.61L620.853 722.369L362.271 731.723Z" stroke="#313131" stroke-miterlimit="10" stroke-linecap="round" stroke-linejoin="round"/>
<path d="M562.391 224.352L496.809 247.924L594.995 279.728L562.391 224.352Z" stroke="#313131" stroke-miterlimit="10" stroke-linecap="round" stroke-linejoin="round"/>
<path d="M594.996 279.728L600.243 299.184L629.474 238.943L594.996 279.728Z" stroke="#313131" stroke-miterlimit="10" stroke-linecap="round" stroke-linejoin="round"/>
<path d="M562.391 224.352L594.994 279.728L629.472 238.944L562.391 224.352Z" stroke="#313131" stroke-miterlimit="10" stroke-linecap="round" stroke-linejoin="round"/>
<path d="M682.688 374.393L511.799 504.603L743.773 466.438L682.688 374.393Z" stroke="#313131" stroke-miterlimit="10" stroke-linecap="round" stroke-linejoin="round"/>
<path d="M682.689 330.989V374.392L695.431 330.24L682.689 330.989Z" stroke="#313131" stroke-miterlimit="10" stroke-linecap="round" stroke-linejoin="round"/>
<path d="M629.473 238.943L600.242 299.184L682.689 330.989L629.473 238.943Z" stroke="#313131" stroke-miterlimit="10" stroke-linecap="round" stroke-linejoin="round"/>
<path d="M682.689 330.99L600.242 299.186L682.689 374.393V330.99Z" stroke="#313131" stroke-miterlimit="10" stroke-linecap="round" stroke-linejoin="round"/>
<path d="M600.241 299.186L511.799 504.604L682.688 374.393L600.241 299.186Z" stroke="#313131" stroke-miterlimit="10" stroke-linecap="round" stroke-linejoin="round"/>
<path d="M682.689 374.393L743.775 466.438L749.396 324.629L682.689 374.393Z" stroke="#313131" stroke-miterlimit="10" stroke-linecap="round" stroke-linejoin="round"/>
<path d="M695.431 330.241L682.689 374.393L749.396 324.629L695.431 330.241Z" stroke="#313131" stroke-miterlimit="10" stroke-linecap="round" stroke-linejoin="round"/>
</g>
<circle cx="825.139" cy="686.23" r="88.25" fill="#6A1840"/>
<path d="M780.58 681.23V664.142H777.244V681.23H780.58ZM794.708 681.23V673.238C794.708 671.87 794.444 670.694 793.436 669.686C792.74 668.99 791.732 668.582 790.484 668.582C789.332 668.582 788.18 669.014 787.364 669.878V668.726H784.316V681.23H787.436V673.67C787.436 671.966 788.54 671.39 789.524 671.39C790.508 671.39 791.588 671.966 791.588 673.67V681.23H794.708ZM801.218 666.59V664.046H798.026V666.59H801.218ZM801.194 682.334V668.726H798.074V682.142C798.074 682.886 797.762 683.27 796.97 683.27H795.77V685.91H797.546C800.114 685.91 801.194 684.11 801.194 682.334ZM814.956 675.95V674.558C814.956 671.126 812.988 668.582 809.508 668.582C806.268 668.582 804.06 670.886 804.06 674.966C804.06 680.03 806.892 681.374 809.844 681.374C812.1 681.374 813.324 680.678 814.596 679.406L812.7 677.558C811.908 678.35 811.236 678.734 809.868 678.734C808.116 678.734 807.132 677.558 807.132 675.95H814.956ZM811.884 673.814H807.132C807.156 673.262 807.228 672.926 807.42 672.47C807.756 671.726 808.452 671.174 809.508 671.174C810.564 671.174 811.26 671.726 811.596 672.47C811.788 672.926 811.86 673.262 811.884 673.814ZM826.928 679.67L824.816 677.582C824.168 678.278 823.616 678.566 822.8 678.566C822.056 678.566 821.48 678.302 821.024 677.75C820.544 677.15 820.328 676.286 820.328 674.966C820.328 673.646 820.544 672.806 821.024 672.206C821.48 671.654 822.056 671.39 822.8 671.39C823.616 671.39 824.168 671.678 824.816 672.374L826.928 670.262C825.824 669.11 824.528 668.582 822.8 668.582C820.304 668.582 817.208 669.902 817.208 674.966C817.208 680.03 820.304 681.374 822.8 681.374C824.528 681.374 825.824 680.822 826.928 679.67ZM834.979 681.23V678.59H833.851C833.107 678.59 832.771 678.182 832.771 677.462V671.462H834.979V669.086H832.771V665.39H829.651V669.086H828.331V671.462H829.651V677.654C829.651 679.43 830.731 681.23 833.275 681.23H834.979ZM840.945 666.59V664.046H837.753V666.59H840.945ZM840.921 681.23V668.726H837.801V681.23H840.921ZM854.466 674.966C854.466 672.71 854.178 671.294 853.05 670.118C852.282 669.302 851.01 668.582 849.162 668.582C847.314 668.582 846.066 669.302 845.298 670.118C844.17 671.294 843.882 672.71 843.882 674.966C843.882 677.246 844.17 678.662 845.298 679.838C846.066 680.654 847.314 681.374 849.162 681.374C851.01 681.374 852.282 680.654 853.05 679.838C854.178 678.662 854.466 677.246 854.466 674.966ZM851.346 674.966C851.346 676.262 851.274 677.366 850.626 678.014C850.266 678.374 849.786 678.566 849.162 678.566C848.538 678.566 848.082 678.374 847.722 678.014C847.074 677.366 847.002 676.262 847.002 674.966C847.002 673.67 847.074 672.59 847.722 671.942C848.082 671.582 848.538 671.39 849.162 671.39C849.786 671.39 850.266 671.582 850.626 671.942C851.274 672.59 851.346 673.67 851.346 674.966ZM867.833 681.23V673.238C867.833 671.87 867.569 670.694 866.561 669.686C865.865 668.99 864.857 668.582 863.609 668.582C862.457 668.582 861.305 669.014 860.489 669.878V668.726H857.441V681.23H860.561V673.67C860.561 671.966 861.665 671.39 862.649 671.39C863.633 671.39 864.713 671.966 864.713 673.67V681.23H867.833ZM786.896 704.966C786.896 702.71 786.608 701.294 785.48 700.118C784.712 699.302 783.44 698.582 781.592 698.582C779.744 698.582 778.496 699.302 777.728 700.118C776.6 701.294 776.312 702.71 776.312 704.966C776.312 707.246 776.6 708.662 777.728 709.838C778.496 710.654 779.744 711.374 781.592 711.374C783.44 711.374 784.712 710.654 785.48 709.838C786.608 708.662 786.896 707.246 786.896 704.966ZM783.776 704.966C783.776 706.262 783.704 707.366 783.056 708.014C782.696 708.374 782.216 708.566 781.592 708.566C780.968 708.566 780.512 708.374 780.152 708.014C779.504 707.366 779.432 706.262 779.432 704.966C779.432 703.67 779.504 702.59 780.152 701.942C780.512 701.582 780.968 701.39 781.592 701.39C782.216 701.39 782.696 701.582 783.056 701.942C783.704 702.59 783.776 703.67 783.776 704.966ZM795.679 701.462V699.086H793.375V697.718C793.375 696.998 793.711 696.59 794.455 696.59H795.679V693.95H793.903C791.359 693.95 790.255 695.75 790.255 697.526V699.086H788.959V701.462H790.255V711.23H793.375V701.462H795.679ZM812.748 709.67L810.636 707.582C809.988 708.278 809.436 708.566 808.62 708.566C807.876 708.566 807.3 708.302 806.844 707.75C806.364 707.15 806.148 706.286 806.148 704.966C806.148 703.646 806.364 702.806 806.844 702.206C807.3 701.654 807.876 701.39 808.62 701.39C809.436 701.39 809.988 701.678 810.636 702.374L812.748 700.262C811.644 699.11 810.348 698.582 808.62 698.582C806.124 698.582 803.028 699.902 803.028 704.966C803.028 710.03 806.124 711.374 808.62 711.374C810.348 711.374 811.644 710.822 812.748 709.67ZM824.546 711.23V702.998C824.546 700.07 822.722 698.582 819.218 698.582C817.13 698.582 815.93 698.966 814.706 700.31L816.698 702.254C817.346 701.51 817.898 701.222 819.098 701.222C820.754 701.222 821.426 701.822 821.426 703.19V703.814H818.474C815.57 703.814 814.202 705.446 814.202 707.438C814.202 708.542 814.562 709.55 815.234 710.246C815.978 710.99 817.01 711.35 818.426 711.35C819.866 711.35 820.658 710.99 821.498 710.15V711.23H824.546ZM821.426 706.622C821.426 707.39 821.306 707.894 820.97 708.206C820.418 708.734 819.866 708.806 819.002 708.806C817.778 708.806 817.202 708.23 817.202 707.366C817.202 706.478 817.826 705.95 818.954 705.95H821.426V706.622ZM838.374 704.966C838.374 703.094 838.35 700.958 837.102 699.71C836.406 699.014 835.278 698.582 834.054 698.582C832.734 698.582 831.798 698.942 830.934 699.902V698.726H827.91V715.814H831.03V710.126C831.846 711.038 832.782 711.374 834.054 711.374C835.278 711.374 836.406 710.942 837.102 710.246C838.35 708.998 838.374 706.838 838.374 704.966ZM835.254 704.966C835.254 707.006 835.014 708.566 833.142 708.566C831.27 708.566 831.03 707.006 831.03 704.966C831.03 702.926 831.27 701.39 833.142 701.39C835.014 701.39 835.254 702.926 835.254 704.966ZM844.484 696.59V694.046H841.292V696.59H844.484ZM844.46 711.23V698.726H841.34V711.23H844.46ZM853.565 711.23V708.59H852.437C851.693 708.59 851.357 708.182 851.357 707.462V701.462H853.565V699.086H851.357V695.39H848.237V699.086H846.917V701.462H848.237V707.654C848.237 709.43 849.317 711.23 851.861 711.23H853.565ZM865.772 711.23V702.998C865.772 700.07 863.948 698.582 860.444 698.582C858.356 698.582 857.156 698.966 855.932 700.31L857.924 702.254C858.572 701.51 859.124 701.222 860.324 701.222C861.98 701.222 862.652 701.822 862.652 703.19V703.814H859.7C856.796 703.814 855.428 705.446 855.428 707.438C855.428 708.542 855.788 709.55 856.46 710.246C857.204 710.99 858.236 711.35 859.652 711.35C861.092 711.35 861.884 710.99 862.724 710.15V711.23H865.772ZM862.652 706.622C862.652 707.39 862.532 707.894 862.196 708.206C861.644 708.734 861.092 708.806 860.228 708.806C859.004 708.806 858.428 708.23 858.428 707.366C858.428 706.478 859.052 705.95 860.18 705.95H862.652V706.622ZM874.441 711.23V708.59H873.241C872.449 708.59 872.137 708.206 872.137 707.462V694.142H869.017V707.654C869.017 709.43 870.097 711.23 872.665 711.23H874.441Z" fill="white"/>
<rect x="210.389" y="118" width="175" height="175" rx="87.5" fill="black"/>
<path d="M252.861 215.5V198.412H249.573L245.133 207.652L240.669 198.412H237.381V215.5H240.717V205.54L244.005 212.02H246.261L249.525 205.54V215.5H252.861ZM266.866 210.22V208.828C266.866 205.396 264.898 202.852 261.418 202.852C258.178 202.852 255.97 205.156 255.97 209.236C255.97 214.3 258.802 215.644 261.754 215.644C264.01 215.644 265.234 214.948 266.506 213.676L264.61 211.828C263.818 212.62 263.146 213.004 261.778 213.004C260.026 213.004 259.042 211.828 259.042 210.22H266.866ZM263.794 208.084H259.042C259.066 207.532 259.138 207.196 259.33 206.74C259.666 205.996 260.362 205.444 261.418 205.444C262.474 205.444 263.17 205.996 263.506 206.74C263.698 207.196 263.77 207.532 263.794 208.084ZM280.134 215.5V207.508C280.134 206.14 279.87 204.964 278.862 203.956C278.166 203.26 277.158 202.852 275.91 202.852C274.758 202.852 273.606 203.284 272.79 204.148V202.996H269.742V215.5H272.862V207.94C272.862 206.236 273.966 205.66 274.95 205.66C275.934 205.66 277.014 206.236 277.014 207.94V215.5H280.134ZM289.116 215.5V212.86H287.988C287.244 212.86 286.908 212.452 286.908 211.732V205.732H289.116V203.356H286.908V199.66H283.788V203.356H282.468V205.732H283.788V211.924C283.788 213.7 284.868 215.5 287.412 215.5H289.116ZM301.923 209.236C301.923 206.98 301.635 205.564 300.507 204.388C299.739 203.572 298.467 202.852 296.619 202.852C294.771 202.852 293.523 203.572 292.755 204.388C291.627 205.564 291.339 206.98 291.339 209.236C291.339 211.516 291.627 212.932 292.755 214.108C293.523 214.924 294.771 215.644 296.619 215.644C298.467 215.644 299.739 214.924 300.507 214.108C301.635 212.932 301.923 211.516 301.923 209.236ZM298.803 209.236C298.803 210.532 298.731 211.636 298.083 212.284C297.723 212.644 297.243 212.836 296.619 212.836C295.995 212.836 295.539 212.644 295.179 212.284C294.531 211.636 294.459 210.532 294.459 209.236C294.459 207.94 294.531 206.86 295.179 206.212C295.539 205.852 295.995 205.66 296.619 205.66C297.243 205.66 297.723 205.852 298.083 206.212C298.731 206.86 298.803 207.94 298.803 209.236ZM314.042 204.028C313.178 203.164 312.314 202.852 311.09 202.852C309.746 202.852 308.546 203.476 307.946 204.196V202.996H304.898V215.5H308.018V207.964C308.018 206.38 309.074 205.66 310.034 205.66C310.802 205.66 311.21 205.924 311.69 206.404L314.042 204.028ZM324.994 211.564C324.994 209.452 323.746 208.132 321.274 207.892L319.306 207.7C318.202 207.604 318.01 207.076 318.01 206.62C318.01 205.996 318.538 205.42 319.786 205.42C320.866 205.42 321.97 205.612 322.69 206.26L324.61 204.316C323.41 203.188 321.778 202.852 319.834 202.852C317.29 202.852 315.01 204.244 315.01 206.836C315.01 209.14 316.402 210.124 318.658 210.34L320.626 210.532C321.61 210.628 321.946 211.06 321.946 211.684C321.946 212.62 320.818 212.98 319.738 212.98C318.778 212.98 317.434 212.836 316.402 211.804L314.362 213.844C315.946 215.428 317.722 215.644 319.69 215.644C322.642 215.644 324.994 214.324 324.994 211.564ZM337.905 215.5V207.412C337.905 204.772 336.465 202.852 333.729 202.852C332.625 202.852 331.569 203.284 330.729 204.148V198.412H327.609V215.5H330.729V207.868C330.729 206.236 331.761 205.66 332.745 205.66C333.729 205.66 334.785 206.212 334.785 207.868V215.5H337.905ZM344.417 200.86V198.316H341.225V200.86H344.417ZM344.393 215.5V202.996H341.273V215.5H344.393ZM358.347 209.236C358.347 207.364 358.323 205.228 357.075 203.98C356.379 203.284 355.251 202.852 354.027 202.852C352.707 202.852 351.771 203.212 350.907 204.172V202.996H347.883V220.084H351.003V214.396C351.819 215.308 352.755 215.644 354.027 215.644C355.251 215.644 356.379 215.212 357.075 214.516C358.323 213.268 358.347 211.108 358.347 209.236ZM355.227 209.236C355.227 211.276 354.987 212.836 353.115 212.836C351.243 212.836 351.003 211.276 351.003 209.236C351.003 207.196 351.243 205.66 353.115 205.66C354.987 205.66 355.227 207.196 355.227 209.236Z" fill="white"/>
<circle cx="900.889" cy="333.48" r="93" fill="#6A1840"/>
<path d="M855.022 308.44C855.022 306.928 854.614 305.68 853.702 304.816C852.982 304.144 851.998 303.712 850.438 303.496L848.422 303.208C847.726 303.112 847.174 302.848 846.838 302.536C846.478 302.2 846.334 301.744 846.334 301.312C846.334 300.136 847.198 299.152 848.974 299.152C850.102 299.152 851.398 299.296 852.478 300.328L854.59 298.24C853.126 296.824 851.422 296.248 849.07 296.248C845.374 296.248 843.118 298.384 843.118 301.432C843.118 302.872 843.526 303.976 844.342 304.792C845.11 305.536 846.19 305.992 847.654 306.208L849.718 306.496C850.51 306.616 850.894 306.784 851.23 307.096C851.59 307.432 851.758 307.936 851.758 308.536C851.758 309.904 850.702 310.648 848.734 310.648C847.15 310.648 845.686 310.288 844.606 309.208L842.446 311.368C844.126 313.072 846.094 313.624 848.686 313.624C852.262 313.624 855.022 311.752 855.022 308.44ZM863.538 313.48V310.84H862.41C861.666 310.84 861.33 310.432 861.33 309.712V303.712H863.538V301.336H861.33V297.64H858.21V301.336H856.89V303.712H858.21V309.904C858.21 311.68 859.29 313.48 861.834 313.48H863.538ZM875.503 302.008C874.639 301.144 873.775 300.832 872.551 300.832C871.207 300.832 870.007 301.456 869.407 302.176V300.976H866.359V313.48H869.479V305.944C869.479 304.36 870.535 303.64 871.495 303.64C872.263 303.64 872.671 303.904 873.151 304.384L875.503 302.008ZM887.529 313.48V300.976H884.409V308.536C884.409 310.24 883.305 310.816 882.321 310.816C881.337 310.816 880.257 310.24 880.257 308.536V300.976H877.137V308.968C877.137 310.336 877.401 311.512 878.409 312.52C879.105 313.216 880.113 313.624 881.361 313.624C882.513 313.624 883.665 313.192 884.481 312.328V313.48H887.529ZM900.135 311.92L898.023 309.832C897.375 310.528 896.823 310.816 896.007 310.816C895.263 310.816 894.687 310.552 894.231 310C893.751 309.4 893.535 308.536 893.535 307.216C893.535 305.896 893.751 305.056 894.231 304.456C894.687 303.904 895.263 303.64 896.007 303.64C896.823 303.64 897.375 303.928 898.023 304.624L900.135 302.512C899.031 301.36 897.735 300.832 896.007 300.832C893.511 300.832 890.415 302.152 890.415 307.216C890.415 312.28 893.511 313.624 896.007 313.624C897.735 313.624 899.031 313.072 900.135 311.92ZM908.186 313.48V310.84H907.058C906.314 310.84 905.978 310.432 905.978 309.712V303.712H908.186V301.336H905.978V297.64H902.858V301.336H901.538V303.712H902.858V309.904C902.858 311.68 903.938 313.48 906.482 313.48H908.186ZM921.256 313.48V300.976H918.136V308.536C918.136 310.24 917.032 310.816 916.048 310.816C915.064 310.816 913.984 310.24 913.984 308.536V300.976H910.864V308.968C910.864 310.336 911.128 311.512 912.136 312.52C912.832 313.216 913.84 313.624 915.088 313.624C916.24 313.624 917.392 313.192 918.208 312.328V313.48H921.256ZM933.91 302.008C933.046 301.144 932.182 300.832 930.958 300.832C929.614 300.832 928.414 301.456 927.814 302.176V300.976H924.766V313.48H927.886V305.944C927.886 304.36 928.942 303.64 929.902 303.64C930.67 303.64 931.078 303.904 931.558 304.384L933.91 302.008ZM945.21 308.2V306.808C945.21 303.376 943.242 300.832 939.762 300.832C936.522 300.832 934.314 303.136 934.314 307.216C934.314 312.28 937.146 313.624 940.098 313.624C942.354 313.624 943.578 312.928 944.85 311.656L942.954 309.808C942.162 310.6 941.49 310.984 940.122 310.984C938.37 310.984 937.386 309.808 937.386 308.2H945.21ZM942.138 306.064H937.386C937.41 305.512 937.482 305.176 937.674 304.72C938.01 303.976 938.706 303.424 939.762 303.424C940.818 303.424 941.514 303.976 941.85 304.72C942.042 305.176 942.114 305.512 942.138 306.064ZM958.046 313.48V296.392H954.926V302.08C954.11 301.168 953.15 300.832 951.878 300.832C950.654 300.832 949.526 301.264 948.83 301.96C947.582 303.208 947.558 305.344 947.558 307.216C947.558 309.088 947.582 311.248 948.83 312.496C949.526 313.192 950.678 313.624 951.902 313.624C953.222 313.624 954.134 313.264 954.998 312.304V313.48H958.046ZM954.926 307.216C954.926 309.256 954.662 310.816 952.79 310.816C950.918 310.816 950.678 309.256 950.678 307.216C950.678 305.176 950.918 303.64 952.79 303.64C954.662 303.64 954.926 305.176 954.926 307.216ZM885.435 339.544C885.435 337.432 884.187 336.112 881.715 335.872L879.747 335.68C878.643 335.584 878.451 335.056 878.451 334.6C878.451 333.976 878.979 333.4 880.227 333.4C881.307 333.4 882.411 333.592 883.131 334.24L885.051 332.296C883.851 331.168 882.219 330.832 880.275 330.832C877.731 330.832 875.451 332.224 875.451 334.816C875.451 337.12 876.843 338.104 879.099 338.32L881.067 338.512C882.051 338.608 882.387 339.04 882.387 339.664C882.387 340.6 881.259 340.96 880.179 340.96C879.219 340.96 877.875 340.816 876.843 339.784L874.803 341.824C876.387 343.408 878.163 343.624 880.131 343.624C883.083 343.624 885.435 342.304 885.435 339.544ZM899.427 343.48L894.627 336.016L899.091 330.976H895.323L891.171 336.088V326.392H888.051V343.48H891.171V339.76L892.491 338.272L895.563 343.48H899.427ZM904.601 328.84V326.296H901.409V328.84H904.601ZM904.577 343.48V330.976H901.457V343.48H904.577ZM913.37 343.48V340.84H912.17C911.378 340.84 911.066 340.456 911.066 339.712V326.392H907.946V339.904C907.946 341.68 909.026 343.48 911.594 343.48H913.37ZM921.175 343.48V340.84H919.975C919.183 340.84 918.871 340.456 918.871 339.712V326.392H915.751V339.904C915.751 341.68 916.831 343.48 919.399 343.48H921.175ZM841.96 373.48V356.392H838.84V362.08C838.024 361.168 837.064 360.832 835.792 360.832C834.568 360.832 833.44 361.264 832.744 361.96C831.496 363.208 831.472 365.344 831.472 367.216C831.472 369.088 831.496 371.248 832.744 372.496C833.44 373.192 834.592 373.624 835.816 373.624C837.136 373.624 838.048 373.264 838.912 372.304V373.48H841.96ZM838.84 367.216C838.84 369.256 838.576 370.816 836.704 370.816C834.832 370.816 834.592 369.256 834.592 367.216C834.592 365.176 834.832 363.64 836.704 363.64C838.576 363.64 838.84 365.176 838.84 367.216ZM855.725 368.2V366.808C855.725 363.376 853.757 360.832 850.277 360.832C847.037 360.832 844.829 363.136 844.829 367.216C844.829 372.28 847.661 373.624 850.613 373.624C852.869 373.624 854.093 372.928 855.365 371.656L853.469 369.808C852.677 370.6 852.005 370.984 850.637 370.984C848.885 370.984 847.901 369.808 847.901 368.2H855.725ZM852.653 366.064H847.901C847.925 365.512 847.997 365.176 848.189 364.72C848.525 363.976 849.221 363.424 850.277 363.424C851.333 363.424 852.029 363.976 852.365 364.72C852.557 365.176 852.629 365.512 852.653 366.064ZM868.351 360.976H865.063L862.543 368.704L859.999 360.976H856.711L861.319 373.48H863.767L868.351 360.976ZM880.241 368.2V366.808C880.241 363.376 878.273 360.832 874.793 360.832C871.553 360.832 869.345 363.136 869.345 367.216C869.345 372.28 872.177 373.624 875.129 373.624C877.385 373.624 878.609 372.928 879.881 371.656L877.985 369.808C877.193 370.6 876.521 370.984 875.153 370.984C873.401 370.984 872.417 369.808 872.417 368.2H880.241ZM877.169 366.064H872.417C872.441 365.512 872.513 365.176 872.705 364.72C873.041 363.976 873.737 363.424 874.793 363.424C875.849 363.424 876.545 363.976 876.881 364.72C877.073 365.176 877.145 365.512 877.169 366.064ZM888.421 373.48V370.84H887.221C886.429 370.84 886.117 370.456 886.117 369.712V356.392H882.997V369.904C882.997 371.68 884.077 373.48 886.645 373.48H888.421ZM900.509 367.216C900.509 364.96 900.221 363.544 899.093 362.368C898.325 361.552 897.053 360.832 895.205 360.832C893.357 360.832 892.109 361.552 891.341 362.368C890.213 363.544 889.925 364.96 889.925 367.216C889.925 369.496 890.213 370.912 891.341 372.088C892.109 372.904 893.357 373.624 895.205 373.624C897.053 373.624 898.325 372.904 899.093 372.088C900.221 370.912 900.509 369.496 900.509 367.216ZM897.389 367.216C897.389 368.512 897.317 369.616 896.669 370.264C896.309 370.624 895.829 370.816 895.205 370.816C894.581 370.816 894.125 370.624 893.765 370.264C893.117 369.616 893.045 368.512 893.045 367.216C893.045 365.92 893.117 364.84 893.765 364.192C894.125 363.832 894.581 363.64 895.205 363.64C895.829 363.64 896.309 363.832 896.669 364.192C897.317 364.84 897.389 365.92 897.389 367.216ZM913.948 367.216C913.948 365.344 913.924 363.208 912.676 361.96C911.98 361.264 910.852 360.832 909.628 360.832C908.308 360.832 907.372 361.192 906.508 362.152V360.976H903.484V378.064H906.604V372.376C907.42 373.288 908.356 373.624 909.628 373.624C910.852 373.624 911.98 373.192 912.676 372.496C913.924 371.248 913.948 369.088 913.948 367.216ZM910.828 367.216C910.828 369.256 910.588 370.816 908.716 370.816C906.844 370.816 906.604 369.256 906.604 367.216C906.604 365.176 906.844 363.64 908.716 363.64C910.588 363.64 910.828 365.176 910.828 367.216ZM934.578 373.48V365.488C934.578 364.12 934.218 362.944 933.21 361.936C932.514 361.24 931.386 360.832 930.138 360.832C928.578 360.832 927.45 361.312 926.394 362.416C925.602 361.336 924.474 360.832 923.082 360.832C921.93 360.832 920.778 361.288 919.962 362.128V360.976H916.914V373.48H920.034V365.92C920.034 364.216 921.138 363.64 922.122 363.64C923.106 363.64 924.186 364.216 924.186 365.92V373.48H927.306V365.848C927.306 364.216 928.434 363.64 929.394 363.64C930.378 363.64 931.458 364.216 931.458 365.92V373.48H934.578ZM948.21 368.2V366.808C948.21 363.376 946.242 360.832 942.762 360.832C939.522 360.832 937.314 363.136 937.314 367.216C937.314 372.28 940.146 373.624 943.098 373.624C945.354 373.624 946.578 372.928 947.85 371.656L945.954 369.808C945.162 370.6 944.49 370.984 943.122 370.984C941.37 370.984 940.386 369.808 940.386 368.2H948.21ZM945.138 366.064H940.386C940.41 365.512 940.482 365.176 940.674 364.72C941.01 363.976 941.706 363.424 942.762 363.424C943.818 363.424 944.514 363.976 944.85 364.72C945.042 365.176 945.114 365.512 945.138 366.064ZM961.478 373.48V365.488C961.478 364.12 961.214 362.944 960.206 361.936C959.51 361.24 958.502 360.832 957.254 360.832C956.102 360.832 954.95 361.264 954.134 362.128V360.976H951.086V373.48H954.206V365.92C954.206 364.216 955.31 363.64 956.294 363.64C957.278 363.64 958.358 364.216 958.358 365.92V373.48H961.478ZM970.46 373.48V370.84H969.332C968.588 370.84 968.252 370.432 968.252 369.712V363.712H970.46V361.336H968.252V357.64H965.132V361.336H963.812V363.712H965.132V369.904C965.132 371.68 966.212 373.48 968.756 373.48H970.46Z" fill="white"/>
<circle cx="164.889" cy="728.74" r="84.2598" fill="black"/>
<path d="M125.196 708.894V706.414H115.816V720.654H118.596V714.874H124.216V712.394H118.596V708.894H125.196ZM134.629 720.654V713.794C134.629 711.354 133.109 710.114 130.189 710.114C128.449 710.114 127.449 710.434 126.429 711.554L128.089 713.174C128.629 712.554 129.089 712.314 130.089 712.314C131.469 712.314 132.029 712.814 132.029 713.954V714.474H129.569C127.149 714.474 126.009 715.834 126.009 717.494C126.009 718.414 126.309 719.254 126.869 719.834C127.489 720.454 128.349 720.754 129.529 720.754C130.729 720.754 131.389 720.454 132.089 719.754V720.654H134.629ZM132.029 716.814C132.029 717.454 131.929 717.874 131.649 718.134C131.189 718.574 130.729 718.634 130.009 718.634C128.989 718.634 128.509 718.154 128.509 717.434C128.509 716.694 129.029 716.254 129.969 716.254H132.029V716.814ZM145.012 719.354L143.252 717.614C142.712 718.194 142.252 718.434 141.572 718.434C140.952 718.434 140.472 718.214 140.092 717.754C139.692 717.254 139.512 716.534 139.512 715.434C139.512 714.334 139.692 713.634 140.092 713.134C140.472 712.674 140.952 712.454 141.572 712.454C142.252 712.454 142.712 712.694 143.252 713.274L145.012 711.514C144.092 710.554 143.012 710.114 141.572 710.114C139.492 710.114 136.912 711.214 136.912 715.434C136.912 719.654 139.492 720.774 141.572 720.774C143.012 720.774 144.092 720.314 145.012 719.354ZM149.662 708.454V706.334H147.002V708.454H149.662ZM149.642 720.654V710.234H147.042V720.654H149.642ZM156.97 720.654V718.454H155.97C155.31 718.454 155.05 718.134 155.05 717.514V706.414H152.45V717.674C152.45 719.154 153.35 720.654 155.49 720.654H156.97ZM161.674 708.454V706.334H159.014V708.454H161.674ZM161.654 720.654V710.234H159.054V720.654H161.654ZM169.241 720.654V718.454H168.301C167.681 718.454 167.401 718.114 167.401 717.514V712.514H169.241V710.534H167.401V707.454H164.801V710.534H163.701V712.514H164.801V717.674C164.801 719.154 165.701 720.654 167.821 720.654H169.241ZM179.414 720.654V713.794C179.414 711.354 177.894 710.114 174.974 710.114C173.234 710.114 172.234 710.434 171.214 711.554L172.874 713.174C173.414 712.554 173.874 712.314 174.874 712.314C176.254 712.314 176.814 712.814 176.814 713.954V714.474H174.354C171.934 714.474 170.794 715.834 170.794 717.494C170.794 718.414 171.094 719.254 171.654 719.834C172.274 720.454 173.134 720.754 174.314 720.754C175.514 720.754 176.174 720.454 176.874 719.754V720.654H179.414ZM176.814 716.814C176.814 717.454 176.714 717.874 176.434 718.134C175.974 718.574 175.514 718.634 174.794 718.634C173.774 718.634 173.294 718.154 173.294 717.434C173.294 716.694 173.814 716.254 174.754 716.254H176.814V716.814ZM186.898 720.654V718.454H185.958C185.338 718.454 185.058 718.114 185.058 717.514V712.514H186.898V710.534H185.058V707.454H182.458V710.534H181.358V712.514H182.458V717.674C182.458 719.154 183.358 720.654 185.478 720.654H186.898ZM191.869 708.454V706.334H189.209V708.454H191.869ZM191.849 720.654V710.234H189.249V720.654H191.849ZM203.137 715.434C203.137 713.554 202.897 712.374 201.957 711.394C201.317 710.714 200.257 710.114 198.717 710.114C197.177 710.114 196.137 710.714 195.497 711.394C194.557 712.374 194.317 713.554 194.317 715.434C194.317 717.334 194.557 718.514 195.497 719.494C196.137 720.174 197.177 720.774 198.717 720.774C200.257 720.774 201.317 720.174 201.957 719.494C202.897 718.514 203.137 717.334 203.137 715.434ZM200.537 715.434C200.537 716.514 200.477 717.434 199.937 717.974C199.637 718.274 199.237 718.434 198.717 718.434C198.197 718.434 197.817 718.274 197.517 717.974C196.977 717.434 196.917 716.514 196.917 715.434C196.917 714.354 196.977 713.454 197.517 712.914C197.817 712.614 198.197 712.454 198.717 712.454C199.237 712.454 199.637 712.614 199.937 712.914C200.477 713.454 200.537 714.354 200.537 715.434ZM214.276 720.654V713.994C214.276 712.854 214.056 711.874 213.216 711.034C212.636 710.454 211.796 710.114 210.756 710.114C209.796 710.114 208.836 710.474 208.156 711.194V710.234H205.616V720.654H208.216V714.354C208.216 712.934 209.136 712.454 209.956 712.454C210.776 712.454 211.676 712.934 211.676 714.354V720.654H214.276ZM117.268 738.434C117.268 736.554 117.028 735.374 116.088 734.394C115.448 733.714 114.388 733.114 112.848 733.114C111.308 733.114 110.268 733.714 109.628 734.394C108.688 735.374 108.448 736.554 108.448 738.434C108.448 740.334 108.688 741.514 109.628 742.494C110.268 743.174 111.308 743.774 112.848 743.774C114.388 743.774 115.448 743.174 116.088 742.494C117.028 741.514 117.268 740.334 117.268 738.434ZM114.668 738.434C114.668 739.514 114.608 740.434 114.068 740.974C113.768 741.274 113.368 741.434 112.848 741.434C112.328 741.434 111.948 741.274 111.648 740.974C111.108 740.434 111.048 739.514 111.048 738.434C111.048 737.354 111.108 736.454 111.648 735.914C111.948 735.614 112.328 735.454 112.848 735.454C113.368 735.454 113.768 735.614 114.068 735.914C114.608 736.454 114.668 737.354 114.668 738.434ZM124.587 735.514V733.534H122.667V732.394C122.667 731.794 122.947 731.454 123.567 731.454H124.587V729.254H123.107C120.987 729.254 120.067 730.754 120.067 732.234V733.534H118.987V735.514H120.067V743.654H122.667V735.514H124.587ZM139.791 739.254V738.094C139.791 735.234 138.151 733.114 135.251 733.114C132.551 733.114 130.711 735.034 130.711 738.434C130.711 742.654 133.071 743.774 135.531 743.774C137.411 743.774 138.431 743.194 139.491 742.134L137.911 740.594C137.251 741.254 136.691 741.574 135.551 741.574C134.091 741.574 133.271 740.594 133.271 739.254H139.791ZM137.231 737.474H133.271C133.291 737.014 133.351 736.734 133.511 736.354C133.791 735.734 134.371 735.274 135.251 735.274C136.131 735.274 136.711 735.734 136.991 736.354C137.151 736.734 137.211 737.014 137.231 737.474ZM150.911 743.654L147.311 738.334L150.771 733.234H147.651L145.871 736.214L144.111 733.234H140.991L144.451 738.334L140.851 743.654H143.971L145.871 740.534L147.791 743.654H150.911ZM161.338 738.434C161.338 736.874 161.318 735.094 160.278 734.054C159.698 733.474 158.758 733.114 157.738 733.114C156.638 733.114 155.858 733.414 155.138 734.214V733.234H152.618V747.474H155.218V742.734C155.898 743.494 156.678 743.774 157.738 743.774C158.758 743.774 159.698 743.414 160.278 742.834C161.318 741.794 161.338 739.994 161.338 738.434ZM158.738 738.434C158.738 740.134 158.538 741.434 156.978 741.434C155.418 741.434 155.218 740.134 155.218 738.434C155.218 736.734 155.418 735.454 156.978 735.454C158.538 735.454 158.738 736.734 158.738 738.434ZM171.689 743.654V736.794C171.689 734.354 170.169 733.114 167.249 733.114C165.509 733.114 164.509 733.434 163.489 734.554L165.149 736.174C165.689 735.554 166.149 735.314 167.149 735.314C168.529 735.314 169.089 735.814 169.089 736.954V737.474H166.629C164.209 737.474 163.069 738.834 163.069 740.494C163.069 741.414 163.369 742.254 163.929 742.834C164.549 743.454 165.409 743.754 166.589 743.754C167.789 743.754 168.449 743.454 169.149 742.754V743.654H171.689ZM169.089 739.814C169.089 740.454 168.989 740.874 168.709 741.134C168.249 741.574 167.789 741.634 167.069 741.634C166.049 741.634 165.569 741.154 165.569 740.434C165.569 739.694 166.089 739.254 167.029 739.254H169.089V739.814ZM183.153 743.654V736.994C183.153 735.854 182.933 734.874 182.093 734.034C181.513 733.454 180.673 733.114 179.633 733.114C178.673 733.114 177.713 733.474 177.033 734.194V733.234H174.493V743.654H177.093V737.354C177.093 735.934 178.013 735.454 178.833 735.454C179.653 735.454 180.553 735.934 180.553 737.354V743.654H183.153ZM193.798 740.374C193.798 738.614 192.758 737.514 190.698 737.314L189.058 737.154C188.138 737.074 187.978 736.634 187.978 736.254C187.978 735.734 188.418 735.254 189.458 735.254C190.358 735.254 191.278 735.414 191.878 735.954L193.478 734.334C192.478 733.394 191.118 733.114 189.498 733.114C187.378 733.114 185.478 734.274 185.478 736.434C185.478 738.354 186.638 739.174 188.518 739.354L190.158 739.514C190.978 739.594 191.258 739.954 191.258 740.474C191.258 741.254 190.318 741.554 189.418 741.554C188.618 741.554 187.498 741.434 186.638 740.574L184.938 742.274C186.258 743.594 187.738 743.774 189.378 743.774C191.838 743.774 193.798 742.674 193.798 740.374ZM198.597 731.454V729.334H195.937V731.454H198.597ZM198.577 743.654V733.234H195.977V743.654H198.577ZM209.865 738.434C209.865 736.554 209.625 735.374 208.685 734.394C208.045 733.714 206.985 733.114 205.445 733.114C203.905 733.114 202.865 733.714 202.225 734.394C201.285 735.374 201.045 736.554 201.045 738.434C201.045 740.334 201.285 741.514 202.225 742.494C202.865 743.174 203.905 743.774 205.445 743.774C206.985 743.774 208.045 743.174 208.685 742.494C209.625 741.514 209.865 740.334 209.865 738.434ZM207.265 738.434C207.265 739.514 207.205 740.434 206.665 740.974C206.365 741.274 205.965 741.434 205.445 741.434C204.925 741.434 204.545 741.274 204.245 740.974C203.705 740.434 203.645 739.514 203.645 738.434C203.645 737.354 203.705 736.454 204.245 735.914C204.545 735.614 204.925 735.454 205.445 735.454C205.965 735.454 206.365 735.614 206.665 735.914C207.205 736.454 207.265 737.354 207.265 738.434ZM221.005 743.654V736.994C221.005 735.854 220.785 734.874 219.945 734.034C219.365 733.454 218.525 733.114 217.485 733.114C216.525 733.114 215.565 733.474 214.885 734.194V733.234H212.345V743.654H214.945V737.354C214.945 735.934 215.865 735.454 216.685 735.454C217.505 735.454 218.405 735.934 218.405 737.354V743.654H221.005Z" fill="white"/>
<circle cx="706.831" cy="245.423" r="36.9424" fill="#B7B7B7"/>
<path d="M703.193 242.422L701.285 238.738C702.113 238.438 702.845 237.694 702.845 236.494C702.845 235.066 701.813 233.878 700.073 233.878H696.725V242.422H698.393V239.014H699.593L701.261 242.422H703.193ZM701.177 236.494C701.177 237.154 700.697 237.622 699.965 237.622H698.393V235.366H699.965C700.697 235.366 701.177 235.834 701.177 236.494ZM710.78 238.114C710.78 236.83 710.876 235.654 709.916 234.694C709.352 234.13 708.548 233.878 707.66 233.878H704.576V242.422H707.66C708.548 242.422 709.352 242.17 709.916 241.606C710.876 240.646 710.78 239.398 710.78 238.114ZM709.112 238.114C709.112 239.41 709.064 240.022 708.752 240.406C708.464 240.754 708.08 240.934 707.504 240.934H706.244V235.366H707.504C708.08 235.366 708.464 235.546 708.752 235.894C709.064 236.278 709.112 236.818 709.112 238.114ZM714.154 242.422V233.878H712.486V242.422H714.154ZM684.235 257.422V255.934H680.275V253.858H683.647V252.37H680.275V250.366H684.235V248.878H678.607V257.422H684.235ZM690.301 256.642L689.245 255.598C688.921 255.946 688.645 256.09 688.237 256.09C687.865 256.09 687.577 255.958 687.349 255.682C687.109 255.382 687.001 254.95 687.001 254.29C687.001 253.63 687.109 253.21 687.349 252.91C687.577 252.634 687.865 252.502 688.237 252.502C688.645 252.502 688.921 252.646 689.245 252.994L690.301 251.938C689.749 251.362 689.101 251.098 688.237 251.098C686.989 251.098 685.441 251.758 685.441 254.29C685.441 256.822 686.989 257.494 688.237 257.494C689.101 257.494 689.749 257.218 690.301 256.642ZM696.336 254.29C696.336 253.162 696.192 252.454 695.628 251.866C695.244 251.458 694.608 251.098 693.684 251.098C692.76 251.098 692.136 251.458 691.752 251.866C691.188 252.454 691.044 253.162 691.044 254.29C691.044 255.43 691.188 256.138 691.752 256.726C692.136 257.134 692.76 257.494 693.684 257.494C694.608 257.494 695.244 257.134 695.628 256.726C696.192 256.138 696.336 255.43 696.336 254.29ZM694.776 254.29C694.776 254.938 694.74 255.49 694.416 255.814C694.236 255.994 693.996 256.09 693.684 256.09C693.372 256.09 693.144 255.994 692.964 255.814C692.64 255.49 692.604 254.938 692.604 254.29C692.604 253.642 692.64 253.102 692.964 252.778C693.144 252.598 693.372 252.502 693.684 252.502C693.996 252.502 694.236 252.598 694.416 252.778C694.74 253.102 694.776 253.642 694.776 254.29ZM702.527 255.454C702.527 254.398 701.903 253.738 700.667 253.618L699.683 253.522C699.131 253.474 699.035 253.21 699.035 252.982C699.035 252.67 699.299 252.382 699.923 252.382C700.463 252.382 701.015 252.478 701.375 252.802L702.335 251.83C701.735 251.266 700.919 251.098 699.947 251.098C698.675 251.098 697.535 251.794 697.535 253.09C697.535 254.242 698.231 254.734 699.359 254.842L700.343 254.938C700.835 254.986 701.003 255.202 701.003 255.514C701.003 255.982 700.439 256.162 699.899 256.162C699.419 256.162 698.747 256.09 698.231 255.574L697.211 256.594C698.003 257.386 698.891 257.494 699.875 257.494C701.351 257.494 702.527 256.834 702.527 255.454ZM708.839 251.17H707.195L705.947 255.034L704.651 251.17H703.007L705.143 256.978L704.879 257.746C704.723 258.202 704.543 258.31 704.099 258.31H703.739V259.714H704.351C704.867 259.714 705.335 259.594 705.695 259.234C705.887 259.042 706.031 258.778 706.163 258.43L708.839 251.17ZM714.469 255.454C714.469 254.398 713.845 253.738 712.609 253.618L711.625 253.522C711.073 253.474 710.977 253.21 710.977 252.982C710.977 252.67 711.241 252.382 711.865 252.382C712.405 252.382 712.957 252.478 713.317 252.802L714.277 251.83C713.677 251.266 712.861 251.098 711.889 251.098C710.617 251.098 709.477 251.794 709.477 253.09C709.477 254.242 710.173 254.734 711.301 254.842L712.285 254.938C712.777 254.986 712.945 255.202 712.945 255.514C712.945 255.982 712.381 256.162 711.841 256.162C711.361 256.162 710.689 256.09 710.173 255.574L709.153 256.594C709.945 257.386 710.833 257.494 711.817 257.494C713.293 257.494 714.469 256.834 714.469 255.454ZM718.467 257.422V256.102H717.903C717.531 256.102 717.363 255.898 717.363 255.538V252.538H718.467V251.35H717.363V249.502H715.803V251.35H715.143V252.538H715.803V255.634C715.803 256.522 716.343 257.422 717.615 257.422H718.467ZM724.979 254.782V254.086C724.979 252.37 723.995 251.098 722.255 251.098C720.635 251.098 719.531 252.25 719.531 254.29C719.531 256.822 720.947 257.494 722.423 257.494C723.551 257.494 724.163 257.146 724.799 256.51L723.851 255.586C723.455 255.982 723.119 256.174 722.435 256.174C721.559 256.174 721.067 255.586 721.067 254.782H724.979ZM723.443 253.714H721.067C721.079 253.438 721.115 253.27 721.211 253.042C721.379 252.67 721.727 252.394 722.255 252.394C722.783 252.394 723.131 252.67 723.299 253.042C723.395 253.27 723.431 253.438 723.443 253.714ZM735.249 257.422V253.426C735.249 252.742 735.069 252.154 734.565 251.65C734.217 251.302 733.653 251.098 733.029 251.098C732.249 251.098 731.685 251.338 731.157 251.89C730.761 251.35 730.197 251.098 729.501 251.098C728.925 251.098 728.349 251.326 727.941 251.746V251.17H726.417V257.422H727.977V253.642C727.977 252.79 728.529 252.502 729.021 252.502C729.513 252.502 730.053 252.79 730.053 253.642V257.422H731.613V253.606C731.613 252.79 732.177 252.502 732.657 252.502C733.149 252.502 733.689 252.79 733.689 253.642V257.422H735.249Z" fill="black"/>
<circle cx="104.889" cy="387.48" r="69" fill="#6A1840"/>
<path d="M59.529 367.072C59.529 364.858 59.547 363.256 58.251 361.96C57.351 361.06 56.253 360.556 54.795 360.556C53.337 360.556 52.221 361.06 51.321 361.96C50.025 363.256 50.061 364.858 50.061 367.072C50.061 369.286 50.025 370.888 51.321 372.184C52.221 373.084 53.337 373.588 54.795 373.588C56.253 373.588 57.351 373.084 58.251 372.184C59.547 370.888 59.529 369.286 59.529 367.072ZM57.027 367.072C57.027 369.538 56.883 370.132 56.397 370.672C56.037 371.086 55.479 371.356 54.795 371.356C54.111 371.356 53.535 371.086 53.175 370.672C52.689 370.132 52.563 369.538 52.563 367.072C52.563 364.606 52.689 364.012 53.175 363.472C53.535 363.058 54.111 362.788 54.795 362.788C55.479 362.788 56.037 363.058 56.397 363.472C56.883 364.012 57.027 364.606 57.027 367.072ZM69.745 368.782C69.745 367.378 69.727 365.776 68.791 364.84C68.269 364.318 67.423 363.994 66.505 363.994C65.515 363.994 64.813 364.264 64.165 364.984V364.102H61.897V376.918H64.237V372.652C64.849 373.336 65.551 373.588 66.505 373.588C67.423 373.588 68.269 373.264 68.791 372.742C69.727 371.806 69.745 370.186 69.745 368.782ZM67.405 368.782C67.405 370.312 67.225 371.482 65.821 371.482C64.417 371.482 64.237 370.312 64.237 368.782C64.237 367.252 64.417 366.1 65.821 366.1C67.225 366.1 67.405 367.252 67.405 368.782ZM79.8173 368.782C79.8173 367.378 79.7993 365.776 78.8633 364.84C78.3413 364.318 77.4953 363.994 76.5773 363.994C75.5873 363.994 74.8853 364.264 74.2373 364.984V364.102H71.9693V376.918H74.3093V372.652C74.9213 373.336 75.6233 373.588 76.5773 373.588C77.4953 373.588 78.3413 373.264 78.8633 372.742C79.7993 371.806 79.8173 370.186 79.8173 368.782ZM77.4773 368.782C77.4773 370.312 77.2973 371.482 75.8933 371.482C74.4893 371.482 74.3093 370.312 74.3093 368.782C74.3093 367.252 74.4893 366.1 75.8933 366.1C77.2973 366.1 77.4773 367.252 77.4773 368.782ZM89.5835 368.782C89.5835 367.09 89.3675 366.028 88.5215 365.146C87.9455 364.534 86.9915 363.994 85.6055 363.994C84.2195 363.994 83.2835 364.534 82.7075 365.146C81.8615 366.028 81.6455 367.09 81.6455 368.782C81.6455 370.492 81.8615 371.554 82.7075 372.436C83.2835 373.048 84.2195 373.588 85.6055 373.588C86.9915 373.588 87.9455 373.048 88.5215 372.436C89.3675 371.554 89.5835 370.492 89.5835 368.782ZM87.2435 368.782C87.2435 369.754 87.1895 370.582 86.7035 371.068C86.4335 371.338 86.0735 371.482 85.6055 371.482C85.1375 371.482 84.7955 371.338 84.5255 371.068C84.0395 370.582 83.9855 369.754 83.9855 368.782C83.9855 367.81 84.0395 367 84.5255 366.514C84.7955 366.244 85.1375 366.1 85.6055 366.1C86.0735 366.1 86.4335 366.244 86.7035 366.514C87.1895 367 87.2435 367.81 87.2435 368.782ZM98.673 364.876C98.025 364.228 97.377 363.994 96.459 363.994C95.451 363.994 94.551 364.462 94.101 365.002V364.102H91.815V373.48H94.155V367.828C94.155 366.64 94.947 366.1 95.667 366.1C96.243 366.1 96.549 366.298 96.909 366.658L98.673 364.876ZM104.218 373.48V371.5H103.372C102.814 371.5 102.562 371.194 102.562 370.654V366.154H104.218V364.372H102.562V361.6H100.222V364.372H99.2324V366.154H100.222V370.798C100.222 372.13 101.032 373.48 102.94 373.48H104.218ZM114.021 373.48V364.102H111.681V369.772C111.681 371.05 110.853 371.482 110.115 371.482C109.377 371.482 108.567 371.05 108.567 369.772V364.102H106.227V370.096C106.227 371.122 106.425 372.004 107.181 372.76C107.703 373.282 108.459 373.588 109.395 373.588C110.259 373.588 111.123 373.264 111.735 372.616V373.48H114.021ZM124.447 373.48V367.486C124.447 366.46 124.249 365.578 123.493 364.822C122.971 364.3 122.215 363.994 121.279 363.994C120.415 363.994 119.551 364.318 118.939 364.966V364.102H116.653V373.48H118.993V367.81C118.993 366.532 119.821 366.1 120.559 366.1C121.297 366.1 122.107 366.532 122.107 367.81V373.48H124.447ZM129.329 362.5V360.592H126.935V362.5H129.329ZM129.311 373.48V364.102H126.971V373.48H129.311ZM136.14 373.48V371.5H135.294C134.736 371.5 134.484 371.194 134.484 370.654V366.154H136.14V364.372H134.484V361.6H132.144V364.372H131.154V366.154H132.144V370.798C132.144 372.13 132.954 373.48 134.862 373.48H136.14ZM140.614 362.5V360.592H138.22V362.5H140.614ZM140.596 373.48V364.102H138.256V373.48H140.596ZM150.917 369.52V368.476C150.917 365.902 149.441 363.994 146.831 363.994C144.401 363.994 142.745 365.722 142.745 368.782C142.745 372.58 144.869 373.588 147.083 373.588C148.775 373.588 149.693 373.066 150.647 372.112L149.225 370.726C148.631 371.32 148.127 371.608 147.101 371.608C145.787 371.608 145.049 370.726 145.049 369.52H150.917ZM148.613 367.918H145.049C145.067 367.504 145.121 367.252 145.265 366.91C145.517 366.352 146.039 365.938 146.831 365.938C147.623 365.938 148.145 366.352 148.397 366.91C148.541 367.252 148.595 367.504 148.613 367.918ZM160.131 370.528C160.131 368.944 159.195 367.954 157.341 367.774L155.865 367.63C155.037 367.558 154.893 367.162 154.893 366.82C154.893 366.352 155.289 365.92 156.225 365.92C157.035 365.92 157.863 366.064 158.403 366.55L159.843 365.092C158.943 364.246 157.719 363.994 156.261 363.994C154.353 363.994 152.643 365.038 152.643 366.982C152.643 368.71 153.687 369.448 155.379 369.61L156.855 369.754C157.593 369.826 157.845 370.15 157.845 370.618C157.845 371.32 156.999 371.59 156.189 371.59C155.469 371.59 154.461 371.482 153.687 370.708L152.157 372.238C153.345 373.426 154.677 373.588 156.153 373.588C158.367 373.588 160.131 372.598 160.131 370.528ZM55.2726 385.5V383.592H52.8786V385.5H55.2726ZM55.2546 396.48V387.102H52.9146V396.48H55.2546ZM65.6656 396.48V390.486C65.6656 389.46 65.4676 388.578 64.7116 387.822C64.1896 387.3 63.4336 386.994 62.4976 386.994C61.6336 386.994 60.7696 387.318 60.1576 387.966V387.102H57.8716V396.48H60.2116V390.81C60.2116 389.532 61.0396 389.1 61.7776 389.1C62.5156 389.1 63.3256 389.532 63.3256 390.81V396.48H65.6656ZM72.402 396.48V394.5H71.556C70.998 394.5 70.746 394.194 70.746 393.654V389.154H72.402V387.372H70.746V384.6H68.406V387.372H67.416V389.154H68.406V393.798C68.406 395.13 69.216 396.48 71.124 396.48H72.402ZM82.0074 391.782C82.0074 390.09 81.7914 389.028 80.9454 388.146C80.3694 387.534 79.4154 386.994 78.0294 386.994C76.6434 386.994 75.7074 387.534 75.1314 388.146C74.2854 389.028 74.0694 390.09 74.0694 391.782C74.0694 393.492 74.2854 394.554 75.1314 395.436C75.7074 396.048 76.6434 396.588 78.0294 396.588C79.4154 396.588 80.3694 396.048 80.9454 395.436C81.7914 394.554 82.0074 393.492 82.0074 391.782ZM79.6674 391.782C79.6674 392.754 79.6134 393.582 79.1274 394.068C78.8574 394.338 78.4974 394.482 78.0294 394.482C77.5614 394.482 77.2194 394.338 76.9494 394.068C76.4634 393.582 76.4094 392.754 76.4094 391.782C76.4094 390.81 76.4634 390 76.9494 389.514C77.2194 389.244 77.5614 389.1 78.0294 389.1C78.4974 389.1 78.8574 389.244 79.1274 389.514C79.6134 390 79.6674 390.81 79.6674 391.782ZM95.8924 396.48V383.664H93.5524V387.93C92.9404 387.246 92.2204 386.994 91.2664 386.994C90.3484 386.994 89.5024 387.318 88.9804 387.84C88.0444 388.776 88.0264 390.378 88.0264 391.782C88.0264 393.186 88.0444 394.806 88.9804 395.742C89.5024 396.264 90.3664 396.588 91.2844 396.588C92.2744 396.588 92.9584 396.318 93.6064 395.598V396.48H95.8924ZM93.5524 391.782C93.5524 393.312 93.3544 394.482 91.9504 394.482C90.5464 394.482 90.3664 393.312 90.3664 391.782C90.3664 390.252 90.5464 389.1 91.9504 389.1C93.3544 389.1 93.5524 390.252 93.5524 391.782ZM100.87 385.5V383.592H98.4762V385.5H100.87ZM100.852 396.48V387.102H98.5122V396.48H100.852ZM107.825 389.154V387.372H106.097V386.346C106.097 385.806 106.349 385.5 106.907 385.5H107.825V383.52H106.493C104.585 383.52 103.757 384.87 103.757 386.202V387.372H102.785V389.154H103.757V396.48H106.097V389.154H107.825ZM113.978 389.154V387.372H112.25V386.346C112.25 385.806 112.502 385.5 113.06 385.5H113.978V383.52H112.646C110.738 383.52 109.91 384.87 109.91 386.202V387.372H108.938V389.154H109.91V396.48H112.25V389.154H113.978ZM123.197 392.52V391.476C123.197 388.902 121.721 386.994 119.111 386.994C116.681 386.994 115.025 388.722 115.025 391.782C115.025 395.58 117.149 396.588 119.363 396.588C121.055 396.588 121.973 396.066 122.927 395.112L121.505 393.726C120.911 394.32 120.407 394.608 119.381 394.608C118.067 394.608 117.329 393.726 117.329 392.52H123.197ZM120.893 390.918H117.329C117.347 390.504 117.401 390.252 117.545 389.91C117.797 389.352 118.319 388.938 119.111 388.938C119.903 388.938 120.425 389.352 120.677 389.91C120.821 390.252 120.875 390.504 120.893 390.918ZM132.212 387.876C131.564 387.228 130.916 386.994 129.998 386.994C128.99 386.994 128.09 387.462 127.64 388.002V387.102H125.354V396.48H127.694V390.828C127.694 389.64 128.486 389.1 129.206 389.1C129.782 389.1 130.088 389.298 130.448 389.658L132.212 387.876ZM140.687 392.52V391.476C140.687 388.902 139.211 386.994 136.601 386.994C134.171 386.994 132.515 388.722 132.515 391.782C132.515 395.58 134.639 396.588 136.853 396.588C138.545 396.588 139.463 396.066 140.417 395.112L138.995 393.726C138.401 394.32 137.897 394.608 136.871 394.608C135.557 394.608 134.819 393.726 134.819 392.52H140.687ZM138.383 390.918H134.819C134.837 390.504 134.891 390.252 135.035 389.91C135.287 389.352 135.809 388.938 136.601 388.938C137.393 388.938 137.915 389.352 138.167 389.91C138.311 390.252 138.365 390.504 138.383 390.918ZM150.638 396.48V390.486C150.638 389.46 150.44 388.578 149.684 387.822C149.162 387.3 148.406 386.994 147.47 386.994C146.606 386.994 145.742 387.318 145.13 387.966V387.102H142.844V396.48H145.184V390.81C145.184 389.532 146.012 389.1 146.75 389.1C147.488 389.1 148.298 389.532 148.298 390.81V396.48H150.638ZM157.375 396.48V394.5H156.529C155.971 394.5 155.719 394.194 155.719 393.654V389.154H157.375V387.372H155.719V384.6H153.379V387.372H152.389V389.154H153.379V393.798C153.379 395.13 154.189 396.48 156.097 396.48H157.375ZM85.0942 419.48V413.486C85.0942 412.46 84.8242 411.578 84.0682 410.822C83.5462 410.3 82.7002 409.994 81.7642 409.994C80.5942 409.994 79.7482 410.354 78.9562 411.182C78.3622 410.372 77.5162 409.994 76.4722 409.994C75.6082 409.994 74.7442 410.336 74.1322 410.966V410.102H71.8462V419.48H74.1862V413.81C74.1862 412.532 75.0142 412.1 75.7522 412.1C76.4902 412.1 77.3002 412.532 77.3002 413.81V419.48H79.6402V413.756C79.6402 412.532 80.4862 412.1 81.2062 412.1C81.9442 412.1 82.7542 412.532 82.7542 413.81V419.48H85.0942ZM94.7058 419.48V413.306C94.7058 411.11 93.3378 409.994 90.7098 409.994C89.1438 409.994 88.2438 410.282 87.3258 411.29L88.8198 412.748C89.3058 412.19 89.7198 411.974 90.6198 411.974C91.8618 411.974 92.3658 412.424 92.3658 413.45V413.918H90.1518C87.9738 413.918 86.9478 415.142 86.9478 416.636C86.9478 417.464 87.2178 418.22 87.7218 418.742C88.2798 419.3 89.0538 419.57 90.1158 419.57C91.1958 419.57 91.7898 419.3 92.4198 418.67V419.48H94.7058ZM92.3658 416.024C92.3658 416.6 92.2758 416.978 92.0238 417.212C91.6098 417.608 91.1958 417.662 90.5478 417.662C89.6298 417.662 89.1978 417.23 89.1978 416.582C89.1978 415.916 89.6658 415.52 90.5118 415.52H92.3658V416.024ZM104.087 410.876C103.439 410.228 102.791 409.994 101.873 409.994C100.865 409.994 99.965 410.462 99.515 411.002V410.102H97.229V419.48H99.569V413.828C99.569 412.64 100.361 412.1 101.081 412.1C101.657 412.1 101.963 412.298 102.323 412.658L104.087 410.876ZM113.952 419.48L110.352 413.882L113.7 410.102H110.874L107.76 413.936V406.664H105.42V419.48H107.76V416.69L108.75 415.574L111.054 419.48H113.952ZM123.056 415.52V414.476C123.056 411.902 121.58 409.994 118.97 409.994C116.54 409.994 114.884 411.722 114.884 414.782C114.884 418.58 117.008 419.588 119.222 419.588C120.914 419.588 121.832 419.066 122.786 418.112L121.364 416.726C120.77 417.32 120.266 417.608 119.24 417.608C117.926 417.608 117.188 416.726 117.188 415.52H123.056ZM120.752 413.918H117.188C117.206 413.504 117.26 413.252 117.404 412.91C117.656 412.352 118.178 411.938 118.97 411.938C119.762 411.938 120.284 412.352 120.536 412.91C120.68 413.252 120.734 413.504 120.752 413.918ZM129.425 419.48V417.5H128.579C128.021 417.5 127.769 417.194 127.769 416.654V412.154H129.425V410.372H127.769V407.6H125.429V410.372H124.439V412.154H125.429V416.798C125.429 418.13 126.239 419.48 128.147 419.48H129.425ZM138.598 416.528C138.598 414.944 137.662 413.954 135.808 413.774L134.332 413.63C133.504 413.558 133.36 413.162 133.36 412.82C133.36 412.352 133.756 411.92 134.692 411.92C135.502 411.92 136.33 412.064 136.87 412.55L138.31 411.092C137.41 410.246 136.186 409.994 134.728 409.994C132.82 409.994 131.11 411.038 131.11 412.982C131.11 414.71 132.154 415.448 133.846 415.61L135.322 415.754C136.06 415.826 136.312 416.15 136.312 416.618C136.312 417.32 135.466 417.59 134.656 417.59C133.936 417.59 132.928 417.482 132.154 416.708L130.624 418.238C131.812 419.426 133.144 419.588 134.62 419.588C136.834 419.588 138.598 418.598 138.598 416.528Z" fill="white"/>
<path d="M398.843 51.792H393.913L390.139 67.058L385.719 51.792H382.183L377.763 67.058L374.023 51.792H369.093L375.553 76H379.497L383.951 61.312L388.405 76H392.349L398.843 51.792ZM416.105 76V64.542C416.105 60.802 414.065 58.082 410.189 58.082C408.625 58.082 407.129 58.694 405.939 59.918V51.792H401.519V76H405.939V65.188C405.939 62.876 407.401 62.06 408.795 62.06C410.189 62.06 411.685 62.842 411.685 65.188V76H416.105ZM434.273 76V64.338C434.273 60.19 431.689 58.082 426.725 58.082C423.767 58.082 422.067 58.626 420.333 60.53L423.155 63.284C424.073 62.23 424.855 61.822 426.555 61.822C428.901 61.822 429.853 62.672 429.853 64.61V65.494H425.671C421.557 65.494 419.619 67.806 419.619 70.628C419.619 72.192 420.129 73.62 421.081 74.606C422.135 75.66 423.597 76.17 425.603 76.17C427.643 76.17 428.765 75.66 429.955 74.47V76H434.273ZM429.853 69.472C429.853 70.56 429.683 71.274 429.207 71.716C428.425 72.464 427.643 72.566 426.419 72.566C424.685 72.566 423.869 71.75 423.869 70.526C423.869 69.268 424.753 68.52 426.351 68.52H429.853V69.472ZM446.995 76V72.26H445.397C444.343 72.26 443.867 71.682 443.867 70.662V62.162H446.995V58.796H443.867V53.56H439.447V58.796H437.577V62.162H439.447V70.934C439.447 73.45 440.977 76 444.581 76H446.995ZM482.082 58.286H477.424L474.568 69.234L470.93 58.286H467.7L464.096 69.234L461.24 58.286H456.548L461.988 76H465.626L469.332 64.882L473.038 76H476.676L482.082 58.286ZM498.979 68.52V66.548C498.979 61.686 496.191 58.082 491.261 58.082C486.671 58.082 483.543 61.346 483.543 67.126C483.543 74.3 487.555 76.204 491.737 76.204C494.933 76.204 496.667 75.218 498.469 73.416L495.783 70.798C494.661 71.92 493.709 72.464 491.771 72.464C489.289 72.464 487.895 70.798 487.895 68.52H498.979ZM494.627 65.494H487.895C487.929 64.712 488.031 64.236 488.303 63.59C488.779 62.536 489.765 61.754 491.261 61.754C492.757 61.754 493.743 62.536 494.219 63.59C494.491 64.236 494.593 64.712 494.627 65.494ZM525.781 67.126C525.781 64.474 525.747 61.448 523.979 59.68C522.993 58.694 521.395 58.082 519.661 58.082C517.791 58.082 516.465 58.592 515.241 59.952V58.286H510.957V82.494H515.377V74.436C516.533 75.728 517.859 76.204 519.661 76.204C521.395 76.204 522.993 75.592 523.979 74.606C525.747 72.838 525.781 69.778 525.781 67.126ZM521.361 67.126C521.361 70.016 521.021 72.226 518.369 72.226C515.717 72.226 515.377 70.016 515.377 67.126C515.377 64.236 515.717 62.06 518.369 62.06C521.021 62.06 521.361 64.236 521.361 67.126ZM542.936 59.748C541.712 58.524 540.488 58.082 538.754 58.082C536.85 58.082 535.15 58.966 534.3 59.986V58.286H529.982V76H534.402V65.324C534.402 63.08 535.898 62.06 537.258 62.06C538.346 62.06 538.924 62.434 539.604 63.114L542.936 59.748ZM558.638 67.126C558.638 63.93 558.23 61.924 556.632 60.258C555.544 59.102 553.742 58.082 551.124 58.082C548.506 58.082 546.738 59.102 545.65 60.258C544.052 61.924 543.644 63.93 543.644 67.126C543.644 70.356 544.052 72.362 545.65 74.028C546.738 75.184 548.506 76.204 551.124 76.204C553.742 76.204 555.544 75.184 556.632 74.028C558.23 72.362 558.638 70.356 558.638 67.126ZM554.218 67.126C554.218 68.962 554.116 70.526 553.198 71.444C552.688 71.954 552.008 72.226 551.124 72.226C550.24 72.226 549.594 71.954 549.084 71.444C548.166 70.526 548.064 68.962 548.064 67.126C548.064 65.29 548.166 63.76 549.084 62.842C549.594 62.332 550.24 62.06 551.124 62.06C552.008 62.06 552.688 62.332 553.198 62.842C554.116 63.76 554.218 65.29 554.218 67.126ZM576.665 58.286H572.007L568.437 69.234L564.833 58.286H560.175L566.703 76H570.171L576.665 58.286ZM583.743 55.26V51.656H579.221V55.26H583.743ZM583.709 76V58.286H579.289V76H583.709ZM602.762 76V51.792H598.342V59.85C597.186 58.558 595.826 58.082 594.024 58.082C592.29 58.082 590.692 58.694 589.706 59.68C587.938 61.448 587.904 64.474 587.904 67.126C587.904 69.778 587.938 72.838 589.706 74.606C590.692 75.592 592.324 76.204 594.058 76.204C595.928 76.204 597.22 75.694 598.444 74.334V76H602.762ZM598.342 67.126C598.342 70.016 597.968 72.226 595.316 72.226C592.664 72.226 592.324 70.016 592.324 67.126C592.324 64.236 592.664 62.06 595.316 62.06C597.968 62.06 598.342 64.236 598.342 67.126ZM622.263 68.52V66.548C622.263 61.686 619.475 58.082 614.545 58.082C609.955 58.082 606.827 61.346 606.827 67.126C606.827 74.3 610.839 76.204 615.021 76.204C618.217 76.204 619.951 75.218 621.753 73.416L619.067 70.798C617.945 71.92 616.993 72.464 615.055 72.464C612.573 72.464 611.179 70.798 611.179 68.52H622.263ZM617.911 65.494H611.179C611.213 64.712 611.315 64.236 611.587 63.59C612.063 62.536 613.049 61.754 614.545 61.754C616.041 61.754 617.027 62.536 617.503 63.59C617.775 64.236 617.877 64.712 617.911 65.494Z" fill="black"/>
</svg>
