<svg width="959" height="591" viewBox="0 0 959 591" fill="none" xmlns="http://www.w3.org/2000/svg">
<circle cx="470.875" cy="300.5" r="190.5" fill="#D9D9D9"/>
<rect width="251" height="78" transform="translate(0.375 261)" fill="white"/>
<path d="M35.578 307L31.277 299.707L35.289 294.896H32.416L28.149 300.166V294.896H25.786V307H28.149V303.362L29.713 301.492L32.824 307H35.578ZM44.2827 307V301.339C44.2827 300.37 44.0957 299.537 43.3817 298.823C42.8887 298.33 42.1747 298.041 41.2907 298.041C40.4747 298.041 39.6587 298.347 39.0807 298.959V298.143H36.9217V307H39.1317V301.645C39.1317 300.438 39.9137 300.03 40.6107 300.03C41.3077 300.03 42.0727 300.438 42.0727 301.645V307H44.2827ZM53.7898 302.563C53.7898 300.965 53.5858 299.962 52.7868 299.129C52.2428 298.551 51.3418 298.041 50.0328 298.041C48.7238 298.041 47.8398 298.551 47.2958 299.129C46.4968 299.962 46.2928 300.965 46.2928 302.563C46.2928 304.178 46.4968 305.181 47.2958 306.014C47.8398 306.592 48.7238 307.102 50.0328 307.102C51.3418 307.102 52.2428 306.592 52.7868 306.014C53.5858 305.181 53.7898 304.178 53.7898 302.563ZM51.5798 302.563C51.5798 303.481 51.5288 304.263 51.0698 304.722C50.8148 304.977 50.4748 305.113 50.0328 305.113C49.5908 305.113 49.2678 304.977 49.0128 304.722C48.5538 304.263 48.5028 303.481 48.5028 302.563C48.5028 301.645 48.5538 300.88 49.0128 300.421C49.2678 300.166 49.5908 300.03 50.0328 300.03C50.4748 300.03 50.8148 300.166 51.0698 300.421C51.5288 300.88 51.5798 301.645 51.5798 302.563ZM67.3584 298.143H65.0294L63.6014 303.617L61.7824 298.143H60.1674L58.3654 303.617L56.9374 298.143H54.5914L57.3114 307H59.1304L60.9834 301.441L62.8364 307H64.6554L67.3584 298.143ZM72.4209 307V305.13H71.5709C71.0099 305.13 70.7889 304.858 70.7889 304.331V294.896H68.5789V304.467C68.5789 305.725 69.3439 307 71.1629 307H72.4209ZM81.0365 303.26V302.274C81.0365 299.843 79.6425 298.041 77.1775 298.041C74.8825 298.041 73.3185 299.673 73.3185 302.563C73.3185 306.15 75.3245 307.102 77.4155 307.102C79.0135 307.102 79.8805 306.609 80.7815 305.708L79.4385 304.399C78.8775 304.96 78.4015 305.232 77.4325 305.232C76.1915 305.232 75.4945 304.399 75.4945 303.26H81.0365ZM78.8605 301.747H75.4945C75.5115 301.356 75.5625 301.118 75.6985 300.795C75.9365 300.268 76.4295 299.877 77.1775 299.877C77.9255 299.877 78.4185 300.268 78.6565 300.795C78.7925 301.118 78.8435 301.356 78.8605 301.747ZM90.129 307V294.896H87.919V298.925C87.341 298.279 86.661 298.041 85.76 298.041C84.893 298.041 84.094 298.347 83.601 298.84C82.717 299.724 82.7 301.237 82.7 302.563C82.7 303.889 82.717 305.419 83.601 306.303C84.094 306.796 84.91 307.102 85.777 307.102C86.712 307.102 87.358 306.847 87.97 306.167V307H90.129ZM87.919 302.563C87.919 304.008 87.732 305.113 86.406 305.113C85.08 305.113 84.91 304.008 84.91 302.563C84.91 301.118 85.08 300.03 86.406 300.03C87.732 300.03 87.919 301.118 87.919 302.563ZM99.5563 306.677V298.143H97.4143V298.976C96.8023 298.296 96.1903 298.041 95.2553 298.041C94.3883 298.041 93.6233 298.33 93.1303 298.823C92.2973 299.656 92.2293 300.778 92.2293 302.325C92.2293 303.872 92.2973 305.011 93.1303 305.844C93.6233 306.337 94.3713 306.626 95.2383 306.626C96.1053 306.626 96.7683 306.388 97.3463 305.742V306.643C97.3463 307.544 96.8873 308.479 95.5613 308.479C94.8133 308.479 94.3203 308.275 93.8273 307.799L92.4503 309.193C93.3683 310.077 94.3033 310.349 95.6633 310.349C98.0433 310.349 99.5563 308.802 99.5563 306.677ZM97.3463 302.325C97.3463 303.498 97.1933 304.637 95.8843 304.637C94.5753 304.637 94.4393 303.498 94.4393 302.325C94.4393 301.152 94.5753 300.03 95.8843 300.03C97.1933 300.03 97.3463 301.152 97.3463 302.325ZM109.309 303.26V302.274C109.309 299.843 107.915 298.041 105.45 298.041C103.155 298.041 101.591 299.673 101.591 302.563C101.591 306.15 103.597 307.102 105.688 307.102C107.286 307.102 108.153 306.609 109.054 305.708L107.711 304.399C107.15 304.96 106.674 305.232 105.705 305.232C104.464 305.232 103.767 304.399 103.767 303.26H109.309ZM107.133 301.747H103.767C103.784 301.356 103.835 301.118 103.971 300.795C104.209 300.268 104.702 299.877 105.45 299.877C106.198 299.877 106.691 300.268 106.929 300.795C107.065 301.118 107.116 301.356 107.133 301.747ZM121.996 307V301.169C121.996 299.095 120.704 298.041 118.222 298.041C116.743 298.041 115.893 298.313 115.026 299.265L116.437 300.642C116.896 300.115 117.287 299.911 118.137 299.911C119.31 299.911 119.786 300.336 119.786 301.305V301.747H117.695C115.638 301.747 114.669 302.903 114.669 304.314C114.669 305.096 114.924 305.81 115.4 306.303C115.927 306.83 116.658 307.085 117.661 307.085C118.681 307.085 119.242 306.83 119.837 306.235V307H121.996ZM119.786 303.736C119.786 304.28 119.701 304.637 119.463 304.858C119.072 305.232 118.681 305.283 118.069 305.283C117.202 305.283 116.794 304.875 116.794 304.263C116.794 303.634 117.236 303.26 118.035 303.26H119.786V303.736ZM131.74 307V301.339C131.74 300.37 131.553 299.537 130.839 298.823C130.346 298.33 129.632 298.041 128.748 298.041C127.932 298.041 127.116 298.347 126.538 298.959V298.143H124.379V307H126.589V301.645C126.589 300.438 127.371 300.03 128.068 300.03C128.765 300.03 129.53 300.438 129.53 301.645V307H131.74ZM141.179 307V294.896H138.969V298.925C138.391 298.279 137.711 298.041 136.81 298.041C135.943 298.041 135.144 298.347 134.651 298.84C133.767 299.724 133.75 301.237 133.75 302.563C133.75 303.889 133.767 305.419 134.651 306.303C135.144 306.796 135.96 307.102 136.827 307.102C137.762 307.102 138.408 306.847 139.02 306.167V307H141.179ZM138.969 302.563C138.969 304.008 138.782 305.113 137.456 305.113C136.13 305.113 135.96 304.008 135.96 302.563C135.96 301.118 136.13 300.03 137.456 300.03C138.782 300.03 138.969 301.118 138.969 302.563ZM150.137 307V294.896H147.774V307H150.137ZM160.145 307V301.339C160.145 300.37 159.958 299.537 159.244 298.823C158.751 298.33 158.037 298.041 157.153 298.041C156.337 298.041 155.521 298.347 154.943 298.959V298.143H152.784V307H154.994V301.645C154.994 300.438 155.776 300.03 156.473 300.03C157.17 300.03 157.935 300.438 157.935 301.645V307H160.145ZM169.89 307V301.339C169.89 300.37 169.703 299.537 168.989 298.823C168.496 298.33 167.782 298.041 166.898 298.041C166.082 298.041 165.266 298.347 164.688 298.959V298.143H162.529V307H164.739V301.645C164.739 300.438 165.521 300.03 166.218 300.03C166.915 300.03 167.68 300.438 167.68 301.645V307H169.89ZM179.397 302.563C179.397 300.965 179.193 299.962 178.394 299.129C177.85 298.551 176.949 298.041 175.64 298.041C174.331 298.041 173.447 298.551 172.903 299.129C172.104 299.962 171.9 300.965 171.9 302.563C171.9 304.178 172.104 305.181 172.903 306.014C173.447 306.592 174.331 307.102 175.64 307.102C176.949 307.102 177.85 306.592 178.394 306.014C179.193 305.181 179.397 304.178 179.397 302.563ZM177.187 302.563C177.187 303.481 177.136 304.263 176.677 304.722C176.422 304.977 176.082 305.113 175.64 305.113C175.198 305.113 174.875 304.977 174.62 304.722C174.161 304.263 174.11 303.481 174.11 302.563C174.11 301.645 174.161 300.88 174.62 300.421C174.875 300.166 175.198 300.03 175.64 300.03C176.082 300.03 176.422 300.166 176.677 300.421C177.136 300.88 177.187 301.645 177.187 302.563ZM188.411 298.143H186.082L184.297 303.617L182.495 298.143H180.166L183.43 307H185.164L188.411 298.143ZM196.254 307V301.169C196.254 299.095 194.962 298.041 192.48 298.041C191.001 298.041 190.151 298.313 189.284 299.265L190.695 300.642C191.154 300.115 191.545 299.911 192.395 299.911C193.568 299.911 194.044 300.336 194.044 301.305V301.747H191.953C189.896 301.747 188.927 302.903 188.927 304.314C188.927 305.096 189.182 305.81 189.658 306.303C190.185 306.83 190.916 307.085 191.919 307.085C192.939 307.085 193.5 306.83 194.095 306.235V307H196.254ZM194.044 303.736C194.044 304.28 193.959 304.637 193.721 304.858C193.33 305.232 192.939 305.283 192.327 305.283C191.46 305.283 191.052 304.875 191.052 304.263C191.052 303.634 191.494 303.26 192.293 303.26H194.044V303.736ZM202.615 307V305.13H201.816C201.289 305.13 201.051 304.841 201.051 304.331V300.081H202.615V298.398H201.051V295.78H198.841V298.398H197.906V300.081H198.841V304.467C198.841 305.725 199.606 307 201.408 307H202.615ZM206.841 296.63V294.828H204.58V296.63H206.841ZM206.824 307V298.143H204.614V307H206.824ZM216.419 302.563C216.419 300.965 216.215 299.962 215.416 299.129C214.872 298.551 213.971 298.041 212.662 298.041C211.353 298.041 210.469 298.551 209.925 299.129C209.126 299.962 208.922 300.965 208.922 302.563C208.922 304.178 209.126 305.181 209.925 306.014C210.469 306.592 211.353 307.102 212.662 307.102C213.971 307.102 214.872 306.592 215.416 306.014C216.215 305.181 216.419 304.178 216.419 302.563ZM214.209 302.563C214.209 303.481 214.158 304.263 213.699 304.722C213.444 304.977 213.104 305.113 212.662 305.113C212.22 305.113 211.897 304.977 211.642 304.722C211.183 304.263 211.132 303.481 211.132 302.563C211.132 301.645 211.183 300.88 211.642 300.421C211.897 300.166 212.22 300.03 212.662 300.03C213.104 300.03 213.444 300.166 213.699 300.421C214.158 300.88 214.209 301.645 214.209 302.563ZM225.887 307V301.339C225.887 300.37 225.7 299.537 224.986 298.823C224.493 298.33 223.779 298.041 222.895 298.041C222.079 298.041 221.263 298.347 220.685 298.959V298.143H218.526V307H220.736V301.645C220.736 300.438 221.518 300.03 222.215 300.03C222.912 300.03 223.677 300.438 223.677 301.645V307H225.887Z" fill="black"/>
<rect x="264.375" y="269" width="62" height="62" rx="31" fill="#F3749C"/>
<path fill-rule="evenodd" clip-rule="evenodd" d="M297.375 289H293.375V298H284.375V302H293.375V311H297.375V302H306.375V298H297.375V289Z" fill="black"/>
<rect width="277" height="78" transform="translate(339.375 261)" fill="white"/>
<path d="M374.067 298.18C374.067 296.002 372.483 294.184 369.837 294.184H364.869V307H367.371V302.176H369.837C372.483 302.176 374.067 300.358 374.067 298.18ZM371.565 298.18C371.565 299.224 370.845 299.926 369.711 299.926H367.371V296.416H369.711C370.845 296.416 371.565 297.136 371.565 298.18ZM382.85 298.396C382.202 297.748 381.554 297.514 380.636 297.514C379.628 297.514 378.728 297.982 378.278 298.522V297.622H375.992V307H378.332V301.348C378.332 300.16 379.124 299.62 379.844 299.62C380.42 299.62 380.726 299.818 381.086 300.178L382.85 298.396ZM386.541 296.02V294.112H384.147V296.02H386.541ZM386.523 307V297.622H384.183V307H386.523ZM396.628 297.622H394.162L392.272 303.418L390.364 297.622H387.898L391.354 307H393.19L396.628 297.622ZM404.933 307V300.826C404.933 298.63 403.565 297.514 400.937 297.514C399.371 297.514 398.471 297.802 397.553 298.81L399.047 300.268C399.533 299.71 399.947 299.494 400.847 299.494C402.089 299.494 402.593 299.944 402.593 300.97V301.438H400.379C398.201 301.438 397.175 302.662 397.175 304.156C397.175 304.984 397.445 305.74 397.949 306.262C398.507 306.82 399.281 307.09 400.343 307.09C401.423 307.09 402.017 306.82 402.647 306.19V307H404.933ZM402.593 303.544C402.593 304.12 402.503 304.498 402.251 304.732C401.837 305.128 401.423 305.182 400.775 305.182C399.857 305.182 399.425 304.75 399.425 304.102C399.425 303.436 399.893 303.04 400.739 303.04H402.593V303.544ZM411.669 307V305.02H410.823C410.265 305.02 410.013 304.714 410.013 304.174V299.674H411.669V297.892H410.013V295.12H407.673V297.892H406.683V299.674H407.673V304.318C407.673 305.65 408.483 307 410.391 307H411.669ZM421.436 303.04V301.996C421.436 299.422 419.96 297.514 417.35 297.514C414.92 297.514 413.264 299.242 413.264 302.302C413.264 306.1 415.388 307.108 417.602 307.108C419.294 307.108 420.212 306.586 421.166 305.632L419.744 304.246C419.15 304.84 418.646 305.128 417.62 305.128C416.306 305.128 415.568 304.246 415.568 303.04H421.436ZM419.132 301.438H415.568C415.586 301.024 415.64 300.772 415.784 300.43C416.036 299.872 416.558 299.458 417.35 299.458C418.142 299.458 418.664 299.872 418.916 300.43C419.06 300.772 419.114 301.024 419.132 301.438ZM436.237 303.22C436.237 302.086 435.931 301.15 435.247 300.502C434.707 299.998 433.969 299.674 432.799 299.512L431.287 299.296C430.765 299.224 430.351 299.026 430.099 298.792C429.829 298.54 429.721 298.198 429.721 297.874C429.721 296.992 430.369 296.254 431.701 296.254C432.547 296.254 433.519 296.362 434.329 297.136L435.913 295.57C434.815 294.508 433.537 294.076 431.773 294.076C429.001 294.076 427.309 295.678 427.309 297.964C427.309 299.044 427.615 299.872 428.227 300.484C428.803 301.042 429.613 301.384 430.711 301.546L432.259 301.762C432.853 301.852 433.141 301.978 433.393 302.212C433.663 302.464 433.789 302.842 433.789 303.292C433.789 304.318 432.997 304.876 431.521 304.876C430.333 304.876 429.235 304.606 428.425 303.796L426.805 305.416C428.065 306.694 429.541 307.108 431.485 307.108C434.167 307.108 436.237 305.704 436.237 303.22ZM446.116 303.04V301.996C446.116 299.422 444.64 297.514 442.03 297.514C439.6 297.514 437.944 299.242 437.944 302.302C437.944 306.1 440.068 307.108 442.282 307.108C443.974 307.108 444.892 306.586 445.846 305.632L444.424 304.246C443.83 304.84 443.326 305.128 442.3 305.128C440.986 305.128 440.248 304.246 440.248 303.04H446.116ZM443.812 301.438H440.248C440.266 301.024 440.32 300.772 440.464 300.43C440.716 299.872 441.238 299.458 442.03 299.458C442.822 299.458 443.344 299.872 443.596 300.43C443.74 300.772 443.794 301.024 443.812 301.438ZM455.095 305.83L453.511 304.264C453.025 304.786 452.611 305.002 451.999 305.002C451.441 305.002 451.009 304.804 450.667 304.39C450.307 303.94 450.145 303.292 450.145 302.302C450.145 301.312 450.307 300.682 450.667 300.232C451.009 299.818 451.441 299.62 451.999 299.62C452.611 299.62 453.025 299.836 453.511 300.358L455.095 298.774C454.267 297.91 453.295 297.514 451.999 297.514C450.127 297.514 447.805 298.504 447.805 302.302C447.805 306.1 450.127 307.108 451.999 307.108C453.295 307.108 454.267 306.694 455.095 305.83ZM461.133 307V305.02H460.287C459.729 305.02 459.477 304.714 459.477 304.174V299.674H461.133V297.892H459.477V295.12H457.137V297.892H456.147V299.674H457.137V304.318C457.137 305.65 457.947 307 459.855 307H461.133ZM470.739 302.302C470.739 300.61 470.523 299.548 469.677 298.666C469.101 298.054 468.147 297.514 466.761 297.514C465.375 297.514 464.439 298.054 463.863 298.666C463.017 299.548 462.801 300.61 462.801 302.302C462.801 304.012 463.017 305.074 463.863 305.956C464.439 306.568 465.375 307.108 466.761 307.108C468.147 307.108 469.101 306.568 469.677 305.956C470.523 305.074 470.739 304.012 470.739 302.302ZM468.399 302.302C468.399 303.274 468.345 304.102 467.859 304.588C467.589 304.858 467.229 305.002 466.761 305.002C466.293 305.002 465.951 304.858 465.681 304.588C465.195 304.102 465.141 303.274 465.141 302.302C465.141 301.33 465.195 300.52 465.681 300.034C465.951 299.764 466.293 299.62 466.761 299.62C467.229 299.62 467.589 299.764 467.859 300.034C468.345 300.52 468.399 301.33 468.399 302.302ZM479.828 298.396C479.18 297.748 478.532 297.514 477.614 297.514C476.606 297.514 475.706 297.982 475.256 298.522V297.622H472.97V307H475.31V301.348C475.31 300.16 476.102 299.62 476.822 299.62C477.398 299.62 477.704 299.818 478.064 300.178L479.828 298.396ZM494.831 300.538C494.831 298.612 494.975 296.848 493.535 295.408C492.689 294.562 491.483 294.184 490.151 294.184H485.525V307H490.151C491.483 307 492.689 306.622 493.535 305.776C494.975 304.336 494.831 302.464 494.831 300.538ZM492.329 300.538C492.329 302.482 492.257 303.4 491.789 303.976C491.357 304.498 490.781 304.768 489.917 304.768H488.027V296.416H489.917C490.781 296.416 491.357 296.686 491.789 297.208C492.257 297.784 492.329 298.594 492.329 300.538ZM504.914 303.04V301.996C504.914 299.422 503.438 297.514 500.828 297.514C498.398 297.514 496.742 299.242 496.742 302.302C496.742 306.1 498.866 307.108 501.08 307.108C502.772 307.108 503.69 306.586 504.644 305.632L503.222 304.246C502.628 304.84 502.124 305.128 501.098 305.128C499.784 305.128 499.046 304.246 499.046 303.04H504.914ZM502.61 301.438H499.046C499.064 301.024 499.118 300.772 499.262 300.43C499.514 299.872 500.036 299.458 500.828 299.458C501.62 299.458 502.142 299.872 502.394 300.43C502.538 300.772 502.592 301.024 502.61 301.438ZM514.384 297.622H511.918L510.028 303.418L508.12 297.622H505.654L509.11 307H510.946L514.384 297.622ZM523.301 303.04V301.996C523.301 299.422 521.825 297.514 519.215 297.514C516.785 297.514 515.129 299.242 515.129 302.302C515.129 306.1 517.253 307.108 519.467 307.108C521.159 307.108 522.077 306.586 523.031 305.632L521.609 304.246C521.015 304.84 520.511 305.128 519.485 305.128C518.171 305.128 517.433 304.246 517.433 303.04H523.301ZM520.997 301.438H517.433C517.451 301.024 517.505 300.772 517.649 300.43C517.901 299.872 518.423 299.458 519.215 299.458C520.007 299.458 520.529 299.872 520.781 300.43C520.925 300.772 520.979 301.024 520.997 301.438ZM529.437 307V305.02H528.537C527.943 305.02 527.709 304.732 527.709 304.174V294.184H525.369V304.318C525.369 305.65 526.179 307 528.105 307H529.437ZM538.502 302.302C538.502 300.61 538.286 299.548 537.44 298.666C536.864 298.054 535.91 297.514 534.524 297.514C533.138 297.514 532.202 298.054 531.626 298.666C530.78 299.548 530.564 300.61 530.564 302.302C530.564 304.012 530.78 305.074 531.626 305.956C532.202 306.568 533.138 307.108 534.524 307.108C535.91 307.108 536.864 306.568 537.44 305.956C538.286 305.074 538.502 304.012 538.502 302.302ZM536.162 302.302C536.162 303.274 536.108 304.102 535.622 304.588C535.352 304.858 534.992 305.002 534.524 305.002C534.056 305.002 533.714 304.858 533.444 304.588C532.958 304.102 532.904 303.274 532.904 302.302C532.904 301.33 532.958 300.52 533.444 300.034C533.714 299.764 534.056 299.62 534.524 299.62C534.992 299.62 535.352 299.764 535.622 300.034C536.108 300.52 536.162 301.33 536.162 302.302ZM548.582 302.302C548.582 300.898 548.564 299.296 547.628 298.36C547.106 297.838 546.26 297.514 545.342 297.514C544.352 297.514 543.65 297.784 543.002 298.504V297.622H540.734V310.438H543.074V306.172C543.686 306.856 544.388 307.108 545.342 307.108C546.26 307.108 547.106 306.784 547.628 306.262C548.564 305.326 548.582 303.706 548.582 302.302ZM546.242 302.302C546.242 303.832 546.062 305.002 544.658 305.002C543.254 305.002 543.074 303.832 543.074 302.302C543.074 300.772 543.254 299.62 544.658 299.62C546.062 299.62 546.242 300.772 546.242 302.302ZM564.054 307V301.006C564.054 299.98 563.784 299.098 563.028 298.342C562.506 297.82 561.66 297.514 560.724 297.514C559.554 297.514 558.708 297.874 557.916 298.702C557.322 297.892 556.476 297.514 555.432 297.514C554.568 297.514 553.704 297.856 553.092 298.486V297.622H550.806V307H553.146V301.33C553.146 300.052 553.974 299.62 554.712 299.62C555.45 299.62 556.26 300.052 556.26 301.33V307H558.6V301.276C558.6 300.052 559.446 299.62 560.166 299.62C560.904 299.62 561.714 300.052 561.714 301.33V307H564.054ZM574.278 303.04V301.996C574.278 299.422 572.802 297.514 570.192 297.514C567.762 297.514 566.106 299.242 566.106 302.302C566.106 306.1 568.23 307.108 570.444 307.108C572.136 307.108 573.054 306.586 574.008 305.632L572.586 304.246C571.992 304.84 571.488 305.128 570.462 305.128C569.148 305.128 568.41 304.246 568.41 303.04H574.278ZM571.974 301.438H568.41C568.428 301.024 568.482 300.772 568.626 300.43C568.878 299.872 569.4 299.458 570.192 299.458C570.984 299.458 571.506 299.872 571.758 300.43C571.902 300.772 571.956 301.024 571.974 301.438ZM584.229 307V301.006C584.229 299.98 584.031 299.098 583.275 298.342C582.753 297.82 581.997 297.514 581.061 297.514C580.197 297.514 579.333 297.838 578.721 298.486V297.622H576.435V307H578.775V301.33C578.775 300.052 579.603 299.62 580.341 299.62C581.079 299.62 581.889 300.052 581.889 301.33V307H584.229ZM590.965 307V305.02H590.119C589.561 305.02 589.309 304.714 589.309 304.174V299.674H590.965V297.892H589.309V295.12H586.969V297.892H585.979V299.674H586.969V304.318C586.969 305.65 587.779 307 589.687 307H590.965Z" fill="black"/>
<rect x="629.375" y="269" width="62" height="62" rx="31" fill="#F3749C"/>
<path fill-rule="evenodd" clip-rule="evenodd" d="M662.375 289H658.375V298H649.375V302H658.375V311H662.375V302H671.375V298H662.375V289Z" fill="black"/>
<rect width="249" height="78" transform="translate(704.375 261)" fill="white"/>
<path d="M737.759 297.004V294.896H729.786V307H732.149V302.087H736.926V299.979H732.149V297.004H737.759ZM746.202 302.563C746.202 300.965 745.998 299.962 745.199 299.129C744.655 298.551 743.754 298.041 742.445 298.041C741.136 298.041 740.252 298.551 739.708 299.129C738.909 299.962 738.705 300.965 738.705 302.563C738.705 304.178 738.909 305.181 739.708 306.014C740.252 306.592 741.136 307.102 742.445 307.102C743.754 307.102 744.655 306.592 745.199 306.014C745.998 305.181 746.202 304.178 746.202 302.563ZM743.992 302.563C743.992 303.481 743.941 304.263 743.482 304.722C743.227 304.977 742.887 305.113 742.445 305.113C742.003 305.113 741.68 304.977 741.425 304.722C740.966 304.263 740.915 303.481 740.915 302.563C740.915 301.645 740.966 300.88 741.425 300.421C741.68 300.166 742.003 300.03 742.445 300.03C742.887 300.03 743.227 300.166 743.482 300.421C743.941 300.88 743.992 301.645 743.992 302.563ZM754.786 298.874C754.174 298.262 753.562 298.041 752.695 298.041C751.743 298.041 750.893 298.483 750.468 298.993V298.143H748.309V307H750.519V301.662C750.519 300.54 751.267 300.03 751.947 300.03C752.491 300.03 752.78 300.217 753.12 300.557L754.786 298.874ZM762.79 303.26V302.274C762.79 299.843 761.396 298.041 758.931 298.041C756.636 298.041 755.072 299.673 755.072 302.563C755.072 306.15 757.078 307.102 759.169 307.102C760.767 307.102 761.634 306.609 762.535 305.708L761.192 304.399C760.631 304.96 760.155 305.232 759.186 305.232C757.945 305.232 757.248 304.399 757.248 303.26H762.79ZM760.614 301.747H757.248C757.265 301.356 757.316 301.118 757.452 300.795C757.69 300.268 758.183 299.877 758.931 299.877C759.679 299.877 760.172 300.268 760.41 300.795C760.546 301.118 760.597 301.356 760.614 301.747ZM767.055 296.63V294.828H764.794V296.63H767.055ZM767.038 307V298.143H764.828V307H767.038ZM776.463 306.677V298.143H774.321V298.976C773.709 298.296 773.097 298.041 772.162 298.041C771.295 298.041 770.53 298.33 770.037 298.823C769.204 299.656 769.136 300.778 769.136 302.325C769.136 303.872 769.204 305.011 770.037 305.844C770.53 306.337 771.278 306.626 772.145 306.626C773.012 306.626 773.675 306.388 774.253 305.742V306.643C774.253 307.544 773.794 308.479 772.468 308.479C771.72 308.479 771.227 308.275 770.734 307.799L769.357 309.193C770.275 310.077 771.21 310.349 772.57 310.349C774.95 310.349 776.463 308.802 776.463 306.677ZM774.253 302.325C774.253 303.498 774.1 304.637 772.791 304.637C771.482 304.637 771.346 303.498 771.346 302.325C771.346 301.152 771.482 300.03 772.791 300.03C774.1 300.03 774.253 301.152 774.253 302.325ZM786.3 307V301.339C786.3 300.37 786.113 299.537 785.399 298.823C784.906 298.33 784.192 298.041 783.308 298.041C782.492 298.041 781.676 298.347 781.098 298.959V298.143H778.939V307H781.149V301.645C781.149 300.438 781.931 300.03 782.628 300.03C783.325 300.03 784.09 300.438 784.09 301.645V307H786.3ZM801.595 300.897C801.595 299.078 801.731 297.412 800.371 296.052C799.572 295.253 798.433 294.896 797.175 294.896H792.806V307H797.175C798.433 307 799.572 306.643 800.371 305.844C801.731 304.484 801.595 302.716 801.595 300.897ZM799.232 300.897C799.232 302.733 799.164 303.6 798.722 304.144C798.314 304.637 797.77 304.892 796.954 304.892H795.169V297.004H796.954C797.77 297.004 798.314 297.259 798.722 297.752C799.164 298.296 799.232 299.061 799.232 300.897ZM806.069 296.63V294.828H803.808V296.63H806.069ZM806.052 307V298.143H803.842V307H806.052ZM815 298.874C814.388 298.262 813.776 298.041 812.909 298.041C811.957 298.041 811.107 298.483 810.682 298.993V298.143H808.523V307H810.733V301.662C810.733 300.54 811.481 300.03 812.161 300.03C812.705 300.03 812.994 300.217 813.334 300.557L815 298.874ZM823.004 303.26V302.274C823.004 299.843 821.61 298.041 819.145 298.041C816.85 298.041 815.286 299.673 815.286 302.563C815.286 306.15 817.292 307.102 819.383 307.102C820.981 307.102 821.848 306.609 822.749 305.708L821.406 304.399C820.845 304.96 820.369 305.232 819.4 305.232C818.159 305.232 817.462 304.399 817.462 303.26H823.004ZM820.828 301.747H817.462C817.479 301.356 817.53 301.118 817.666 300.795C817.904 300.268 818.397 299.877 819.145 299.877C819.893 299.877 820.386 300.268 820.624 300.795C820.76 301.118 820.811 301.356 820.828 301.747ZM831.485 305.895L829.989 304.416C829.53 304.909 829.139 305.113 828.561 305.113C828.034 305.113 827.626 304.926 827.303 304.535C826.963 304.11 826.81 303.498 826.81 302.563C826.81 301.628 826.963 301.033 827.303 300.608C827.626 300.217 828.034 300.03 828.561 300.03C829.139 300.03 829.53 300.234 829.989 300.727L831.485 299.231C830.703 298.415 829.785 298.041 828.561 298.041C826.793 298.041 824.6 298.976 824.6 302.563C824.6 306.15 826.793 307.102 828.561 307.102C829.785 307.102 830.703 306.711 831.485 305.895ZM837.188 307V305.13H836.389C835.862 305.13 835.624 304.841 835.624 304.331V300.081H837.188V298.398H835.624V295.78H833.414V298.398H832.479V300.081H833.414V304.467C833.414 305.725 834.179 307 835.981 307H837.188ZM845.67 307V294.896H843.307V307H845.67ZM855.678 307V301.339C855.678 300.37 855.491 299.537 854.777 298.823C854.284 298.33 853.57 298.041 852.686 298.041C851.87 298.041 851.054 298.347 850.476 298.959V298.143H848.317V307H850.527V301.645C850.527 300.438 851.309 300.03 852.006 300.03C852.703 300.03 853.468 300.438 853.468 301.645V307H855.678ZM865.134 298.143H862.805L861.02 303.617L859.218 298.143H856.889L860.153 307H861.887L865.134 298.143ZM873.556 303.26V302.274C873.556 299.843 872.162 298.041 869.697 298.041C867.402 298.041 865.838 299.673 865.838 302.563C865.838 306.15 867.844 307.102 869.935 307.102C871.533 307.102 872.4 306.609 873.301 305.708L871.958 304.399C871.397 304.96 870.921 305.232 869.952 305.232C868.711 305.232 868.014 304.399 868.014 303.26H873.556ZM871.38 301.747H868.014C868.031 301.356 868.082 301.118 868.218 300.795C868.456 300.268 868.949 299.877 869.697 299.877C870.445 299.877 870.938 300.268 871.176 300.795C871.312 301.118 871.363 301.356 871.38 301.747ZM882.258 304.212C882.258 302.716 881.374 301.781 879.623 301.611L878.229 301.475C877.447 301.407 877.311 301.033 877.311 300.71C877.311 300.268 877.685 299.86 878.569 299.86C879.334 299.86 880.116 299.996 880.626 300.455L881.986 299.078C881.136 298.279 879.98 298.041 878.603 298.041C876.801 298.041 875.186 299.027 875.186 300.863C875.186 302.495 876.172 303.192 877.77 303.345L879.164 303.481C879.861 303.549 880.099 303.855 880.099 304.297C880.099 304.96 879.3 305.215 878.535 305.215C877.855 305.215 876.903 305.113 876.172 304.382L874.727 305.827C875.849 306.949 877.107 307.102 878.501 307.102C880.592 307.102 882.258 306.167 882.258 304.212ZM887.922 307V305.13H887.123C886.596 305.13 886.358 304.841 886.358 304.331V300.081H887.922V298.398H886.358V295.78H884.148V298.398H883.213V300.081H884.148V304.467C884.148 305.725 884.913 307 886.715 307H887.922ZM902.433 307V301.339C902.433 300.37 902.178 299.537 901.464 298.823C900.971 298.33 900.172 298.041 899.288 298.041C898.183 298.041 897.384 298.381 896.636 299.163C896.075 298.398 895.276 298.041 894.29 298.041C893.474 298.041 892.658 298.364 892.08 298.959V298.143H889.921V307H892.131V301.645C892.131 300.438 892.913 300.03 893.61 300.03C894.307 300.03 895.072 300.438 895.072 301.645V307H897.282V301.594C897.282 300.438 898.081 300.03 898.761 300.03C899.458 300.03 900.223 300.438 900.223 301.645V307H902.433ZM912.088 303.26V302.274C912.088 299.843 910.694 298.041 908.229 298.041C905.934 298.041 904.37 299.673 904.37 302.563C904.37 306.15 906.376 307.102 908.467 307.102C910.065 307.102 910.932 306.609 911.833 305.708L910.49 304.399C909.929 304.96 909.453 305.232 908.484 305.232C907.243 305.232 906.546 304.399 906.546 303.26H912.088ZM909.912 301.747H906.546C906.563 301.356 906.614 301.118 906.75 300.795C906.988 300.268 907.481 299.877 908.229 299.877C908.977 299.877 909.47 300.268 909.708 300.795C909.844 301.118 909.895 301.356 909.912 301.747ZM921.487 307V301.339C921.487 300.37 921.3 299.537 920.586 298.823C920.093 298.33 919.379 298.041 918.495 298.041C917.679 298.041 916.863 298.347 916.285 298.959V298.143H914.126V307H916.336V301.645C916.336 300.438 917.118 300.03 917.815 300.03C918.512 300.03 919.277 300.438 919.277 301.645V307H921.487ZM927.849 307V305.13H927.05C926.523 305.13 926.285 304.841 926.285 304.331V300.081H927.849V298.398H926.285V295.78H924.075V298.398H923.14V300.081H924.075V304.467C924.075 305.725 924.84 307 926.642 307H927.849Z" fill="black"/>
<circle cx="753.375" cy="473" r="52" fill="#6A1840"/>
<path d="M737.307 481V467.472H734.666V475.756L729.308 467.472H726.952V481H729.593V472.697L734.951 481H737.307ZM750.283 474.179C750.283 472.146 750.435 470.284 748.915 468.764C748.022 467.871 746.749 467.472 745.343 467.472H740.46V481H745.343C746.749 481 748.022 480.601 748.915 479.708C750.435 478.188 750.283 476.212 750.283 474.179ZM747.642 474.179C747.642 476.231 747.566 477.2 747.072 477.808C746.616 478.359 746.008 478.644 745.096 478.644H743.101V469.828H745.096C746.008 469.828 746.616 470.113 747.072 470.664C747.566 471.272 747.642 472.127 747.642 474.179ZM761.724 477.01C761.724 475.813 761.401 474.825 760.679 474.141C760.109 473.609 759.33 473.267 758.095 473.096L756.499 472.868C755.948 472.792 755.511 472.583 755.245 472.336C754.96 472.07 754.846 471.709 754.846 471.367C754.846 470.436 755.53 469.657 756.936 469.657C757.829 469.657 758.855 469.771 759.71 470.588L761.382 468.935C760.223 467.814 758.874 467.358 757.012 467.358C754.086 467.358 752.3 469.049 752.3 471.462C752.3 472.602 752.623 473.476 753.269 474.122C753.877 474.711 754.732 475.072 755.891 475.243L757.525 475.471C758.152 475.566 758.456 475.699 758.722 475.946C759.007 476.212 759.14 476.611 759.14 477.086C759.14 478.169 758.304 478.758 756.746 478.758C755.492 478.758 754.333 478.473 753.478 477.618L751.768 479.328C753.098 480.677 754.656 481.114 756.708 481.114C759.539 481.114 761.724 479.632 761.724 477.01ZM769.606 476.725V474.426H763.754V476.725H769.606ZM780.071 481V478.777H774.846L778.627 474.388C779.558 473.305 780.071 472.602 780.071 471.291C780.071 468.859 778.361 467.358 775.967 467.358C773.649 467.358 771.844 468.84 771.844 471.31H774.314C774.314 469.999 775.15 469.581 775.967 469.581C777.012 469.581 777.601 470.265 777.601 471.272C777.601 471.899 777.392 472.317 776.898 472.906L771.844 478.777V481H780.071Z" fill="white"/>
<rect x="271.375" width="110" height="110" rx="55" fill="black"/>
<path d="M310.823 48.968L309.359 47.504C310.439 45.92 310.415 44.024 310.415 41.456C310.415 38.504 310.439 36.368 308.711 34.64C307.511 33.44 306.047 32.768 304.103 32.768C302.159 32.768 300.671 33.44 299.471 34.64C297.743 36.368 297.791 38.504 297.791 41.456C297.791 44.408 297.743 46.544 299.471 48.272C300.671 49.472 302.159 50.144 304.103 50.144C305.447 50.144 306.599 49.832 307.559 49.208L309.071 50.72L310.823 48.968ZM307.079 41.456C307.079 43.184 307.031 44.168 306.767 44.912L305.495 43.64L303.719 45.392L305.207 46.856C304.895 47.072 304.511 47.168 304.103 47.168C303.191 47.168 302.423 46.808 301.943 46.256C301.295 45.536 301.127 44.744 301.127 41.456C301.127 38.168 301.295 37.376 301.943 36.656C302.423 36.104 303.191 35.744 304.103 35.744C305.015 35.744 305.759 36.104 306.239 36.656C306.887 37.376 307.079 38.168 307.079 41.456ZM326.725 50L322.909 42.632C324.565 42.032 326.029 40.544 326.029 38.144C326.029 35.288 323.965 32.912 320.485 32.912H313.789V50H317.125V43.184H319.525L322.861 50H326.725ZM322.693 38.144C322.693 39.464 321.733 40.4 320.269 40.4H317.125V35.888H320.269C321.733 35.888 322.693 36.824 322.693 38.144ZM341.9 41.384C341.9 38.816 342.092 36.464 340.172 34.544C339.044 33.416 337.436 32.912 335.66 32.912H329.492V50H335.66C337.436 50 339.044 49.496 340.172 48.368C342.092 46.448 341.9 43.952 341.9 41.384ZM338.564 41.384C338.564 43.976 338.468 45.2 337.844 45.968C337.268 46.664 336.5 47.024 335.348 47.024H332.828V35.888H335.348C336.5 35.888 337.268 36.248 337.844 36.944C338.468 37.712 338.564 38.792 338.564 41.384ZM348.648 50V32.912H345.312V50H348.648ZM308.183 80V77.192H301.583L306.359 71.648C307.535 70.28 308.183 69.392 308.183 67.736C308.183 64.664 306.023 62.768 302.999 62.768C300.071 62.768 297.791 64.64 297.791 67.76H300.911C300.911 66.104 301.967 65.576 302.999 65.576C304.319 65.576 305.063 66.44 305.063 67.712C305.063 68.504 304.799 69.032 304.175 69.776L297.791 77.192V80H308.183ZM321.118 75.056V67.856C321.118 64.592 318.718 62.768 315.934 62.768C313.15 62.768 310.726 64.592 310.726 67.856V75.056C310.726 78.32 313.15 80.144 315.934 80.144C318.718 80.144 321.118 78.32 321.118 75.056ZM317.998 75.032C317.998 76.472 317.158 77.336 315.934 77.336C314.71 77.336 313.846 76.472 313.846 75.032V67.904C313.846 66.464 314.71 65.576 315.934 65.576C317.158 65.576 317.998 66.464 317.998 67.904V75.032ZM334.318 75.056C334.318 72.992 333.334 71.816 332.11 71.168C333.238 70.568 334.078 69.512 334.078 67.664C334.078 64.784 331.894 62.768 328.87 62.768C325.99 62.768 323.71 64.592 323.638 67.64H326.758C326.83 66.344 327.694 65.576 328.87 65.576C329.998 65.576 330.958 66.32 330.958 67.76C330.958 68.96 330.31 69.896 328.798 69.896H328.342V72.608H328.798C330.334 72.608 331.198 73.544 331.198 74.96C331.198 76.496 330.238 77.336 328.894 77.336C327.67 77.336 326.614 76.64 326.566 75.104H323.446C323.494 78.68 326.11 80.144 328.894 80.144C331.822 80.144 334.318 78.464 334.318 75.056ZM347.181 75.056V67.856C347.181 64.592 344.781 62.768 341.997 62.768C339.213 62.768 336.789 64.592 336.789 67.856V75.056C336.789 78.32 339.213 80.144 341.997 80.144C344.781 80.144 347.181 78.32 347.181 75.056ZM344.061 75.032C344.061 76.472 343.221 77.336 341.997 77.336C340.773 77.336 339.909 76.472 339.909 75.032V67.904C339.909 66.464 340.773 65.576 341.997 65.576C343.221 65.576 344.061 66.464 344.061 67.904V75.032Z" fill="white"/>
<circle cx="865.375" cy="118" r="93" fill="#6A1840"/>
<path d="M823.521 110V107.024H815.601V102.872H822.345V99.896H815.601V95.888H823.521V92.912H812.265V110H823.521ZM835.653 108.44L833.541 106.352C832.893 107.048 832.341 107.336 831.525 107.336C830.781 107.336 830.205 107.072 829.749 106.52C829.269 105.92 829.053 105.056 829.053 103.736C829.053 102.416 829.269 101.576 829.749 100.976C830.205 100.424 830.781 100.16 831.525 100.16C832.341 100.16 832.893 100.448 833.541 101.144L835.653 99.032C834.549 97.88 833.253 97.352 831.525 97.352C829.029 97.352 825.933 98.672 825.933 103.736C825.933 108.8 829.029 110.144 831.525 110.144C833.253 110.144 834.549 109.592 835.653 108.44ZM847.722 103.736C847.722 101.48 847.434 100.064 846.306 98.888C845.538 98.072 844.266 97.352 842.418 97.352C840.57 97.352 839.322 98.072 838.554 98.888C837.426 100.064 837.138 101.48 837.138 103.736C837.138 106.016 837.426 107.432 838.554 108.608C839.322 109.424 840.57 110.144 842.418 110.144C844.266 110.144 845.538 109.424 846.306 108.608C847.434 107.432 847.722 106.016 847.722 103.736ZM844.602 103.736C844.602 105.032 844.53 106.136 843.882 106.784C843.522 107.144 843.042 107.336 842.418 107.336C841.794 107.336 841.338 107.144 840.978 106.784C840.33 106.136 840.258 105.032 840.258 103.736C840.258 102.44 840.33 101.36 840.978 100.712C841.338 100.352 841.794 100.16 842.418 100.16C843.042 100.16 843.522 100.352 843.882 100.712C844.53 101.36 844.602 102.44 844.602 103.736ZM861.089 110V102.008C861.089 100.64 860.825 99.464 859.817 98.456C859.121 97.76 858.113 97.352 856.865 97.352C855.713 97.352 854.561 97.784 853.745 98.648V97.496H850.697V110H853.817V102.44C853.817 100.736 854.921 100.16 855.905 100.16C856.889 100.16 857.969 100.736 857.969 102.44V110H861.089ZM874.511 103.736C874.511 101.48 874.223 100.064 873.095 98.888C872.327 98.072 871.055 97.352 869.207 97.352C867.359 97.352 866.111 98.072 865.343 98.888C864.215 100.064 863.927 101.48 863.927 103.736C863.927 106.016 864.215 107.432 865.343 108.608C866.111 109.424 867.359 110.144 869.207 110.144C871.055 110.144 872.327 109.424 873.095 108.608C874.223 107.432 874.511 106.016 874.511 103.736ZM871.391 103.736C871.391 105.032 871.319 106.136 870.671 106.784C870.311 107.144 869.831 107.336 869.207 107.336C868.583 107.336 868.127 107.144 867.767 106.784C867.119 106.136 867.047 105.032 867.047 103.736C867.047 102.44 867.119 101.36 867.767 100.712C868.127 100.352 868.583 100.16 869.207 100.16C869.831 100.16 870.311 100.352 870.671 100.712C871.319 101.36 871.391 102.44 871.391 103.736ZM895.15 110V102.008C895.15 100.64 894.79 99.464 893.782 98.456C893.086 97.76 891.958 97.352 890.71 97.352C889.15 97.352 888.022 97.832 886.966 98.936C886.174 97.856 885.046 97.352 883.654 97.352C882.502 97.352 881.35 97.808 880.534 98.648V97.496H877.486V110H880.606V102.44C880.606 100.736 881.71 100.16 882.694 100.16C883.678 100.16 884.758 100.736 884.758 102.44V110H887.878V102.368C887.878 100.736 889.006 100.16 889.966 100.16C890.95 100.16 892.03 100.736 892.03 102.44V110H895.15ZM901.654 95.36V92.816H898.462V95.36H901.654ZM901.63 110V97.496H898.51V110H901.63ZM914.215 108.44L912.103 106.352C911.455 107.048 910.903 107.336 910.087 107.336C909.343 107.336 908.767 107.072 908.311 106.52C907.831 105.92 907.615 105.056 907.615 103.736C907.615 102.416 907.831 101.576 908.311 100.976C908.767 100.424 909.343 100.16 910.087 100.16C910.903 100.16 911.455 100.448 912.103 101.144L914.215 99.032C913.111 97.88 911.815 97.352 910.087 97.352C907.591 97.352 904.495 98.672 904.495 103.736C904.495 108.8 907.591 110.144 910.087 110.144C911.815 110.144 913.111 109.592 914.215 108.44ZM801.072 131.384C801.072 128.816 801.264 126.464 799.344 124.544C798.216 123.416 796.608 122.912 794.832 122.912H788.664V140H794.832C796.608 140 798.216 139.496 799.344 138.368C801.264 136.448 801.072 133.952 801.072 131.384ZM797.736 131.384C797.736 133.976 797.64 135.2 797.016 135.968C796.44 136.664 795.672 137.024 794.52 137.024H792V125.888H794.52C795.672 125.888 796.44 126.248 797.016 126.944C797.64 127.712 797.736 128.792 797.736 131.384ZM807.388 125.36V122.816H804.196V125.36H807.388ZM807.364 140V127.496H804.244V140H807.364ZM820.838 127.496H817.55L815.03 135.224L812.486 127.496H809.198L813.806 140H816.254L820.838 127.496ZM832.727 134.72V133.328C832.727 129.896 830.759 127.352 827.279 127.352C824.039 127.352 821.831 129.656 821.831 133.736C821.831 138.8 824.663 140.144 827.615 140.144C829.871 140.144 831.095 139.448 832.367 138.176L830.471 136.328C829.679 137.12 829.007 137.504 827.639 137.504C825.887 137.504 824.903 136.328 824.903 134.72H832.727ZM829.655 132.584H824.903C824.927 132.032 824.999 131.696 825.191 131.24C825.527 130.496 826.223 129.944 827.279 129.944C828.335 129.944 829.031 130.496 829.367 131.24C829.559 131.696 829.631 132.032 829.655 132.584ZM844.748 128.528C843.884 127.664 843.02 127.352 841.796 127.352C840.452 127.352 839.252 127.976 838.652 128.696V127.496H835.604V140H838.724V132.464C838.724 130.88 839.78 130.16 840.74 130.16C841.508 130.16 841.916 130.424 842.396 130.904L844.748 128.528ZM855.699 136.064C855.699 133.952 854.451 132.632 851.979 132.392L850.011 132.2C848.907 132.104 848.715 131.576 848.715 131.12C848.715 130.496 849.243 129.92 850.491 129.92C851.571 129.92 852.675 130.112 853.395 130.76L855.315 128.816C854.115 127.688 852.483 127.352 850.539 127.352C847.995 127.352 845.715 128.744 845.715 131.336C845.715 133.64 847.107 134.624 849.363 134.84L851.331 135.032C852.315 135.128 852.651 135.56 852.651 136.184C852.651 137.12 851.523 137.48 850.443 137.48C849.483 137.48 848.139 137.336 847.107 136.304L845.067 138.344C846.651 139.928 848.427 140.144 850.395 140.144C853.347 140.144 855.699 138.824 855.699 136.064ZM861.459 125.36V122.816H858.267V125.36H861.459ZM861.435 140V127.496H858.315V140H861.435ZM870.732 130.232V127.856H868.428V126.488C868.428 125.768 868.764 125.36 869.508 125.36H870.732V122.72H868.956C866.412 122.72 865.308 124.52 865.308 126.296V127.856H864.012V130.232H865.308V140H868.428V130.232H870.732ZM876.271 125.36V122.816H873.079V125.36H876.271ZM876.247 140V127.496H873.127V140H876.247ZM888.832 138.44L886.72 136.352C886.072 137.048 885.52 137.336 884.704 137.336C883.96 137.336 883.384 137.072 882.928 136.52C882.448 135.92 882.232 135.056 882.232 133.736C882.232 132.416 882.448 131.576 882.928 130.976C883.384 130.424 883.96 130.16 884.704 130.16C885.52 130.16 886.072 130.448 886.72 131.144L888.832 129.032C887.728 127.88 886.432 127.352 884.704 127.352C882.208 127.352 879.112 128.672 879.112 133.736C879.112 138.8 882.208 140.144 884.704 140.144C886.432 140.144 887.728 139.592 888.832 138.44ZM900.63 140V131.768C900.63 128.84 898.806 127.352 895.302 127.352C893.214 127.352 892.014 127.736 890.79 129.08L892.782 131.024C893.43 130.28 893.982 129.992 895.182 129.992C896.838 129.992 897.51 130.592 897.51 131.96V132.584H894.558C891.654 132.584 890.286 134.216 890.286 136.208C890.286 137.312 890.646 138.32 891.318 139.016C892.062 139.76 893.094 140.12 894.51 140.12C895.95 140.12 896.742 139.76 897.582 138.92V140H900.63ZM897.51 135.392C897.51 136.16 897.39 136.664 897.054 136.976C896.502 137.504 895.95 137.576 895.086 137.576C893.862 137.576 893.286 137 893.286 136.136C893.286 135.248 893.91 134.72 895.038 134.72H897.51V135.392ZM909.61 140V137.36H908.482C907.738 137.36 907.402 136.952 907.402 136.232V130.232H909.61V127.856H907.402V124.16H904.282V127.856H902.962V130.232H904.282V136.424C904.282 138.2 905.362 140 907.906 140H909.61ZM915.576 125.36V122.816H912.384V125.36H915.576ZM915.552 140V127.496H912.432V140H915.552ZM929.097 133.736C929.097 131.48 928.809 130.064 927.681 128.888C926.913 128.072 925.641 127.352 923.793 127.352C921.945 127.352 920.697 128.072 919.929 128.888C918.801 130.064 918.513 131.48 918.513 133.736C918.513 136.016 918.801 137.432 919.929 138.608C920.697 139.424 921.945 140.144 923.793 140.144C925.641 140.144 926.913 139.424 927.681 138.608C928.809 137.432 929.097 136.016 929.097 133.736ZM925.977 133.736C925.977 135.032 925.905 136.136 925.257 136.784C924.897 137.144 924.417 137.336 923.793 137.336C923.169 137.336 922.713 137.144 922.353 136.784C921.705 136.136 921.633 135.032 921.633 133.736C921.633 132.44 921.705 131.36 922.353 130.712C922.713 130.352 923.169 130.16 923.793 130.16C924.417 130.16 924.897 130.352 925.257 130.712C925.905 131.36 925.977 132.44 925.977 133.736ZM942.464 140V132.008C942.464 130.64 942.2 129.464 941.192 128.456C940.496 127.76 939.488 127.352 938.24 127.352C937.088 127.352 935.936 127.784 935.12 128.648V127.496H932.072V140H935.192V132.44C935.192 130.736 936.296 130.16 937.28 130.16C938.264 130.16 939.344 130.736 939.344 132.44V140H942.464Z" fill="white"/>
<ellipse cx="199" cy="520.352" rx="69" ry="70.3963" fill="black"/>
<path d="M166.446 516.887V514.407H159.846V510.947H165.466V508.467H159.846V505.127H166.446V502.647H157.066V516.887H166.446ZM176.556 515.587L174.796 513.847C174.256 514.427 173.796 514.667 173.116 514.667C172.496 514.667 172.016 514.447 171.636 513.987C171.236 513.487 171.056 512.767 171.056 511.667C171.056 510.567 171.236 509.867 171.636 509.367C172.016 508.907 172.496 508.687 173.116 508.687C173.796 508.687 174.256 508.927 174.796 509.507L176.556 507.747C175.636 506.787 174.556 506.347 173.116 506.347C171.036 506.347 168.456 507.447 168.456 511.667C168.456 515.887 171.036 517.007 173.116 517.007C174.556 517.007 175.636 516.547 176.556 515.587ZM186.613 511.667C186.613 509.787 186.373 508.607 185.433 507.627C184.793 506.947 183.733 506.347 182.193 506.347C180.653 506.347 179.613 506.947 178.973 507.627C178.033 508.607 177.793 509.787 177.793 511.667C177.793 513.567 178.033 514.747 178.973 515.727C179.613 516.407 180.653 517.007 182.193 517.007C183.733 517.007 184.793 516.407 185.433 515.727C186.373 514.747 186.613 513.567 186.613 511.667ZM184.013 511.667C184.013 512.747 183.953 513.667 183.413 514.207C183.113 514.507 182.713 514.667 182.193 514.667C181.673 514.667 181.293 514.507 180.993 514.207C180.453 513.667 180.393 512.747 180.393 511.667C180.393 510.587 180.453 509.687 180.993 509.147C181.293 508.847 181.673 508.687 182.193 508.687C182.713 508.687 183.113 508.847 183.413 509.147C183.953 509.687 184.013 510.587 184.013 511.667ZM197.753 516.887V510.227C197.753 509.087 197.533 508.107 196.693 507.267C196.113 506.687 195.273 506.347 194.233 506.347C193.273 506.347 192.313 506.707 191.633 507.427V506.467H189.093V516.887H191.693V510.587C191.693 509.167 192.613 508.687 193.433 508.687C194.253 508.687 195.153 509.167 195.153 510.587V516.887H197.753ZM208.938 511.667C208.938 509.787 208.698 508.607 207.758 507.627C207.118 506.947 206.058 506.347 204.518 506.347C202.978 506.347 201.938 506.947 201.298 507.627C200.358 508.607 200.118 509.787 200.118 511.667C200.118 513.567 200.358 514.747 201.298 515.727C201.938 516.407 202.978 517.007 204.518 517.007C206.058 517.007 207.118 516.407 207.758 515.727C208.698 514.747 208.938 513.567 208.938 511.667ZM206.338 511.667C206.338 512.747 206.278 513.667 205.738 514.207C205.438 514.507 205.038 514.667 204.518 514.667C203.998 514.667 203.618 514.507 203.318 514.207C202.778 513.667 202.718 512.747 202.718 511.667C202.718 510.587 202.778 509.687 203.318 509.147C203.618 508.847 203.998 508.687 204.518 508.687C205.038 508.687 205.438 508.847 205.738 509.147C206.278 509.687 206.338 510.587 206.338 511.667ZM226.137 516.887V510.227C226.137 509.087 225.837 508.107 224.997 507.267C224.417 506.687 223.477 506.347 222.437 506.347C221.137 506.347 220.197 506.747 219.317 507.667C218.657 506.767 217.717 506.347 216.557 506.347C215.597 506.347 214.637 506.727 213.957 507.427V506.467H211.417V516.887H214.017V510.587C214.017 509.167 214.937 508.687 215.757 508.687C216.577 508.687 217.477 509.167 217.477 510.587V516.887H220.077V510.527C220.077 509.167 221.017 508.687 221.817 508.687C222.637 508.687 223.537 509.167 223.537 510.587V516.887H226.137ZM231.557 504.687V502.567H228.897V504.687H231.557ZM231.537 516.887V506.467H228.937V516.887H231.537ZM242.024 515.587L240.264 513.847C239.724 514.427 239.264 514.667 238.584 514.667C237.964 514.667 237.484 514.447 237.104 513.987C236.704 513.487 236.524 512.767 236.524 511.667C236.524 510.567 236.704 509.867 237.104 509.367C237.484 508.907 237.964 508.687 238.584 508.687C239.264 508.687 239.724 508.927 240.264 509.507L242.024 507.747C241.104 506.787 240.024 506.347 238.584 506.347C236.504 506.347 233.924 507.447 233.924 511.667C233.924 515.887 236.504 517.007 238.584 517.007C240.024 517.007 241.104 516.547 242.024 515.587ZM151.146 532.707C151.146 530.567 151.306 528.607 149.706 527.007C148.766 526.067 147.426 525.647 145.946 525.647H140.806V539.887H145.946C147.426 539.887 148.766 539.467 149.706 538.527C151.306 536.927 151.146 534.847 151.146 532.707ZM148.366 532.707C148.366 534.867 148.286 535.887 147.766 536.527C147.286 537.107 146.646 537.407 145.686 537.407H143.586V528.127H145.686C146.646 528.127 147.286 528.427 147.766 529.007C148.286 529.647 148.366 530.547 148.366 532.707ZM162.35 535.487V534.327C162.35 531.467 160.71 529.347 157.81 529.347C155.11 529.347 153.27 531.267 153.27 534.667C153.27 538.887 155.63 540.007 158.09 540.007C159.97 540.007 160.99 539.427 162.05 538.367L160.47 536.827C159.81 537.487 159.25 537.807 158.11 537.807C156.65 537.807 155.83 536.827 155.83 535.487H162.35ZM159.79 533.707H155.83C155.85 533.247 155.91 532.967 156.07 532.587C156.35 531.967 156.93 531.507 157.81 531.507C158.69 531.507 159.27 531.967 159.55 532.587C159.71 532.967 159.77 533.247 159.79 533.707ZM172.872 529.467H170.132L168.032 535.907L165.912 529.467H163.172L167.012 539.887H169.052L172.872 529.467ZM182.78 535.487V534.327C182.78 531.467 181.14 529.347 178.24 529.347C175.54 529.347 173.7 531.267 173.7 534.667C173.7 538.887 176.06 540.007 178.52 540.007C180.4 540.007 181.42 539.427 182.48 538.367L180.9 536.827C180.24 537.487 179.68 537.807 178.54 537.807C177.08 537.807 176.26 536.827 176.26 535.487H182.78ZM180.22 533.707H176.26C176.28 533.247 176.34 532.967 176.5 532.587C176.78 531.967 177.36 531.507 178.24 531.507C179.12 531.507 179.7 531.967 179.98 532.587C180.14 532.967 180.2 533.247 180.22 533.707ZM189.597 539.887V537.687H188.597C187.937 537.687 187.677 537.367 187.677 536.747V525.647H185.077V536.907C185.077 538.387 185.977 539.887 188.117 539.887H189.597ZM199.67 534.667C199.67 532.787 199.43 531.607 198.49 530.627C197.85 529.947 196.79 529.347 195.25 529.347C193.71 529.347 192.67 529.947 192.03 530.627C191.09 531.607 190.85 532.787 190.85 534.667C190.85 536.567 191.09 537.747 192.03 538.727C192.67 539.407 193.71 540.007 195.25 540.007C196.79 540.007 197.85 539.407 198.49 538.727C199.43 537.747 199.67 536.567 199.67 534.667ZM197.07 534.667C197.07 535.747 197.01 536.667 196.47 537.207C196.17 537.507 195.77 537.667 195.25 537.667C194.73 537.667 194.35 537.507 194.05 537.207C193.51 536.667 193.45 535.747 193.45 534.667C193.45 533.587 193.51 532.687 194.05 532.147C194.35 531.847 194.73 531.687 195.25 531.687C195.77 531.687 196.17 531.847 196.47 532.147C197.01 532.687 197.07 533.587 197.07 534.667ZM210.869 534.667C210.869 533.107 210.849 531.327 209.809 530.287C209.229 529.707 208.289 529.347 207.269 529.347C206.169 529.347 205.389 529.647 204.669 530.447V529.467H202.149V543.707H204.749V538.967C205.429 539.727 206.209 540.007 207.269 540.007C208.289 540.007 209.229 539.647 209.809 539.067C210.849 538.027 210.869 536.227 210.869 534.667ZM208.269 534.667C208.269 536.367 208.069 537.667 206.509 537.667C204.949 537.667 204.749 536.367 204.749 534.667C204.749 532.967 204.949 531.687 206.509 531.687C208.069 531.687 208.269 532.967 208.269 534.667ZM228.061 539.887V533.227C228.061 532.087 227.761 531.107 226.921 530.267C226.341 529.687 225.401 529.347 224.361 529.347C223.061 529.347 222.121 529.747 221.241 530.667C220.581 529.767 219.641 529.347 218.481 529.347C217.521 529.347 216.561 529.727 215.881 530.427V529.467H213.341V539.887H215.941V533.587C215.941 532.167 216.861 531.687 217.681 531.687C218.501 531.687 219.401 532.167 219.401 533.587V539.887H222.001V533.527C222.001 532.167 222.941 531.687 223.741 531.687C224.561 531.687 225.461 532.167 225.461 533.587V539.887H228.061ZM239.42 535.487V534.327C239.42 531.467 237.78 529.347 234.88 529.347C232.18 529.347 230.34 531.267 230.34 534.667C230.34 538.887 232.7 540.007 235.16 540.007C237.04 540.007 238.06 539.427 239.12 538.367L237.54 536.827C236.88 537.487 236.32 537.807 235.18 537.807C233.72 537.807 232.9 536.827 232.9 535.487H239.42ZM236.86 533.707H232.9C232.92 533.247 232.98 532.967 233.14 532.587C233.42 531.967 234 531.507 234.88 531.507C235.76 531.507 236.34 531.967 236.62 532.587C236.78 532.967 236.84 533.247 236.86 533.707ZM250.477 539.887V533.227C250.477 532.087 250.257 531.107 249.417 530.267C248.837 529.687 247.997 529.347 246.957 529.347C245.997 529.347 245.037 529.707 244.357 530.427V529.467H241.817V539.887H244.417V533.587C244.417 532.167 245.337 531.687 246.157 531.687C246.977 531.687 247.877 532.167 247.877 533.587V539.887H250.477ZM257.962 539.887V537.687H257.022C256.402 537.687 256.122 537.347 256.122 536.747V531.747H257.962V529.767H256.122V526.687H253.522V529.767H252.422V531.747H253.522V536.907C253.522 538.387 254.422 539.887 256.542 539.887H257.962Z" fill="white"/>
<ellipse cx="662.875" cy="157.776" rx="28.5" ry="29.0767" fill="#B7B7B7"/>
<path d="M652.911 162.124V153.58H651.243V158.812L647.859 153.58H646.371V162.124H648.039V156.88L651.423 162.124H652.911ZM661.106 157.816C661.106 156.532 661.202 155.356 660.242 154.396C659.678 153.832 658.874 153.58 657.986 153.58H654.902V162.124H657.986C658.874 162.124 659.678 161.872 660.242 161.308C661.202 160.348 661.106 159.1 661.106 157.816ZM659.438 157.816C659.438 159.112 659.39 159.724 659.078 160.108C658.79 160.456 658.406 160.636 657.83 160.636H656.57V155.068H657.83C658.406 155.068 658.79 155.248 659.078 155.596C659.39 155.98 659.438 156.52 659.438 157.816ZM668.332 159.604C668.332 158.848 668.128 158.224 667.672 157.792C667.312 157.456 666.82 157.24 666.04 157.132L665.032 156.988C664.684 156.94 664.408 156.808 664.24 156.652C664.06 156.484 663.988 156.256 663.988 156.04C663.988 155.452 664.42 154.96 665.308 154.96C665.872 154.96 666.52 155.032 667.06 155.548L668.116 154.504C667.384 153.796 666.532 153.508 665.356 153.508C663.508 153.508 662.38 154.576 662.38 156.1C662.38 156.82 662.584 157.372 662.992 157.78C663.376 158.152 663.916 158.38 664.648 158.488L665.68 158.632C666.076 158.692 666.268 158.776 666.436 158.932C666.616 159.1 666.7 159.352 666.7 159.652C666.7 160.336 666.172 160.708 665.188 160.708C664.396 160.708 663.664 160.528 663.124 159.988L662.044 161.068C662.884 161.92 663.868 162.196 665.164 162.196C666.952 162.196 668.332 161.26 668.332 159.604ZM673.31 159.424V157.972H669.614V159.424H673.31ZM678.552 162.124V153.58H676.992L675.252 155.092V156.772L676.992 155.26V162.124H678.552Z" fill="black"/>
<circle cx="125.875" cy="172" r="69" fill="#6A1840"/>
<path d="M88.8068 161.538C88.8068 159.612 88.9508 157.848 87.5108 156.408C86.6648 155.562 85.4588 155.184 84.1268 155.184H79.5008V168H84.1268C85.4588 168 86.6648 167.622 87.5108 166.776C88.9508 165.336 88.8068 163.464 88.8068 161.538ZM86.3048 161.538C86.3048 163.482 86.2328 164.4 85.7648 164.976C85.3328 165.498 84.7568 165.768 83.8928 165.768H82.0028V157.416H83.8928C84.7568 157.416 85.3328 157.686 85.7648 158.208C86.2328 158.784 86.3048 159.594 86.3048 161.538ZM98.8901 164.04V162.996C98.8901 160.422 97.4141 158.514 94.8041 158.514C92.3741 158.514 90.7181 160.242 90.7181 163.302C90.7181 167.1 92.8421 168.108 95.0561 168.108C96.7481 168.108 97.6661 167.586 98.6201 166.632L97.1981 165.246C96.6041 165.84 96.1001 166.128 95.0741 166.128C93.7601 166.128 93.0221 165.246 93.0221 164.04H98.8901ZM96.5861 162.438H93.0221C93.0401 162.024 93.0941 161.772 93.2381 161.43C93.4901 160.872 94.0121 160.458 94.8041 160.458C95.5961 160.458 96.1181 160.872 96.3701 161.43C96.5141 161.772 96.5681 162.024 96.5861 162.438ZM108.36 158.622H105.894L104.004 164.418L102.096 158.622H99.6296L103.086 168H104.922L108.36 158.622ZM117.277 164.04V162.996C117.277 160.422 115.801 158.514 113.191 158.514C110.761 158.514 109.105 160.242 109.105 163.302C109.105 167.1 111.229 168.108 113.443 168.108C115.135 168.108 116.053 167.586 117.007 166.632L115.585 165.246C114.991 165.84 114.487 166.128 113.461 166.128C112.147 166.128 111.409 165.246 111.409 164.04H117.277ZM114.973 162.438H111.409C111.427 162.024 111.481 161.772 111.625 161.43C111.877 160.872 112.399 160.458 113.191 160.458C113.983 160.458 114.505 160.872 114.757 161.43C114.901 161.772 114.955 162.024 114.973 162.438ZM123.412 168V166.02H122.512C121.918 166.02 121.684 165.732 121.684 165.174V155.184H119.344V165.318C119.344 166.65 120.154 168 122.08 168H123.412ZM132.478 163.302C132.478 161.61 132.262 160.548 131.416 159.666C130.84 159.054 129.886 158.514 128.5 158.514C127.114 158.514 126.178 159.054 125.602 159.666C124.756 160.548 124.54 161.61 124.54 163.302C124.54 165.012 124.756 166.074 125.602 166.956C126.178 167.568 127.114 168.108 128.5 168.108C129.886 168.108 130.84 167.568 131.416 166.956C132.262 166.074 132.478 165.012 132.478 163.302ZM130.138 163.302C130.138 164.274 130.084 165.102 129.598 165.588C129.328 165.858 128.968 166.002 128.5 166.002C128.032 166.002 127.69 165.858 127.42 165.588C126.934 165.102 126.88 164.274 126.88 163.302C126.88 162.33 126.934 161.52 127.42 161.034C127.69 160.764 128.032 160.62 128.5 160.62C128.968 160.62 129.328 160.764 129.598 161.034C130.084 161.52 130.138 162.33 130.138 163.302ZM142.558 163.302C142.558 161.898 142.54 160.296 141.604 159.36C141.082 158.838 140.236 158.514 139.318 158.514C138.328 158.514 137.626 158.784 136.978 159.504V158.622H134.71V171.438H137.05V167.172C137.662 167.856 138.364 168.108 139.318 168.108C140.236 168.108 141.082 167.784 141.604 167.262C142.54 166.326 142.558 164.706 142.558 163.302ZM140.218 163.302C140.218 164.832 140.038 166.002 138.634 166.002C137.23 166.002 137.05 164.832 137.05 163.302C137.05 161.772 137.23 160.62 138.634 160.62C140.038 160.62 140.218 161.772 140.218 163.302ZM158.03 168V162.006C158.03 160.98 157.76 160.098 157.004 159.342C156.482 158.82 155.636 158.514 154.7 158.514C153.53 158.514 152.684 158.874 151.892 159.702C151.298 158.892 150.452 158.514 149.408 158.514C148.544 158.514 147.68 158.856 147.068 159.486V158.622H144.782V168H147.122V162.33C147.122 161.052 147.95 160.62 148.688 160.62C149.426 160.62 150.236 161.052 150.236 162.33V168H152.576V162.276C152.576 161.052 153.422 160.62 154.142 160.62C154.88 160.62 155.69 161.052 155.69 162.33V168H158.03ZM168.253 164.04V162.996C168.253 160.422 166.777 158.514 164.167 158.514C161.737 158.514 160.081 160.242 160.081 163.302C160.081 167.1 162.205 168.108 164.419 168.108C166.111 168.108 167.029 167.586 167.983 166.632L166.561 165.246C165.967 165.84 165.463 166.128 164.437 166.128C163.123 166.128 162.385 165.246 162.385 164.04H168.253ZM165.949 162.438H162.385C162.403 162.024 162.457 161.772 162.601 161.43C162.853 160.872 163.375 160.458 164.167 160.458C164.959 160.458 165.481 160.872 165.733 161.43C165.877 161.772 165.931 162.024 165.949 162.438ZM178.205 168V162.006C178.205 160.98 178.007 160.098 177.251 159.342C176.729 158.82 175.973 158.514 175.037 158.514C174.173 158.514 173.309 158.838 172.697 159.486V158.622H170.411V168H172.751V162.33C172.751 161.052 173.579 160.62 174.317 160.62C175.055 160.62 175.865 161.052 175.865 162.33V168H178.205ZM184.941 168V166.02H184.095C183.537 166.02 183.285 165.714 183.285 165.174V160.674H184.941V158.892H183.285V156.12H180.945V158.892H179.955V160.674H180.945V165.318C180.945 166.65 181.755 168 183.663 168H184.941ZM106.844 187.22C106.844 186.086 106.538 185.15 105.854 184.502C105.314 183.998 104.576 183.674 103.406 183.512L101.894 183.296C101.372 183.224 100.958 183.026 100.706 182.792C100.436 182.54 100.328 182.198 100.328 181.874C100.328 180.992 100.976 180.254 102.308 180.254C103.154 180.254 104.126 180.362 104.936 181.136L106.52 179.57C105.422 178.508 104.144 178.076 102.38 178.076C99.6083 178.076 97.9163 179.678 97.9163 181.964C97.9163 183.044 98.2223 183.872 98.8343 184.484C99.4103 185.042 100.22 185.384 101.318 185.546L102.866 185.762C103.46 185.852 103.748 185.978 104 186.212C104.27 186.464 104.396 186.842 104.396 187.292C104.396 188.318 103.604 188.876 102.128 188.876C100.94 188.876 99.8423 188.606 99.0323 187.796L97.4123 189.416C98.6723 190.694 100.148 191.108 102.092 191.108C104.774 191.108 106.844 189.704 106.844 187.22ZM113.231 191V189.02H112.385C111.827 189.02 111.575 188.714 111.575 188.174V183.674H113.231V181.892H111.575V179.12H109.235V181.892H108.245V183.674H109.235V188.318C109.235 189.65 110.045 191 111.953 191H113.231ZM122.205 182.396C121.557 181.748 120.909 181.514 119.991 181.514C118.983 181.514 118.083 181.982 117.633 182.522V181.622H115.347V191H117.687V185.348C117.687 184.16 118.479 183.62 119.199 183.62C119.775 183.62 120.081 183.818 120.441 184.178L122.205 182.396ZM130.455 191V184.826C130.455 182.63 129.087 181.514 126.459 181.514C124.893 181.514 123.993 181.802 123.075 182.81L124.569 184.268C125.055 183.71 125.469 183.494 126.369 183.494C127.611 183.494 128.115 183.944 128.115 184.97V185.438H125.901C123.723 185.438 122.697 186.662 122.697 188.156C122.697 188.984 122.967 189.74 123.471 190.262C124.029 190.82 124.803 191.09 125.865 191.09C126.945 191.09 127.539 190.82 128.169 190.19V191H130.455ZM128.115 187.544C128.115 188.12 128.025 188.498 127.773 188.732C127.359 189.128 126.945 189.182 126.297 189.182C125.379 189.182 124.947 188.75 124.947 188.102C124.947 187.436 125.415 187.04 126.261 187.04H128.115V187.544ZM137.19 191V189.02H136.344C135.786 189.02 135.534 188.714 135.534 188.174V183.674H137.19V181.892H135.534V179.12H133.194V181.892H132.204V183.674H133.194V188.318C133.194 189.65 134.004 191 135.912 191H137.19ZM146.957 187.04V185.996C146.957 183.422 145.481 181.514 142.871 181.514C140.441 181.514 138.785 183.242 138.785 186.302C138.785 190.1 140.909 191.108 143.123 191.108C144.815 191.108 145.733 190.586 146.687 189.632L145.265 188.246C144.671 188.84 144.167 189.128 143.141 189.128C141.827 189.128 141.089 188.246 141.089 187.04H146.957ZM144.653 185.438H141.089C141.107 185.024 141.161 184.772 141.305 184.43C141.557 183.872 142.079 183.458 142.871 183.458C143.663 183.458 144.185 183.872 144.437 184.43C144.581 184.772 144.635 185.024 144.653 185.438ZM156.477 190.658V181.622H154.209V182.504C153.561 181.784 152.913 181.514 151.923 181.514C151.005 181.514 150.195 181.82 149.673 182.342C148.791 183.224 148.719 184.412 148.719 186.05C148.719 187.688 148.791 188.894 149.673 189.776C150.195 190.298 150.987 190.604 151.905 190.604C152.823 190.604 153.525 190.352 154.137 189.668V190.622C154.137 191.576 153.651 192.566 152.247 192.566C151.455 192.566 150.933 192.35 150.411 191.846L148.953 193.322C149.925 194.258 150.915 194.546 152.355 194.546C154.875 194.546 156.477 192.908 156.477 190.658ZM154.137 186.05C154.137 187.292 153.975 188.498 152.589 188.498C151.203 188.498 151.059 187.292 151.059 186.05C151.059 184.808 151.203 183.62 152.589 183.62C153.975 183.62 154.137 184.808 154.137 186.05ZM166.605 181.622H164.139L162.267 187.418L160.323 181.622H157.857L161.061 190.334L160.665 191.486C160.431 192.17 160.161 192.332 159.495 192.332H158.955V194.438H159.873C160.647 194.438 161.349 194.258 161.889 193.718C162.177 193.43 162.393 193.034 162.591 192.512L166.605 181.622Z" fill="white"/>
</svg>
