<svg width="53" height="46" viewBox="0 0 53 46" fill="none" xmlns="http://www.w3.org/2000/svg">
<path d="M52.0088 25.8073H42.8306V10.0585C42.8306 9.57536 42.4392 9.18359 41.9556 9.18359H27.7208C27.2372 9.18359 26.8458 9.57536 26.8458 10.0585V19.6828H15.9857C15.5021 19.6828 15.1108 20.0745 15.1108 20.5577V43.3059H12.638C11.5005 43.3203 11.4778 45.0367 12.638 45.0558H52.0079C52.4914 45.0558 52.8828 44.6644 52.8828 44.1808V26.6822C52.8828 26.1983 52.4914 25.8073 52.0079 25.8073H52.0088ZM26.8457 21.4326V43.3059H16.861V38.9312H23.2597C23.7433 38.9312 24.1346 38.5399 24.1346 38.0563C24.1346 37.5728 23.7433 37.1814 23.2597 37.1814H16.861V21.4326H26.8457ZM28.5956 20.5577V10.9335H41.0806V15.3081H37.1989C36.7154 15.3081 36.324 15.6999 36.324 16.183C36.324 16.6662 36.7154 17.058 37.1989 17.058H41.0806V21.4326H36.3275C35.8439 21.4326 35.4526 21.8244 35.4526 22.3076C35.4526 22.7907 35.8439 23.1825 36.3275 23.1825H41.0806V43.3059H28.5956V20.5577ZM51.1338 43.3059H42.8306V27.5571H51.1338V43.3059Z" fill="black"/>
<path d="M13.619 31.0568C14.2682 31.072 14.7201 30.3096 14.3775 29.7479L2.45547 8.88153L13.6806 2.41174L22.501 17.8485C23.0791 18.8332 24.5781 17.9927 24.02 16.9802L14.7641 0.781511C14.6489 0.579577 14.4575 0.431539 14.2337 0.370994C14.0106 0.311624 13.7704 0.341699 13.5681 0.457706L0.827104 7.80093C0.409167 8.04153 0.265038 8.57469 0.504079 8.99303L12.8591 30.6163C13.0204 30.8991 13.3153 31.0573 13.6196 31.0573L13.619 31.0568Z" fill="#6A1840"/>
<path d="M13.9411 15.9209C15.3457 15.0745 17.3709 15.3405 18.186 16.7904C18.6786 17.4821 18.2548 18.7961 19.4402 18.8066C19.923 18.7844 20.2964 18.3754 20.2742 17.8926C20.2035 15.9936 18.8544 14.3398 16.9959 13.8577C11.3015 12.3798 7.56777 20.4939 13.381 22.875C13.8243 23.0375 14.3376 22.8059 14.5 22.3466C14.6633 21.8915 14.4266 21.3908 13.9719 21.2275C13.3517 21.0049 12.8579 20.5979 12.5444 20.0487C11.7573 18.6703 12.3838 16.8185 13.9411 15.921L13.9411 15.9209Z" fill="#6A1840"/>
<path d="M9.28768 8.34614L9.7771 8.06374C11.2688 8.67385 12.5386 8.35512 13.3991 7.84773L14.7185 10.1566C15.302 11.1436 16.7933 10.298 16.2375 9.28826L14.4099 6.08891C14.131 5.5663 13.3354 5.49521 12.976 5.96587C12.9323 6.01743 11.9038 7.22397 10.1384 6.30374C9.87433 6.16508 9.5556 6.17133 9.29663 6.32131L8.02254 7.05564C7.76436 7.20445 7.59952 7.47357 7.58507 7.77081C7.49094 9.70156 6.01959 10.0354 5.86181 10.0659C5.27708 10.1464 4.93805 10.8581 5.24583 11.3631L7.07339 14.5625C7.64912 15.555 9.15562 14.6875 8.59237 13.6942L7.27057 11.3796C8.14278 10.8898 9.06023 9.94768 9.28761 8.3462L9.28768 8.34614Z" fill="#6A1840"/>
</svg>
