<?xml version="1.0" encoding="UTF-8" standalone="no"?>
<svg
   xmlns:dc="http://purl.org/dc/elements/1.1/"
   xmlns:cc="http://creativecommons.org/ns#"
   xmlns:rdf="http://www.w3.org/1999/02/22-rdf-syntax-ns#"
   xmlns:svg="http://www.w3.org/2000/svg"
   xmlns="http://www.w3.org/2000/svg"
   xmlns:sodipodi="http://sodipodi.sourceforge.net/DTD/sodipodi-0.dtd"
   xmlns:inkscape="http://www.inkscape.org/namespaces/inkscape"
   width="139"
   height="165"
   viewBox="0 0 139 165"
   fill="none"
   version="1.1"
   id="svg18"
   sodipodi:docname="funding-icon.svg"
   inkscape:version="0.92.5 (2060ec1f9f, 2020-04-08)">
  <metadata
     id="metadata24">
    <rdf:RDF>
      <cc:Work
         rdf:about="">
        <dc:format>image/svg+xml</dc:format>
        <dc:type
           rdf:resource="http://purl.org/dc/dcmitype/StillImage" />
      </cc:Work>
    </rdf:RDF>
  </metadata>
  <defs
     id="defs22" />
  <sodipodi:namedview
     pagecolor="#ffffff"
     bordercolor="#666666"
     borderopacity="1"
     objecttolerance="10"
     gridtolerance="10"
     guidetolerance="10"
     inkscape:pageopacity="0"
     inkscape:pageshadow="2"
     inkscape:window-width="1920"
     inkscape:window-height="991"
     id="namedview20"
     showgrid="false"
     inkscape:zoom="4.0455079"
     inkscape:cx="75.356666"
     inkscape:cy="110.56703"
     inkscape:window-x="-9"
     inkscape:window-y="-9"
     inkscape:window-maximized="1"
     inkscape:current-layer="svg18" />
  <circle
     cx="78.3223"
     cy="79.3894"
     r="60"
     fill="#FBDAE5"
     id="circle2" />
  <path
     fill-rule="evenodd"
     clip-rule="evenodd"
     d="M57.3037 4.34399V0.699951H53.6594L53.6594 4.34399L50.0176 4.34399L50.0176 7.98828H53.6594L53.6594 11.6328H57.3037V7.98828H60.9504V4.34399L57.3037 4.34399Z"
     fill="#6A1840"
     id="path4"
     style="fill:#6a1840;fill-opacity:1" />
  <path
     fill-rule="evenodd"
     clip-rule="evenodd"
     d="M7.73145 69.4275V65.7834H4.08716L4.08716 69.4275L0.445313 69.4275L0.445312 73.0718H4.08716L4.08716 76.7163H7.73145V73.0718H11.3782V69.4275L7.73145 69.4275Z"
     fill="#6A1840"
     id="path6"
     style="fill:#6a1840;fill-opacity:1" />
  <path
     fill-rule="evenodd"
     clip-rule="evenodd"
     d="M129.898 15.1938L129.898 26.1267L126.254 26.1267L126.254 15.1938L129.898 15.1938Z"
     fill="#6A1840"
     id="path8"
     style="fill:#6a1840;fill-opacity:1" />
  <path
     fill-rule="evenodd"
     clip-rule="evenodd"
     d="M133.545 22.4827L122.612 22.4827L122.612 18.8384L133.545 18.8384L133.545 22.4827Z"
     fill="#6A1840"
     id="path10"
     style="fill:#6a1840;fill-opacity:1" />
  <path
     fill-rule="evenodd"
     clip-rule="evenodd"
     d="M46.6006 48.5069C46.5987 48.5051 46.615 48.4968 46.6549 48.4874C46.6224 48.5039 46.6024 48.5086 46.6006 48.5069ZM50.4567 50.6875C49.2577 49.9953 48.362 49.2068 47.8025 48.5223C48.675 48.6646 49.8057 49.0461 51.0047 49.7383C52.2037 50.4306 53.0995 51.219 53.6589 51.9035C52.7864 51.7612 51.6557 51.3797 50.4567 50.6875ZM47.1985 47.5459C47.1867 47.5066 47.1857 47.4884 47.1881 47.4891C47.1906 47.4898 47.1965 47.5095 47.1985 47.5459ZM44.4039 46.5601C45.3945 44.8443 49.0302 45.0887 52.5245 47.1061C53.7894 47.8364 54.8624 48.6989 55.6696 49.5837C56.4768 48.6991 57.5496 47.8368 58.8142 47.1067C62.3084 45.0893 65.9441 44.8449 66.9348 46.5607C67.9254 48.2766 65.8959 51.303 62.4017 53.3204C60.5104 54.4123 58.5777 54.9848 57.0453 55.0082V61.7691C57.9772 60.8618 59.126 59.99 60.4396 59.2316C64.8313 56.6961 69.4008 56.3889 70.6459 58.5454C71.891 60.702 69.3402 64.5058 64.9485 67.0413C62.0584 68.7099 59.0913 69.4135 57.0453 69.0849V80.6871H74.5222V93.6049H69.2039V100.444H73.0047V113.361H38.0508V103.483H34.25V90.5655H39.5684V80.6871H54.0059V74.608H53.875V69.3565C51.8722 69.663 49.0734 69.1298 46.2861 67.7575C41.7364 65.5177 38.9398 61.8908 40.0397 59.6567C41.1396 57.4226 45.7195 57.4272 50.2691 59.667C51.7146 60.3786 52.983 61.2302 54.0059 62.1327V54.9971C52.5232 54.9117 50.7118 54.3445 48.937 53.3198C45.4428 51.3024 43.4132 48.276 44.4039 46.5601ZM57.6798 51.9041C58.5523 51.7619 59.683 51.3803 60.882 50.6881C62.0809 49.9959 62.9767 49.2074 63.5361 48.5229C62.6637 48.6652 61.5329 49.0467 60.334 49.739C59.135 50.4312 58.2392 51.2197 57.6798 51.9041ZM64.7381 48.5075C64.7363 48.5092 64.7163 48.5045 64.6838 48.488C64.7237 48.4974 64.74 48.5057 64.7381 48.5075ZM64.1505 47.4897C64.153 47.489 64.152 47.5073 64.1402 47.5466C64.1422 47.5101 64.1481 47.4904 64.1505 47.4897ZM122.397 60.9305H87.4434V70.8089H83.6426V83.7267H87.4434V90.5655H82.123V103.483H85.9219V113.361H120.876V100.444H117.077V93.6049H122.397V80.6871H118.596V73.8483H122.397V60.9305ZM85.9219 100.444H114.037V93.605H85.1625V100.444H85.9219V100.444ZM88.9613 110.322V103.483H117.077V103.483H117.836V110.322H88.9613ZM87.4434 80.6871H115.557V73.8484H86.682V80.6872H87.4434V80.6871ZM90.4828 90.5654V83.7267H118.596V83.7266H119.358V90.5654H90.4828ZM90.4828 70.8088V63.97H119.358V70.8088H90.4828ZM69.2039 103.483H69.9652V110.322H41.0902V103.483H69.2039V103.483ZM66.1644 100.444V93.605H37.2895V100.444H38.0508V100.444H66.1644ZM42.6078 90.5654V83.7266H71.4828V90.5654H42.6078ZM53.5872 66.3262C53.501 66.1476 53.354 65.9 53.1039 65.5755C52.3137 64.5507 50.8767 63.3539 48.9266 62.3939C46.9766 61.4339 45.1518 61.0249 43.8577 61.0236C43.448 61.0232 43.1622 61.0577 42.968 61.0983C43.0542 61.277 43.2012 61.5245 43.4513 61.849C44.2415 62.8738 45.6785 64.0706 47.6286 65.0306C49.5786 65.9906 51.4034 66.3997 52.6975 66.401C53.1072 66.4014 53.393 66.3669 53.5872 66.3262ZM42.8475 60.7311C42.8478 60.7312 42.8482 60.7357 42.8477 60.7444C42.847 60.7354 42.8472 60.7311 42.8475 60.7311ZM42.6035 61.2267C42.6033 61.2265 42.6066 61.2237 42.6141 61.2188C42.6075 61.2245 42.6037 61.2269 42.6035 61.2267ZM53.7075 66.6802C53.7082 66.6891 53.708 66.6935 53.7077 66.6934C53.7074 66.6934 53.707 66.6889 53.7075 66.6802ZM57.4721 66.4567C57.472 66.4656 57.4725 66.47 57.4728 66.4699L57.473 66.4689L57.4729 66.4657C57.4728 66.4635 57.4726 66.4605 57.4721 66.4567ZM58.4615 66.1113C58.0527 66.1388 57.7652 66.1233 57.5688 66.0955C57.6429 65.9116 57.7732 65.6548 58.0014 65.3146C58.7222 64.2398 60.077 62.9507 61.9593 61.8639C63.8416 60.7771 65.6355 60.2484 66.9266 60.1616C67.3354 60.1341 67.6229 60.1497 67.8193 60.1774C67.7451 60.3614 67.6148 60.6181 67.3866 60.9584C66.6659 62.0331 65.3111 63.3223 63.4288 64.4091C61.5464 65.4958 59.7526 66.0245 58.4615 66.1113ZM68.1915 60.2815C68.1913 60.2817 68.1874 60.2795 68.1804 60.2743C68.1882 60.2786 68.1917 60.2812 68.1915 60.2815ZM67.9153 59.8031C67.9156 59.803 67.9161 59.8073 67.916 59.8163C67.9149 59.8076 67.915 59.8031 67.9153 59.8031ZM57.2077 65.9987C57.1999 65.9943 57.1964 65.9917 57.1966 65.9915C57.1968 65.9913 57.2007 65.9935 57.2077 65.9987Z"
     fill="black"
     id="path12" />
  <path
     d="M92.1099 149.956L90.7188 148.564L80.8619 158.421L82.253 159.813L92.1099 149.956Z"
     fill="#115E67"
     id="path14" />
  <path
     d="M90.9549 159.697L92.3457 158.307L82.486 148.447L81.0952 149.838L90.9549 159.697Z"
     fill="#115E67"
     id="path16" />
</svg>
