<svg width="66" height="54" viewBox="0 0 66 54" fill="none" xmlns="http://www.w3.org/2000/svg">
<path fill-rule="evenodd" clip-rule="evenodd" d="M46.3457 23.751H65.8831V30.9713H46.3457V23.751ZM48.0446 25.4499V29.2724H64.1842V25.4499H48.0446Z" fill="black"/>
<path fill-rule="evenodd" clip-rule="evenodd" d="M44.2227 29.2715H63.76V36.4918H44.2227V29.2715ZM45.9216 30.9704V34.7929H62.0611V30.9704H45.9216Z" fill="black"/>
<path fill-rule="evenodd" clip-rule="evenodd" d="M46.3457 34.7939H65.8831V42.0143H46.3457V34.7939ZM48.0446 36.4928V40.3154H64.1842V36.4928H48.0446Z" fill="black"/>
<path fill-rule="evenodd" clip-rule="evenodd" d="M43.373 40.3145H62.9104V47.5348H43.373V40.3145ZM45.0719 42.0134V45.8359H61.2115V42.0134H45.0719Z" fill="black"/>
<path fill-rule="evenodd" clip-rule="evenodd" d="M45.4961 45.8359H65.0334V53.0563H45.4961V45.8359ZM47.195 47.5348V51.3574H63.3345V47.5348H47.195Z" fill="black"/>
<path fill-rule="evenodd" clip-rule="evenodd" d="M19.5879 34.7939H39.1252V42.0143H19.5879V34.7939ZM21.2868 36.4928V40.3154H37.4263V36.4928H21.2868Z" fill="black"/>
<path fill-rule="evenodd" clip-rule="evenodd" d="M16.6152 40.3145H36.1526V47.5348H16.6152V40.3145ZM18.3141 42.0134V45.8359H34.4537V42.0134H18.3141Z" fill="black"/>
<path fill-rule="evenodd" clip-rule="evenodd" d="M18.7402 45.8359H38.2776V53.0563H18.7402V45.8359ZM20.4391 47.5348V51.3574H36.5787V47.5348H20.4391Z" fill="black"/>
<path fill-rule="evenodd" clip-rule="evenodd" d="M29.2829 26.2988L29.2829 31.3955L27.584 31.3955L27.584 26.2988L29.2829 26.2988Z" fill="black"/>
<path fill-rule="evenodd" clip-rule="evenodd" d="M27.2624 1.75488V0.0566406H25.5635L25.5635 1.75488L23.8652 1.75488L23.8652 3.45378H25.5635L25.5635 5.15334L27.2624 5.15334V3.45378H28.9619V1.75488L27.2624 1.75488Z" fill="#6A1840"/>
<path fill-rule="evenodd" clip-rule="evenodd" d="M4.15302 32.0957V30.3975H2.45412L2.45412 32.0957L0.755859 32.0957L0.755859 33.7946H2.45412L2.45412 35.4942L4.15302 35.4942V33.7946H5.85256V32.0957L4.15302 32.0957Z" fill="#6A1840"/>
<path fill-rule="evenodd" clip-rule="evenodd" d="M61.1061 6.81348L61.1061 11.9102L59.4072 11.9102L59.4072 6.81348L61.1061 6.81348Z" fill="#6A1840"/>
<path fill-rule="evenodd" clip-rule="evenodd" d="M62.8057 10.2106L57.709 10.2106L57.709 8.51172L62.8057 8.51172L62.8057 10.2106Z" fill="#6A1840"/>
<path fill-rule="evenodd" clip-rule="evenodd" d="M29.3571 18.2285V35.6422H27.6582V18.2285H29.3571Z" fill="black"/>
<path fill-rule="evenodd" clip-rule="evenodd" d="M27.6277 26.6946C27.6279 26.6947 27.626 26.6963 27.6218 26.699C27.6255 26.6958 27.6276 26.6944 27.6277 26.6946ZM27.424 26.7663C27.3758 26.6665 27.2937 26.5281 27.1538 26.3467C26.7122 25.7739 25.909 25.105 24.819 24.5684C23.729 24.0318 22.709 23.8032 21.9857 23.8024C21.7567 23.8022 21.597 23.8215 21.4885 23.8442C21.5366 23.9441 21.6188 24.0825 21.7586 24.2638C22.2003 24.8366 23.0035 25.5056 24.0934 26.0422C25.1834 26.5788 26.2034 26.8074 26.9267 26.8081C27.1557 26.8084 27.3155 26.7891 27.424 26.7663ZM21.4211 23.639C21.4213 23.639 21.4215 23.6415 21.4212 23.6464C21.4208 23.6414 21.4209 23.639 21.4211 23.639ZM21.2847 23.916C21.2846 23.9159 21.2864 23.9143 21.2906 23.9116C21.2869 23.9148 21.2848 23.9161 21.2847 23.916ZM27.4912 26.9642C27.4917 26.9692 27.4915 26.9716 27.4914 26.9716C27.4912 26.9716 27.491 26.9691 27.4912 26.9642ZM23.3431 27.5664C25.8861 28.8183 28.446 28.8209 29.0608 27.5721C29.6755 26.3234 28.1124 24.2961 25.5694 23.0442C23.0264 21.7922 20.4665 21.7897 19.8517 23.0384C19.2369 24.2872 20.8001 26.3144 23.3431 27.5664Z" fill="black"/>
<path fill-rule="evenodd" clip-rule="evenodd" d="M29.5955 26.8464C29.5954 26.8464 29.5951 26.844 29.5952 26.839C29.5957 26.8438 29.5957 26.8463 29.5955 26.8464ZM29.6492 26.6371C29.759 26.6526 29.9197 26.6613 30.1482 26.6459C30.8698 26.5974 31.8725 26.3019 32.9246 25.6945C33.9767 25.087 34.734 24.3664 35.1369 23.7657C35.2644 23.5755 35.3372 23.432 35.3787 23.3292C35.2689 23.3137 35.1082 23.305 34.8797 23.3204C34.1581 23.3689 33.1554 23.6644 32.1033 24.2718C31.0511 24.8793 30.2939 25.5999 29.891 26.2006C29.7635 26.3908 29.6907 26.5343 29.6492 26.6371ZM35.5867 23.3873C35.5866 23.3875 35.5844 23.3862 35.5805 23.3833C35.5849 23.3858 35.5868 23.3872 35.5867 23.3873ZM35.4323 23.1199C35.4325 23.1199 35.4328 23.1223 35.4327 23.1273C35.4321 23.1225 35.4322 23.12 35.4323 23.1199ZM29.4474 26.583C29.443 26.5805 29.441 26.5791 29.4412 26.579C29.4413 26.5788 29.4435 26.5801 29.4474 26.583ZM31.2538 22.8006C28.7991 24.2178 27.3733 26.3439 28.0693 27.5493C28.7652 28.7547 31.3193 28.583 33.7741 27.1657C36.2288 25.7485 37.6546 23.6224 36.9586 22.417C36.2627 21.2116 33.7085 21.3833 31.2538 22.8006Z" fill="black"/>
<path fill-rule="evenodd" clip-rule="evenodd" d="M29.3677 19.2827C29.3663 19.2831 29.3668 19.2729 29.3734 19.2509C29.3723 19.2713 29.369 19.2823 29.3677 19.2827ZM29.7111 18.7052C30.1987 18.6257 30.8308 18.4124 31.5009 18.0255C32.1711 17.6386 32.6718 17.1979 32.9845 16.8153C32.4968 16.8948 31.8648 17.1081 31.1946 17.495C30.5245 17.8819 30.0238 18.3226 29.7111 18.7052ZM33.6563 16.8066C33.6553 16.8076 33.6441 16.805 33.6259 16.7958C33.6482 16.801 33.6573 16.8056 33.6563 16.8066ZM33.3279 16.2378C33.3293 16.2374 33.3287 16.2476 33.3221 16.2695C33.3232 16.2492 33.3265 16.2382 33.3279 16.2378ZM29.0696 18.7247C29.0473 18.7195 29.0382 18.7148 29.0392 18.7138C29.0403 18.7128 29.0514 18.7155 29.0696 18.7247ZM30.3452 16.0237C28.3921 17.1513 27.2577 18.8429 27.8114 19.802C28.3651 20.761 30.3973 20.6244 32.3504 19.4968C34.3034 18.3692 35.4378 16.6776 34.8841 15.7185C34.3304 14.7594 32.2982 14.8961 30.3452 16.0237Z" fill="black"/>
<path fill-rule="evenodd" clip-rule="evenodd" d="M23.519 16.8062C23.518 16.8052 23.5271 16.8006 23.5494 16.7953C23.5312 16.8046 23.5201 16.8072 23.519 16.8062ZM24.1909 16.8149C24.5036 17.1974 25.0043 17.6382 25.6744 18.0251C26.3446 18.412 26.9766 18.6252 27.4643 18.7048C27.1516 18.3222 26.6509 17.8815 25.9807 17.4945C25.3106 17.1076 24.6785 16.8944 24.1909 16.8149ZM27.8077 19.2823C27.8063 19.2819 27.803 19.2709 27.8019 19.2505C27.8085 19.2725 27.8091 19.2827 27.8077 19.2823ZM28.1361 18.7134C28.1371 18.7144 28.128 18.719 28.1057 18.7243C28.1239 18.715 28.1351 18.7124 28.1361 18.7134ZM23.8532 16.2691C23.8466 16.2472 23.8461 16.237 23.8475 16.2374C23.8488 16.2378 23.8521 16.2487 23.8532 16.2691ZM26.8302 16.0233C24.8771 14.8956 22.8449 14.759 22.2912 15.7181C21.7375 16.6772 22.8719 18.3688 24.825 19.4964C26.778 20.624 28.8102 20.7606 29.3639 19.8015C29.9177 18.8425 28.7833 17.1509 26.8302 16.0233Z" fill="black"/>
</svg>
