<svg width="240" height="306" viewBox="0 0 240 306" fill="none" xmlns="http://www.w3.org/2000/svg">
<g clip-path="url(#clip0_374_961)">
<path d="M27.3261 123.478L1.35278 110.807L38.4188 181.443L27.3261 123.478Z" stroke="#313131" stroke-miterlimit="10" stroke-linecap="round" stroke-linejoin="round"/>
<path d="M72.2382 108.65L38.4188 181.443L85.4954 206.247L72.2382 108.65Z" stroke="#313131" stroke-miterlimit="10" stroke-linecap="round" stroke-linejoin="round"/>
<path d="M27.326 123.478L38.4188 181.443L72.2382 108.65L27.326 123.478Z" stroke="#313131" stroke-miterlimit="10" stroke-linecap="round" stroke-linejoin="round"/>
<path d="M120.397 62.8176L169.638 80.8811L186.954 42.0582L120.397 62.8176Z" stroke="#313131" stroke-miterlimit="10" stroke-linecap="round" stroke-linejoin="round"/>
<path d="M256.216 82.7683L239.982 140.733L260.815 80.6115L256.216 82.7683Z" stroke="#313131" stroke-miterlimit="10" stroke-linecap="round" stroke-linejoin="round"/>
<path d="M113.633 103.258L85.4955 206.247L143.935 118.086L113.633 103.258Z" stroke="#313131" stroke-miterlimit="10" stroke-linecap="round" stroke-linejoin="round"/>
<path d="M72.2383 108.65L113.633 103.258L120.397 62.8176L72.2383 108.65Z" stroke="#313131" stroke-miterlimit="10" stroke-linecap="round" stroke-linejoin="round"/>
<path d="M72.2383 108.65L85.4955 206.247L113.633 103.258L72.2383 108.65Z" stroke="#313131" stroke-miterlimit="10" stroke-linecap="round" stroke-linejoin="round"/>
<path d="M164.498 128.062L178.837 137.498L204.54 107.302L164.498 128.062Z" stroke="#313131" stroke-miterlimit="10" stroke-linecap="round" stroke-linejoin="round"/>
<path d="M56.2755 39.6317L72.2383 108.65L120.397 62.8176L56.2755 39.6317Z" stroke="#313131" stroke-miterlimit="10" stroke-linecap="round" stroke-linejoin="round"/>
<path d="M85.4955 206.247L117.421 254.775L149.347 211.1L85.4955 206.247Z" stroke="#313131" stroke-miterlimit="10" stroke-linecap="round" stroke-linejoin="round"/>
<path d="M113.633 103.258L143.935 118.086L169.638 80.881L113.633 103.258Z" stroke="#313131" stroke-miterlimit="10" stroke-linecap="round" stroke-linejoin="round"/>
<path d="M143.935 118.086L164.497 128.062L174.508 83.3075L143.935 118.086Z" stroke="#313131" stroke-miterlimit="10" stroke-linecap="round" stroke-linejoin="round"/>
<path d="M120.397 62.8176L113.633 103.258L169.638 80.8811L120.397 62.8176Z" stroke="#313131" stroke-miterlimit="10" stroke-linecap="round" stroke-linejoin="round"/>
<path d="M149.346 211.1L155.028 261.785L183.436 243.182L149.346 211.1Z" stroke="#313131" stroke-miterlimit="10" stroke-linecap="round" stroke-linejoin="round"/>
<path d="M143.935 118.086L85.4955 206.247L172.885 172.546L143.935 118.086Z" stroke="#313131" stroke-miterlimit="10" stroke-linecap="round" stroke-linejoin="round"/>
<path d="M85.4955 206.247L149.347 211.1L172.885 172.546L85.4955 206.247Z" stroke="#313131" stroke-miterlimit="10" stroke-linecap="round" stroke-linejoin="round"/>
<path d="M164.497 128.062L143.935 118.086L172.885 172.546L164.497 128.062Z" stroke="#313131" stroke-miterlimit="10" stroke-linecap="round" stroke-linejoin="round"/>
<path d="M172.885 172.546L149.346 211.1L183.436 243.182L172.885 172.546Z" stroke="#313131" stroke-miterlimit="10" stroke-linecap="round" stroke-linejoin="round"/>
<path d="M164.498 128.062L172.885 172.546L178.837 137.498L164.498 128.062Z" stroke="#313131" stroke-miterlimit="10" stroke-linecap="round" stroke-linejoin="round"/>
<path d="M204.54 107.302L239.982 140.733L256.216 82.7683L204.54 107.302Z" stroke="#313131" stroke-miterlimit="10" stroke-linecap="round" stroke-linejoin="round"/>
<path d="M186.954 42.0582L204.54 107.302L256.216 82.7683L186.954 42.0582Z" stroke="#313131" stroke-miterlimit="10" stroke-linecap="round" stroke-linejoin="round"/>
<path d="M234.842 294.677L302.21 304.652V284.162L234.842 294.677Z" stroke="#313131" stroke-miterlimit="10" stroke-linecap="round" stroke-linejoin="round"/>
<path d="M300.587 258.819L234.842 294.677L302.21 284.162L300.587 258.819Z" stroke="#313131" stroke-miterlimit="10" stroke-linecap="round" stroke-linejoin="round"/>
<path d="M178.837 137.498L213.468 169.041L239.982 140.733L178.837 137.498Z" stroke="#313131" stroke-miterlimit="10" stroke-linecap="round" stroke-linejoin="round"/>
<path d="M183.436 243.182L234.842 294.677L240.794 212.448L183.436 243.182Z" stroke="#313131" stroke-miterlimit="10" stroke-linecap="round" stroke-linejoin="round"/>
<path d="M213.468 169.041L183.436 243.182L240.794 212.448L213.468 169.041Z" stroke="#313131" stroke-miterlimit="10" stroke-linecap="round" stroke-linejoin="round"/>
<path d="M239.982 140.733L213.468 169.041L267.038 164.189L239.982 140.733Z" stroke="#313131" stroke-miterlimit="10" stroke-linecap="round" stroke-linejoin="round"/>
<path d="M213.468 169.041L240.794 212.448L262.438 190.879L213.468 169.041Z" stroke="#313131" stroke-miterlimit="10" stroke-linecap="round" stroke-linejoin="round"/>
<path d="M260.815 80.6115L239.982 140.733L267.038 164.189L260.815 80.6115Z" stroke="#313131" stroke-miterlimit="10" stroke-linecap="round" stroke-linejoin="round"/>
<path d="M213.468 169.041L262.438 190.879L265.144 186.835L213.468 169.041Z" stroke="#313131" stroke-miterlimit="10" stroke-linecap="round" stroke-linejoin="round"/>
<path d="M186.954 42.0582L256.216 82.7683L268.12 1.34802L186.954 42.0582Z" stroke="#313131" stroke-miterlimit="10" stroke-linecap="round" stroke-linejoin="round"/>
<path d="M240.794 212.448L234.842 294.677L300.587 258.819L240.794 212.448Z" stroke="#313131" stroke-miterlimit="10" stroke-linecap="round" stroke-linejoin="round"/>
<circle cx="71.5" cy="107.5" r="3.5" fill="black"/>
<circle cx="84.5" cy="204.5" r="3.5" fill="black"/>
<circle cx="150.5" cy="211.5" r="3.5" fill="black"/>
<circle cx="179.5" cy="137.5" r="3.5" fill="black"/>
<circle cx="183.5" cy="242.5" r="3.5" fill="black"/>
<circle cx="186.5" cy="43.5" r="3.5" fill="black"/>
</g>
<defs>
<clipPath id="clip0_374_961">
<rect width="385" height="306" fill="white"/>
</clipPath>
</defs>
</svg>
