<svg width="724" height="457" viewBox="0 0 724 457" fill="none" xmlns="http://www.w3.org/2000/svg">
<g filter="url(#filter0_d_374_906)">
<path d="M190.589 190.488L266.857 259.126L276.102 236.761L190.589 190.488Z" stroke="#313131" stroke-miterlimit="10" stroke-linecap="round" stroke-linejoin="round"/>
<path d="M81.1942 220.951L12.6298 190.488L88.1277 263.753L81.1942 220.951Z" stroke="#313131" stroke-miterlimit="10" stroke-linecap="round" stroke-linejoin="round"/>
<path d="M12.6298 190.488L4.92596 187.404L88.1277 263.753L12.6298 190.488Z" stroke="#313131" stroke-miterlimit="10" stroke-linecap="round" stroke-linejoin="round"/>
<path d="M211.39 348.972L209.849 352.057L246.057 414.91L211.39 348.972Z" stroke="#313131" stroke-miterlimit="10" stroke-linecap="round" stroke-linejoin="round"/>
<path d="M88.1277 263.753L4.92596 187.404L123.565 338.946L88.1277 263.753Z" stroke="#313131" stroke-miterlimit="10" stroke-linecap="round" stroke-linejoin="round"/>
<path d="M105.076 208.226L88.1277 263.753L157.077 296.529L105.076 208.226Z" stroke="#313131" stroke-miterlimit="10" stroke-linecap="round" stroke-linejoin="round"/>
<path d="M88.1277 263.753L123.565 338.946L157.077 296.529L88.1277 263.753Z" stroke="#313131" stroke-miterlimit="10" stroke-linecap="round" stroke-linejoin="round"/>
<path d="M176.722 150.771L105.076 208.226L190.589 190.488L176.722 150.771Z" stroke="#313131" stroke-miterlimit="10" stroke-linecap="round" stroke-linejoin="round"/>
<path d="M315.392 198.972L325.021 232.905L347.748 166.581L315.392 198.972Z" stroke="#313131" stroke-miterlimit="10" stroke-linecap="round" stroke-linejoin="round"/>
<path d="M128.188 1.92798L75.4163 136.504L176.722 150.771L128.188 1.92798Z" stroke="#313131" stroke-miterlimit="10" stroke-linecap="round" stroke-linejoin="round"/>
<path d="M105.076 208.226L157.077 296.529L190.589 190.488L105.076 208.226Z" stroke="#313131" stroke-miterlimit="10" stroke-linecap="round" stroke-linejoin="round"/>
<path d="M157.077 296.529L209.849 352.056L211.389 348.971L157.077 296.529Z" stroke="#313131" stroke-miterlimit="10" stroke-linecap="round" stroke-linejoin="round"/>
<path d="M157.077 296.529L123.565 338.946L209.849 352.056L157.077 296.529Z" stroke="#313131" stroke-miterlimit="10" stroke-linecap="round" stroke-linejoin="round"/>
<path d="M123.565 338.946L174.796 401.799L209.849 352.056L123.565 338.946Z" stroke="#313131" stroke-miterlimit="10" stroke-linecap="round" stroke-linejoin="round"/>
<path d="M128.188 1.92798L176.722 150.771L250.679 77.5064L128.188 1.92798Z" stroke="#313131" stroke-miterlimit="10" stroke-linecap="round" stroke-linejoin="round"/>
<path d="M157.077 296.53L263.005 280.72L266.857 259.126L157.077 296.53Z" stroke="#313131" stroke-miterlimit="10" stroke-linecap="round" stroke-linejoin="round"/>
<path d="M315.392 198.972L314.621 228.663L325.021 232.905L315.392 198.972Z" stroke="#313131" stroke-miterlimit="10" stroke-linecap="round" stroke-linejoin="round"/>
<path d="M316.547 143.83L315.392 198.972L347.748 166.581L316.547 143.83Z" stroke="#313131" stroke-miterlimit="10" stroke-linecap="round" stroke-linejoin="round"/>
<path d="M157.077 296.529L211.389 348.972L263.005 280.72L157.077 296.529Z" stroke="#313131" stroke-miterlimit="10" stroke-linecap="round" stroke-linejoin="round"/>
<path d="M289.969 189.717L315.392 198.972L316.547 143.83L289.969 189.717Z" stroke="#313131" stroke-miterlimit="10" stroke-linecap="round" stroke-linejoin="round"/>
<path d="M190.589 190.488L157.077 296.529L266.857 259.126L190.589 190.488Z" stroke="#313131" stroke-miterlimit="10" stroke-linecap="round" stroke-linejoin="round"/>
<path d="M176.722 150.771L190.589 190.488L289.969 189.717L176.722 150.771Z" stroke="#313131" stroke-miterlimit="10" stroke-linecap="round" stroke-linejoin="round"/>
<path d="M190.589 190.488L276.102 236.761L289.969 189.717L190.589 190.488Z" stroke="#313131" stroke-miterlimit="10" stroke-linecap="round" stroke-linejoin="round"/>
<path d="M276.102 236.761L266.857 259.126L314.621 228.663L276.102 236.761Z" stroke="#313131" stroke-miterlimit="10" stroke-linecap="round" stroke-linejoin="round"/>
<path d="M289.969 189.717L276.102 236.761L314.621 228.663L289.969 189.717Z" stroke="#313131" stroke-miterlimit="10" stroke-linecap="round" stroke-linejoin="round"/>
<path d="M289.969 189.717L314.621 228.663L315.392 198.972L289.969 189.717Z" stroke="#313131" stroke-miterlimit="10" stroke-linecap="round" stroke-linejoin="round"/>
<path d="M314.621 228.663L266.857 259.126L325.021 232.905L314.621 228.663Z" stroke="#313131" stroke-miterlimit="10" stroke-linecap="round" stroke-linejoin="round"/>
<path d="M266.857 259.126L263.005 280.72L325.021 232.905L266.857 259.126Z" stroke="#313131" stroke-miterlimit="10" stroke-linecap="round" stroke-linejoin="round"/>
<path d="M211.389 348.972L246.057 414.91L330.799 360.925L211.389 348.972Z" stroke="#313131" stroke-miterlimit="10" stroke-linecap="round" stroke-linejoin="round"/>
<path d="M263.005 280.72L211.389 348.972L330.799 360.925L263.005 280.72Z" stroke="#313131" stroke-miterlimit="10" stroke-linecap="round" stroke-linejoin="round"/>
<path d="M325.021 232.905L263.005 280.72L330.799 360.925L325.021 232.905Z" stroke="#313131" stroke-miterlimit="10" stroke-linecap="round" stroke-linejoin="round"/>
<path d="M316.547 143.83L458.298 124.55L466.002 79.0488L316.547 143.83Z" stroke="#313131" stroke-miterlimit="10" stroke-linecap="round" stroke-linejoin="round"/>
<path d="M648.198 195.887L670.154 286.89L719.074 178.149L648.198 195.887Z" stroke="#313131" stroke-miterlimit="10" stroke-linecap="round" stroke-linejoin="round"/>
<path d="M425.172 405.655L330.799 360.925L435.187 448.072L425.172 405.655Z" stroke="#313131" stroke-miterlimit="10" stroke-linecap="round" stroke-linejoin="round"/>
<path d="M330.799 360.925L246.057 414.91L435.187 448.072L330.799 360.925Z" stroke="#313131" stroke-miterlimit="10" stroke-linecap="round" stroke-linejoin="round"/>
<path d="M250.679 77.5063L316.547 143.83L466.002 79.0488L250.679 77.5063Z" stroke="#313131" stroke-miterlimit="10" stroke-linecap="round" stroke-linejoin="round"/>
<path d="M347.748 166.581L325.021 232.905L452.906 146.915L347.748 166.581Z" stroke="#313131" stroke-miterlimit="10" stroke-linecap="round" stroke-linejoin="round"/>
<path d="M347.748 166.581L452.906 146.915L458.298 124.55L347.748 166.581Z" stroke="#313131" stroke-miterlimit="10" stroke-linecap="round" stroke-linejoin="round"/>
<path d="M316.547 143.83L347.748 166.581L458.298 124.55L316.547 143.83Z" stroke="#313131" stroke-miterlimit="10" stroke-linecap="round" stroke-linejoin="round"/>
<path d="M506.447 195.116L325.021 232.905L528.018 267.609L506.447 195.116Z" stroke="#313131" stroke-miterlimit="10" stroke-linecap="round" stroke-linejoin="round"/>
<path d="M325.021 232.905L330.799 360.925L472.165 354.37L325.021 232.905Z" stroke="#313131" stroke-miterlimit="10" stroke-linecap="round" stroke-linejoin="round"/>
<path d="M330.799 360.925L425.172 405.655L472.165 354.37L330.799 360.925Z" stroke="#313131" stroke-miterlimit="10" stroke-linecap="round" stroke-linejoin="round"/>
<path d="M452.906 146.915L325.021 232.905L506.447 195.116L452.906 146.915Z" stroke="#313131" stroke-miterlimit="10" stroke-linecap="round" stroke-linejoin="round"/>
<path d="M325.021 232.905L472.165 354.37L528.018 267.609L325.021 232.905Z" stroke="#313131" stroke-miterlimit="10" stroke-linecap="round" stroke-linejoin="round"/>
<path d="M452.906 146.915L506.447 195.116L536.493 161.568L452.906 146.915Z" stroke="#313131" stroke-miterlimit="10" stroke-linecap="round" stroke-linejoin="round"/>
<path d="M580.405 209.769L528.018 267.609L621.235 246.787L580.405 209.769Z" stroke="#313131" stroke-miterlimit="10" stroke-linecap="round" stroke-linejoin="round"/>
<path d="M536.492 161.568L506.447 195.116L580.404 209.769L536.492 161.568Z" stroke="#313131" stroke-miterlimit="10" stroke-linecap="round" stroke-linejoin="round"/>
<path d="M506.447 195.116L528.018 267.609L580.404 209.769L506.447 195.116Z" stroke="#313131" stroke-miterlimit="10" stroke-linecap="round" stroke-linejoin="round"/>
<path d="M609.294 1.92798L536.492 161.568L648.198 195.887L609.294 1.92798Z" stroke="#313131" stroke-miterlimit="10" stroke-linecap="round" stroke-linejoin="round"/>
<path d="M528.018 267.609L472.165 354.37L633.176 358.998L528.018 267.609Z" stroke="#313131" stroke-miterlimit="10" stroke-linecap="round" stroke-linejoin="round"/>
<path d="M621.235 246.787L528.018 267.609L633.176 358.997L621.235 246.787Z" stroke="#313131" stroke-miterlimit="10" stroke-linecap="round" stroke-linejoin="round"/>
<path d="M580.405 209.768L621.235 246.786L648.199 195.887L580.405 209.768Z" stroke="#313131" stroke-miterlimit="10" stroke-linecap="round" stroke-linejoin="round"/>
<path d="M648.199 195.887L621.235 246.786L670.155 286.889L648.199 195.887Z" stroke="#313131" stroke-miterlimit="10" stroke-linecap="round" stroke-linejoin="round"/>
</g>
<defs>
<filter id="filter0_d_374_906" x="-1" y="0" width="726" height="458" filterUnits="userSpaceOnUse" color-interpolation-filters="sRGB">
<feFlood flood-opacity="0" result="BackgroundImageFix"/>
<feColorMatrix in="SourceAlpha" type="matrix" values="0 0 0 0 0 0 0 0 0 0 0 0 0 0 0 0 0 0 127 0" result="hardAlpha"/>
<feOffset dy="4"/>
<feGaussianBlur stdDeviation="2"/>
<feComposite in2="hardAlpha" operator="out"/>
<feColorMatrix type="matrix" values="0 0 0 0 0 0 0 0 0 0 0 0 0 0 0 0 0 0 0.25 0"/>
<feBlend mode="normal" in2="BackgroundImageFix" result="effect1_dropShadow_374_906"/>
<feBlend mode="normal" in="SourceGraphic" in2="effect1_dropShadow_374_906" result="shape"/>
</filter>
</defs>
</svg>
