<svg width="133" height="139" viewBox="0 0 133 139" fill="none" xmlns="http://www.w3.org/2000/svg">
<circle cx="72.8555" cy="78.293" r="60" fill="#FBDAE5"/>
<path d="M35.8755 30.5577L34.4844 29.1665L24.6275 39.0234L26.0186 40.4146L35.8755 30.5577Z" fill="#115E67"/>
<path d="M34.7206 40.2995L36.1113 38.9087L26.2516 29.049L24.8609 30.4398L34.7206 40.2995Z" fill="#115E67"/>
<path d="M114.847 72.594H113.236V83.9919H114.847V72.594Z" fill="#468289"/>
<path d="M119.809 77.2881H108.408V78.8985H119.809V77.2881Z" fill="#468289"/>
<path d="M0.15625 88.2971L6.06568 82.3893L0.15625 76.4816L2.29976 74.335L10.2123 82.2452L10.3527 82.3856L10.3601 82.393L9.94248 82.7994L9.70967 83.0322L2.29976 90.4437L0.15625 88.2971Z" fill="#800134"/>
<path d="M7.75 88.2971L13.6594 82.3893L7.75 76.4816L9.8972 74.335L17.8097 82.2452L17.9502 82.3856L17.9539 82.393L17.5399 82.7994L17.3071 83.0322L9.8972 90.4437L7.75 88.2971Z" fill="#800134"/>
<path d="M15.3496 88.2971L21.2591 82.3893L15.3496 76.4816L17.4931 74.335L25.4056 82.2452L25.5461 82.3856L25.5535 82.393L25.1359 82.7994L24.9067 83.0322L17.4931 90.4437L15.3496 88.2971Z" fill="#800134"/>
<path d="M107.175 12.7117C110.522 12.7117 113.236 9.99794 113.236 6.65039C113.236 3.30284 110.522 0.589111 107.175 0.589111C103.827 0.589111 101.113 3.30284 101.113 6.65039C101.113 9.99794 103.827 12.7117 107.175 12.7117Z" fill="#AA5678"/>
<path fill-rule="evenodd" clip-rule="evenodd" d="M70.079 80.1842C67.621 77.4606 65.8569 71.3058 65.6706 64.0247H55.2428C55.8321 72.2515 62.0579 78.9184 70.079 80.1842ZM70.1711 75.2208C69.0965 72.4184 68.3514 68.4944 68.2309 64.0247H77.6023C77.4817 68.4944 76.7366 72.4184 75.662 75.2208C75.0707 76.763 74.4292 77.8351 73.8472 78.477C73.2655 79.1187 72.9471 79.125 72.9166 79.125C72.8861 79.125 72.5676 79.1187 71.9859 78.477C71.404 77.8351 70.7624 76.763 70.1711 75.2208ZM68.2309 61.4653H77.6023C77.4818 56.9955 76.7367 53.0715 75.662 50.269C75.0707 48.7269 74.4292 47.6548 73.8472 47.0128C73.2655 46.3711 72.9471 46.3648 72.9166 46.3648C72.8861 46.3648 72.5676 46.3711 71.9859 47.0128C71.404 47.6548 70.7624 48.7269 70.1711 50.269C69.0965 53.0715 68.3514 56.9955 68.2309 61.4653ZM75.7757 80.1601C78.2225 77.4245 79.9768 71.2844 80.1625 64.0247H90.4636C89.8779 72.2007 83.7251 78.836 75.7757 80.1601ZM80.1625 61.4653H90.4636C89.8781 53.289 83.7252 46.6535 75.7754 45.3294C78.2224 48.0649 79.9768 54.2053 80.1625 61.4653ZM55.2427 61.4653H65.6706C65.8569 54.1839 67.6211 48.0288 70.0793 45.3053C62.0579 46.5711 55.8319 53.2382 55.2427 61.4653ZM93.7122 62.7448C93.7122 74.2649 84.3733 83.6038 72.8532 83.6038C61.3331 83.6038 51.9941 74.2649 51.9941 62.7448C51.9941 51.2247 61.3331 41.8857 72.8532 41.8857C84.3733 41.8857 93.7122 51.2247 93.7122 62.7448ZM57.5161 98.3204C60.4844 98.3204 62.8908 95.914 62.8908 92.9457C62.8908 89.9773 60.4844 87.5709 57.5161 87.5709C54.5477 87.5709 52.1413 89.9773 52.1413 92.9457C52.1413 95.914 54.5477 98.3204 57.5161 98.3204ZM65.4502 92.9457C65.4502 95.3523 64.3786 97.5087 62.6866 98.9638C67.2951 99.7282 70.809 103.733 70.809 108.558V109.582C70.809 112.409 68.5172 114.7 65.6902 114.7H49.5661C46.739 114.7 44.4473 112.409 44.4473 109.582V108.558C44.4473 103.798 47.867 99.8364 52.3838 98.9965C50.6697 97.5411 49.5819 95.3704 49.5819 92.9457C49.5819 88.5638 53.1342 85.0115 57.5161 85.0115C61.8979 85.0115 65.4502 88.5638 65.4502 92.9457ZM87.973 98.3204C90.9414 98.3204 93.3477 95.914 93.3477 92.9457C93.3477 89.9773 90.9414 87.5709 87.973 87.5709C85.0046 87.5709 82.5983 89.9773 82.5983 92.9457C82.5983 95.914 85.0046 98.3204 87.973 98.3204ZM93.1435 98.9638C94.8355 97.5087 95.9071 95.3523 95.9071 92.9457C95.9071 88.5638 92.3549 85.0115 87.973 85.0115C83.5911 85.0115 80.0389 88.5638 80.0389 92.9457C80.0389 95.3704 81.1266 97.5411 82.8407 98.9965C78.324 99.8364 74.9042 103.798 74.9042 108.558V109.582C74.9042 112.409 77.1959 114.7 80.023 114.7H96.1471C98.9742 114.7 101.266 112.409 101.266 109.582V108.558C101.266 103.733 97.752 99.7282 93.1435 98.9638ZM84.6299 101.392H91.5402C95.4981 101.392 98.7065 104.6 98.7065 108.558V109.582C98.7065 110.995 97.5606 112.141 96.1471 112.141H80.023C78.6095 112.141 77.4636 110.995 77.4636 109.582V108.558C77.4636 104.6 80.672 101.392 84.6299 101.392ZM61.0833 101.392H54.173C50.2151 101.392 47.0067 104.6 47.0067 108.558V109.582C47.0067 110.995 48.1525 112.141 49.5661 112.141H65.6902C67.1037 112.141 68.2496 110.995 68.2496 109.582V108.558C68.2496 104.6 65.0411 101.392 61.0833 101.392Z" fill="black"/>
</svg>
