<svg width="24" height="24" viewBox="0 0 24 24" fill="none" xmlns="http://www.w3.org/2000/svg">
<path d="M14.0954 12.1944C13.9933 13.0683 13.2371 13.7265 12.335 13.7265C12.2682 13.7265 12.2003 13.7229 12.1338 13.7157C11.1615 13.6079 10.4606 12.7509 10.5713 11.805C10.6734 10.9314 11.4296 10.2729 12.332 10.2729C12.3988 10.2729 12.4664 10.2765 12.5332 10.2845C13.5047 10.3915 14.2053 11.2485 14.0954 12.1943V12.1944ZM17.8211 15.113C19.0363 18.1567 19.3918 20.761 18.0724 21.5153C17.8481 21.6436 17.5912 21.7086 17.3095 21.7086C16.0013 21.7086 14.2387 20.2564 12.5391 18.2742C10.9257 20.4187 9.21474 22 7.88954 22H7.88921C7.6494 22 7.42633 21.9493 7.22463 21.8507C5.79753 21.1488 6.06418 18.3183 7.20011 15.023C6.22527 14.87 5.32175 14.6778 4.51976 14.4493C2.16758 13.7786 0.983749 12.8972 1.00017 11.8306C1.02436 10.3085 3.58887 9.34827 6.84444 8.88662C5.62998 5.84306 5.27432 3.2386 6.59369 2.48473C6.81793 2.35645 7.07447 2.29143 7.35653 2.29143C8.66479 2.29143 10.427 3.74364 12.1274 5.72547C13.7405 3.58052 15.4511 2 16.7769 2C17.0161 2 17.2398 2.05067 17.4419 2.14926C18.869 2.85116 18.6023 5.68091 17.4664 8.97702C18.4412 9.12999 19.3447 9.32217 20.1464 9.55033C22.4989 10.2219 23.683 11.1028 23.6665 12.1693C23.6421 13.6909 21.0773 14.6517 17.8214 15.1132L17.8211 15.113ZM12.833 6.58212C13.3531 7.23883 13.8605 7.93462 14.3395 8.64123C15.0344 8.68528 15.7119 8.74676 16.3645 8.82518C16.695 7.88898 16.9507 6.99987 17.1174 6.19098C17.5611 4.03393 17.2199 3.23264 16.9486 3.09951C16.9007 3.07563 16.8446 3.06401 16.7767 3.06401C15.98 3.06417 14.4795 4.34438 12.833 6.58211L12.833 6.58212ZM15.4834 13.5483C15.3508 13.8034 15.2139 14.0598 15.0729 14.3163C15.4849 14.2936 15.8799 14.2642 16.2586 14.2295C16.0879 13.8579 15.9056 13.481 15.7117 13.1C15.6363 13.2498 15.5601 13.399 15.4833 13.5483L15.4834 13.5483ZM15.0795 11.9147C14.8723 11.5439 14.6577 11.1716 14.4332 10.7985C14.1982 10.4097 13.9625 10.0352 13.7263 9.67256C13.2802 9.65094 12.8279 9.63529 12.3702 9.62851C12.1693 9.62561 11.9699 9.62448 11.7717 9.62448C11.4607 9.62448 11.1595 9.62851 10.8637 9.63497C10.6266 10.0506 10.391 10.4832 10.1591 10.9312C9.95902 11.3168 9.7681 11.7014 9.58629 12.0846C9.79345 12.455 10.0081 12.8276 10.233 13.2007C10.4676 13.5896 10.7036 13.9641 10.9398 14.3267C11.3859 14.3483 11.8382 14.3639 12.296 14.3707C12.4968 14.3736 12.6965 14.3748 12.8944 14.3748C13.2058 14.3748 13.5069 14.3707 13.8024 14.3643C14.0392 13.9486 14.2751 13.5166 14.5071 13.0686C14.7071 12.6828 14.8972 12.2978 15.0795 11.9147ZM12.8947 15.4394H12.8943C12.6908 15.4394 12.4857 15.4379 12.2792 15.4347C12.0791 15.4315 11.8804 15.4268 11.6822 15.421C11.9492 15.7994 12.2149 16.1594 12.4777 16.5006C12.7056 16.1628 12.9351 15.8089 13.1642 15.4384C13.074 15.4391 12.9842 15.4394 12.8947 15.4394L12.8947 15.4394ZM9.03271 13.3065C8.9109 13.5892 8.79505 13.87 8.68517 14.148C8.98365 14.1813 9.2881 14.2109 9.59586 14.2369C9.49195 14.071 9.38986 13.9047 9.28993 13.7396C9.20358 13.5954 9.11773 13.4511 9.03272 13.3065L9.03271 13.3065ZM9.1827 10.4515C9.31528 10.1955 9.45217 9.93933 9.59321 9.68277C9.1812 9.70552 8.78612 9.73489 8.40742 9.76958C8.57812 10.1412 8.76043 10.5181 8.95435 10.8991C9.02975 10.7494 9.10599 10.6001 9.18272 10.4515L9.1827 10.4515ZM11.7717 8.56002C11.9752 8.56002 12.1804 8.56115 12.3869 8.56406C12.5869 8.56696 12.7856 8.57196 12.9838 8.57777C12.7168 8.19938 12.4512 7.83972 12.1883 7.49811C11.9604 7.83599 11.7309 8.18985 11.5019 8.56083C11.592 8.56003 11.6815 8.56003 11.7717 8.56003L11.7717 8.56002ZM15.6334 10.6934C15.7547 10.41 15.871 10.1296 15.9809 9.85188C15.6824 9.81784 15.3783 9.7883 15.0702 9.76265C15.1738 9.92885 15.2762 10.0949 15.3762 10.26C15.4622 10.4034 15.5483 10.548 15.6334 10.6934L15.6334 10.6934ZM7.96348 8.74979C8.69848 8.67395 9.45652 8.62151 10.2181 8.59069C10.6201 7.9151 11.0452 7.25075 11.4829 6.61936C9.73 4.52654 8.18109 3.35521 7.35707 3.35521C7.2709 3.35521 7.20262 3.3707 7.14776 3.40185C6.88524 3.55223 6.59689 4.37274 7.18074 6.49766C7.37249 7.19812 7.63716 7.95603 7.96347 8.74976L7.96348 8.74979ZM7.57368 14.0025C7.81383 13.3825 8.08047 12.752 8.36821 12.1219C7.96731 11.3766 7.59825 10.628 7.27156 9.89575C3.83734 10.3479 2.1023 11.2642 2.09339 11.8464C2.08858 12.1425 2.65919 12.8089 4.82711 13.4277C5.64102 13.6603 6.5686 13.8524 7.5739 14.0025H7.57368ZM11.8329 17.4173C11.3128 16.7606 10.8054 16.0648 10.3264 15.3582C9.63151 15.3145 8.95399 15.2527 8.30105 15.1743C7.97108 16.1105 7.71569 16.9996 7.54895 17.8088C7.10529 19.9651 7.44653 20.7668 7.7175 20.9002C7.76572 20.9238 7.82174 20.9349 7.88936 20.9349C8.68554 20.9352 10.1864 19.6553 11.8329 17.4173L11.8329 17.4173ZM16.7022 15.2495C15.9672 15.3253 15.2092 15.3778 14.4476 15.4086C14.0452 16.0845 13.621 16.7485 13.1828 17.3802C14.9362 19.4725 16.4846 20.6444 17.3091 20.6444C17.3953 20.6444 17.4636 20.6289 17.5184 20.5977C17.7805 20.4481 18.0687 19.6268 17.4855 17.5019C17.2932 16.8008 17.0277 16.0432 16.7022 15.2495L16.7022 15.2495ZM22.5724 12.153C22.5765 11.8566 22.0066 11.1905 19.8378 10.5717C19.0244 10.3394 18.0967 10.147 17.0919 9.99696C16.8517 10.6169 16.5851 11.2475 16.2973 11.8771C16.6982 12.6224 17.067 13.371 17.394 14.1032C20.8279 13.6513 22.5624 12.7349 22.5722 12.1531L22.5724 12.153Z" fill="white"/>
</svg>
