<svg width="140" height="132" viewBox="0 0 140 132" fill="none" xmlns="http://www.w3.org/2000/svg">
<circle cx="75.3223" cy="71.3894" r="60" fill="#FBDAE5"/>
<path d="M16.1275 112.406L14.7363 111.015L4.87944 120.872L6.2706 122.263L16.1275 112.406Z" fill="#115E67"/>
<path d="M14.9725 122.148L16.3633 120.757L6.50359 110.898L5.11283 112.288L14.9725 122.148Z" fill="#115E67"/>
<path d="M107.514 118.55L113.423 112.642L107.514 106.734L109.657 104.588L117.57 112.498L117.71 112.638L117.718 112.646L117.3 113.052L117.067 113.285L109.657 120.696L107.514 118.55Z" fill="#800134"/>
<path d="M115.107 118.55L121.017 112.642L115.107 106.734L117.255 104.588L125.167 112.498L125.308 112.638L125.311 112.646L124.897 113.052L124.665 113.285L117.255 120.696L115.107 118.55Z" fill="#800134"/>
<path d="M122.707 118.55L128.616 112.642L122.707 106.734L124.851 104.588L132.763 112.498L132.903 112.638L132.911 112.646L132.493 113.052L132.264 113.285L124.851 120.696L122.707 118.55Z" fill="#800134"/>
<path d="M133.87 55.9192C137.217 55.9192 139.931 53.2055 139.931 49.8579C139.931 46.5104 137.217 43.7966 133.87 43.7966C130.522 43.7966 127.809 46.5104 127.809 49.8579C127.809 53.2055 130.522 55.9192 133.87 55.9192Z" fill="#AA5678"/>
<path d="M30.1785 0.391357H27.5371V19.0808H30.1785V0.391357Z" fill="#800134"/>
<path d="M38.3145 10.7234V8.08276L19.6197 8.08276V10.7234L38.3145 10.7234Z" fill="#800134"/>
<path fill-rule="evenodd" clip-rule="evenodd" d="M81.2234 37.2271V45.3085H77.8685V37.2271L81.2234 37.2271ZM55.7195 51.602H94.5596V90.4422H55.7195V51.602ZM52.3646 93.797V48.2472H97.9145V93.797H52.3646ZM63.8015 59.6833H70.5228V64.2018H63.8015V59.6833ZM73.8777 64.2018V59.6833H78.6049V64.2018H73.8777ZM78.6049 67.5566H73.8777V72.2831H78.6049V67.5566ZM81.9597 72.2831V67.5566H86.4788V72.2831H81.9597ZM78.6049 75.6379H70.7299V73.9608H70.5228V67.5566H63.8015V82.3607H78.6049V75.6379ZM81.9597 82.3607V75.6379H86.4788V82.3607H81.9597ZM81.9597 64.2018V59.6833H86.4788V64.2018H81.9597ZM60.4467 85.7155V56.3285H89.8336V85.7155H60.4467ZM90.0398 45.3085V37.2271L86.6849 37.2271V45.3085H90.0398ZM72.4089 37.2271V45.3085H69.0541V37.2271L72.4089 37.2271ZM63.5925 45.3085V37.2271L60.2377 37.2271V45.3085H63.5925ZM40.2422 64.9366H48.3236V68.2914H40.2422V64.9366ZM48.3236 56.1204H40.2422V59.4752H48.3236V56.1204ZM40.2422 73.7525H48.3236V77.1073H40.2422V73.7525ZM48.3236 82.5689H40.2422V85.9237H48.3236V82.5689ZM102.32 64.9366H110.402V68.2914H102.32V64.9366ZM110.402 56.1204H102.32V59.4752H110.402V56.1204ZM102.32 73.7525H110.402V77.1073H102.32V73.7525ZM110.402 82.5689H102.32V85.9237H110.402V82.5689ZM81.2234 97.4697V105.551H77.8685V97.4697H81.2234ZM90.0398 105.551V97.4697H86.6849V105.551H90.0398ZM72.4089 97.4702V105.552H69.0541V97.4702H72.4089ZM63.5925 105.552V97.4702H60.2377V105.552H63.5925Z" fill="#040404"/>
</svg>
