<svg width="156" height="121" viewBox="0 0 156 121" fill="none" xmlns="http://www.w3.org/2000/svg">
<rect x="30.332" y="20.2588" width="97.225" height="82" stroke="#6A1840" stroke-width="5"/>
<path fill-rule="evenodd" clip-rule="evenodd" d="M27.832 38.509C25.0213 36.2798 21.2778 35.0605 16.9788 35.0605C7.77681 35.0605 0.611328 40.9438 0.611328 50.7492H10.4167C10.4167 45.5448 13.7355 43.8854 16.9788 43.8854C21.1272 43.8854 23.4654 46.6007 23.4654 50.5983C23.4654 53.0874 22.6357 54.7468 20.6747 57.085L0.611328 80.3916V89.2165H27.832V80.3916H12.5287L27.5384 62.9682C27.6375 62.853 27.7354 62.7388 27.832 62.6257V38.509ZM130.057 87.0326C132.768 88.765 136.065 89.669 139.539 89.669C148.289 89.669 155.831 83.9367 155.831 73.6787V51.0509C155.831 40.7929 148.289 35.0605 139.539 35.0605C136.065 35.0605 132.768 35.9645 130.057 37.697V87.0326ZM139.539 80.8442C143.386 80.8442 146.026 78.1288 146.026 73.6033V51.2017C146.026 46.6762 143.386 43.8854 139.539 43.8854C135.692 43.8854 132.977 46.6762 132.977 51.2017V73.6033C132.977 78.1288 135.692 80.8442 139.539 80.8442Z" fill="#D9D9D9"/>
<path d="M73.3861 73.6797V51.0519C73.3861 40.7939 65.8435 35.0615 57.094 35.0615C48.3446 35.0615 40.7266 40.7939 40.7266 51.0519V73.6797C40.7266 83.9376 48.3446 89.67 57.094 89.67C65.8435 89.67 73.3861 83.9376 73.3861 73.6797ZM63.5807 73.6043C63.5807 78.1298 60.9408 80.8452 57.094 80.8452C53.2473 80.8452 50.532 78.1298 50.532 73.6043V51.2027C50.532 46.6771 53.2473 43.8864 57.094 43.8864C60.9408 43.8864 63.5807 46.6771 63.5807 51.2027V73.6043Z" fill="#D9D9D9"/>
<path d="M114.868 73.6797C114.868 67.193 111.776 63.4972 107.929 61.4607C111.474 59.575 114.114 56.2563 114.114 50.4484C114.114 41.3973 107.25 35.0615 97.7463 35.0615C88.6952 35.0615 81.5297 40.7939 81.3034 50.373H91.1088C91.3351 46.3 94.0505 43.8864 97.7463 43.8864C101.291 43.8864 104.308 46.2246 104.308 50.7502C104.308 54.5215 102.272 57.4631 97.5201 57.4631H96.087V65.9862H97.5201C102.347 65.9862 105.063 68.9278 105.063 73.378C105.063 78.2052 102.046 80.8452 97.8218 80.8452C93.975 80.8452 90.6563 78.6578 90.5054 73.8305H80.7C80.8509 85.069 89.0723 89.67 97.8218 89.67C107.024 89.67 114.868 84.3902 114.868 73.6797Z" fill="#D9D9D9"/>
<path d="M42.834 66.1817H49.2064V64.644H44.906V64.5919C44.906 63.9664 45.4403 63.4712 46.3264 62.976C47.8381 62.1029 49.2064 61.6077 49.2194 59.7442C49.2194 58.2325 48.203 56.9684 46.0397 56.9684C43.8635 56.9684 42.8991 58.2325 42.8991 59.9918V60.1612H44.7105V59.9918C44.7105 58.832 45.4664 58.5453 46.0397 58.5453C46.6262 58.5453 47.3168 58.8189 47.3168 59.7442C47.3038 60.8518 46.3916 61.1907 45.4142 61.764C43.2901 63.002 42.834 64.0967 42.834 65.9602V66.1817Z" fill="#6A1840"/>
<path d="M53.9657 56.9424C52.1935 56.9424 50.2778 58.1673 50.2778 61.6207C50.2778 65.0871 52.1935 66.299 53.9657 66.299C55.7641 66.299 57.6537 65.0871 57.6537 61.6207C57.6537 58.1673 55.7641 56.9424 53.9657 56.9424ZM55.7511 61.6207C55.7511 63.2105 55.3601 64.6701 53.9657 64.6701C52.5714 64.6701 52.1804 63.2105 52.1804 61.6207C52.1804 60.0439 52.5714 58.5713 53.9657 58.5713C55.3601 58.5713 55.7511 60.0439 55.7511 61.6207Z" fill="#6A1840"/>
<path d="M63.6306 61.347C64.2691 61.1776 65.1422 60.5782 65.1422 59.3793C65.1422 58.0761 63.9172 56.9424 62.0016 56.9424C60.0599 56.9424 58.861 58.0631 58.861 59.9787H60.6333C60.6594 58.858 61.3631 58.5713 62.0277 58.5713C62.6793 58.5713 63.3178 58.8971 63.3178 59.6138C63.3178 60.0569 63.0963 60.8258 61.767 60.8258H61.324V62.0768H61.767C63.1614 62.0768 63.6566 62.7544 63.6566 63.419C63.6566 64.4094 62.7444 64.7092 62.0668 64.7092C61.2718 64.7092 60.4248 64.2922 60.3596 63.1324H58.5874C58.5743 65.0089 59.8644 66.3381 62.0537 66.3381C64.3082 66.3381 65.5592 65.1653 65.5592 63.5233C65.5592 61.9725 64.2561 61.3992 63.6306 61.347Z" fill="#6A1840"/>
<path d="M70.2551 56.9424C68.4829 56.9424 66.5672 58.1673 66.5672 61.6207C66.5672 65.0871 68.4829 66.299 70.2551 66.299C72.0535 66.299 73.9431 65.0871 73.9431 61.6207C73.9431 58.1673 72.0535 56.9424 70.2551 56.9424ZM72.0405 61.6207C72.0405 63.2105 71.6495 64.6701 70.2551 64.6701C68.8608 64.6701 68.4698 63.2105 68.4698 61.6207C68.4698 60.0439 68.8608 58.5713 70.2551 58.5713C71.6495 58.5713 72.0405 60.0439 72.0405 61.6207Z" fill="#6A1840"/>
<path d="M84.8276 57.0597L82.5341 63.7188L80.2405 57.0597H78.1164L81.6479 66.1817H83.4333L86.9518 57.0597H84.8276Z" fill="#6A1840"/>
<path d="M87.8498 56.9424V58.3889H89.7524V56.9424H87.8498ZM87.8498 59.4053V66.1817H89.7524V59.4053H87.8498Z" fill="#6A1840"/>
<path d="M94.8738 61.5034H96.5809C96.3594 60.2133 95.4993 59.3402 93.701 59.3402C91.9678 59.3402 90.9383 60.096 90.9383 61.3601C90.9383 62.2853 91.4726 62.9629 93.0103 63.3018L94.105 63.5363C94.6132 63.6406 94.8217 63.797 94.8217 64.1488C94.8217 64.5658 94.4829 64.8655 93.727 64.8655C93.0233 64.8655 92.6063 64.5919 92.463 64.0185H90.7168C90.9122 65.5171 91.9808 66.2729 93.714 66.2729C95.4342 66.2729 96.7243 65.6083 96.7243 64.1749C96.7243 62.7675 95.8512 62.5981 94.6392 62.3244L93.4273 62.0507C92.9582 61.9465 92.7106 61.751 92.7106 61.4122C92.7106 60.9822 93.1146 60.7476 93.714 60.7476C94.3395 60.7476 94.7174 60.9431 94.8738 61.5034Z" fill="#6A1840"/>
<path d="M97.6871 56.9424V58.3889H99.5897V56.9424H97.6871ZM97.6871 59.4053V66.1817H99.5897V59.4053H97.6871Z" fill="#6A1840"/>
<path d="M103.981 59.3402C102.548 59.3402 100.619 60.2915 100.619 62.8196C100.619 65.3216 102.548 66.2729 103.981 66.2729C105.415 66.2729 107.343 65.3216 107.343 62.8196C107.343 60.2915 105.415 59.3402 103.981 59.3402ZM105.519 62.8196C105.519 64.1488 104.789 64.7352 103.981 64.7352C103.173 64.7352 102.444 64.1488 102.444 62.8196C102.444 61.4252 103.173 60.8779 103.981 60.8779C104.789 60.8779 105.519 61.4252 105.519 62.8196Z" fill="#6A1840"/>
<path d="M112.456 59.3402C111.205 59.3402 110.475 60.2785 110.28 60.7476V59.4053H108.377V66.1817H110.28V62.1811C110.345 61.751 110.801 60.917 111.752 60.917C112.43 60.917 112.964 61.2688 112.964 62.2071V66.1817H114.867V62.1029C114.867 60.0439 113.85 59.3402 112.456 59.3402Z" fill="#6A1840"/>
</svg>
