<svg width="107" height="89" viewBox="0 0 107 89" fill="none" xmlns="http://www.w3.org/2000/svg">
<path d="M41.3242 26.9307H44.6796V30.9571H41.3242V26.9307Z" fill="#6A1840"/>
<path d="M66.1543 26.9307H69.5097V30.9571H66.1543V26.9307Z" fill="#6A1840"/>
<path d="M53.4043 34.3125H56.7597V37.6679H53.4043V34.3125Z" fill="#6A1840"/>
<path d="M41.3242 34.3127H44.6796V37.6681H41.3242V34.3127Z" fill="#6A1840"/>
<path d="M66.1543 34.3127H69.5097V37.6681H66.1543V34.3127Z" fill="#6A1840"/>
<path d="M53.4043 41.0234H56.7597V45.0499H53.4043V41.0234Z" fill="#6A1840"/>
<path d="M54.7225 0.901514L42.3914 6.18619C41.7442 6.46379 41.3242 7.10079 41.3242 7.80541V21.8979C41.3242 22.6025 41.7442 23.2395 42.3914 23.5171L54.7225 28.8018C54.7469 28.812 54.7736 28.8018 54.798 28.8175H54.7988C54.9954 28.8969 55.2045 28.9394 55.4169 28.9441C55.6552 28.9441 55.8919 28.8954 56.1113 28.8018L68.4424 23.5171C69.0896 23.2395 69.5096 22.6025 69.5096 21.8979V7.80542C69.5088 7.6442 69.4852 7.48455 69.4388 7.32963C69.4246 7.27852 69.4002 7.23448 69.3822 7.18493L69.3829 7.18572C69.346 7.08585 69.3019 6.9899 69.2485 6.89789C69.217 6.84677 69.18 6.80116 69.1447 6.75162C69.0865 6.67376 69.0212 6.60063 68.9496 6.53379C68.904 6.48975 68.8568 6.44886 68.8065 6.41032C68.775 6.38752 68.7499 6.35606 68.7168 6.33483C68.6602 6.3018 68.6012 6.2727 68.5407 6.24675C68.5069 6.22945 68.4809 6.20271 68.4455 6.18699L56.1144 0.902309V0.901522C55.6701 0.711211 55.1668 0.711211 54.7225 0.901522L54.7225 0.901514ZM53.6553 24.5124L44.8474 20.7377V10.4765L53.6553 14.2513V24.5124ZM65.9864 20.7377L57.1785 24.5108V14.2513L59.3805 13.3092L65.9864 10.4782V20.7377ZM55.4169 11.1741L47.5582 7.80602L55.4169 4.43792L63.2756 7.80602L55.4169 11.1741Z" fill="#6A1840"/>
<path d="M7.77148 74.5774H11.1269V77.9328H7.77148V74.5774Z" fill="#6A1840"/>
<path d="M95.6816 74.5774H99.7081V77.9328H95.6816V74.5774Z" fill="#6A1840"/>
<path d="M104.653 53.3615H73.2611L73.0742 53.2679L70.0998 51.7844L64.586 49.0361H64.5852C60.8882 47.1915 56.5106 47.3135 52.9217 49.3602L52.1975 49.7724V49.7732C52.0847 49.7212 51.9656 49.6835 51.8441 49.6599L45.8356 48.9992C41.6551 48.4163 37.4761 50.0776 34.8459 53.3686H2.15587C1.17998 53.3686 0.388681 54.1576 0.388681 55.1306V83.3219C0.387893 83.5578 0.436019 83.7907 0.528323 84.0078C0.806812 84.6575 1.44742 85.0783 2.15588 85.0767L35.573 85.087L48.61 88.1429C54.0923 89.4384 59.8679 88.3199 64.4651 85.0721H104.652C105.121 85.0721 105.57 84.8864 105.902 84.5561C106.233 84.2257 106.419 83.7773 106.419 83.3101V55.1188C106.416 54.1474 105.626 53.3616 104.652 53.3616L104.653 53.3615ZM14.5257 81.5528H3.92258V56.8854H14.5257V81.5528ZM49.4192 84.7243L36.1826 81.618C36.0509 81.5865 35.916 81.5708 35.7795 81.5708L18.0603 81.5582V56.8908H35.7322C36.3231 56.8908 36.8746 56.5967 37.2028 56.1066C38.0856 54.797 39.321 53.7633 40.7679 53.124C42.2147 52.4845 43.8131 52.2658 45.3791 52.4931L47.0721 52.6796L45.4588 53.5991C45.413 53.6258 45.3878 53.6675 45.346 53.6974L44.0916 54.4148L44.0908 54.4156C42.0932 55.5231 40.8396 57.6098 40.8034 59.8887C40.7663 62.1682 41.9521 64.2936 43.9133 65.4647C45.8745 66.636 48.3139 66.6745 50.3115 65.567L58.3309 61.2628L62.2046 63.1711L62.2827 82.3236V82.3228C58.5266 84.8981 53.8539 85.768 49.4194 84.7173L49.4192 84.7243ZM88.7478 81.5528H65.8147L65.735 62.0659C65.7327 61.3981 65.3516 60.7885 64.7504 60.4928L59.5246 57.9183C58.9716 57.5108 58.2466 57.4149 57.6059 57.6642C57.5831 57.6744 57.5562 57.6729 57.5334 57.6855L48.632 62.4593C47.4864 63.0681 46.0735 62.8345 45.186 61.8898C44.5888 61.2534 44.3166 60.3795 44.446 59.5175C44.5754 58.6554 45.0929 57.9003 45.8503 57.4654L54.6523 52.4266H54.6531C57.2171 50.9541 60.3516 50.8636 62.9975 52.1851L71.4903 56.4138L72.052 56.6922H72.0528C72.2966 56.8181 72.568 56.8841 72.8425 56.8857H88.7473L88.7478 81.5528ZM102.885 81.5528H92.2822V56.8854H102.885V81.5528Z" fill="black"/>
</svg>
