<svg width="139" height="122" viewBox="0 0 139 122" fill="none" xmlns="http://www.w3.org/2000/svg">
<circle cx="63.9707" cy="60.2822" r="60" fill="#FBDAE5"/>
<path d="M134.012 107.083L132.621 105.692L122.764 115.549L124.155 116.94L134.012 107.083Z" fill="#115E67"/>
<path d="M132.857 116.825L134.248 115.434L124.388 105.574L122.998 106.965L132.857 116.825Z" fill="#115E67"/>
<path d="M83.9316 20.6357L89.8411 14.7279L83.9316 8.82018L86.0751 6.67358L93.9877 14.5839L94.1281 14.7243L94.1355 14.7316L93.7179 15.1381L93.4851 15.3708L86.0751 22.7823L83.9316 20.6357Z" fill="#800134"/>
<path d="M91.5254 20.6357L97.4348 14.7279L91.5254 8.82018L93.6726 6.67358L101.585 14.5839L101.726 14.7243L101.729 14.7316L101.315 15.1381L101.083 15.3708L93.6726 22.7823L91.5254 20.6357Z" fill="#800134"/>
<path d="M99.125 20.6357L105.034 14.7279L99.125 8.82018L101.269 6.67358L109.181 14.5839L109.321 14.7243L109.329 14.7316L108.911 15.1381L108.682 15.3708L101.269 22.7823L99.125 20.6357Z" fill="#800134"/>
<path fill-rule="evenodd" clip-rule="evenodd" d="M25.2079 54.1671C27.2676 52.2734 30.0058 50.3673 33.263 48.5245C29.9875 46.7835 27.3104 45.0194 25.4906 43.3128C25.1943 43.035 24.9141 42.7525 24.6537 42.4656L24.6039 42.4658C21.2954 42.4658 18.6133 39.7837 18.6133 36.4751C18.6133 33.1666 21.2954 30.4845 24.6039 30.4845C26.6509 30.4845 28.4582 31.5112 29.5387 33.0777C29.6813 33.0541 29.8254 33.0316 29.9708 33.0102C33.1318 32.5445 37.2731 32.5398 42.0432 32.9483C47.1443 26.7412 54.8809 22.7822 63.5422 22.7822C72.9065 22.7822 81.1898 27.4099 86.2302 34.503C90.4832 34.5074 94.2003 34.9295 97.0836 35.8119C100.169 36.756 102.818 38.3997 103.556 41.1551C104.212 43.6038 103.113 46.0481 101.359 48.1789C100.751 48.9181 100.033 49.6586 99.2184 50.3963C100.022 50.9259 100.757 51.452 101.415 51.9722C102.088 52.5034 102.702 53.044 103.238 53.5921C103.272 53.5916 103.305 53.5913 103.338 53.5913C106.647 53.5913 109.329 56.2734 109.329 59.582C109.329 62.8905 106.647 65.5726 103.338 65.5726C101.461 65.5726 99.7853 64.7091 98.6869 63.3575C96.393 63.7352 93.5782 63.8514 90.4042 63.7416C89.6653 63.716 88.9035 63.6781 88.1203 63.6278C85.2558 69.0187 80.6698 73.3545 75.097 75.9029V77.3599H77.2352V81.1712H75.097V82.6887H77.2352V86.112H75.097V87.8236H77.2352V91.2468H75.097V96.3816H71.6742V101.516H55.4138V96.3816H51.9902V91.2468H49.8494V87.8236H51.9902V86.112H49.8494V82.6887H51.9902V81.1712H49.8494V77.3599H51.9902V75.9042C48.7328 74.415 45.8123 72.3151 43.3757 69.7507C40.9276 69.9125 38.6211 69.9596 36.4919 69.8922C32.5237 69.7667 29.0697 69.2411 26.4365 68.2545C23.8521 67.2861 21.6785 65.7186 21.0224 63.2698C20.5907 61.6588 20.9264 60.0337 21.6911 58.5316C22.4495 57.0418 23.6732 55.5782 25.2079 54.1671ZM102.829 62.0988L102.83 62.0984L102.829 62.0981L101.915 57.4446C101.305 57.8518 100.879 58.5137 100.789 59.2785L100.791 59.2774C100.78 59.3772 100.773 59.4788 100.773 59.5818C100.773 60.8244 101.656 61.8607 102.829 62.0981L102.829 62.0988ZM99.5971 54.9028C98.2259 56.0007 97.3477 57.6888 97.3477 59.582C97.3477 59.7536 97.3549 59.9235 97.369 60.0914C95.5161 60.3312 93.2143 60.4135 90.5225 60.3204C90.2266 60.3102 89.9265 60.2978 89.6224 60.2834C90.1126 58.9644 90.5056 57.5981 90.7926 56.1931C91.7292 55.6739 92.6227 55.1506 93.4701 54.6249C94.5131 53.978 95.4943 53.3225 96.4052 52.6614C97.5124 53.3468 98.479 54.0152 99.2939 54.6588C99.398 54.741 99.4991 54.8224 99.5971 54.9028ZM62.167 55.6029C53.4003 53.2819 45.5103 50.4922 39.3239 47.683C40.7636 35.5857 51.0575 26.2055 63.5422 26.2055C77.0128 26.2055 87.9327 37.1255 87.9327 50.596C87.9327 51.7411 87.8538 52.8678 87.7011 53.9711C84.504 55.648 80.8177 57.2831 76.7612 58.7987C73.2563 58.2013 69.5355 57.4332 65.683 56.496V47.6007H73.3847V39.0426H69.9615V44.1774H57.1244V39.0426H53.7012V47.6007H62.2598V55.6274C62.2289 55.6192 62.198 55.6111 62.167 55.6029ZM65.683 60.0171C67.2151 60.3823 68.7278 60.7215 70.2159 61.0345C68.7382 61.4946 67.2257 61.9367 65.683 62.358V60.0171ZM62.2598 59.1658C61.9375 59.0823 61.6145 58.9978 61.2909 58.9121C52.9631 56.7073 45.3546 54.0721 39.1635 51.3596C39.337 57.0005 41.4259 62.1604 44.803 66.2094C50.0757 65.7583 56.0156 64.7769 62.2598 63.2453V59.1658ZM62.2598 66.7673C57.2473 67.9644 52.41 68.8198 47.9288 69.3353C49.8417 70.9309 52.0029 72.2392 54.3462 73.1939C54.7408 73.3546 55.1406 73.5053 55.5451 73.6457L55.3769 74.1306H55.4135V77.3599H62.2598V66.7673ZM65.683 77.3599H71.6738V74.1306H71.7076L71.5393 73.6457C71.9439 73.5053 72.3437 73.3546 72.7383 73.1939C77.5886 71.2179 81.6587 67.7266 84.3618 63.3088C82.0686 63.0702 79.6355 62.7418 77.0937 62.3251C73.5909 63.6034 69.8492 64.7873 65.9393 65.8349C65.8538 65.8578 65.7684 65.8806 65.683 65.9033V77.3599ZM83.4966 59.7699C84.3653 59.8705 85.2137 59.9582 86.04 60.033C86.277 59.4688 86.4933 58.8938 86.688 58.309C85.6604 58.803 84.5956 59.2906 83.4966 59.7699ZM35.1918 45.6718C35.4838 45.8249 35.7815 45.9784 36.0848 46.132C36.6628 42.5493 37.9251 39.1957 39.7333 36.2096C36.0622 35.9819 32.9627 36.0434 30.5938 36.3789C30.5943 36.4109 30.5946 36.443 30.5946 36.4751C30.5946 38.4018 29.6851 40.116 28.2719 41.2119C29.8412 42.5733 32.1763 44.0902 35.1918 45.6718ZM27.1714 36.4751C27.1714 37.8176 26.1409 38.9195 24.8278 39.0329C24.7549 39.0391 24.6811 39.0423 24.6065 39.0423C23.8465 39.0423 23.1636 38.7121 22.6935 38.1873L22.6934 38.1903C22.285 37.7356 22.0365 37.1344 22.0365 36.4751C22.0365 35.0572 23.186 33.9077 24.6039 33.9077C26.0219 33.9077 27.1714 35.0572 27.1714 36.4751ZM98.7164 46.0034C98.0493 46.8138 97.1872 47.663 96.1391 48.5373C94.5725 47.663 92.8387 46.7869 90.9646 45.9199C90.4876 43.102 89.5867 40.4283 88.33 37.9665C91.4513 38.0863 94.0712 38.4699 96.082 39.0853C98.8711 39.9387 99.9886 41.0683 100.249 42.0411C100.479 42.8975 100.204 44.196 98.7164 46.0034ZM91.356 50.596C91.356 50.3614 91.3531 50.1275 91.3473 49.8944C91.9559 50.1936 92.5425 50.4916 93.1064 50.788C92.6466 51.0959 92.1662 51.4054 91.6656 51.7159C91.5529 51.7859 91.4393 51.8557 91.3248 51.9256C91.3455 51.485 91.356 51.0417 91.356 50.596ZM27.5249 56.6871C29.5022 54.869 32.2849 52.9569 35.7324 51.0675C35.8275 56.7842 37.6471 62.0803 40.6928 66.4589C39.2597 66.5078 37.8924 66.5116 36.6001 66.4707C32.8193 66.3511 29.7809 65.8519 27.6376 65.0489C25.4455 64.2275 24.5585 63.2403 24.329 62.3838C24.1768 61.8161 24.239 61.0723 24.7417 60.0847C25.2508 59.0847 26.1644 57.9379 27.5249 56.6871ZM55.4135 92.9584V91.2468H71.6738V92.9584H55.4135ZM55.4135 87.8236H71.6738V86.112H55.4135V87.8236ZM71.6738 82.6887V81.1712H55.4135V82.6887H71.6738ZM58.8371 98.0933V96.3816H68.251V98.0933H58.8371Z" fill="black"/>
<path d="M9.62378 120.282C12.9713 120.282 15.6851 117.568 15.6851 114.221C15.6851 110.873 12.9713 108.16 9.62378 108.16C6.27623 108.16 3.5625 110.873 3.5625 114.221C3.5625 117.568 6.27623 120.282 9.62378 120.282Z" fill="#AA5678"/>
<path d="M3.563 13.8289C5.00007 13.8289 6.16505 12.6639 6.16505 11.2268C6.16505 9.78974 5.00007 8.62476 3.563 8.62476C2.12592 8.62476 0.960938 9.78974 0.960938 11.2268C0.960938 12.6639 2.12592 13.8289 3.563 13.8289Z" fill="#AA5678"/>
</svg>
