<svg width="160" height="52" viewBox="0 0 160 52" fill="none" xmlns="http://www.w3.org/2000/svg">
<path fill-rule="evenodd" clip-rule="evenodd" d="M133.389 23.3301V51.3301H159.389V28.1996L133.389 23.3301ZM137.389 28.1488V47.3301H155.389V31.52L137.389 28.1488Z" fill="black"/>
<path fill-rule="evenodd" clip-rule="evenodd" d="M31.3887 0.330078V51.3301H89.3887V13.5901L31.3887 0.330078ZM35.3887 5.34776V47.3301H85.3887V16.7788L35.3887 5.34776Z" fill="black"/>
<path fill-rule="evenodd" clip-rule="evenodd" d="M100.389 8.33008V51.3301H137.389V15.8083L100.389 8.33008ZM104.389 13.2194V47.3301H133.389V19.0808L104.389 13.2194Z" fill="#6A1840"/>
<path fill-rule="evenodd" clip-rule="evenodd" d="M30.7692 0.255859L0.388672 26.0749V51.33H35.3887V1.26344L30.7692 0.255859ZM4.38867 47.33V27.9248L31.3887 4.97878V47.33H4.38867Z" fill="black"/>
<path fill-rule="evenodd" clip-rule="evenodd" d="M100.121 8.30762L85.3887 15.1343V51.33H104.389V9.15379L100.121 8.30762ZM89.3887 47.33V17.6894L100.389 12.5921V47.33H89.3887Z" fill="#6A1840"/>
</svg>
