<svg width="14" height="14" viewBox="0 0 14 14" fill="none" xmlns="http://www.w3.org/2000/svg">
<path d="M4.06104 0.99707C2.01787 0.99707 0.355888 2.66716 0.355888 4.71893V10.0344C0.355888 12.0856 2.01941 13.7542 4.06311 13.7542H9.35766C11.4008 13.7542 13.0628 12.0841 13.0628 10.0323V4.71686C13.0628 2.66562 11.3993 0.99707 9.3556 0.99707H4.06104ZM10.4155 3.12326C10.7078 3.12326 10.945 3.36139 10.945 3.6548C10.945 3.94822 10.7078 4.18635 10.4155 4.18635C10.1233 4.18635 9.88609 3.94822 9.88609 3.6548C9.88609 3.36139 10.1233 3.12326 10.4155 3.12326ZM6.70935 4.18635C8.46132 4.18635 9.88609 5.61674 9.88609 7.37563C9.88609 9.13451 8.46132 10.5649 6.70935 10.5649C4.95739 10.5649 3.53262 9.13451 3.53262 7.37563C3.53262 5.61674 4.95739 4.18635 6.70935 4.18635ZM6.70935 5.24944C6.14767 5.24944 5.609 5.47345 5.21183 5.87219C4.81466 6.27092 4.59153 6.81173 4.59153 7.37563C4.59153 7.93952 4.81466 8.48033 5.21183 8.87906C5.609 9.2778 6.14767 9.50181 6.70935 9.50181C7.27103 9.50181 7.80971 9.2778 8.20688 8.87906C8.60405 8.48033 8.82718 7.93952 8.82718 7.37563C8.82718 6.81173 8.60405 6.27092 8.20688 5.87219C7.80971 5.47345 7.27103 5.24944 6.70935 5.24944V5.24944Z" fill="white"/>
</svg>
