<svg width="15" height="15" viewBox="0 0 15 15" fill="none" xmlns="http://www.w3.org/2000/svg">
<path d="M7.3447 0.641357C3.49113 0.641357 0.355888 3.78868 0.355888 7.65777C0.355888 11.5269 3.49113 14.6742 7.3447 14.6742C11.1983 14.6742 14.3335 11.5269 14.3335 7.65777C14.3335 3.78868 11.1983 0.641357 7.3447 0.641357ZM5.21767 10.7084H4.00222V6.13246H5.21767V10.7084ZM4.60995 5.21728C4.27418 5.21728 4.00222 4.94425 4.00222 4.60715C4.00222 4.27006 4.27418 3.99703 4.60995 3.99703C4.94571 3.99703 5.21767 4.27006 5.21767 4.60715C5.21767 4.94425 4.94571 5.21728 4.60995 5.21728ZM10.991 10.7084H9.77559V9.18307V8.42042C9.77559 7.83318 9.29701 7.35271 8.71207 7.35271C8.12714 7.35271 7.64856 7.83318 7.64856 8.42042V10.7084H6.43311V6.13246H7.64856V6.68645C8.00347 6.34417 8.48479 6.13246 9.01594 6.13246C10.1068 6.13246 10.991 7.02019 10.991 8.11536V10.7084Z" fill="white"/>
</svg>
