<svg width="25" height="24" viewBox="0 0 25 24" fill="none" xmlns="http://www.w3.org/2000/svg">
<path d="M5.271 10.3867C7.191 14.16 10.2843 17.24 14.0577 19.1733L16.991 16.24C17.351 15.88 17.8843 15.76 18.351 15.92C19.8443 16.4133 21.4577 16.68 23.111 16.68C23.8443 16.68 24.4443 17.28 24.4443 18.0133V22.6667C24.4443 23.4 23.8443 24 23.111 24C10.591 24 0.444336 13.8533 0.444336 1.33333C0.444336 0.6 1.04434 0 1.77767 0H6.44434C7.17767 0 7.77767 0.6 7.77767 1.33333C7.77767 3 8.04434 4.6 8.53767 6.09333C8.68434 6.56 8.57767 7.08 8.20434 7.45333L5.271 10.3867Z" fill="#6A1840"/>
</svg>
