<svg width="111" height="133" viewBox="0 0 111 133" fill="none" xmlns="http://www.w3.org/2000/svg">
<circle cx="55.332" cy="77.25" r="55" fill="#FBDAE5"/>
<path fill-rule="evenodd" clip-rule="evenodd" d="M66.4613 0.998779L66.4613 12.25L62.7109 12.25L62.7109 0.998779L66.4613 0.998779Z" fill="#6A1840"/>
<path fill-rule="evenodd" clip-rule="evenodd" d="M70.2129 8.49943L58.9617 8.49943L58.9617 4.74902L70.2129 4.74902L70.2129 8.49943Z" fill="#6A1840"/>
<path fill-rule="evenodd" clip-rule="evenodd" d="M101.461 74.7488L101.461 86L97.7109 86L97.7109 74.7488L101.461 74.7488Z" fill="#6A1840"/>
<path fill-rule="evenodd" clip-rule="evenodd" d="M105.213 82.2494L93.9617 82.2494L93.9617 78.499L105.213 78.499L105.213 82.2494Z" fill="#6A1840"/>
<path fill-rule="evenodd" clip-rule="evenodd" d="M30.2067 44.5002V40.75H26.4563L26.4563 44.5002L22.707 44.5002L22.707 48.2506H26.4563L26.4563 52.0012H30.2067V48.2507H33.9583V44.5002L30.2067 44.5002Z" fill="#6A1840"/>
<path fill-rule="evenodd" clip-rule="evenodd" d="M55.3184 55.25H78.9499V78.8816H73.042V61.1579H55.3184V55.25Z" fill="black"/>
<path fill-rule="evenodd" clip-rule="evenodd" d="M25.7793 98.8719H78.9503V104.78H25.7793V98.8719Z" fill="#6A1840"/>
<path fill-rule="evenodd" clip-rule="evenodd" d="M76.608 61.7698C77.7616 60.6162 77.7616 58.7458 76.608 57.5922C75.4545 56.4387 73.5841 56.4387 72.4305 57.5922L52.3647 77.6581L44.9798 70.2732L26.6444 88.6087C26.5262 88.7269 26.4201 88.8525 26.3262 88.9842L30.4464 93.1044C30.578 93.0104 30.7037 92.9044 30.8219 92.7862L44.9798 78.6282L52.3647 86.0131L76.608 61.7698Z" fill="black"/>
</svg>
