<svg width="108" height="40" viewBox="0 0 108 40" fill="none" xmlns="http://www.w3.org/2000/svg">
<g clip-path="url(#clip0_2_112)">
<path d="M6.84513 39.2249V0.757324L16.7478 6.2545L16.7906 9.57308L15.6791 9.58574L15.6427 6.89838L7.95661 2.63194V37.3503L15.6385 33.0839V30.2572H16.7521V33.7256L6.84513 39.2249Z" fill="white"/>
<path d="M22.654 30.6728H11.0252V28.3064H20.2554V11.6734H11.0252V9.30688H22.654V30.6728Z" fill="white"/>
<path d="M7.4255 30.6728H0.981484V9.30688H7.4255V11.6734H3.38005V28.3064H7.4255V30.6728Z" fill="white"/>
<path d="M34.3047 21.7412L33.2553 20.7068C32.6727 21.1458 31.9561 21.3765 31.2229 21.3612C30.7743 21.3707 30.3285 21.2894 29.913 21.1224C29.4975 20.9553 29.1212 20.7061 28.8072 20.3901C28.6006 20.1922 28.4278 19.9626 28.2954 19.7104C28.1704 19.4576 28.0811 19.1891 28.0298 18.9124C27.9686 18.5843 27.9356 18.2517 27.9313 17.9181C27.9228 17.5466 27.9185 17.1124 27.9185 16.6156C27.9185 16.1174 27.9185 15.6846 27.9313 15.3131C27.9356 14.9795 27.9686 14.6469 28.0298 14.3188C28.081 14.0441 28.1703 13.7777 28.2954 13.5271C28.4282 13.2745 28.601 13.0443 28.8072 12.8452C29.4539 12.2241 30.3211 11.8765 31.224 11.8765C32.1269 11.8765 32.9941 12.2241 33.6408 12.8452C33.847 13.0438 34.0191 13.2741 34.1505 13.5271C34.2765 13.7773 34.3659 14.0438 34.416 14.3188C34.478 14.6468 34.5117 14.9794 34.5167 15.3131C34.5167 15.6846 34.5295 16.1174 34.5295 16.6156C34.5295 17.0603 34.5252 17.4551 34.5167 17.7999C34.5101 18.1106 34.4858 18.4207 34.4439 18.7287C34.4081 18.9842 34.3435 19.2348 34.2511 19.4761C34.1595 19.7042 34.0339 19.9177 33.8785 20.1094L34.915 21.1311L34.3047 21.7412ZM33.5016 15.387C33.4925 15.0996 33.4631 14.8132 33.4138 14.5299C33.379 14.3184 33.3119 14.1134 33.2146 13.9219C33.1214 13.7448 33.0007 13.5831 32.8569 13.4427C32.6485 13.2309 32.3976 13.0641 32.1202 12.9529C31.8363 12.8359 31.5317 12.7757 31.224 12.7757C30.9163 12.7757 30.6116 12.8359 30.3277 12.9529C30.0504 13.0641 29.7995 13.2309 29.591 13.4427C29.4467 13.5831 29.3253 13.7447 29.2313 13.9219C29.1357 14.1141 29.0686 14.3188 29.0321 14.5299C28.9836 14.8133 28.9549 15.0997 28.9464 15.387C28.9336 15.7226 28.9272 16.1343 28.9272 16.624C28.9272 17.1138 28.9272 17.5254 28.9464 17.8611C28.9551 18.1484 28.9837 18.4348 29.0321 18.7182C29.0689 18.9291 29.136 19.1338 29.2313 19.3262C29.3248 19.503 29.4462 19.664 29.591 19.8033C29.7971 20.0155 30.0458 20.1831 30.3213 20.2951C30.6047 20.4125 30.9091 20.4728 31.2165 20.4725C31.7019 20.4755 32.1745 20.3187 32.5593 20.027L31.3707 18.8491L31.981 18.2474L33.1354 19.3853C33.2287 19.2435 33.3008 19.0892 33.3495 18.9272C33.4035 18.7407 33.4415 18.55 33.463 18.3572C33.4887 18.1461 33.508 17.8949 33.5166 17.612C33.5251 17.3291 33.5294 16.9998 33.5294 16.624C33.5208 16.1343 33.5144 15.7226 33.5016 15.387Z" fill="white"/>
<path d="M42.3247 21.2829L40.1724 17.1474H37.9023V21.2829H36.8936V11.9647H40.5172C40.9006 11.9613 41.282 12.0205 41.6458 12.14C41.9717 12.2502 42.2717 12.424 42.5281 12.6508C42.7783 12.8793 42.9749 13.1588 43.1042 13.4699C43.2484 13.8139 43.3213 14.1828 43.3184 14.555C43.3432 15.1628 43.1379 15.758 42.7423 16.2248C42.3565 16.6594 41.8325 16.9519 41.256 17.0545L43.4983 21.2766L42.3247 21.2829ZM41.785 13.2799C41.397 12.9843 40.9149 12.8346 40.4251 12.8577H37.9023V16.2692H40.4251C40.9145 16.2895 41.3957 16.1401 41.785 15.847C42.1362 15.5683 42.3097 15.1398 42.3097 14.5634C42.3097 13.9871 42.1362 13.5628 41.785 13.2799Z" fill="white"/>
<path d="M52.1649 17.5402C52.1597 17.8935 52.1303 18.2462 52.0771 18.5957C52.0254 18.9343 51.9341 19.2658 51.8051 19.5837C51.6772 19.8998 51.4856 20.1871 51.2419 20.4281C50.9462 20.7098 50.5928 20.9258 50.2053 21.0614C49.7704 21.2101 49.3121 21.2816 48.8518 21.2725H45.6031V11.9649H48.8433C49.3036 11.9558 49.7618 12.0273 50.1968 12.176C50.5846 12.3108 50.9382 12.5269 51.2333 12.8093C51.4725 13.0467 51.6637 13.3268 51.7965 13.6347C51.9248 13.928 52.0162 14.2357 52.0685 14.5509C52.1248 14.8761 52.157 15.2049 52.1649 15.5347C52.1649 15.8696 52.1649 16.1989 52.1649 16.5226C52.1649 16.8414 52.1649 17.1813 52.1649 17.5402ZM51.154 15.6613C51.151 15.3902 51.131 15.1194 51.0941 14.8507C51.0619 14.6023 51.0001 14.3586 50.9099 14.1245C50.826 13.906 50.6994 13.7059 50.5373 13.5355C50.3052 13.2904 50.0143 13.1067 49.6913 13.0014C49.3614 12.8967 49.0164 12.8454 48.6698 12.8494H46.6118V20.3901H48.6698C49.0163 20.3948 49.3613 20.3441 49.6913 20.2402C50.0108 20.1349 50.2986 19.9528 50.5287 19.7103C50.6953 19.5312 50.8222 19.3198 50.9013 19.0897C50.992 18.8303 51.0537 18.5621 51.0855 18.2896C51.1223 17.9968 51.1423 17.7022 51.1455 17.4072C51.1455 17.1011 51.1455 16.8055 51.1455 16.5163C51.1455 16.2271 51.1498 15.9569 51.1455 15.6613H51.154Z" fill="white"/>
<path d="M54.538 21.2833V11.9651H55.5488V21.2833H54.538Z" fill="white"/>
<path d="M67.8157 15.8386C67.6828 16.166 67.4789 16.4607 67.2182 16.7021C66.9511 16.9443 66.6372 17.131 66.2952 17.2509C65.9141 17.3858 65.5115 17.4523 65.1066 17.4473H62.5988V21.2831H61.588V11.9649H65.1045C65.5111 11.9599 65.9155 12.0249 66.2995 12.157C66.6431 12.2735 66.9576 12.4606 67.2225 12.7058C67.4813 12.9488 67.685 13.2431 67.82 13.5693C67.9666 13.9288 68.0394 14.3134 68.0342 14.7008C68.0375 15.0905 67.9633 15.4771 67.8157 15.8386ZM66.4622 13.3054C66.0496 12.9898 65.5363 12.8296 65.0145 12.8536H62.5988V16.5585H65.0145C65.5382 16.5816 66.0526 16.4165 66.4622 16.0941C66.8349 15.7838 67.019 15.3193 67.019 14.6987C67.019 14.078 66.8349 13.6178 66.4622 13.3117V13.3054Z" fill="white"/>
<path d="M76.1935 17.9264C76.1892 18.2599 76.1563 18.5926 76.095 18.9207C76.0432 19.1952 75.9539 19.4615 75.8295 19.7123C75.6976 19.9643 75.5247 20.1932 75.3176 20.39C75.0058 20.7006 74.6336 20.9462 74.2233 21.1119C73.8019 21.281 73.3505 21.3657 72.8955 21.361C72.4479 21.37 72.0032 21.2885 71.5889 21.1214C71.1745 20.9544 70.7992 20.7055 70.4862 20.39C70.279 20.1926 70.106 19.9629 69.9744 19.7102C69.8494 19.4574 69.7601 19.1889 69.7088 18.9122C69.6469 18.5842 69.6132 18.2516 69.6082 17.9179C69.5996 17.5464 69.5953 17.1122 69.5953 16.6154C69.5953 16.1172 69.5953 15.6844 69.6082 15.3129C69.6132 14.9792 69.6469 14.6466 69.7088 14.3186C69.76 14.0439 69.8493 13.7775 69.9744 13.5269C70.1065 13.2739 70.2794 13.0436 70.4862 12.8451C71.1325 12.224 71.9994 11.8765 72.9019 11.8765C73.8045 11.8765 74.6713 12.224 75.3176 12.8451C75.5245 13.0436 75.6973 13.2739 75.8295 13.5269C75.9545 13.7775 76.0439 14.0439 76.095 14.3186C76.1569 14.6501 76.1898 14.9863 76.1935 15.3234C76.2043 15.695 76.2085 16.1277 76.2085 16.6259C76.2085 17.1242 76.2043 17.5548 76.1935 17.9264ZM75.1784 15.3931C75.1699 15.1058 75.1413 14.8194 75.0928 14.536C75.0563 14.325 74.9892 14.1202 74.8936 13.928C74.7996 13.7509 74.6782 13.5892 74.5338 13.4488C74.3257 13.2341 74.0739 13.065 73.795 12.9527C73.5111 12.8357 73.2064 12.7755 72.8987 12.7755C72.591 12.7755 72.2864 12.8357 72.0025 12.9527C71.7251 13.0639 71.4743 13.2307 71.2658 13.4425C71.122 13.5829 71.0013 13.7446 70.9081 13.9217C70.8116 14.1135 70.7445 14.3184 70.709 14.5297C70.6594 14.8129 70.6307 15.0994 70.6233 15.3868C70.6083 15.7224 70.6019 16.1341 70.6019 16.6238C70.6019 17.1136 70.6019 17.5253 70.6233 17.8609C70.6309 18.1483 70.6595 18.4347 70.709 18.718C70.7448 18.9292 70.8119 19.134 70.9081 19.326C71.0009 19.5027 71.1216 19.6638 71.2658 19.8031C71.4737 20.0161 71.7247 20.1836 72.0025 20.295C72.2864 20.412 72.591 20.4722 72.8987 20.4722C73.2064 20.4722 73.5111 20.412 73.795 20.295C74.0731 20.1843 74.3243 20.0167 74.5317 19.8031C74.6765 19.6666 74.7987 19.5084 74.8936 19.3344C74.9889 19.1421 75.0559 18.9374 75.0928 18.7264C75.1412 18.443 75.1698 18.1566 75.1784 17.8694C75.1913 17.5337 75.1977 17.1199 75.1977 16.6323C75.1977 16.1446 75.1913 15.7224 75.1784 15.3868V15.3931Z" fill="white"/>
<path d="M84.015 21.2829L81.8735 17.1474H79.6034V21.2829H78.5926V11.9647H82.2183C82.6017 11.9613 82.9831 12.0205 83.3469 12.14C83.6754 12.2487 83.9778 12.4226 84.2356 12.6508C84.4871 12.8786 84.6846 13.1583 84.8139 13.4699C84.9581 13.8139 85.0309 14.1828 85.028 14.555C85.0536 15.1618 84.8507 15.7566 84.4583 16.2248C84.0717 16.6594 83.547 16.9519 82.9699 17.0545L85.2143 21.2766L84.015 21.2829ZM83.4775 13.2799C83.0895 12.9843 82.6074 12.8346 82.1176 12.8577H79.5948V16.2692H82.1176C82.607 16.2895 83.0882 16.1401 83.4775 15.847C83.8259 15.5655 84.0008 15.1376 84.0022 14.5634C84.0022 13.9935 83.8266 13.5628 83.4775 13.2799Z" fill="white"/>
<path d="M90.0712 12.8538V21.2833H89.0625V12.8538H86.3256V11.9651H92.806V12.8538H90.0712Z" fill="white"/>
<path d="M99.2804 21.2833L98.5244 19.1722H94.3998L93.6417 21.2833H92.5709L96.0488 11.9651H96.9054L100.351 21.2833H99.2804ZM96.4835 13.39L94.7039 18.313H98.2353L96.4835 13.39Z" fill="white"/>
<path d="M101.887 21.2833V11.9651H102.895V20.3903H107.729V21.2812L101.887 21.2833Z" fill="white"/>
<path d="M30.3873 28.6231C30.3 28.7844 30.1822 28.9277 30.0403 29.0453C29.8996 29.1596 29.7393 29.2483 29.567 29.3071C29.3832 29.3698 29.1898 29.4012 28.9952 29.4C28.7751 29.402 28.5568 29.3611 28.3528 29.2796C28.1538 29.1998 27.9732 29.0814 27.8217 28.9313C27.722 28.8354 27.6388 28.7242 27.5754 28.602C27.5151 28.4803 27.4718 28.351 27.4469 28.2178C27.4169 28.059 27.4004 27.898 27.3976 27.7365C27.3976 27.557 27.3976 27.348 27.3976 27.1032C27.3976 26.8583 27.3976 26.6514 27.3976 26.4698C27.4004 26.3083 27.4169 26.1473 27.4469 25.9885C27.4718 25.856 27.5151 25.7274 27.5754 25.6064C27.6388 25.4842 27.722 25.373 27.8217 25.2771C27.9732 25.1271 28.1538 25.0086 28.3528 24.9288C28.5568 24.8473 28.7751 24.8064 28.9952 24.8084C29.1897 24.8065 29.383 24.8372 29.567 24.8992C29.7394 24.9588 29.8997 25.0482 30.0403 25.1631C30.1824 25.2806 30.3002 25.4239 30.3873 25.5853C30.4827 25.7631 30.5485 25.9548 30.5822 26.1532H30.081C30.034 25.8973 29.9031 25.6637 29.7084 25.4882C29.5108 25.3201 29.2561 25.2319 28.9952 25.2412C28.8485 25.2415 28.7031 25.2694 28.5669 25.3235C28.432 25.3754 28.31 25.4553 28.2093 25.5579C28.1396 25.6251 28.0811 25.7028 28.0358 25.788C27.9891 25.882 27.9567 25.9823 27.9394 26.0856C27.916 26.2253 27.9024 26.3663 27.8988 26.5078C27.8988 26.6704 27.8988 26.8709 27.8988 27.1074C27.8988 27.3438 27.8988 27.5422 27.8988 27.7048C27.9024 27.8463 27.916 27.9874 27.9394 28.127C27.9567 28.2303 27.9891 28.3306 28.0358 28.4247C28.081 28.5105 28.1395 28.5889 28.2093 28.6569C28.31 28.7594 28.432 28.8394 28.5669 28.8912C28.7031 28.9453 28.8485 28.9732 28.9952 28.9735C29.2577 28.981 29.5138 28.8931 29.7148 28.7266C29.9129 28.5528 30.0463 28.3187 30.0939 28.0616H30.5822C30.5481 28.2578 30.4823 28.4474 30.3873 28.6231Z" fill="white"/>
<path d="M33.9208 28.4731C33.8719 28.6854 33.7635 28.88 33.6081 29.0347C33.4956 29.1452 33.3626 29.2334 33.2162 29.2943C32.8856 29.4209 32.5189 29.4209 32.1883 29.2943C32.042 29.2334 31.9089 29.1452 31.7964 29.0347C31.7177 28.9574 31.652 28.8683 31.6015 28.7708C31.5523 28.6759 31.5135 28.5761 31.4858 28.4731C31.4574 28.3666 31.438 28.2578 31.428 28.148C31.428 28.034 31.4109 27.9158 31.4109 27.7934C31.4109 27.6709 31.4109 27.557 31.428 27.4408C31.4379 27.3297 31.4572 27.2195 31.4858 27.1115C31.5135 27.0085 31.5523 26.9087 31.6015 26.8139C31.652 26.717 31.7178 26.6287 31.7964 26.5521C31.9089 26.4415 32.042 26.3534 32.1883 26.2924C32.5189 26.1659 32.8856 26.1659 33.2162 26.2924C33.3626 26.3534 33.4956 26.4415 33.6081 26.5521C33.7636 26.7059 33.8719 26.8998 33.9208 27.1115C34.0179 27.5604 34.0179 28.0243 33.9208 28.4731ZM33.5332 27.5274C33.5291 27.4402 33.5183 27.3534 33.5011 27.2677C33.4848 27.1856 33.4589 27.1055 33.424 27.0292C33.3901 26.9563 33.3446 26.8893 33.2891 26.8307C33.1344 26.6846 32.9283 26.603 32.714 26.603C32.4997 26.603 32.2937 26.6846 32.139 26.8307C32.0809 26.8877 32.0344 26.955 32.002 27.0292C31.9689 27.1062 31.9431 27.1861 31.9249 27.2677C31.9051 27.3531 31.8929 27.44 31.8885 27.5274C31.8885 27.6161 31.8885 27.7047 31.8885 27.7934C31.8885 27.8821 31.8885 27.9707 31.8885 28.0594C31.8929 28.1468 31.9051 28.2337 31.9249 28.319C31.9434 28.4013 31.9692 28.4818 32.002 28.5597C32.0326 28.6342 32.0794 28.7012 32.139 28.756C32.2937 28.9022 32.4997 28.9838 32.714 28.9838C32.9283 28.9838 33.1344 28.9022 33.2891 28.756C33.346 28.6994 33.3917 28.6328 33.424 28.5597C33.4586 28.4825 33.4845 28.4018 33.5011 28.319C33.5183 28.2334 33.5291 28.1466 33.5332 28.0594C33.5332 27.9707 33.5332 27.8821 33.5332 27.7934C33.5332 27.7047 33.5332 27.6161 33.5332 27.5274Z" fill="white"/>
<path d="M37.0076 29.3516V27.4326C37.0174 27.3183 37.0035 27.2031 36.9667 27.0942C36.9299 26.9853 36.8709 26.885 36.7934 26.7993C36.6342 26.6656 36.4319 26.5922 36.2227 26.5922C36.0135 26.5922 35.8112 26.6656 35.652 26.7993C35.5761 26.8835 35.5181 26.9817 35.4813 27.0883C35.4445 27.1949 35.4297 27.3077 35.4378 27.42V29.3389H34.9752V26.2357H35.4378V26.5776C35.5445 26.4542 35.6786 26.3567 35.8297 26.2927C35.9863 26.228 36.1547 26.1957 36.3244 26.1977C36.4723 26.1897 36.6204 26.2114 36.7595 26.2615C36.8987 26.3115 37.026 26.3889 37.1339 26.489C37.2461 26.6036 37.3331 26.7399 37.3895 26.8891C37.4459 27.0384 37.4704 27.1976 37.4616 27.3566V29.3516H37.0076Z" fill="white"/>
<path d="M40.618 29.3516V27.4326C40.6278 27.3183 40.6139 27.2031 40.5771 27.0942C40.5403 26.9853 40.4813 26.885 40.4038 26.7993C40.2446 26.6656 40.0423 26.5922 39.8331 26.5922C39.6239 26.5922 39.4216 26.6656 39.2624 26.7993C39.1865 26.8835 39.1285 26.9817 39.0917 27.0883C39.0549 27.1949 39.0401 27.3077 39.0482 27.42V29.3389H38.5856V26.2357H39.0482V26.5776C39.1549 26.4542 39.289 26.3567 39.4401 26.2927C39.5967 26.228 39.7651 26.1957 39.9348 26.1977C40.0827 26.1897 40.2308 26.2114 40.3699 26.2615C40.5091 26.3115 40.6364 26.3889 40.7443 26.489C40.8565 26.6036 40.9435 26.7399 40.9999 26.8891C41.0563 27.0384 41.0808 27.1976 41.072 27.3566V29.3516H40.618Z" fill="white"/>
<path d="M42.4937 27.9137C42.4755 28.1964 42.5597 28.4762 42.7314 28.7033C42.8179 28.7989 42.9253 28.8739 43.0455 28.9225C43.1657 28.9711 43.2956 28.9922 43.4253 28.9841C43.5833 28.9891 43.7406 28.9595 43.8857 28.8975C44.0231 28.8295 44.1477 28.7389 44.2541 28.6294L44.5689 28.9017C44.4933 28.9768 44.4132 29.0473 44.329 29.1128C44.25 29.172 44.1645 29.2222 44.0742 29.2627C43.9793 29.3059 43.8793 29.3371 43.7765 29.3556C43.6567 29.3794 43.5346 29.3908 43.4124 29.3894C43.2189 29.3921 43.0266 29.3599 42.8449 29.2944C42.6807 29.2322 42.5338 29.1323 42.4166 29.0031C42.2893 28.8581 42.1944 28.6884 42.1382 28.5048C42.067 28.2744 42.033 28.0343 42.0375 27.7934C42.0108 27.373 42.1335 26.9565 42.3845 26.6155C42.5051 26.4847 42.6519 26.3801 42.8156 26.308C42.9794 26.236 43.1564 26.1982 43.3357 26.1971C43.515 26.1959 43.6926 26.2313 43.8573 26.3011C44.022 26.371 44.1702 26.4737 44.2926 26.6028C44.5346 26.9189 44.6552 27.3093 44.6331 27.7048V27.9159L42.4937 27.9137ZM44.1513 27.4071C44.1513 27.3607 44.1513 27.3184 44.1363 27.2804C44.13 27.2427 44.1214 27.2053 44.1106 27.1685C44.1106 27.1327 44.0849 27.0947 44.0677 27.0524C44.0099 26.9115 43.9088 26.7919 43.7786 26.7104C43.6434 26.6282 43.4877 26.5847 43.3289 26.5847C43.1701 26.5847 43.0143 26.6282 42.8792 26.7104C42.7489 26.7919 42.6478 26.9115 42.59 27.0524C42.5591 27.126 42.5354 27.2024 42.5194 27.2804C42.5038 27.3768 42.4952 27.4742 42.4937 27.5718H44.1641C44.1598 27.5084 44.1555 27.4535 44.1513 27.4071Z" fill="white"/>
<path d="M47.4002 29.288C47.2215 29.3597 47.0298 29.3942 46.837 29.3894C46.6474 29.3912 46.4592 29.3575 46.2823 29.2902C46.1137 29.2251 45.9622 29.1233 45.839 28.9925C45.7058 28.8481 45.6051 28.6776 45.5435 28.4922C45.4684 28.2668 45.4322 28.0306 45.4364 27.7934C45.4322 27.5569 45.4684 27.3214 45.5435 27.0968C45.6056 26.9122 45.7063 26.7425 45.839 26.5986C45.9626 26.4677 46.114 26.3654 46.2823 26.2988C46.4588 26.2298 46.6472 26.1954 46.837 26.1975C47.0298 26.1927 47.2215 26.2271 47.4002 26.2988C47.5841 26.3856 47.748 26.5084 47.8821 26.6598L47.5673 26.9511C47.4723 26.8398 47.3568 26.7474 47.2267 26.6788C47.1057 26.6253 46.9739 26.5993 46.8413 26.6028C46.6934 26.599 46.5468 26.6294 46.4129 26.6914C46.2867 26.7522 46.1784 26.8438 46.0981 26.9574C46.0243 27.0613 45.9713 27.1781 45.9418 27.3015C45.8761 27.6256 45.8761 27.9592 45.9418 28.2832C45.9713 28.4073 46.0243 28.5248 46.0981 28.6294C46.1784 28.743 46.2867 28.8346 46.4129 28.8954C46.5468 28.9574 46.6934 28.9878 46.8413 28.9841C46.9743 28.9872 47.1063 28.9597 47.2267 28.9038C47.3563 28.8336 47.4717 28.7406 47.5673 28.6294L47.8821 28.9271C47.748 29.0784 47.5841 29.2013 47.4002 29.288Z" fill="white"/>
<path d="M49.6444 29.3518C49.5223 29.3545 49.4011 29.3314 49.2889 29.2842C49.1929 29.2435 49.1072 29.1822 49.0383 29.1048C48.9704 29.0268 48.9188 28.9364 48.8863 28.8388C48.8515 28.7346 48.8342 28.6255 48.8349 28.5158V26.6032H48.4365V26.2548H48.8349V25.2795H49.2974V26.2548H49.972V26.6032H49.2974V28.5031C49.2901 28.6235 49.3265 28.7425 49.4002 28.8388C49.4423 28.8817 49.4935 28.9148 49.5502 28.9356C49.6069 28.9564 49.6676 28.9645 49.7279 28.9591H49.972V29.3518H49.6444Z" fill="white"/>
<path d="M50.8806 29.3514V28.7561H51.4845V29.3514H50.8806Z" fill="white"/>
<path d="M57.1276 28.6231C57.0403 28.7844 56.9226 28.9277 56.7807 29.0453C56.6399 29.1596 56.4797 29.2483 56.3074 29.3071C56.1235 29.3698 55.9301 29.4012 55.7356 29.4C55.5155 29.402 55.2971 29.3611 55.0931 29.2796C54.8942 29.1998 54.7135 29.0814 54.562 28.9313C54.4623 28.8354 54.3792 28.7242 54.3157 28.602C54.2554 28.4803 54.2122 28.351 54.1872 28.2178C54.1572 28.059 54.1407 27.898 54.138 27.7365C54.138 27.557 54.138 27.348 54.138 27.1032C54.138 26.8583 54.138 26.6514 54.138 26.4698C54.1407 26.3083 54.1572 26.1473 54.1872 25.9885C54.2122 25.856 54.2554 25.7274 54.3157 25.6064C54.3792 25.4842 54.4623 25.373 54.562 25.2771C54.7135 25.1271 54.8942 25.0086 55.0931 24.9288C55.2971 24.8473 55.5155 24.8064 55.7356 24.8084C55.93 24.8065 56.1234 24.8372 56.3074 24.8992C56.4798 24.9588 56.64 25.0482 56.7807 25.1631C56.9227 25.2806 57.0405 25.4239 57.1276 25.5853C57.223 25.7631 57.2888 25.9548 57.3225 26.1532H56.8214C56.7743 25.8973 56.6434 25.6637 56.4487 25.4882C56.2511 25.3201 55.9964 25.2319 55.7356 25.2412C55.5888 25.2415 55.4434 25.2694 55.3073 25.3235C55.1723 25.3754 55.0503 25.4553 54.9496 25.5579C54.8799 25.6251 54.8214 25.7028 54.7761 25.788C54.7295 25.882 54.697 25.9823 54.6798 26.0856C54.6563 26.2253 54.6427 26.3663 54.6391 26.5078C54.6391 26.6704 54.6284 26.8709 54.6284 27.1074C54.6284 27.3438 54.6284 27.5422 54.6391 27.7048C54.6427 27.8463 54.6563 27.9874 54.6798 28.127C54.697 28.2303 54.7295 28.3306 54.7761 28.4247C54.8213 28.5105 54.8799 28.5889 54.9496 28.6569C55.0503 28.7594 55.1723 28.8394 55.3073 28.8912C55.4434 28.9453 55.5888 28.9732 55.7356 28.9735C55.998 28.981 56.2541 28.8931 56.4551 28.7266C56.6532 28.5528 56.7866 28.3187 56.8342 28.0616H57.3225C57.2884 28.2578 57.2226 28.4474 57.1276 28.6231Z" fill="white"/>
<path d="M60.6611 28.4733C60.6122 28.6856 60.5039 28.8801 60.3485 29.0348C60.236 29.1454 60.1029 29.2335 59.9566 29.2945C59.626 29.4213 59.2592 29.4213 58.9286 29.2945C58.7823 29.2335 58.6492 29.1454 58.5367 29.0348C58.4581 28.9575 58.3923 28.8685 58.3418 28.771C58.2926 28.6761 58.2538 28.5763 58.2262 28.4733C58.1977 28.3667 58.1784 28.258 58.1683 28.1482C58.1683 28.0342 58.1512 27.916 58.1512 27.7935C58.1512 27.6711 58.1512 27.5571 58.1683 27.441C58.1782 27.3298 58.1975 27.2196 58.2262 27.1117C58.2538 27.0087 58.2926 26.9089 58.3418 26.814C58.3924 26.7172 58.4581 26.6288 58.5367 26.5522C58.6492 26.4417 58.7823 26.3535 58.9286 26.2926C59.2592 26.1658 59.626 26.1658 59.9566 26.2926C60.1029 26.3535 60.236 26.4417 60.3485 26.5522C60.5039 26.7061 60.6122 26.9 60.6611 27.1117C60.7582 27.5605 60.7582 28.0245 60.6611 28.4733ZM60.265 27.5275C60.2609 27.4403 60.2501 27.3535 60.2328 27.2679C60.2165 27.1857 60.1907 27.1057 60.1557 27.0293C60.1219 26.9565 60.0763 26.8894 60.0208 26.8309C59.8661 26.6847 59.6601 26.6031 59.4458 26.6031C59.2315 26.6031 59.0255 26.6847 58.8708 26.8309C58.8127 26.8878 58.7662 26.9552 58.7337 27.0293C58.7007 27.1064 58.6749 27.1862 58.6566 27.2679C58.6369 27.3532 58.6247 27.4401 58.6202 27.5275C58.6202 27.6162 58.6202 27.7049 58.6202 27.7935C58.6202 27.8822 58.6202 27.9709 58.6202 28.0595C58.6247 28.147 58.6369 28.2338 58.6566 28.3192C58.6752 28.4015 58.701 28.482 58.7337 28.5599C58.7644 28.6343 58.8112 28.7013 58.8708 28.7562C59.0255 28.9024 59.2315 28.984 59.4458 28.984C59.6601 28.984 59.8661 28.9024 60.0208 28.7562C60.0777 28.6995 60.1235 28.633 60.1557 28.5599C60.1904 28.4827 60.2162 28.402 60.2328 28.3192C60.2501 28.2336 60.2609 28.1468 60.265 28.0595C60.265 27.9709 60.265 27.8822 60.265 27.7935C60.265 27.7049 60.265 27.6162 60.265 27.5275Z" fill="white"/>
<path d="M62.5135 29.3512C62.4 29.3609 62.2857 29.3443 62.1798 29.3029C62.0739 29.2615 61.9792 29.1964 61.9032 29.1127C61.7709 28.9439 61.7027 28.7348 61.7104 28.5216V24.842H62.173V28.5026C62.1641 28.6232 62.1957 28.7434 62.2629 28.8446C62.3062 28.8874 62.3587 28.9199 62.4166 28.9397C62.4745 28.9594 62.5362 28.9659 62.597 28.9586H62.8476V29.3512H62.5135Z" fill="white"/>
<path d="M64.4213 29.3512C64.3078 29.3609 64.1935 29.3443 64.0876 29.3029C63.9817 29.2615 63.887 29.1964 63.811 29.1127C63.6787 28.9439 63.6106 28.7348 63.6182 28.5216V24.842H64.0808V28.5026C64.0719 28.6232 64.1035 28.7434 64.1708 28.8446C64.214 28.8874 64.2665 28.9199 64.3244 28.9397C64.3823 28.9594 64.444 28.9659 64.5049 28.9586H64.7554V29.3512H64.4213Z" fill="white"/>
<path d="M67.3322 29.3514V29.0453C67.2219 29.1599 67.0874 29.2493 66.9382 29.307C66.771 29.3608 66.5957 29.3858 66.4199 29.3809C66.239 29.3855 66.0584 29.3628 65.8845 29.3134C65.7495 29.2731 65.6266 29.2006 65.5269 29.1023C65.4477 29.022 65.3877 28.9254 65.3513 28.8194C65.3101 28.707 65.289 28.5884 65.2892 28.4689C65.2846 28.346 65.3073 28.2235 65.3557 28.1101C65.4042 27.9967 65.4772 27.8951 65.5697 27.8124C65.8007 27.6357 66.0897 27.5492 66.3814 27.5696H67.3322V27.272C67.3395 27.1784 67.3267 27.0843 67.2946 26.9959C67.2625 26.9075 67.2118 26.8268 67.1459 26.759C66.9667 26.6282 66.7447 26.5672 66.5227 26.588C66.3583 26.5804 66.1941 26.6071 66.0408 26.6661C65.9132 26.7296 65.8047 26.8249 65.726 26.9427L65.4112 26.6577C65.5301 26.4931 65.6943 26.3656 65.8845 26.2903C66.0914 26.2219 66.3088 26.1898 66.527 26.1953C66.8667 26.1689 67.205 26.2616 67.4821 26.4571C67.5895 26.5555 67.6731 26.6764 67.7269 26.8108C67.7806 26.9452 67.8031 27.0898 67.7927 27.234V29.345L67.3322 29.3514ZM67.3322 27.9137H66.4456C65.9745 27.9137 65.7389 28.0974 65.7389 28.4647C65.7328 28.5404 65.7455 28.6164 65.7757 28.6863C65.8059 28.7561 65.8528 28.8177 65.9124 28.8658C66.0779 28.9659 66.2713 29.0117 66.4649 28.9967C66.5934 28.9975 66.7217 28.9869 66.8482 28.965C66.9721 28.9405 67.0851 28.8785 67.1716 28.7877C67.2329 28.7128 67.2787 28.6267 67.3063 28.5343C67.3338 28.442 67.3426 28.3451 67.3322 28.2494V27.9137Z" fill="white"/>
<path d="M71.4162 28.1606C71.4058 28.2808 71.3865 28.4 71.3584 28.5174C71.3318 28.6302 71.293 28.7399 71.2427 28.8446C71.1932 28.9458 71.1266 29.0378 71.0457 29.1169C70.9523 29.2057 70.8405 29.2734 70.718 29.3154C70.5759 29.3659 70.4258 29.3909 70.2747 29.3892C70.1103 29.3912 69.947 29.3633 69.7929 29.3069C69.6276 29.2367 69.4853 29.1227 69.3817 28.9776V29.3512H68.9191V24.842H69.3817V26.5963C69.4861 26.454 69.6284 26.343 69.7929 26.2754C69.9475 26.2215 70.1107 26.1951 70.2747 26.1973C70.4256 26.195 70.5758 26.2193 70.718 26.2691C70.8417 26.3149 70.9536 26.3869 71.0457 26.4802C71.1266 26.5593 71.1932 26.6514 71.2427 26.7525C71.293 26.8565 71.3318 26.9655 71.3584 27.0776C71.3865 27.1957 71.4058 27.3157 71.4162 27.4365C71.4269 27.559 71.4312 27.6814 71.4312 27.8038C71.4312 27.9263 71.4269 28.0382 71.4162 28.1606ZM70.9429 27.3563C70.9291 27.2244 70.8922 27.0958 70.8337 26.9763C70.7795 26.8679 70.6967 26.776 70.5938 26.7103C70.4682 26.6376 70.3239 26.6024 70.1783 26.609C70.0335 26.6023 69.8898 26.6375 69.765 26.7103C69.6615 26.7759 69.5779 26.8678 69.523 26.9763C69.4647 27.096 69.4271 27.2244 69.4117 27.3563C69.3717 27.6505 69.3717 27.9487 69.4117 28.2429C69.4271 28.3748 69.4647 28.5033 69.523 28.6229C69.5779 28.7315 69.6615 28.8234 69.765 28.8889C69.8898 28.9617 70.0335 28.997 70.1783 28.9903C70.3239 28.9969 70.4682 28.9617 70.5938 28.8889C70.6967 28.8232 70.7795 28.7313 70.8337 28.6229C70.8922 28.5035 70.9291 28.3749 70.9429 28.2429C70.9772 27.9484 70.9772 27.6509 70.9429 27.3563Z" fill="white"/>
<path d="M74.7632 28.4733C74.7142 28.6856 74.6059 28.8802 74.4505 29.0349C74.338 29.1454 74.2049 29.2336 74.0586 29.2945C73.728 29.4211 73.3613 29.4211 73.0306 29.2945C72.8852 29.2367 72.7522 29.1522 72.6387 29.0454C72.5601 28.9681 72.4943 28.8791 72.4438 28.7815C72.3946 28.6867 72.3559 28.5869 72.3282 28.4839C72.2997 28.3773 72.2804 28.2686 72.2704 28.1588C72.2597 28.0448 72.2532 27.9266 72.2532 27.8041C72.2532 27.6817 72.2532 27.5677 72.2704 27.4516C72.2802 27.3404 72.2995 27.2302 72.3282 27.1223C72.3559 27.0193 72.3946 26.9195 72.4438 26.8246C72.4944 26.7278 72.5602 26.6394 72.6387 26.5628C72.7512 26.4523 72.8843 26.3641 73.0306 26.3032C73.3613 26.1766 73.728 26.1766 74.0586 26.3032C74.2049 26.3641 74.338 26.4523 74.4505 26.5628C74.6059 26.7167 74.7143 26.9106 74.7632 27.1223C74.8602 27.5711 74.8602 28.0351 74.7632 28.4839V28.4733ZM74.367 27.5276C74.3629 27.4404 74.3521 27.3536 74.3349 27.2679C74.3186 27.1857 74.2927 27.1057 74.2578 27.0294C74.2239 26.9565 74.1784 26.8895 74.1228 26.8309C73.9681 26.6848 73.7621 26.6031 73.5478 26.6031C73.3335 26.6031 73.1275 26.6848 72.9728 26.8309C72.9147 26.8879 72.8682 26.9552 72.8357 27.0294C72.8027 27.1064 72.7769 27.1863 72.7587 27.2679C72.7389 27.3533 72.7267 27.4402 72.7222 27.5276C72.7222 27.6162 72.7222 27.7049 72.7222 27.7936C72.7222 27.8822 72.7222 27.9709 72.7222 28.0596C72.7267 28.147 72.7389 28.2339 72.7587 28.3192C72.7772 28.4015 72.803 28.482 72.8357 28.5599C72.8664 28.6344 72.9132 28.7014 72.9728 28.7562C73.1275 28.9024 73.3335 28.984 73.5478 28.984C73.7621 28.984 73.9681 28.9024 74.1228 28.7562C74.1798 28.6996 74.2255 28.633 74.2578 28.5599C74.2924 28.4827 74.3182 28.402 74.3349 28.3192C74.3521 28.2336 74.3629 28.1468 74.367 28.0596C74.367 27.9709 74.367 27.8822 74.367 27.7936C74.367 27.7049 74.367 27.6162 74.367 27.5276Z" fill="white"/>
<path d="M77.5922 26.8309C77.5223 26.7578 77.4396 26.6977 77.3481 26.6536C77.148 26.5822 76.9281 26.5867 76.7313 26.6663C76.6394 26.7068 76.5581 26.7674 76.4936 26.8436C76.4279 26.9227 76.3771 27.0128 76.3437 27.1096C76.3061 27.2154 76.2873 27.3268 76.288 27.4389V29.3515H75.8254V26.2356H76.288V26.6156C76.3788 26.4798 76.5074 26.3728 76.6585 26.3074C76.8201 26.2335 76.9964 26.196 77.1746 26.1976C77.3136 26.1959 77.4519 26.2173 77.5836 26.2609C77.716 26.31 77.8353 26.3879 77.9327 26.4889L77.5922 26.8309Z" fill="white"/>
<path d="M80.2583 29.3514V29.0453C80.148 29.1599 80.0134 29.2493 79.8642 29.307C79.697 29.3608 79.5217 29.3858 79.346 29.3809C79.165 29.3855 78.9845 29.3628 78.8106 29.3134C78.6755 29.2731 78.5527 29.2006 78.4529 29.1023C78.3737 29.022 78.3137 28.9254 78.2773 28.8194C78.2361 28.707 78.2151 28.5884 78.2152 28.4689C78.2106 28.346 78.2333 28.2235 78.2818 28.1101C78.3303 27.9967 78.4033 27.8951 78.4958 27.8124C78.7267 27.6357 79.0158 27.5492 79.3074 27.5696H80.2583V27.272C80.2656 27.1784 80.2528 27.0843 80.2207 26.9959C80.1886 26.9075 80.1379 26.8268 80.072 26.759C79.8927 26.6282 79.6708 26.5672 79.4488 26.588C79.2844 26.5804 79.1202 26.6071 78.9669 26.6661C78.8393 26.7296 78.7307 26.8249 78.6521 26.9427L78.3373 26.6577C78.4561 26.4931 78.6204 26.3656 78.8106 26.2903C79.0175 26.2219 79.2349 26.1898 79.453 26.1953C79.7928 26.1689 80.1311 26.2616 80.4082 26.4571C80.5155 26.5555 80.5992 26.6764 80.6529 26.8108C80.7066 26.9452 80.7291 27.0898 80.7187 27.234V29.345L80.2583 29.3514ZM80.2583 27.9137H79.3631C78.8919 27.9137 78.6564 28.0974 78.6564 28.4647C78.6503 28.5404 78.663 28.6164 78.6932 28.6863C78.7234 28.7561 78.7703 28.8177 78.8298 28.8658C78.9954 28.9659 79.1888 29.0117 79.3824 28.9967C79.5109 28.9975 79.6392 28.9869 79.7657 28.965C79.8896 28.9405 80.0026 28.8785 80.0891 28.7877C80.1504 28.7128 80.1962 28.6267 80.2238 28.5343C80.2513 28.442 80.2601 28.3451 80.2497 28.2494L80.2583 27.9137Z" fill="white"/>
<path d="M82.7317 29.3518C82.6097 29.3545 82.4885 29.3314 82.3762 29.2842C82.2802 29.2435 82.1946 29.1822 82.1256 29.1048C82.0577 29.0268 82.0061 28.9364 81.9736 28.8388C81.9389 28.7346 81.9215 28.6255 81.9222 28.5158V26.6032H81.5238V26.2548H81.9329V25.2795H82.3955V26.2548H83.0701V26.6032H82.3955V28.5031C82.3881 28.6235 82.4246 28.7425 82.4983 28.8388C82.5403 28.8817 82.5915 28.9148 82.6482 28.9356C82.7049 28.9564 82.7657 28.9645 82.8259 28.9591H83.0701V29.3518H82.7317Z" fill="white"/>
<path d="M84.2165 27.9137C84.1983 28.1964 84.2826 28.4762 84.4542 28.7033C84.5407 28.7989 84.6481 28.8738 84.7683 28.9225C84.8886 28.9711 85.0184 28.9922 85.1481 28.984C85.3062 28.9891 85.4634 28.9595 85.6086 28.8975C85.746 28.8295 85.8706 28.7388 85.9769 28.6294L86.2917 28.9017C86.2157 28.9763 86.1356 29.0467 86.0519 29.1128C85.9695 29.1698 85.8812 29.2179 85.7884 29.2564C85.6936 29.2995 85.5936 29.3308 85.4908 29.3493C85.3709 29.373 85.2489 29.3843 85.1267 29.383C84.9332 29.3858 84.7409 29.3536 84.5592 29.288C84.395 29.2258 84.2481 29.126 84.1309 28.9967C84.0036 28.8514 83.9081 28.6818 83.8503 28.4985C83.781 28.2677 83.7477 28.0278 83.7518 27.7871C83.7251 27.3666 83.8478 26.9501 84.0987 26.6091C84.2194 26.4784 84.3662 26.3737 84.5299 26.3017C84.6936 26.2297 84.8707 26.1919 85.05 26.1907C85.2293 26.1895 85.4069 26.225 85.5716 26.2948C85.7362 26.3646 85.8845 26.4673 86.0069 26.5964C86.2489 26.9126 86.3695 27.303 86.3474 27.6984V27.9095L84.2165 27.9137ZM85.8741 27.4071C85.8741 27.3606 85.8741 27.3184 85.8591 27.2804C85.8528 27.2427 85.8442 27.2053 85.8334 27.1685C85.8334 27.1326 85.8077 27.0946 85.7906 27.0524C85.7328 26.9115 85.6317 26.7919 85.5015 26.7104C85.3663 26.6282 85.2106 26.5847 85.0517 26.5847C84.8929 26.5847 84.7372 26.6282 84.602 26.7104C84.4718 26.7919 84.3707 26.9115 84.3129 27.0524C84.282 27.126 84.2583 27.2024 84.2422 27.2804C84.2267 27.3768 84.2181 27.4742 84.2165 27.5717H85.887C85.8827 27.5084 85.8784 27.4535 85.8741 27.4071Z" fill="white"/>
<path d="M87.3193 29.3514V28.7561H87.9296V29.3514H87.3193Z" fill="white"/>
<path d="M93.5681 28.6231C93.4794 28.7835 93.3618 28.9265 93.2211 29.0453C93.0801 29.1592 92.9199 29.2478 92.7478 29.3071C92.564 29.3698 92.3706 29.4012 92.176 29.4C91.9559 29.4018 91.7376 29.3609 91.5335 29.2796C91.3355 29.1993 91.1557 29.0809 91.0046 28.9313C90.9044 28.8354 90.8205 28.7242 90.7562 28.602C90.6975 28.4798 90.655 28.3507 90.6298 28.2178C90.5987 28.0591 90.5822 27.898 90.5806 27.7365C90.5806 27.557 90.5806 27.348 90.5806 27.1032C90.5806 26.8583 90.5806 26.6514 90.5806 26.4698C90.5822 26.3083 90.5987 26.1472 90.6298 25.9885C90.655 25.8563 90.6975 25.7279 90.7562 25.6064C90.8205 25.4842 90.9044 25.373 91.0046 25.2771C91.1557 25.1276 91.3355 25.0092 91.5335 24.9288C91.7376 24.8475 91.9559 24.8066 92.176 24.8084C92.3705 24.8065 92.5638 24.8372 92.7478 24.8992C92.92 24.9593 93.0802 25.0486 93.2211 25.1631C93.362 25.2817 93.4796 25.4248 93.5681 25.5853C93.6635 25.7631 93.7293 25.9548 93.7629 26.1532H93.2618C93.2147 25.8973 93.0838 25.6637 92.8892 25.4882C92.6916 25.3201 92.4368 25.2319 92.176 25.2412C92.0293 25.2418 91.8839 25.2697 91.7477 25.3235C91.6134 25.3754 91.4921 25.4553 91.3922 25.5579C91.3225 25.6251 91.264 25.7028 91.2187 25.788C91.172 25.882 91.1396 25.9823 91.1224 26.0856C91.0981 26.2252 91.0838 26.3663 91.0795 26.5078C91.0795 26.6704 91.0795 26.8709 91.0795 27.1074C91.0795 27.3438 91.0795 27.5422 91.0795 27.7048C91.0838 27.8464 91.0981 27.9874 91.1224 28.127C91.1396 28.2303 91.172 28.3306 91.2187 28.4247C91.2639 28.5105 91.3225 28.5889 91.3922 28.6569C91.4921 28.7594 91.6134 28.8393 91.7477 28.8912C91.8839 28.9451 92.0293 28.973 92.176 28.9735C92.4385 28.981 92.6946 28.8931 92.8956 28.7266C93.0937 28.5528 93.2271 28.3187 93.2747 28.0616H93.7629C93.7288 28.2578 93.6631 28.4474 93.5681 28.6231Z" fill="white"/>
<path d="M96.5256 26.831C96.4557 26.7578 96.373 26.6977 96.2814 26.6536C96.0814 26.5822 95.8615 26.5867 95.6647 26.6663C95.5728 26.7068 95.4915 26.7675 95.4269 26.8436C95.3606 26.9227 95.3091 27.0127 95.2749 27.1096C95.2381 27.2156 95.22 27.327 95.2213 27.4389V29.3516H94.7588V26.2356H95.2213V26.6156C95.3116 26.4802 95.4395 26.3732 95.5897 26.3074C95.8815 26.1791 96.2113 26.1625 96.5149 26.261C96.6479 26.3099 96.7679 26.3879 96.8661 26.489L96.5256 26.831Z" fill="white"/>
<path d="M97.5342 27.9137C97.5161 28.1964 97.6003 28.4762 97.772 28.7033C97.8584 28.7989 97.9659 28.8739 98.0861 28.9225C98.2063 28.9711 98.3361 28.9922 98.4658 28.9841C98.6232 28.9888 98.7797 28.9592 98.9241 28.8975C99.0626 28.8302 99.188 28.7394 99.2946 28.6294L99.6094 28.9017C99.5334 28.9763 99.4533 29.0467 99.3696 29.1128C99.2905 29.172 99.2051 29.2222 99.1147 29.2627C99.0197 29.3055 98.9197 29.3367 98.8171 29.3556C98.6972 29.3794 98.5752 29.3908 98.453 29.3894C98.2588 29.3921 98.0658 29.3599 97.8833 29.2944C97.719 29.2324 97.5721 29.1325 97.455 29.0031C97.3269 28.8587 97.2319 28.6887 97.1766 28.5048C97.1044 28.2746 97.0704 28.0344 97.0759 27.7934C97.0493 27.373 97.1719 26.9565 97.4229 26.6155C97.5435 26.4847 97.6903 26.3801 97.8541 26.308C98.0178 26.236 98.1949 26.1982 98.3741 26.1971C98.5534 26.1959 98.731 26.2313 98.8957 26.3011C99.0604 26.371 99.2086 26.4737 99.331 26.6028C99.573 26.9189 99.6937 27.3093 99.6715 27.7048V27.9159L97.5342 27.9137ZM99.1918 27.4071C99.1888 27.3646 99.1831 27.3223 99.1747 27.2804C99.1684 27.2427 99.1598 27.2053 99.149 27.1685C99.1383 27.1327 99.1254 27.0947 99.1083 27.0524C99.0505 26.9115 98.9494 26.7919 98.8192 26.7104C98.684 26.6282 98.5283 26.5847 98.3695 26.5847C98.2106 26.5847 98.0549 26.6282 97.9197 26.7104C97.7895 26.7919 97.6884 26.9115 97.6306 27.0524C97.5997 27.126 97.576 27.2024 97.5599 27.2804C97.5444 27.3768 97.5358 27.4742 97.5342 27.5718H99.2047C99.2004 27.5084 99.1961 27.4535 99.1918 27.4071Z" fill="white"/>
<path d="M102.443 29.3516V29.0455C102.332 29.1602 102.197 29.2496 102.047 29.3072C101.881 29.361 101.706 29.386 101.531 29.3811C101.35 29.3857 101.168 29.3629 100.994 29.3136C100.859 29.2736 100.737 29.2011 100.638 29.1025C100.558 29.0224 100.498 28.9257 100.46 28.8196C100.42 28.7071 100.4 28.5885 100.4 28.4691C100.396 28.3463 100.418 28.224 100.466 28.1106C100.514 27.9972 100.587 27.8955 100.679 27.8126C100.911 27.6359 101.2 27.5495 101.493 27.5698H102.443V27.2722C102.451 27.1786 102.438 27.0845 102.406 26.9961C102.374 26.9077 102.323 26.827 102.257 26.7592C102.078 26.6284 101.856 26.5674 101.634 26.5882C101.47 26.5806 101.305 26.6073 101.152 26.6663C101.024 26.7298 100.916 26.8251 100.837 26.9429L100.522 26.6579C100.642 26.4975 100.806 26.3738 100.994 26.3011C101.201 26.2329 101.418 26.2008 101.636 26.2061C101.975 26.1796 102.313 26.2723 102.589 26.4679C102.697 26.5661 102.781 26.6868 102.835 26.8213C102.889 26.9557 102.912 27.1004 102.902 27.2447V29.3558L102.443 29.3516ZM102.443 27.9139H101.557C101.086 27.9139 100.85 28.0976 100.85 28.4649C100.844 28.5406 100.857 28.6166 100.887 28.6865C100.917 28.7563 100.964 28.8179 101.024 28.866C101.189 28.9661 101.383 29.0119 101.576 28.9969C101.704 28.9977 101.832 28.9871 101.957 28.9652C102.082 28.9407 102.196 28.8787 102.283 28.7879C102.344 28.713 102.39 28.6269 102.418 28.5345C102.445 28.4421 102.454 28.3453 102.443 28.2496V27.9139Z" fill="white"/>
<path d="M104.917 29.3518C104.794 29.3543 104.672 29.3312 104.559 29.2842C104.463 29.2435 104.378 29.1822 104.309 29.1048C104.241 29.0267 104.19 28.9363 104.159 28.8388C104.124 28.7346 104.107 28.6255 104.107 28.5158V26.6032H103.709V26.2548H104.107V25.2795H104.57V26.2548H105.245V26.6032H104.57V28.5031C104.563 28.6235 104.599 28.7425 104.673 28.8388C104.715 28.8817 104.766 28.9148 104.823 28.9356C104.879 28.9564 104.94 28.9645 105 28.9591H105.245V29.3518H104.917Z" fill="white"/>
<path d="M106.401 27.9137C106.383 28.1964 106.467 28.4762 106.639 28.7033C106.725 28.7989 106.833 28.8739 106.953 28.9225C107.073 28.9711 107.203 28.9922 107.333 28.9841C107.49 28.9888 107.646 28.9592 107.791 28.8975C107.929 28.8296 108.054 28.739 108.161 28.6294L108.476 28.9017C108.4 28.9768 108.319 29.0473 108.234 29.1128C108.156 29.1719 108.071 29.2222 107.981 29.2627C107.886 29.3059 107.785 29.3371 107.682 29.3556C107.563 29.3795 107.441 29.3908 107.32 29.3894C107.126 29.3921 106.933 29.3599 106.75 29.2944C106.586 29.2324 106.439 29.1325 106.322 29.0031C106.194 28.8583 106.098 28.6885 106.041 28.5048C105.971 28.2742 105.938 28.0342 105.943 27.7934C105.916 27.373 106.039 26.9565 106.29 26.6155C106.41 26.4847 106.557 26.3801 106.721 26.308C106.885 26.236 107.062 26.1982 107.241 26.1971C107.42 26.1959 107.598 26.2313 107.762 26.3011C107.927 26.371 108.075 26.4737 108.198 26.6028C108.44 26.9189 108.56 27.3093 108.538 27.7048V27.9159L106.401 27.9137ZM108.059 27.4071C108.059 27.3607 108.048 27.3184 108.041 27.2804C108.035 27.2427 108.027 27.2053 108.016 27.1685C108.005 27.1327 107.992 27.0947 107.975 27.0524C107.917 26.9115 107.816 26.7919 107.686 26.7104C107.551 26.6282 107.395 26.5847 107.236 26.5847C107.077 26.5847 106.922 26.6282 106.786 26.7104C106.656 26.7919 106.555 26.9115 106.497 27.0524C106.466 27.126 106.443 27.2024 106.427 27.2804C106.411 27.3768 106.403 27.4742 106.401 27.5718H108.071C108.064 27.5084 108.061 27.4535 108.061 27.4071H108.059Z" fill="white"/>
</g>
<defs>
<clipPath id="clip0_2_112">
<rect width="106.426" height="38.4676" fill="white" transform="translate(0.751308 0.757324)"/>
</clipPath>
</defs>
</svg>
