<svg width="207" height="6" viewBox="0 0 207 6" fill="none" xmlns="http://www.w3.org/2000/svg">
<path d="M205.395 0.97841C204.156 0.181275 202.506 0.538978 201.709 1.77736C200.912 3.01575 201.269 4.66586 202.508 5.463C203.746 6.26013 205.396 5.90243 206.193 4.66404C206.991 3.42566 206.633 1.77554 205.395 0.97841ZM203.95 2.7207L201.413 2.72694L201.416 3.72693L203.952 3.7207L203.95 2.7207ZM196.339 2.7394L191.265 2.75186L191.268 3.75186L196.342 3.7394L196.339 2.7394ZM186.192 2.76433L181.118 2.77679L181.12 3.77679L186.194 3.76432L186.192 2.76433ZM176.044 2.78925L170.97 2.80172L170.973 3.80171L176.047 3.78925L176.044 2.78925ZM165.897 2.81418L160.823 2.82664L160.825 3.82664L165.899 3.81418L165.897 2.81418ZM155.749 2.83911L150.675 2.85157L150.678 3.85157L155.751 3.8391L155.749 2.83911ZM145.601 2.86403L140.528 2.8765L140.53 3.87649L145.604 3.86403L145.601 2.86403ZM135.454 2.88896L130.38 2.90142L130.383 3.90142L135.456 3.88896L135.454 2.88896ZM125.306 2.91389L120.233 2.92635L120.235 3.92635L125.309 3.91388L125.306 2.91389ZM115.159 2.93881L110.085 2.95128L110.087 3.95127L115.161 3.93881L115.159 2.93881ZM105.011 2.96374L99.9374 2.9762L99.9398 3.9762L105.014 3.96374L105.011 2.96374ZM94.8636 2.98867L89.7898 3.00113L89.7923 4.00113L94.8661 3.98867L94.8636 2.98867ZM84.716 3.0136L79.6422 3.02606L79.6447 4.02606L84.7185 4.01359L84.716 3.0136ZM74.5685 3.03852L69.4947 3.05099L69.4971 4.05098L74.5709 4.03852L74.5685 3.03852ZM64.4209 3.06345L59.3471 3.07591L59.3496 4.07591L64.4234 4.06344L64.4209 3.06345ZM54.2734 3.08837L49.1996 3.10084L49.202 4.10084L54.2758 4.08838L54.2734 3.08837ZM44.1258 3.1133L39.052 3.12576L39.0545 4.12576L44.1283 4.1133L44.1258 3.1133ZM33.9782 3.13822L28.9045 3.1507L28.9069 4.15068L33.9807 4.13822L33.9782 3.13822ZM23.8307 3.16316L18.7569 3.17562L18.7594 4.17561L23.8332 4.16315L23.8307 3.16316ZM13.6831 3.18808L8.60937 3.20054L8.61182 4.20054L13.6856 4.18808L13.6831 3.18808ZM3.5356 3.21301L0.998636 3.21925L1.00108 4.21923L3.53805 4.21301L3.5356 3.21301Z" fill="#6A1840"/>
</svg>
