<svg width="121" height="121" viewBox="0 0 121 121" fill="none" xmlns="http://www.w3.org/2000/svg">
<circle cx="60.8223" cy="60.2822" r="60" fill="#FBDAE5"/>
<path d="M55.9799 22.7828C39.8966 22.7828 26.832 35.8485 26.832 51.9309C26.832 68.0132 39.8976 81.0789 55.9799 81.0789C63.1287 81.0789 69.6845 78.5113 74.7618 74.2284L79.1377 78.6043L77.5485 80.1934C77.0857 80.6615 76.8264 81.2935 76.8264 81.9517C76.8264 82.6098 77.0857 83.2419 77.5485 83.7099L90.8858 97.0473C91.355 97.5177 91.9923 97.7822 92.6568 97.7822C93.322 97.7822 93.9593 97.5177 94.4285 97.0473L101.097 90.3786C101.567 89.9094 101.832 89.2721 101.832 88.607C101.832 87.9424 101.567 87.3051 101.097 86.8359L87.7598 73.4986C87.3197 73.0596 86.7312 72.8002 86.1097 72.7712C85.4887 72.7421 84.8787 72.9462 84.3997 73.3427C84.345 73.3921 84.2933 73.4445 84.2433 73.4986L82.6541 75.0615L78.2782 70.6856C82.5537 65.6112 85.1288 59.0722 85.1288 51.9303C85.1288 35.8469 72.0632 22.7822 55.9809 22.7822L55.9799 22.7828ZM55.9799 27.7321C69.3602 27.7321 80.1784 38.5512 80.1784 51.9309C80.1784 65.3105 69.3594 76.1296 55.9799 76.1296C42.6003 76.1296 31.7813 65.3105 31.7813 51.9309C31.7813 38.5512 42.6003 27.7321 55.9799 27.7321ZM55.9799 32.7593C51.4057 32.7593 47.6443 36.5212 47.6443 41.095C47.6443 45.6692 51.4057 49.4306 55.9799 49.4306C60.554 49.4306 64.3155 45.6692 64.3155 41.095C64.3155 36.5212 60.554 32.7593 55.9799 32.7593ZM55.9799 37.761C57.8509 37.761 59.3138 39.2239 59.3138 41.095C59.3138 42.966 57.8509 44.4295 55.9799 44.4295C54.1088 44.4295 52.6459 42.966 52.6459 41.095C52.6459 39.2239 54.1088 37.761 55.9799 37.761ZM55.9799 51.9315C52.0319 51.9315 48.4165 53.1275 45.6644 55.2655C42.9125 57.404 40.9756 60.6457 40.9756 64.3047C40.9803 65.0042 41.246 65.6735 41.7146 66.166C42.1827 66.659 42.8165 66.9358 43.4764 66.9358H68.4832C69.1432 66.9358 69.777 66.659 70.245 66.166C70.7137 65.6735 70.9794 65.0042 70.984 64.3047C70.984 60.6457 69.0472 57.4041 66.2953 55.2655C63.5433 53.1275 59.928 51.9315 55.9799 51.9315ZM55.9799 57.2191C58.9371 57.2191 61.578 58.1599 63.3514 59.5379C64.1817 60.1828 64.7643 60.9055 65.201 61.6475H46.7584C47.1951 60.9055 47.7777 60.1828 48.6081 59.5379C50.3815 58.1599 53.0227 57.2191 55.9799 57.2191ZM85.988 78.8145L95.8081 88.6084L92.6561 91.7605L82.8622 81.9404L85.988 78.8145Z" fill="black"/>
<path d="M55.8363 32.7593C51.2621 32.7593 47.5007 36.5212 47.5007 41.095C47.5007 45.6692 51.2621 49.4306 55.8363 49.4306C60.4104 49.4306 64.1719 45.6692 64.1719 41.095C64.1719 36.5212 60.4104 32.7593 55.8363 32.7593ZM55.8363 37.761C57.7073 37.761 59.1702 39.2239 59.1702 41.095C59.1702 42.966 57.7073 44.4295 55.8363 44.4295C53.9652 44.4295 52.5023 42.966 52.5023 41.095C52.5023 39.2239 53.9652 37.761 55.8363 37.761ZM55.8363 51.9315C51.8883 51.9315 48.2729 53.1275 45.5208 55.2654C42.7689 57.404 40.832 60.6457 40.832 64.3047C40.8367 65.0042 41.1024 65.6735 41.571 66.166C42.0391 66.659 42.6729 66.9358 43.3328 66.9358H68.3397C68.9996 66.9358 69.6334 66.659 70.1014 66.166C70.5701 65.6735 70.8358 65.0042 70.8405 64.3047C70.8405 60.6457 68.9036 57.4041 66.1517 55.2654C63.3997 53.1275 59.7844 51.9315 55.8363 51.9315ZM55.8363 57.2191C58.7935 57.2191 61.4344 58.1599 63.2078 59.5379C64.0381 60.1827 64.6207 60.9055 65.0574 61.6474H46.6149C47.0515 60.9055 47.6341 60.1828 48.4645 59.5379C50.2379 58.1599 52.8791 57.2191 55.8363 57.2191Z" fill="#6A1840"/>
<path d="M43.3775 93.4888L41.9863 92.0977L32.1294 101.955L33.5206 103.346L43.3775 93.4888Z" fill="#115E67"/>
<path d="M42.2225 103.231L43.6133 101.84L33.7536 91.9802L32.3628 93.3709L42.2225 103.231Z" fill="#115E67"/>
<path d="M102.57 44.1484H100.959V55.5464H102.57V44.1484Z" fill="#468289"/>
<path d="M107.532 48.8425H96.1309V50.4529H107.532V48.8425Z" fill="#468289"/>
<path d="M7.6582 20.6357L13.5676 14.7279L7.6582 8.82018L9.80171 6.67358L17.7142 14.5839L17.8547 14.7243L17.862 14.7316L17.4444 15.1381L17.2116 15.3708L9.80171 22.7823L7.6582 20.6357Z" fill="#800134"/>
<path d="M15.252 20.6357L21.1614 14.7279L15.252 8.82018L17.3992 6.67358L25.3117 14.5839L25.4521 14.7243L25.4558 14.7316L25.0419 15.1381L24.8091 15.3708L17.3992 22.7823L15.252 20.6357Z" fill="#800134"/>
<path d="M22.8516 20.6357L28.761 14.7279L22.8516 8.82018L24.9951 6.67358L32.9076 14.5839L33.048 14.7243L33.0554 14.7316L32.6378 15.1381L32.4087 15.3708L24.9951 22.7823L22.8516 20.6357Z" fill="#800134"/>
</svg>
