<svg width="144" height="140" viewBox="0 0 144 140" fill="none" xmlns="http://www.w3.org/2000/svg">
<circle cx="73.3223" cy="79.3894" r="60" fill="#FBDAE5"/>
<path d="M138.889 116.349L137.498 114.958L127.641 124.814L129.032 126.206L138.889 116.349Z" fill="#115E67"/>
<path d="M137.734 126.09L139.125 124.7L129.265 114.84L127.875 116.231L137.734 126.09Z" fill="#115E67"/>
<path d="M0.623047 85.2971L6.53248 79.3893L0.623047 73.4816L2.76655 71.335L10.6791 79.2452L10.8195 79.3856L10.8269 79.393L10.4093 79.7994L10.1765 80.0322L2.76655 87.4437L0.623047 85.2971Z" fill="#800134"/>
<path d="M8.2168 85.2971L14.1262 79.3893L8.2168 73.4816L10.364 71.335L18.2765 79.2452L18.417 79.3856L18.4207 79.393L18.0067 79.7994L17.7739 80.0322L10.364 87.4437L8.2168 85.2971Z" fill="#800134"/>
<path d="M15.8164 85.2971L21.7259 79.3893L15.8164 73.4816L17.9599 71.335L25.8724 79.2452L26.0129 79.3856L26.0203 79.393L25.6027 79.7994L25.3735 80.0322L17.9599 87.4437L15.8164 85.2971Z" fill="#800134"/>
<path d="M37.3833 21.9915C38.8204 21.9915 39.9854 20.8265 39.9854 19.3894C39.9854 17.9523 38.8204 16.7874 37.3833 16.7874C35.9462 16.7874 34.7812 17.9523 34.7812 19.3894C34.7812 20.8265 35.9462 21.9915 37.3833 21.9915Z" fill="#AA5678"/>
<path fill-rule="evenodd" clip-rule="evenodd" d="M36.5156 45.6187H84.5306V70.6875H84.7022H102.905H103.507L103.558 70.6875V70.8029L110.13 85.8047V88.4338C110.13 92.4268 106.893 95.6638 102.9 95.6638C98.9069 95.6638 95.6699 92.4268 95.6699 88.4338V85.8047L101.646 73.3166L84.8818 73.3166L87.0277 104.726H97.1964V113.16L66.856 113.16H36.5156V45.6187ZM81.9015 48.2477V70.6875H77.0576H59.4681H58.8656H58.8633V70.6924L51.6309 85.8047V88.4338C51.6309 92.4268 54.8678 95.6638 58.8608 95.6638C62.8539 95.6638 66.0908 92.4268 66.0908 88.4338V85.8047L60.6199 73.3166L76.878 73.3166L74.7321 104.726H65.0137V110.531H39.1447V48.2477H81.9015ZM77.3673 104.726L79.5132 73.3166H82.2466L84.3925 104.726H77.3673ZM74.5525 107.355L74.543 107.495H87.2169L87.2073 107.355H94.5673V110.531H67.6428V107.355H74.5525ZM45.748 55.6362H75.0378V53.0071H45.748V55.6362ZM75.0378 60.9135H45.748V58.2844H75.0378V60.9135ZM45.748 66.1909H75.0378V63.5618H45.748V66.1909ZM59.0694 76.5062L63.0858 85.8047H54.6705L59.0694 76.5062ZM63.4617 88.4338C63.4617 90.9748 61.4018 93.0347 58.8608 93.0347C56.3198 93.0347 54.2599 90.9748 54.2599 88.4338H63.4617ZM107.125 85.8047L103.108 76.5062L98.7095 85.8047H107.125ZM102.9 93.0347C105.441 93.0347 107.501 90.9748 107.501 88.4338H98.299C98.299 90.9748 100.359 93.0347 102.9 93.0347Z" fill="black"/>
<path d="M105.196 0.699951H102.555V19.3894H105.196V0.699951Z" fill="#800134"/>
<path d="M113.332 11.032V8.39136L94.6373 8.39136V11.032L113.332 11.032Z" fill="#800134"/>
</svg>
