<svg width="137" height="132" viewBox="0 0 137 132" fill="none" xmlns="http://www.w3.org/2000/svg">
<circle cx="70.1367" cy="71.2822" r="60" fill="#FBDAE5"/>
<path d="M132.02 94.4551L130.629 93.064L120.772 102.921L122.163 104.312L132.02 94.4551Z" fill="#115E67"/>
<path d="M130.865 104.197L132.256 102.806L122.396 92.9465L121.005 94.3372L130.865 104.197Z" fill="#115E67"/>
<path d="M0.435547 66.7553L6.34498 60.8476L0.435547 54.9398L2.57905 52.7932L10.4916 60.7035L10.632 60.8439L10.6394 60.8513L10.2218 61.2577L9.98897 61.4905L2.57905 68.9019L0.435547 66.7553Z" fill="#800134"/>
<path d="M8.0293 66.7553L13.9387 60.8476L8.0293 54.9398L10.1765 52.7932L18.089 60.7035L18.2295 60.8439L18.2332 60.8513L17.8192 61.2577L17.5864 61.4905L10.1765 68.9019L8.0293 66.7553Z" fill="#800134"/>
<path d="M15.6289 66.7553L21.5384 60.8476L15.6289 54.9398L17.7724 52.7932L25.6849 60.7035L25.8254 60.8439L25.8328 60.8513L25.4152 61.2577L25.186 61.4905L17.7724 68.9019L15.6289 66.7553Z" fill="#800134"/>
<path d="M29.1628 12.1802C32.5104 12.1802 35.2241 9.46645 35.2241 6.1189C35.2241 2.77134 32.5104 0.0576172 29.1628 0.0576172C25.8153 0.0576172 23.1016 2.77134 23.1016 6.1189C23.1016 9.46645 25.8153 12.1802 29.1628 12.1802Z" fill="#AA5678"/>
<path fill-rule="evenodd" clip-rule="evenodd" d="M81.413 41.7599L84.0466 43.2804L81.935 46.9378C92.8918 51.0659 100.688 61.6454 100.688 74.0493C100.688 82.7894 96.8169 90.6253 90.6953 95.9356L99.542 110.782H49.1094L56.4426 98.4757C52.675 96.1398 49.4354 93.0549 47.0716 89.5902H39.5859V80.407H69.9613V89.5902H61.498C64.4576 91.9899 68.1016 93.1223 72.4141 93.1223C82.315 93.1223 90.4463 84.7164 90.4463 74.2149C90.4463 65.3131 84.5934 57.9037 76.7806 55.8654L71.7626 64.5569L69.3557 63.1673L64.6639 71.2938L56.7285 66.7124L61.4204 58.5858L58.9609 57.1659L71.2449 35.8894L73.4776 37.1785L76.5932 31.7822L84.5285 36.3637L81.413 41.7599ZM78.2383 53.3406C86.9564 55.9755 93.272 64.3547 93.272 74.2149C93.272 86.1585 83.9915 95.9479 72.4141 95.9479C66.5205 95.9479 61.4647 94.0378 57.6113 89.786L57.8273 89.5902H50.5836C55.4957 95.7353 63.475 100.186 71.7258 100.186C86.1608 100.186 97.8627 88.4843 97.8627 74.0493C97.8627 62.6944 90.6209 53.0275 80.501 49.4215L78.2383 53.3406ZM71.7258 103.012C77.9576 103.012 83.7297 101.044 88.4544 97.6949L94.5691 107.957H54.0823L58.9083 99.8577C62.8476 101.841 67.2328 103.012 71.7258 103.012ZM66.9087 61.7545L63.8674 59.9986L60.5884 65.6781L63.6296 67.434L66.9087 61.7545ZM80.1867 44.3147L70.8823 60.4304L62.9871 55.8721L62.8332 56.1388L62.8208 56.1316L72.2792 39.7492L80.1867 44.3147ZM78.9792 40.3241L75.938 38.5683L77.6274 35.6421L80.6686 37.3979L78.9792 40.3241ZM42.4116 83.2326V86.7646H67.1357V83.2326H42.4116Z" fill="black"/>
</svg>
