<svg width="111" height="124" viewBox="0 0 111 124" fill="none" xmlns="http://www.w3.org/2000/svg">
<circle cx="55.332" cy="60" r="55" fill="#FBDAE5"/>
<path fill-rule="evenodd" clip-rule="evenodd" d="M93.4613 62L93.4613 73.2512L89.7109 73.2512L89.7109 62L93.4613 62Z" fill="#6A1840"/>
<path fill-rule="evenodd" clip-rule="evenodd" d="M97.2129 69.5007L85.9617 69.5006L85.9617 65.7502L97.2129 65.7502L97.2129 69.5007Z" fill="#6A1840"/>
<path d="M76.5184 52.496L76.508 51.0144L76.5165 49.2151C76.5165 49.1305 76.5013 49.0515 76.4918 48.9697L76.4471 42.9138V32.0069C76.4471 28.1107 73.2737 24.9412 69.3726 24.9412C66.7384 24.9412 64.4646 26.4038 63.2473 28.5416C62.0595 27.7209 60.6368 27.2235 59.0962 27.2216C56.324 27.2245 53.9077 28.7708 52.6607 31.0446C51.627 30.5015 50.4687 30.2029 49.2743 30.2029C46.9073 30.2029 44.8198 31.3479 43.4789 33.1139C43.457 33.1424 43.4342 33.1681 43.4123 33.1957C43.2735 33.384 43.146 33.577 43.0253 33.7796C42.9854 33.8433 42.9397 33.9013 42.9017 33.966C41.7976 33.344 40.5223 33.0283 39.1756 33.0949C35.5628 33.2965 32.7794 36.2863 32.746 39.8478C32.7422 39.8877 32.7299 39.9239 32.727 39.9648C32.5092 43.5786 32.4151 47.0648 32.3789 50.5007L32.3438 50.5016L32.3713 51.4583C32.339 57.2783 32.5377 62.9092 33.0313 68.4183C33.0522 68.6484 33.1169 68.8671 33.2177 69.0687C33.8235 73.7827 35.9023 78.2248 39.1358 81.7244L39.0816 121.315C39.0816 122.444 39.9964 123.359 41.1262 123.359C42.256 123.359 43.1708 122.444 43.1708 121.315L43.1699 88.8746L43.2317 80.9205C43.2374 80.3737 43.0215 79.8478 42.6345 79.4608C39.557 76.3757 37.6313 72.2959 37.2101 67.9756C37.1892 67.7673 37.1321 67.5676 37.0465 67.3841C36.7631 64.0756 36.6072 60.7081 36.5178 57.2951C37.3613 57.6385 38.2819 57.842 39.25 57.842C39.3566 57.842 39.464 57.841 39.5705 57.8353C41.5353 57.7564 43.2803 56.8786 44.4749 55.5311C45.6846 56.6105 47.2412 57.2885 48.9644 57.2885C50.9101 57.2885 52.6591 56.4459 53.9133 55.107C54.6237 55.8259 55.4825 56.3956 56.4467 56.7731C52.9376 60.9642 50.9405 66.2916 50.9405 71.8833V75.4562C50.9405 76.585 51.8563 77.5008 52.9851 77.5008C54.114 77.5008 55.0298 76.585 55.0298 75.4562V71.8833C55.0298 65.5535 58.1243 59.6278 63.3042 55.979C63.3803 55.9257 63.4621 55.8877 63.5372 55.8316C64.0156 55.474 64.2857 54.9471 64.3399 54.3956C64.5263 53.4893 65.1672 50.9529 65.4145 50.1256C65.7007 49.1632 65.2481 48.1362 64.3446 47.7006L61.7845 46.4653C61.7807 46.4643 61.7759 46.4624 61.7721 46.4615L59.1085 45.1758L57.5327 44.3294C56.5675 43.8577 55.9236 42.9048 55.8571 41.8396C55.8057 41.0388 56.0672 40.2667 56.5988 39.6609C57.1276 39.0579 57.857 38.6966 58.6492 38.6462C59.0981 38.6176 59.5298 38.6861 59.9387 38.8449L63.4953 40.221C63.5467 40.2457 63.5999 40.2628 63.6551 40.2828L72.3615 43.6503L72.4176 51.0213L72.3558 63.9282C72.3558 70.9095 69.6644 77.4988 64.7783 82.483C64.4045 82.8643 64.1934 83.3788 64.1934 83.9142V121.311C64.1934 122.44 65.1092 123.356 66.2381 123.356C67.3669 123.356 68.2827 122.44 68.2827 121.311L68.2836 84.7371C73.5532 79.0624 76.4449 71.7075 76.4449 63.9474L76.4982 52.7001C76.5048 52.6297 76.5181 52.5641 76.5181 52.4947L76.5184 52.496ZM66.3886 32.005C66.3886 30.3636 67.7257 29.0283 69.3718 29.0283C71.0171 29.0283 72.3561 30.3626 72.3561 32.005V39.2658L66.3886 36.9587V32.005ZM41.9678 51.7247C41.8584 52.826 40.7572 53.6971 39.4011 53.7503C37.8956 53.8169 36.5405 52.8174 36.4672 51.641L36.4586 51.3491C36.4815 47.7238 36.5775 44.0379 36.8077 40.2092C36.8086 40.1844 36.8048 40.1626 36.8048 40.1397C36.8048 40.1093 36.8105 40.0808 36.8086 40.0513C36.7268 38.5506 37.8899 37.2621 39.3924 37.1783C40.5108 37.1193 41.5397 37.7698 42.0085 38.7912L42.0722 40.2253V49.0638H42.0684L41.9678 51.7247ZM51.7592 50.1975C51.7592 51.8541 50.5049 53.2007 48.9634 53.2007C47.419 53.2007 46.1618 51.8541 46.1618 50.1975V39.7545C46.1618 39.6423 46.1456 39.5368 46.1294 39.4303L46.0695 38.0789C46.0667 38.0152 46.0609 37.9496 46.0514 37.8849C46.0362 37.7812 46.0296 37.6814 46.0286 37.5292C46.0286 37.3276 46.0533 37.1298 46.0885 36.9377C46.3976 35.4703 47.7005 34.3664 49.2554 34.3664C50.2387 34.3664 51.1488 34.8466 51.7583 35.6122V50.1974L51.7592 50.1975ZM57.2513 48.8204L60.0062 50.1528C60.0091 50.1537 60.0129 50.1537 60.0167 50.1556L61.038 50.6492C60.8402 51.4109 60.6377 52.2392 60.4836 52.904C60.0652 53.0932 59.6087 53.2017 59.1313 53.2017C57.3834 53.2017 55.9598 51.8551 55.9598 50.1984C55.9598 49.9778 55.9161 49.7686 55.8505 49.5689V48.0691L57.2513 48.8204ZM58.3896 34.5689C57.5024 34.626 56.6541 34.858 55.8687 35.2223V34.8599C55.8687 34.8371 55.863 34.8162 55.862 34.7934C55.862 34.781 55.8658 34.7705 55.8658 34.7591C55.8658 34.7458 55.8535 34.567 55.8525 34.5547C55.8525 34.3388 55.8772 34.1277 55.9162 33.9251C56.2395 32.4815 57.5281 31.3973 59.0697 31.3973C60.8518 31.3973 62.2993 32.8466 62.2993 34.627V35.3783L61.4263 35.0397C60.4592 34.6612 59.4368 34.5043 58.3897 34.569L58.3896 34.5689Z" fill="black"/>
<path d="M38.1347 16.6325C38.1347 15.8203 37.6535 15.0852 36.9089 14.759L27.942 10.8382L24.0183 1.86646C23.6921 1.12183 22.9579 0.640625 22.1439 0.640625C21.3299 0.640625 20.5947 1.12183 20.2695 1.86646L16.3477 10.8389L7.37427 14.7597C6.62965 15.0859 6.14844 15.8201 6.14844 16.6332C6.14844 17.4453 6.62965 18.1824 7.37427 18.5076L16.3477 22.4342L20.2695 31.405C20.5957 32.1496 21.3299 32.6308 22.1439 32.6308C22.9579 32.6308 23.6912 32.1496 24.0183 31.405L27.942 22.4325L36.9089 18.5078C37.6535 18.1797 38.1347 17.4455 38.1347 16.6325ZM25.5704 19.0061C25.0987 19.2115 24.7221 19.5881 24.5167 20.0598L22.1458 25.4805L19.776 20.0598C19.5706 19.5881 19.1921 19.2115 18.7223 19.0061L13.3006 16.6344L18.7223 14.2645C19.194 14.0591 19.5715 13.6825 19.7779 13.2108L22.1477 7.79007L24.5186 13.2108C24.724 13.6825 25.1025 14.0591 25.5723 14.2645L30.9901 16.6344L25.5704 19.0061Z" fill="#6A1840"/>
</svg>
