<svg width="44" height="44" viewBox="0 0 44 44" fill="none" xmlns="http://www.w3.org/2000/svg">
<rect width="44" height="44" rx="22" fill="#E2E2E2"/>
<path d="M27.1527 25.0943H26.0686L25.6844 24.7238C27.0292 23.1595 27.8388 21.1286 27.8388 18.9194C27.8388 13.9931 23.8456 10 18.9194 10C13.9931 10 10 13.9931 10 18.9194C10 23.8456 13.9931 27.8388 18.9194 27.8388C21.1286 27.8388 23.1595 27.0292 24.7238 25.6844L25.0943 26.0686V27.1527L31.9554 34L34 31.9554L27.1527 25.0943ZM18.9194 25.0943C15.5026 25.0943 12.7444 22.3362 12.7444 18.9194C12.7444 15.5026 15.5026 12.7444 18.9194 12.7444C22.3362 12.7444 25.0943 15.5026 25.0943 18.9194C25.0943 22.3362 22.3362 25.0943 18.9194 25.0943Z" fill="black"/>
</svg>
