<svg width="15" height="13" viewBox="0 0 15 13" fill="none" xmlns="http://www.w3.org/2000/svg">
<path d="M14.9111 2.09289C14.3669 2.32937 13.8186 2.50469 13.2135 2.56177C13.8186 2.21113 14.306 1.61993 14.5456 0.975736C13.9405 1.32637 13.3354 1.56285 12.6693 1.68109C12.0602 1.09397 11.2723 0.739258 10.4235 0.739258C8.78686 0.739258 7.45074 2.03581 7.45074 3.62592C7.45074 3.85832 7.45074 4.09479 7.51166 4.27419C4.38456 4.27419 2.24027 2.50469 0.786372 0.739258C0.481785 1.15105 0.359949 1.68109 0.359949 2.21113C0.359949 3.21004 0.908207 4.09479 1.69607 4.62483C1.20873 4.56775 0.725454 4.44951 0.359949 4.27419C0.359949 4.27419 0.359949 4.27419 0.359949 4.33127C0.359949 5.74606 1.39149 6.9203 2.72761 7.15677C2.48394 7.21385 2.24027 7.27501 1.93568 7.27501C1.75699 7.27501 1.57424 7.27501 1.39149 7.21793C1.75699 8.39624 3.4505 9.74987 4.78256 9.74987C3.75102 10.5123 2.79259 11.1769 0.875717 11.1769C0.632047 11.1769 0.826983 11.1769 0.355888 11.1769C1.68795 12.0005 3.26774 12.2207 4.90439 12.2207C10.4235 12.2207 13.3963 7.80505 13.3963 3.97656C13.3963 3.85832 13.3963 3.74415 13.3963 3.62592C14.0014 3.21004 14.4887 2.68408 14.9111 2.09289Z" fill="white"/>
</svg>
