<svg width="14" height="12" viewBox="0 0 14 12" fill="none" xmlns="http://www.w3.org/2000/svg">
<path d="M7.11306 0.450928C4.93725 0.450928 2.1132 0.998243 2.1132 0.998243L2.10609 1.0064C1.11512 1.16551 0.355888 2.02041 0.355888 3.0601V6.19112V6.19214V9.32213V9.32315C0.356855 9.81969 0.534106 10.2996 0.855814 10.6768C1.17752 11.0539 1.62261 11.3036 2.11117 11.3809L2.1132 11.384C2.1132 11.384 4.93725 11.9323 7.11306 11.9323C9.28887 11.9323 12.1129 11.384 12.1129 11.384L12.1139 11.383C12.603 11.3058 13.0486 11.0559 13.3706 10.6783C13.6925 10.3007 13.8697 9.8202 13.8702 9.32315V9.32213V6.19214V6.19112V3.0601C13.8695 2.56338 13.6924 2.0832 13.3706 1.70584C13.0489 1.32848 12.6037 1.07867 12.115 1.0013L12.1129 0.998243C12.1129 0.998243 9.28887 0.450928 7.11306 0.450928ZM5.55371 3.78986L9.71198 6.19112L5.55371 8.59238V3.78986Z" fill="white"/>
</svg>
